<svg width="160" height="160" viewBox="0 0 160 160" fill="none" xmlns="http://www.w3.org/2000/svg">
<circle r="80" transform="matrix(-1 0 0 1 80 80)" fill="#571EB5"/>
<path fill-rule="evenodd" clip-rule="evenodd" d="M65.829 42.3334L34.0747 97.3334C33.3049 98.6667 34.2672 100.333 35.8068 100.333H65.5526L84.166 68.0941L69.2931 42.3334C68.5233 41.0001 66.5988 41.0001 65.829 42.3334ZM84.7434 69.0941L66.7073 100.333H99.3153C100.855 100.333 101.817 98.6667 101.047 97.3334L84.7434 69.0941ZM85.3207 68.0941L101.913 96.8334C103.068 98.8334 101.625 101.333 99.3153 101.333H66.13L60.7414 110.667C59.9716 112 60.9338 113.667 62.4734 113.667H125.982C127.522 113.667 128.484 112 127.714 110.667L95.9598 55.6667C95.19 54.3334 93.2655 54.3334 92.4957 55.6667L85.3207 68.0941ZM84.7434 67.0941L91.6296 55.1667C92.7843 53.1667 95.6711 53.1667 96.8258 55.1667L128.58 110.167C129.735 112.167 128.291 114.667 125.982 114.667H62.4734C60.164 114.667 58.7207 112.167 59.8754 110.167L64.9753 101.333H35.8068C33.4974 101.333 32.054 98.8334 33.2087 96.8334L64.963 41.8334C66.1177 39.8334 69.0044 39.8334 70.1591 41.8334L84.7434 67.0941Z" fill="#5E81F4"/>
<path d="M34.0747 97.3334L34.5077 97.5834L34.0747 97.3334ZM65.829 42.3334L65.396 42.0834V42.0834L65.829 42.3334ZM65.5526 100.333L65.9856 100.583L65.8413 100.833H65.5526V100.333ZM84.166 68.0941L84.599 67.8441L84.7434 68.0941L84.599 68.3441L84.166 68.0941ZM69.2931 42.3334L68.8601 42.5834V42.5834L69.2931 42.3334ZM66.7073 100.333V100.833H65.8413L66.2743 100.083L66.7073 100.333ZM84.7434 69.0941L84.3104 68.8441L84.7434 68.0941L85.1764 68.8441L84.7434 69.0941ZM101.047 97.3334L100.614 97.5834L101.047 97.3334ZM85.3207 68.0941L84.8877 68.3441L84.7434 68.0941L84.8877 67.8441L85.3207 68.0941ZM101.913 96.8334L102.346 96.5834L101.913 96.8334ZM66.13 101.333L65.697 101.083L65.8413 100.833H66.13V101.333ZM60.7414 110.667L61.1744 110.917L60.7414 110.667ZM127.714 110.667L127.281 110.917H127.281L127.714 110.667ZM95.9598 55.6667L95.5267 55.9167L95.9598 55.6667ZM92.4957 55.6667L92.0626 55.4167L92.4957 55.6667ZM84.7434 67.0941L85.1764 67.3441L84.7434 68.0941L84.3104 67.3441L84.7434 67.0941ZM91.6296 55.1667L91.1966 54.9167L91.6296 55.1667ZM96.8258 55.1667L97.2588 54.9167L96.8258 55.1667ZM128.58 110.167L128.147 110.417H128.147L128.58 110.167ZM59.8754 110.167L60.3084 110.417L59.8754 110.167ZM64.9753 101.333V100.833H65.8413L65.4083 101.583L64.9753 101.333ZM33.2087 96.8334L32.7757 96.5834L33.2087 96.8334ZM64.963 41.8334L64.5299 41.5834V41.5834L64.963 41.8334ZM70.1591 41.8334L70.5921 41.5834V41.5834L70.1591 41.8334ZM33.6417 97.0834L65.396 42.0834L66.262 42.5834L34.5077 97.5834L33.6417 97.0834ZM35.8068 100.833C33.8823 100.833 32.6794 98.7501 33.6417 97.0834L34.5077 97.5834C33.9304 98.5834 34.6521 99.8334 35.8068 99.8334V100.833ZM65.5526 100.833H35.8068V99.8334H65.5526V100.833ZM65.1196 100.083L83.733 67.8441L84.599 68.3441L65.9856 100.583L65.1196 100.083ZM69.7261 42.0834L84.599 67.8441L83.733 68.3441L68.8601 42.5834L69.7261 42.0834ZM65.396 42.0834C66.3582 40.4167 68.7638 40.4167 69.7261 42.0834L68.8601 42.5834C68.2827 41.5834 66.8393 41.5834 66.262 42.5834L65.396 42.0834ZM66.2743 100.083L84.3104 68.8441L85.1764 69.3441L67.1403 100.583L66.2743 100.083ZM99.3153 100.833H66.7073V99.8334H99.3153V100.833ZM101.48 97.0834C102.443 98.7501 101.24 100.833 99.3153 100.833V99.8334C100.47 99.8334 101.192 98.5834 100.614 97.5834L101.48 97.0834ZM85.1764 68.8441L101.48 97.0834L100.614 97.5834L84.3104 69.3441L85.1764 68.8441ZM85.7537 67.8441L102.346 96.5834L101.48 97.0834L84.8877 68.3441L85.7537 67.8441ZM102.346 96.5834C103.694 98.9167 102.01 101.833 99.3153 101.833V100.833C101.24 100.833 102.443 98.7501 101.48 97.0834L102.346 96.5834ZM99.3153 101.833H66.13V100.833H99.3153V101.833ZM60.3084 110.417L65.697 101.083L66.563 101.583L61.1744 110.917L60.3084 110.417ZM62.4734 114.167C60.5489 114.167 59.3461 112.083 60.3084 110.417L61.1744 110.917C60.5971 111.917 61.3187 113.167 62.4734 113.167V114.167ZM125.982 114.167H62.4734V113.167H125.982V114.167ZM128.147 110.417C129.109 112.083 127.906 114.167 125.982 114.167V113.167C127.137 113.167 127.858 111.917 127.281 110.917L128.147 110.417ZM96.3928 55.4167L128.147 110.417L127.281 110.917L95.5267 55.9167L96.3928 55.4167ZM92.0626 55.4167C93.0249 53.75 95.4305 53.75 96.3928 55.4167L95.5267 55.9167C94.9494 54.9167 93.506 54.9167 92.9287 55.9167L92.0626 55.4167ZM84.8877 67.8441L92.0626 55.4167L92.9287 55.9167L85.7537 68.3441L84.8877 67.8441ZM84.3104 66.8441L91.1966 54.9167L92.0626 55.4167L85.1764 67.3441L84.3104 66.8441ZM91.1966 54.9167C92.5438 52.5834 95.9116 52.5834 97.2588 54.9167L96.3928 55.4167C95.4305 53.75 93.0249 53.75 92.0626 55.4167L91.1966 54.9167ZM97.2588 54.9167L129.013 109.917L128.147 110.417L96.3928 55.4167L97.2588 54.9167ZM129.013 109.917C130.36 112.25 128.676 115.167 125.982 115.167V114.167C127.906 114.167 129.109 112.083 128.147 110.417L129.013 109.917ZM125.982 115.167H62.4734V114.167H125.982V115.167ZM62.4734 115.167C59.7791 115.167 58.0952 112.25 59.4424 109.917L60.3084 110.417C59.3461 112.083 60.5489 114.167 62.4734 114.167V115.167ZM59.4424 109.917L64.5423 101.083L65.4083 101.583L60.3084 110.417L59.4424 109.917ZM64.9753 101.833H35.8068V100.833H64.9753V101.833ZM35.8068 101.833C33.1125 101.833 31.4285 98.9167 32.7757 96.5834L33.6417 97.0834C32.6795 98.7501 33.8823 100.833 35.8068 100.833V101.833ZM32.7757 96.5834L64.5299 41.5834L65.396 42.0834L33.6417 97.0834L32.7757 96.5834ZM64.5299 41.5834C65.8771 39.2501 69.245 39.2501 70.5921 41.5834L69.7261 42.0834C68.7638 40.4167 66.3582 40.4167 65.396 42.0834L64.5299 41.5834ZM70.5921 41.5834L85.1764 66.8441L84.3104 67.3441L69.7261 42.0834L70.5921 41.5834Z" fill="white"/>
</svg>
