<?xml version="1.0" encoding="utf-8"?>
<!-- Generator: Adobe Illustrator 25.3.1, SVG Export Plug-In . SVG Version: 6.00 Build 0)  -->
<svg version="1.1" id="Layer_1" xmlns="http://www.w3.org/2000/svg" xmlns:xlink="http://www.w3.org/1999/xlink" x="0px" y="0px"
	 viewBox="0 0 20 20" style="enable-background:new 0 0 20 20;" xml:space="preserve">
<style type="text/css">
	.st0{fill:#6172F3;}
</style>
<path class="st0" d="M5.8,7.5c0-0.5,0.4-0.8,0.8-0.8h1.7c0.5,0,0.8,0.4,0.8,0.8S8.8,8.3,8.3,8.3H6.7C6.2,8.3,5.8,8,5.8,7.5z
	 M17.5,6.7C17.5,6.7,17.5,6.7,17.5,6.7C17.5,6.7,17.5,6.7,17.5,6.7C17.5,6.7,17.5,6.7,17.5,6.7C17.5,6.7,17.5,6.7,17.5,6.7v10
	c0,0.7-0.3,1.3-0.7,1.8c-0.5,0.5-1.1,0.7-1.8,0.7H5c-0.7,0-1.3-0.3-1.8-0.7s-0.7-1.1-0.7-1.8V3.3c0-0.7,0.3-1.3,0.7-1.8
	C3.7,1.1,4.3,0.8,5,0.8h6.7c0.1,0,0.2,0,0.3,0.1c0,0,0,0,0,0c0.1,0,0.2,0.1,0.3,0.2l5,5c0.1,0.1,0.1,0.2,0.2,0.3
	C17.5,6.4,17.5,6.5,17.5,6.7z M12.5,5.8h2.1l-2.1-2.1V5.8z M15.8,7.5h-4.2c-0.5,0-0.8-0.4-0.8-0.8V2.5H5c-0.2,0-0.4,0.1-0.6,0.2
	C4.3,2.9,4.2,3.1,4.2,3.3v13.3c0,0.2,0.1,0.4,0.2,0.6c0.2,0.2,0.4,0.2,0.6,0.2h10c0.2,0,0.4-0.1,0.6-0.2c0.2-0.2,0.2-0.4,0.2-0.6
	V7.5z M5.8,10.8c0,0.5,0.4,0.8,0.8,0.8h6.7c0.5,0,0.8-0.4,0.8-0.8S13.8,10,13.3,10H6.7C6.2,10,5.8,10.4,5.8,10.8z M13.3,13.3H6.7
	c-0.5,0-0.8,0.4-0.8,0.8S6.2,15,6.7,15h6.7c0.5,0,0.8-0.4,0.8-0.8S13.8,13.3,13.3,13.3z"/>
</svg>
