<?xml version="1.0" encoding="utf-8"?>
<!-- Generator: Adobe Illustrator 25.3.1, SVG Export Plug-In . SVG Version: 6.00 Build 0)  -->
<svg version="1.1" id="Layer_1" xmlns="http://www.w3.org/2000/svg" xmlns:xlink="http://www.w3.org/1999/xlink" x="0px" y="0px"
	 viewBox="0 0 16 16" style="enable-background:new 0 0 16 16;" xml:space="preserve">
<style type="text/css">
	.st0{fill:#7F56D9;}
</style>
<path class="st0" d="M5.7,4C4.7,4,4,4.7,4,5.7s0.7,1.7,1.7,1.7s1.7-0.7,1.7-1.7S6.6,4,5.7,4z M5.7,6C5.5,6,5.3,5.9,5.3,5.7
	s0.1-0.3,0.3-0.3S6,5.5,6,5.7S5.9,6,5.7,6z M12.7,1.3H3.3c-1.1,0-2,0.9-2,2v9.3c0,1.1,0.9,2,2,2h9.3c1.1,0,2-0.9,2-2V3.3
	C14.7,2.2,13.8,1.3,12.7,1.3z M13.3,12.7c0,0.4-0.3,0.7-0.7,0.7H4.9l5.7-5.7l2.7,2.7V12.7z M13.3,8.4l-2.2-2.2C11,6.1,10.8,6,10.7,6
	s-0.3,0.1-0.5,0.2l-7.1,7.1c-0.3-0.1-0.4-0.3-0.4-0.6V3.3C2.7,3,3,2.7,3.3,2.7h9.3c0.4,0,0.7,0.3,0.7,0.7V8.4z"/>
</svg>
