<?xml version="1.0" encoding="utf-8"?>
<!-- Generator: Adobe Illustrator 25.3.1, SVG Export Plug-In . SVG Version: 6.00 Build 0)  -->
<svg version="1.1" id="Layer_1" xmlns="http://www.w3.org/2000/svg" xmlns:xlink="http://www.w3.org/1999/xlink" x="0px" y="0px"
	 viewBox="0 0 20 20" style="enable-background:new 0 0 20 20;" xml:space="preserve">
<style type="text/css">
	.st0{fill:#667085;}
</style>
<path class="st0" d="M18.3,9.1C18.2,7.2,17.4,5.3,16,4c-1.4-1.4-3.2-2.2-5.2-2.3h-0.4C9.2,1.7,8,2,6.9,2.5C5.6,3.2,4.5,4.2,3.7,5.4
	C2.9,6.7,2.5,8.1,2.5,9.6c0,1.1,0.2,2.2,0.7,3.2l-1.5,4.4c-0.1,0.3,0,0.6,0.2,0.9c0.2,0.2,0.4,0.2,0.6,0.2c0.1,0,0.2,0,0.3,0
	l4.4-1.5c1,0.5,2.1,0.7,3.2,0.7c1.5,0,2.9-0.4,4.2-1.2c1.3-0.8,2.3-1.9,2.9-3.2c0.6-1.1,0.8-2.3,0.8-3.5L18.3,9.1z M16.7,9.6
	C16.7,9.6,16.7,9.6,16.7,9.6c0,1-0.2,1.9-0.7,2.8c-0.5,1-1.3,1.9-2.3,2.5c-1,0.6-2.1,0.9-3.3,0.9c-1,0-1.9-0.2-2.8-0.7
	c-0.2-0.1-0.4-0.1-0.6,0l-3.2,1.1L4.9,13c0.1-0.2,0.1-0.4,0-0.6c-0.4-0.9-0.7-1.8-0.7-2.8c0-1.2,0.3-2.3,0.9-3.3
	c0.6-1,1.5-1.8,2.5-2.3c0.9-0.4,1.8-0.7,2.8-0.7c0,0,0,0,0,0l0.4,0c1.5,0.1,3,0.7,4.1,1.8c1.1,1.1,1.7,2.5,1.8,4V9.6z"/>
</svg>
