<svg width="32" height="32" viewBox="0 0 32 32" fill="none" xmlns="http://www.w3.org/2000/svg">
<circle cx="16" cy="16" r="16" fill="#835AFD"/>
<path d="M20.9229 21.5385V20.3077C20.9229 19.6549 20.6636 19.0288 20.202 18.5671C19.7403 18.1055 19.1142 17.8462 18.4614 17.8462H13.5383C12.8855 17.8462 12.2594 18.1055 11.7977 18.5671C11.3361 19.0288 11.0768 19.6549 11.0768 20.3077V21.5385" stroke="#F8F8F8" stroke-width="1.5" stroke-linecap="round" stroke-linejoin="round"/>
<path d="M15.9998 15.3846C17.3593 15.3846 18.4614 14.2826 18.4614 12.9231C18.4614 11.5636 17.3593 10.4615 15.9998 10.4615C14.6404 10.4615 13.5383 11.5636 13.5383 12.9231C13.5383 14.2826 14.6404 15.3846 15.9998 15.3846Z" stroke="#F8F8F8" stroke-width="1.5" stroke-linecap="round" stroke-linejoin="round"/>
</svg>
