<?xml version="1.0" encoding="utf-8"?>
<!-- Generator: Adobe Illustrator 25.3.1, SVG Export Plug-In . SVG Version: 6.00 Build 0)  -->
<svg version="1.1" id="Layer_1" xmlns="http://www.w3.org/2000/svg" xmlns:xlink="http://www.w3.org/1999/xlink" x="0px" y="0px"
	 viewBox="0 0 20 20" style="enable-background:new 0 0 20 20;" xml:space="preserve">
<style type="text/css">
	.st0{fill:#050000;}
</style>
<path class="st0" d="M16.7,6.8H9.2c-1.3,0-2.4,1.1-2.4,2.4v7.5c0,1.3,1.1,2.4,2.4,2.4h7.5c1.3,0,2.4-1.1,2.4-2.4V9.2
	C19.1,7.8,18,6.8,16.7,6.8z M17.6,16.7c0,0.5-0.4,0.9-0.9,0.9H9.2c-0.5,0-0.9-0.4-0.9-0.9V9.2c0-0.5,0.4-0.9,0.9-0.9h7.5
	c0.5,0,0.9,0.4,0.9,0.9V16.7z M4.9,12.5c0,0.4-0.3,0.8-0.8,0.8H3.3c-0.6,0-1.3-0.3-1.7-0.7c-0.5-0.5-0.7-1.1-0.7-1.7V3.3
	c0-0.6,0.3-1.3,0.7-1.7s1.1-0.7,1.7-0.7h7.5c0.6,0,1.3,0.3,1.7,0.7c0.5,0.5,0.7,1.1,0.7,1.7v0.8c0,0.4-0.3,0.8-0.8,0.8
	s-0.8-0.3-0.8-0.8V3.3c0-0.2-0.1-0.5-0.3-0.6s-0.4-0.3-0.6-0.3H3.3c-0.2,0-0.5,0.1-0.6,0.3S2.4,3.1,2.4,3.3v7.5
	c0,0.2,0.1,0.5,0.3,0.6s0.4,0.3,0.6,0.3h0.8C4.6,11.8,4.9,12.1,4.9,12.5z"/>
</svg>
