<?xml version="1.0" encoding="utf-8"?>
<!-- Generator: Adobe Illustrator 25.3.1, SVG Export Plug-In . SVG Version: 6.00 Build 0)  -->
<svg version="1.1" id="Layer_1" xmlns="http://www.w3.org/2000/svg" xmlns:xlink="http://www.w3.org/1999/xlink" x="0px" y="0px"
	 viewBox="0 0 20 20" style="enable-background:new 0 0 20 20;" xml:space="preserve">
<path d="M18.2,4.2v11.7c0,0.6-0.3,1.3-0.7,1.7c-0.5,0.5-1.1,0.7-1.7,0.7h-3.3c-0.4,0-0.8-0.3-0.8-0.8s0.3-0.8,0.8-0.8h3.3
	c0.2,0,0.5-0.1,0.6-0.3s0.3-0.4,0.3-0.6V4.2c0-0.2-0.1-0.5-0.3-0.6c-0.2-0.2-0.4-0.3-0.6-0.3h-3.3c-0.4,0-0.8-0.3-0.8-0.8
	s0.3-0.8,0.8-0.8h3.3c0.6,0,1.3,0.3,1.7,0.7C18,2.9,18.2,3.5,18.2,4.2z M13.2,10.3c0.1-0.2,0.1-0.4,0-0.6c0-0.1-0.1-0.2-0.2-0.2
	L8.9,5.3C8.6,5,8.1,5,7.8,5.3s-0.3,0.8,0,1.1l2.9,2.9H2.5c-0.4,0-0.8,0.3-0.8,0.8s0.3,0.8,0.8,0.8h8.2l-2.9,2.9
	c-0.3,0.3-0.3,0.8,0,1.1c0.1,0.1,0.3,0.2,0.5,0.2s0.4-0.1,0.5-0.2l4.2-4.2C13.1,10.5,13.2,10.4,13.2,10.3z"/>
</svg>
