<svg width="157" height="75" viewBox="0 0 157 75" fill="none" xmlns="http://www.w3.org/2000/svg">
<path d="M0 18.999H4.47282V40.2736H0V18.999Z" fill="#29292E"/>
<path d="M22.5872 32.6182C22.5872 32.6755 22.5585 33.0769 22.5012 33.8224H10.8317C11.042 34.7781 11.5389 35.5332 12.3226 36.0875C13.1063 36.6418 14.0812 36.919 15.2472 36.919C16.05 36.919 16.7572 36.8043 17.3689 36.5749C17.9997 36.3264 18.5827 35.9441 19.1179 35.428L21.4977 38.0085C20.0449 39.6715 17.9232 40.503 15.1325 40.503C13.3931 40.503 11.8543 40.1685 10.5163 39.4994C9.1783 38.8113 8.14611 37.8651 7.41975 36.6609C6.6934 35.4567 6.33022 34.09 6.33022 32.5608C6.33022 31.0508 6.68384 29.6936 7.39108 28.4894C8.11744 27.2661 9.10184 26.3199 10.3443 25.6509C11.6059 24.9628 13.0108 24.6187 14.5591 24.6187C16.0691 24.6187 17.4358 24.9437 18.6591 25.5936C19.8825 26.2435 20.8382 27.1801 21.5263 28.4034C22.2336 29.6076 22.5872 31.0126 22.5872 32.6182ZM14.5877 28.002C13.5747 28.002 12.7241 28.2887 12.0359 28.8622C11.3478 29.4356 10.9273 30.2193 10.7744 31.2133H18.3724C18.2195 30.2384 17.799 29.4643 17.1109 28.8908C16.4227 28.2983 15.5817 28.002 14.5877 28.002Z" fill="#29292E"/>
<path d="M34.3673 39.5281C33.9277 39.8531 33.3829 40.1016 32.733 40.2736C32.1022 40.4265 31.4332 40.503 30.726 40.503C28.891 40.503 27.4669 40.0346 26.4539 39.098C25.4599 38.1614 24.9629 36.7852 24.9629 34.9693V28.6328H22.5832V25.1922H24.9629V21.4361H29.4357V25.1922H33.2778V28.6328H29.4357V34.9119C29.4357 35.5618 29.5982 36.0684 29.9232 36.4315C30.2672 36.7756 30.7451 36.9476 31.3568 36.9476C32.064 36.9476 32.6661 36.7565 33.1631 36.3742L34.3673 39.5281Z" fill="#29292E"/>
<path d="M55.4862 24.6187C57.4168 24.6187 58.9459 25.1922 60.0737 26.339C61.2206 27.4668 61.794 29.168 61.794 31.4426V40.2736H57.3212V32.1308C57.3212 30.9074 57.0631 29.9995 56.5471 29.4069C56.0501 28.7953 55.3333 28.4894 54.3967 28.4894C53.3454 28.4894 52.5139 28.8335 51.9022 29.5216C51.2905 30.1906 50.9847 31.1941 50.9847 32.5322V40.2736H46.5119V32.1308C46.5119 29.7032 45.537 28.4894 43.5873 28.4894C42.5552 28.4894 41.7332 28.8335 41.1216 29.5216C40.5099 30.1906 40.2041 31.1941 40.2041 32.5322V40.2736H35.7312V24.8481H40.0034V26.6258C40.5768 25.9759 41.2745 25.4789 42.0964 25.1348C42.9375 24.7908 43.855 24.6187 44.8489 24.6187C45.9384 24.6187 46.9228 24.8385 47.8021 25.2782C48.6814 25.6987 49.3886 26.3199 49.9238 27.1418C50.5546 26.339 51.3479 25.7178 52.3036 25.2782C53.2785 24.8385 54.3393 24.6187 55.4862 24.6187Z" fill="#29292E"/>
<path d="M79.9344 32.6182C79.9344 32.6755 79.9057 33.0769 79.8484 33.8224H68.1789C68.3891 34.7781 68.8861 35.5332 69.6698 36.0875C70.4535 36.6418 71.4284 36.919 72.5944 36.919C73.3972 36.919 74.1044 36.8043 74.7161 36.5749C75.3469 36.3264 75.9299 35.9441 76.4651 35.428L78.8448 38.0085C77.3921 39.6715 75.2704 40.503 72.4797 40.503C70.7402 40.503 69.2015 40.1685 67.8635 39.4994C66.5255 38.8113 65.4933 37.8651 64.7669 36.6609C64.0406 35.4567 63.6774 34.09 63.6774 32.5608C63.6774 31.0508 64.031 29.6936 64.7383 28.4894C65.4646 27.2661 66.449 26.3199 67.6915 25.6509C68.953 24.9628 70.3579 24.6187 71.9062 24.6187C73.4163 24.6187 74.783 24.9437 76.0063 25.5936C77.2297 26.2435 78.1854 27.1801 78.8735 28.4034C79.5807 29.6076 79.9344 31.0126 79.9344 32.6182ZM71.9349 28.002C70.9218 28.002 70.0712 28.2887 69.3831 28.8622C68.695 29.4356 68.2745 30.2193 68.1215 31.2133H75.7196C75.5667 30.2384 75.1462 29.4643 74.458 28.8908C73.7699 28.2983 72.9289 28.002 71.9349 28.002Z" fill="#29292E"/>
<path d="M106.086 24.8481L103.018 40.2736H98.7747L99.0615 38.754C97.7808 39.92 96.2038 40.503 94.3306 40.503C93.1264 40.503 92.0177 40.2258 91.0047 39.6715C89.9916 39.1171 89.1792 38.3239 88.5675 37.2917C87.975 36.2404 87.6787 35.0075 87.6787 33.593C87.6787 31.8918 88.0514 30.3627 88.7969 29.0055C89.5615 27.6293 90.5937 26.5589 91.8935 25.7943C93.1933 25.0106 94.6269 24.6187 96.1943 24.6187C98.5645 24.6187 100.237 25.3929 101.212 26.9411L101.613 24.8481H106.086ZM95.7068 36.8043C96.5861 36.8043 97.3698 36.594 98.0579 36.1735C98.7461 35.7339 99.2813 35.1318 99.6636 34.3672C100.046 33.6026 100.237 32.7233 100.237 31.7294C100.237 30.6781 99.9216 29.8466 99.2908 29.2349C98.6792 28.6232 97.819 28.3174 96.7104 28.3174C95.8311 28.3174 95.0474 28.5372 94.3593 28.9768C93.6711 29.3974 93.1359 29.9899 92.7536 30.7545C92.3713 31.5191 92.1802 32.3984 92.1802 33.3923C92.1802 34.4436 92.486 35.2751 93.0977 35.8868C93.7285 36.4984 94.5982 36.8043 95.7068 36.8043Z" fill="url(#paint0_linear)"/>
<path d="M111.632 40.503C110.294 40.503 109.023 40.3596 107.819 40.0729C106.634 39.767 105.707 39.3752 105.038 38.8973L106.758 35.6574C107.427 36.097 108.239 36.4507 109.195 36.7183C110.17 36.9859 111.145 37.1197 112.119 37.1197C113.133 37.1197 113.888 36.9954 114.385 36.7469C114.882 36.4793 115.13 36.1066 115.13 35.6287C115.13 35.2464 114.91 34.9693 114.471 34.7972C114.031 34.6252 113.324 34.4436 112.349 34.2525C111.24 34.0422 110.323 33.8128 109.596 33.5644C108.889 33.3159 108.268 32.9145 107.733 32.3601C107.217 31.7867 106.959 31.0126 106.959 30.0377C106.959 28.3365 107.666 27.008 109.08 26.0523C110.514 25.0966 112.387 24.6187 114.7 24.6187C115.77 24.6187 116.812 24.7334 117.825 24.9628C118.838 25.1922 119.698 25.5075 120.406 25.909L118.8 29.1776C117.538 28.3939 116.019 28.002 114.241 28.002C113.266 28.002 112.521 28.1454 112.005 28.4321C111.508 28.7188 111.259 29.082 111.259 29.5216C111.259 29.923 111.479 30.2193 111.919 30.4104C112.358 30.5825 113.094 30.7736 114.127 30.9839C115.216 31.1941 116.105 31.4235 116.793 31.672C117.5 31.9014 118.112 32.2932 118.628 32.8476C119.144 33.4019 119.402 34.1569 119.402 35.1126C119.402 36.833 118.676 38.1614 117.223 39.098C115.79 40.0346 113.926 40.503 111.632 40.503Z" fill="url(#paint1_linear)"/>
<path d="M131.595 31.5573L136.899 40.2736H131.71L128.04 34.2812L125.316 36.5462L124.57 40.2736H120.097L124.341 18.999H128.814L126.434 30.8979L133.831 24.8481H139.652L131.595 31.5573Z" fill="url(#paint2_linear)"/>
<path d="M81.0842 15.9024V8.73438C81.0842 5.56737 83.6516 3 86.8186 3H148.463C151.63 3 154.198 5.56737 154.198 8.73438V48.8751C154.198 52.0421 151.63 54.6094 148.463 54.6094H138.428L141.782 70.2603C142.075 71.6282 140.436 72.563 139.408 71.6141L124.092 57.4766H86.8186C83.6516 57.4766 81.0842 54.9093 81.0842 51.7422V48.8751" stroke="url(#paint3_linear)" stroke-width="4.30079"/>
<defs>
<linearGradient id="paint0_linear" x1="87.6787" y1="18.999" x2="99.7578" y2="53.1106" gradientUnits="userSpaceOnUse">
<stop stop-color="#485BFF"/>
<stop offset="1" stop-color="#FF59F8"/>
</linearGradient>
<linearGradient id="paint1_linear" x1="87.6787" y1="18.999" x2="99.7578" y2="53.1106" gradientUnits="userSpaceOnUse">
<stop stop-color="#485BFF"/>
<stop offset="1" stop-color="#FF59F8"/>
</linearGradient>
<linearGradient id="paint2_linear" x1="87.6787" y1="18.999" x2="99.7578" y2="53.1106" gradientUnits="userSpaceOnUse">
<stop stop-color="#485BFF"/>
<stop offset="1" stop-color="#FF59F8"/>
</linearGradient>
<linearGradient id="paint3_linear" x1="81.0842" y1="3" x2="141.295" y2="77.547" gradientUnits="userSpaceOnUse">
<stop stop-color="#485BFF"/>
<stop offset="1" stop-color="#FF59F8"/>
</linearGradient>
</defs>
</svg>
