<?xml version="1.0" encoding="utf-8"?>
<!-- Generator: Adobe Illustrator 25.3.1, SVG Export Plug-In . SVG Version: 6.00 Build 0)  -->
<svg version="1.1" id="Layer_1" xmlns="http://www.w3.org/2000/svg" xmlns:xlink="http://www.w3.org/1999/xlink" x="0px" y="0px"
	 viewBox="0 0 16 16" style="enable-background:new 0 0 16 16;" xml:space="preserve">
<path d="M13.7,12.3v1.2c0,0.4-0.3,0.8-0.8,0.8s-0.8-0.3-0.8-0.8v-1.2c0-0.5-0.2-0.9-0.5-1.2c-0.3-0.3-0.8-0.5-1.2-0.5H5.5
	c-0.5,0-0.9,0.2-1.2,0.5c-0.3,0.3-0.5,0.8-0.5,1.2v1.2c0,0.4-0.3,0.8-0.8,0.8S2.3,14,2.3,13.5v-1.2c0-0.9,0.3-1.7,0.9-2.3
	c0.6-0.6,1.4-0.9,2.3-0.9h4.9c0.9,0,1.7,0.3,2.3,0.9C13.3,10.6,13.7,11.4,13.7,12.3z M4.8,4.9c0-1.8,1.4-3.2,3.2-3.2
	c1.8,0,3.2,1.4,3.2,3.2S9.8,8.1,8,8.1C6.2,8.1,4.8,6.7,4.8,4.9z M6.3,4.9c0,0.9,0.8,1.7,1.7,1.7c0.9,0,1.7-0.8,1.7-1.7
	S8.9,3.2,8,3.2C7.1,3.2,6.3,4,6.3,4.9z"/>
</svg>
