<?xml version="1.0" encoding="utf-8"?>
<!-- Generator: Adobe Illustrator 25.3.1, SVG Export Plug-In . SVG Version: 6.00 Build 0)  -->
<svg version="1.1" id="Layer_1" xmlns="http://www.w3.org/2000/svg" xmlns:xlink="http://www.w3.org/1999/xlink" x="0px" y="0px"
	 viewBox="0 0 16 16" style="enable-background:new 0 0 16 16;" xml:space="preserve">
<style type="text/css">
	.st0{fill:#A8A8A8;}
</style>
<g>
	<path class="st0" d="M7.4,5.5H13c0.4,0,0.8-0.3,0.8-0.8S13.4,4,13,4H7.4C7.1,2.5,5.8,1.5,4.2,1.5C2.5,1.5,1,3,1,4.8S2.5,8,4.2,8
		C5.8,8,7.1,7,7.4,5.5z"/>
	<path class="st0" d="M11.8,8c-1.5,0-2.8,1-3.2,2.5H3c-0.4,0-0.8,0.3-0.8,0.8S2.6,12,3,12h5.6c0.3,1.5,1.6,2.5,3.2,2.5
		c1.8,0,3.2-1.5,3.2-3.2S13.5,8,11.8,8z"/>
</g>
</svg>
