<svg width="24" height="24" viewBox="0 0 24 24" fill="none" xmlns="http://www.w3.org/2000/svg">
<path fill-rule="evenodd" clip-rule="evenodd" d="M10.5 4.75C7.32436 4.75 4.75 7.32436 4.75 10.5C4.75 13.6756 7.32436 16.25 10.5 16.25C12.088 16.25 13.5245 15.6072 14.5659 14.5659C15.6072 13.5245 16.25 12.088 16.25 10.5C16.25 7.32436 13.6756 4.75 10.5 4.75ZM3.25 10.5C3.25 6.49594 6.49594 3.25 10.5 3.25C14.5041 3.25 17.75 6.49594 17.75 10.5C17.75 12.2316 17.1422 13.8223 16.1295 15.0688L20.5303 19.4697C20.8232 19.7626 20.8232 20.2374 20.5303 20.5303C20.2374 20.8232 19.7626 20.8232 19.4697 20.5303L15.0688 16.1295C13.8223 17.1422 12.2316 17.75 10.5 17.75C6.49594 17.75 3.25 14.5041 3.25 10.5Z" fill="#A8A8A8"/>
</svg>
