<svg width="38" height="28" viewBox="0 0 38 28" fill="none" xmlns="http://www.w3.org/2000/svg">
<g opacity="0.3">
<mask id="mask0" style="mask-type:alpha" maskUnits="userSpaceOnUse" x="0" y="0" width="38" height="28">
<rect x="0.2117" y="0.953812" width="37.2283" height="26.7073" rx="13.3536" fill="#C4C4C4"/>
</mask>
<g mask="url(#mask0)">
<path d="M0.2117 1.69568C0.2117 1.28596 0.545054 0.953812 0.956267 0.953812L15.8476 0.953812C16.2588 0.953812 16.5922 1.28596 16.5922 1.69568V3.17942C16.5922 3.58914 16.2588 3.92129 15.8476 3.92129H0.956267C0.545054 3.92129 0.2117 3.58914 0.2117 3.17942L0.2117 1.69568Z" fill="#949494" fill-opacity="0.4"/>
<path d="M0.2117 7.63063C0.2117 7.22091 0.545054 6.88876 0.956267 6.88876H9.89106C10.3023 6.88876 10.6356 7.22091 10.6356 7.63063V12.0818C10.6356 12.4916 10.3023 12.8237 9.89106 12.8237H0.956267C0.545054 12.8237 0.2117 12.4916 0.2117 12.0818L0.2117 7.63063Z" fill="#949494" fill-opacity="0.4"/>
<path d="M0.2117 16.5331C0.2117 16.1233 0.545054 15.7912 0.956267 15.7912H9.89106C10.3023 15.7912 10.6356 16.1233 10.6356 16.5331V20.9843C10.6356 21.394 10.3023 21.7261 9.89106 21.7261H0.956267C0.545054 21.7261 0.2117 21.394 0.2117 20.9843L0.2117 16.5331Z" fill="#949494" fill-opacity="0.4"/>
<path d="M27.0161 7.63063C27.0161 7.22091 27.3494 6.88876 27.7606 6.88876L36.6954 6.88876C37.1067 6.88876 37.44 7.22091 37.44 7.63063V12.0818C37.44 12.4916 37.1067 12.8237 36.6954 12.8237H27.7606C27.3494 12.8237 27.0161 12.4916 27.0161 12.0818V7.63063Z" fill="#949494" fill-opacity="0.4"/>
<path d="M16.5922 12.8237C16.5922 12.414 16.9255 12.0818 17.3367 12.0818H20.315C20.7262 12.0818 21.0596 12.414 21.0596 12.8237V15.7912C21.0596 16.2009 20.7262 16.5331 20.315 16.5331H17.3367C16.9255 16.5331 16.5922 16.2009 16.5922 15.7912V12.8237Z" fill="#949494" fill-opacity="0.4"/>
<path d="M27.0161 16.5331C27.0161 16.1233 27.3494 15.7912 27.7606 15.7912H36.6954C37.1067 15.7912 37.44 16.1233 37.44 16.5331V20.9843C37.44 21.394 37.1067 21.7261 36.6954 21.7261H27.7606C27.3494 21.7261 27.0161 21.394 27.0161 20.9843V16.5331Z" fill="#949494" fill-opacity="0.4"/>
<path d="M21.0596 1.69568C21.0596 1.28596 21.3929 0.953812 21.8041 0.953812L36.6954 0.953812C37.1067 0.953812 37.44 1.28596 37.44 1.69568V3.17942C37.44 3.58914 37.1067 3.92129 36.6954 3.92129H21.8041C21.3929 3.92129 21.0596 3.58914 21.0596 3.17942V1.69568Z" fill="#949494" fill-opacity="0.4"/>
<path d="M13.6139 1.69568C13.6139 1.28596 13.9472 0.953812 14.3585 0.953812H15.8476C16.2588 0.953812 16.5922 1.28596 16.5922 1.69568V8.06521C16.5922 8.72614 15.7902 9.05714 15.3211 8.58979L13.832 7.10605C13.6923 6.96692 13.6139 6.77822 13.6139 6.58147V1.69568Z" fill="#949494" fill-opacity="0.4"/>
<path d="M24.2559 7.41334C24.7249 6.94599 24.3927 6.14689 23.7294 6.14689H21.8041C21.3929 6.14689 21.0596 6.47904 21.0596 6.88876V8.80707C21.0596 9.46801 21.8616 9.799 22.3306 9.33165L24.2559 7.41334Z" fill="#949494" fill-opacity="0.4"/>
<path d="M37.44 26.9192C37.44 27.3289 37.1067 27.6611 36.6954 27.6611H21.8041C21.3929 27.6611 21.0596 27.3289 21.0596 26.9192V25.4355C21.0596 25.0257 21.3929 24.6936 21.8041 24.6936H36.6954C37.1067 24.6936 37.44 25.0257 37.44 25.4355V26.9192Z" fill="#949494" fill-opacity="0.4"/>
<path d="M16.5922 26.9192C16.5922 27.3289 16.2588 27.6611 15.8476 27.6611H0.956267C0.545054 27.6611 0.2117 27.3289 0.2117 26.9192L0.2117 25.4355C0.2117 25.0257 0.545054 24.6936 0.956267 24.6936H15.8476C16.2588 24.6936 16.5922 25.0257 16.5922 25.4355V26.9192Z" fill="#949494" fill-opacity="0.4"/>
<path d="M24.0378 26.9192C24.0378 27.3289 23.7045 27.6611 23.2933 27.6611H21.8041C21.3929 27.6611 21.0596 27.3289 21.0596 26.9192V20.5497C21.0596 19.8888 21.8616 19.5578 22.3306 20.0251L23.8197 21.5088C23.9594 21.648 24.0378 21.8367 24.0378 22.0334V26.9192Z" fill="#949494" fill-opacity="0.4"/>
<path d="M13.3958 21.2016C12.9268 21.6689 13.259 22.468 13.9223 22.468H15.8476C16.2588 22.468 16.5922 22.1359 16.5922 21.7261V19.8078C16.5922 19.1469 15.7902 18.8159 15.3211 19.2832L13.3958 21.2016Z" fill="#949494" fill-opacity="0.4"/>
</g>
</g>
</svg>
