<svg width="27" height="30" viewBox="0 0 27 30" fill="none" xmlns="http://www.w3.org/2000/svg">
<path fill-rule="evenodd" clip-rule="evenodd" d="M15.8512 0.000274658L5.43583 0.000274658V10.2182C2.75261 12.1023 0.99884 15.2204 0.99884 18.748L0.99884 29.1634H11.4142C17.1001 29.1634 21.7218 24.6073 21.8278 18.9468C24.5121 17.0628 26.2666 13.9442 26.2666 10.4157C26.2666 4.66341 21.6035 0.000274658 15.8512 0.000274658ZM21.8278 18.9468C21.829 18.8807 21.8296 18.8144 21.8296 18.748C21.8296 12.9958 17.1665 8.33264 11.4142 8.33264C9.18963 8.33264 7.12792 9.03008 5.43583 10.2182V10.4157C5.43583 16.1679 10.099 20.8311 15.8512 20.8311C18.075 20.8311 20.136 20.1342 21.8278 18.9468Z" fill="white" fill-opacity="0.75"/>
</svg>
