<svg width="52" height="23" viewBox="0 0 52 23" fill="none" xmlns="http://www.w3.org/2000/svg">
<path d="M22.8556 18.9195L18.98 18.9195L21.4022 4.0298L25.2782 4.0298L22.8556 18.9195ZM15.7197 4.0298L12.0249 14.271L11.5877 12.0657L11.5881 12.0665L10.284 5.37044C10.284 5.37044 10.1263 4.0298 8.44555 4.0298L2.33733 4.0298L2.26565 4.28191C2.26565 4.28191 4.13356 4.67064 6.31962 5.98381L9.6867 18.9198L13.7247 18.9198L19.8907 4.0298L15.7197 4.0298ZM46.203 18.9195L49.7617 18.9195L46.659 4.0294L43.5435 4.0294C42.1049 4.0294 41.7545 5.13903 41.7545 5.13903L35.9744 18.9195L40.0144 18.9195L40.8223 16.7077L45.7491 16.7077L46.203 18.9195ZM41.9384 13.6525L43.9748 8.0804L45.1204 13.6525L41.9384 13.6525ZM36.2774 7.61042L36.8305 4.41295C36.8305 4.41295 35.1238 3.76374 33.3447 3.76374C31.4215 3.76374 26.8542 4.60453 26.8542 8.69297C26.8542 12.5397 32.2147 12.5874 32.2147 14.608C32.2147 16.6285 27.4065 16.2664 25.8197 14.9923L25.2436 18.3356C25.2436 18.3356 26.9741 19.1763 29.6181 19.1763C32.2628 19.1763 36.2527 17.8066 36.2527 14.0786C36.2527 10.2073 30.8441 9.84682 30.8441 8.16365C30.8445 6.48008 34.6189 6.69635 36.2774 7.61042Z" fill="white" fill-opacity="0.5"/>
<path d="M11.5881 12.0665L10.284 5.37044C10.284 5.37044 10.1263 4.0298 8.44555 4.0298L2.33733 4.0298L2.26565 4.28191C2.26565 4.28191 5.2015 4.89022 8.01749 7.17042C10.71 9.34986 11.5881 12.0665 11.5881 12.0665Z" fill="white" fill-opacity="0.5"/>
</svg>
