<svg width="38" height="27" viewBox="0 0 38 27" fill="none" xmlns="http://www.w3.org/2000/svg">
<g opacity="0.8">
<mask id="mask0" style="mask-type:alpha" maskUnits="userSpaceOnUse" x="0" y="0" width="38" height="27">
<rect x="0.182434" y="0.183868" width="37.2283" height="26.7073" rx="13.3536" fill="#C4C4C4"/>
</mask>
<g mask="url(#mask0)">
<path d="M0.182434 0.925737C0.182434 0.516014 0.515788 0.183868 0.927 0.183868L15.8183 0.183868C16.2295 0.183868 16.5629 0.516014 16.5629 0.925737V2.40947C16.5629 2.8192 16.2295 3.15134 15.8183 3.15134H0.927001C0.515788 3.15134 0.182434 2.8192 0.182434 2.40947L0.182434 0.925737Z" fill="white" fill-opacity="0.2"/>
<path d="M0.182434 6.86069C0.182434 6.45096 0.515788 6.11882 0.927 6.11882H9.86179C10.273 6.11882 10.6064 6.45096 10.6064 6.86069V11.3119C10.6064 11.7216 10.273 12.0538 9.86179 12.0538H0.927001C0.515788 12.0538 0.182434 11.7216 0.182434 11.3119L0.182434 6.86069Z" fill="white" fill-opacity="0.2"/>
<path d="M0.182434 15.7631C0.182434 15.3534 0.515788 15.0212 0.927 15.0212H9.86179C10.273 15.0212 10.6064 15.3534 10.6064 15.7631V20.2143C10.6064 20.624 10.273 20.9562 9.86179 20.9562H0.927001C0.515788 20.9562 0.182434 20.624 0.182434 20.2143L0.182434 15.7631Z" fill="white" fill-opacity="0.2"/>
<path d="M26.9868 6.86069C26.9868 6.45096 27.3202 6.11882 27.7314 6.11882L36.6662 6.11882C37.0774 6.11882 37.4107 6.45096 37.4107 6.86069V11.3119C37.4107 11.7216 37.0774 12.0538 36.6662 12.0538H27.7314C27.3202 12.0538 26.9868 11.7216 26.9868 11.3119V6.86069Z" fill="white" fill-opacity="0.2"/>
<path d="M16.5629 12.0538C16.5629 11.644 16.8962 11.3119 17.3075 11.3119H20.2857C20.6969 11.3119 21.0303 11.644 21.0303 12.0538V15.0212C21.0303 15.431 20.6969 15.7631 20.2857 15.7631H17.3075C16.8962 15.7631 16.5629 15.431 16.5629 15.0212V12.0538Z" fill="white" fill-opacity="0.2"/>
<path d="M26.9868 15.7631C26.9868 15.3534 27.3202 15.0212 27.7314 15.0212H36.6662C37.0774 15.0212 37.4107 15.3534 37.4107 15.7631V20.2143C37.4107 20.624 37.0774 20.9562 36.6662 20.9562H27.7314C27.3202 20.9562 26.9868 20.624 26.9868 20.2143V15.7631Z" fill="white" fill-opacity="0.2"/>
<path d="M21.0303 0.925737C21.0303 0.516014 21.3636 0.183868 21.7749 0.183868L36.6662 0.183868C37.0774 0.183868 37.4107 0.516014 37.4107 0.925737V2.40947C37.4107 2.8192 37.0774 3.15134 36.6662 3.15134H21.7749C21.3636 3.15134 21.0303 2.8192 21.0303 2.40947V0.925737Z" fill="white" fill-opacity="0.2"/>
<path d="M13.5846 0.925737C13.5846 0.516014 13.918 0.183868 14.3292 0.183868L15.8183 0.183868C16.2295 0.183868 16.5629 0.516014 16.5629 0.925737V7.29526C16.5629 7.9562 15.7609 8.28719 15.2918 7.81984L13.8027 6.3361C13.6631 6.19698 13.5846 6.00828 13.5846 5.81152V0.925737Z" fill="white" fill-opacity="0.2"/>
<path d="M24.2266 6.6434C24.6957 6.17605 24.3635 5.37695 23.7001 5.37695H21.7749C21.3636 5.37695 21.0303 5.70909 21.0303 6.11882V8.03713C21.0303 8.69806 21.8323 9.02906 22.3013 8.56171L24.2266 6.6434Z" fill="white" fill-opacity="0.2"/>
<path d="M37.4107 26.1493C37.4107 26.559 37.0774 26.8911 36.6662 26.8911H21.7749C21.3636 26.8911 21.0303 26.559 21.0303 26.1493V24.6655C21.0303 24.2558 21.3636 23.9237 21.7749 23.9237H36.6662C37.0774 23.9237 37.4107 24.2558 37.4107 24.6655V26.1493Z" fill="white" fill-opacity="0.2"/>
<path d="M16.5629 26.1493C16.5629 26.559 16.2295 26.8911 15.8183 26.8911H0.927001C0.515788 26.8911 0.182434 26.559 0.182434 26.1493L0.182434 24.6655C0.182434 24.2558 0.515788 23.9237 0.927 23.9237H15.8183C16.2295 23.9237 16.5629 24.2558 16.5629 24.6655V26.1493Z" fill="white" fill-opacity="0.2"/>
<path d="M24.0086 26.1493C24.0086 26.559 23.6752 26.8911 23.264 26.8911H21.7749C21.3636 26.8911 21.0303 26.559 21.0303 26.1493V19.7797C21.0303 19.1188 21.8323 18.7878 22.3013 19.2552L23.7905 20.7389C23.9301 20.878 24.0086 21.0667 24.0086 21.2635V26.1493Z" fill="white" fill-opacity="0.2"/>
<path d="M13.3665 20.4316C12.8975 20.899 13.2297 21.6981 13.893 21.6981H15.8183C16.2295 21.6981 16.5629 21.3659 16.5629 20.9562V19.0379C16.5629 18.3769 15.7609 18.0459 15.2918 18.5133L13.3665 20.4316Z" fill="white" fill-opacity="0.2"/>
</g>
</g>
</svg>
