<svg width="26" height="30" viewBox="0 0 26 30" fill="none" xmlns="http://www.w3.org/2000/svg">
<path fill-rule="evenodd" clip-rule="evenodd" d="M14.809 0.160843L4.45197 0.160843V10.3216C1.78377 12.1951 0.0398254 15.2957 0.0398254 18.8036L0.0398254 29.1607H10.3969C16.0509 29.1607 20.6468 24.6301 20.7521 19.0013C23.4214 17.1278 25.1661 14.0266 25.1661 10.5179C25.1661 4.79786 20.5291 0.160843 14.809 0.160843ZM20.7521 19.0013C20.7533 18.9355 20.754 18.8696 20.754 18.8036C20.754 13.0836 16.117 8.44654 10.3969 8.44654C8.18475 8.44654 6.13458 9.14007 4.45197 10.3216V10.5179C4.45197 16.238 9.08898 20.875 14.809 20.875C17.0204 20.875 19.0699 20.182 20.7521 19.0013Z" fill="#949494" fill-opacity="0.3"/>
</svg>
