<svg width="60" height="28" viewBox="0 0 60 28" fill="none" xmlns="http://www.w3.org/2000/svg">
<path d="M26.6379 23.0974L22.0813 23.0974L24.9291 5.59118L29.4862 5.59118L26.6379 23.0974ZM18.248 5.59118L13.9039 17.6321L13.3899 15.0392L13.3903 15.0401L11.8571 7.16741C11.8571 7.16741 11.6717 5.59118 9.69559 5.59118L2.51397 5.59118L2.4297 5.8876C2.4297 5.8876 4.62585 6.34464 7.19607 7.88856L11.1549 23.0979L15.9025 23.0979L23.152 5.59118L18.248 5.59118ZM54.0882 23.0974L58.2722 23.0974L54.6242 5.59071L50.9613 5.59071C49.2699 5.59071 48.8579 6.89534 48.8579 6.89534L42.062 23.0974L46.812 23.0974L47.7619 20.497L53.5545 20.497L54.0882 23.0974ZM49.0742 16.9048L51.4684 10.3536L52.8153 16.9048L49.0742 16.9048ZM42.4183 9.80102L43.0686 6.04166C43.0686 6.04166 41.062 5.27837 38.9703 5.27837C36.7091 5.27837 31.3392 6.26691 31.3392 11.0738C31.3392 15.5965 37.6416 15.6527 37.6416 18.0282C37.6416 20.4038 31.9886 19.9782 30.1229 18.4801L29.4455 22.4109C29.4455 22.4109 31.4801 23.3994 34.5887 23.3994C37.6983 23.3994 42.3893 21.789 42.3893 17.4059C42.3893 12.8542 36.0302 12.4304 36.0302 10.4515C36.0307 8.47204 40.4684 8.72632 42.4183 9.80102Z" fill="#C4C4C4" fill-opacity="0.2"/>
<path d="M13.3903 15.0401L11.8571 7.16741C11.8571 7.16741 11.6717 5.59118 9.69559 5.59118L2.51397 5.59118L2.4297 5.8876C2.4297 5.8876 5.88147 6.6028 9.19231 9.28371C12.358 11.8461 13.3903 15.0401 13.3903 15.0401Z" fill="#C4C4C4" fill-opacity="0.2"/>
</svg>
