<svg width="24" height="24" viewBox="0 0 24 24" fill="none" xmlns="http://www.w3.org/2000/svg">
<path d="M24 4C24 3.4475 23.5525 3 23 3H10V13H0V20C0 20.5525 0.4475 21 1 21H23C23.5525 21 24 20.5525 24 20V4Z" fill="#B41F30"/>
<path d="M24 5H10V7H24V5Z" fill="#E6E6E6"/>
<path d="M24 9H10V11H24V9Z" fill="#E6E6E6"/>
<path d="M0 13V15H24V13H10H0Z" fill="#E6E6E6"/>
<path d="M24 17H0V19H24V17Z" fill="#E6E6E6"/>
<path d="M10 13H0V4C0 3.4475 0.4475 3 1 3H10V13Z" fill="#00256A"/>
<path d="M4.99987 6.961L4.68337 7.645H3.93137L4.48137 8.215L4.27837 9.039L4.99987 8.63L5.72137 9.039L5.51837 8.215L6.06837 7.645H5.31537L4.99987 6.961Z" fill="white"/>
<path d="M2.55366 4.51447L2.23766 5.19847H1.48566L2.03516 5.76847L1.83216 6.59247L2.55366 6.18347L3.27566 6.59247L3.07216 5.76847L3.62216 5.19847H2.86916L2.55366 4.51447Z" fill="white"/>
<path d="M7.44658 4.51447L7.76258 5.19847H8.51458L7.96508 5.76847L8.16808 6.59247L7.44658 6.18347L6.72458 6.59247L6.92808 5.76847L6.37808 5.19847H7.13108L7.44658 4.51447Z" fill="white"/>
<path d="M2.55366 11.4855L2.23766 10.8015H1.48566L2.03516 10.2315L1.83216 9.40753L2.55366 9.81653L3.27566 9.40753L3.07216 10.2315L3.62216 10.8015H2.86916L2.55366 11.4855Z" fill="white"/>
<path d="M7.44658 11.4855L7.76258 10.8015H8.51458L7.96508 10.2315L8.16808 9.40753L7.44658 9.81653L6.72458 9.40753L6.92808 10.2315L6.37808 10.8015H7.13108L7.44658 11.4855Z" fill="white"/>
</svg>
