<svg width="25" height="16" viewBox="0 0 25 16" fill="none" xmlns="http://www.w3.org/2000/svg">
<g clip-path="url(#clip0)">
<path d="M22.0317 15.7499L22.0338 15.7499C22.9861 15.7581 23.7674 14.9773 23.7793 14.0042L23.7793 2.0063C23.7755 1.53569 23.5887 1.08617 23.2605 0.756802C22.9332 0.428269 22.492 0.246149 22.0317 0.250071L2.09433 0.250062C1.63614 0.246149 1.19494 0.428269 0.867614 0.756802C0.539456 1.08617 0.352704 1.53569 0.348885 2.00426L0.348877 13.9937C0.352704 14.4643 0.539456 14.9138 0.867614 15.2432C1.19494 15.5717 1.63614 15.7538 2.09645 15.7499H22.0317ZM22.0307 16.2499C22.0303 16.2499 22.0299 16.2499 22.0296 16.2499L22.0317 16.2499H22.0307Z" fill="white" stroke="black" stroke-opacity="0.2" stroke-width="0.5"/>
<path d="M12.6746 15.9999H22.0316C22.5568 16.0043 23.0623 15.7993 23.4367 15.4299C23.8112 15.0605 24.0241 14.557 24.0284 14.0303V11.6716C20.4951 13.7059 16.6631 15.1668 12.6746 15.9999Z" fill="#F27712"/>
<path d="M23.2034 9.29649H22.3536L21.3964 8.03029H21.3056V9.29649H20.6125V6.15167H21.6357C22.4361 6.15167 22.8981 6.4827 22.8981 7.07856C22.8981 7.56684 22.6093 7.88132 22.0895 7.98063L23.2034 9.29649ZM22.1803 7.10339C22.1803 6.79718 21.9492 6.63994 21.5202 6.63994H21.3056V7.59167H21.5037C21.9492 7.59167 22.1803 7.42615 22.1803 7.10339ZM18.1866 6.15167H20.1504V6.68132H18.8797V7.38477H20.1009V7.9227H18.8797V8.77512H20.1504V9.30477H18.1866V6.15167ZM15.9588 9.37925L14.457 6.14339H15.2161L16.165 8.26201L17.1222 6.14339H17.8648L16.3466 9.37925H15.9753H15.9588ZM9.67949 9.37098C8.62331 9.37098 7.79818 8.65098 7.79818 7.71581C7.79818 6.80546 8.63982 6.06891 9.69599 6.06891C9.99304 6.06891 10.2406 6.12684 10.5459 6.25925V6.98753C10.3147 6.75971 10.0036 6.63194 9.67949 6.63167C9.01938 6.63167 8.51605 7.11167 8.51605 7.71581C8.51605 8.35305 9.01113 8.80822 9.71249 8.80822C10.026 8.80822 10.2653 8.70891 10.5459 8.46063V9.18891C10.2323 9.32132 9.96828 9.37098 9.67949 9.37098ZM7.58364 8.33649C7.58364 8.94891 7.08031 9.37098 6.35419 9.37098C5.82611 9.37098 5.44654 9.18891 5.12474 8.77512L5.57857 8.38615C5.73534 8.66753 5.99938 8.80822 6.32944 8.80822C6.64299 8.80822 6.86578 8.61787 6.86578 8.3696C6.86578 8.22891 6.79977 8.12132 6.65949 8.03856C6.50569 7.96371 6.34553 7.90277 6.18091 7.85649C5.52906 7.6496 5.30627 7.42615 5.30627 6.98753C5.30627 6.47443 5.78485 6.08546 6.41195 6.08546C6.80802 6.08546 7.16282 6.2096 7.45987 6.44132L7.09681 6.85512C6.95292 6.6969 6.74924 6.60677 6.53572 6.60684C6.23867 6.60684 6.02414 6.75581 6.02414 6.95443C6.02414 7.11994 6.14791 7.21098 6.56048 7.35167C7.35261 7.59994 7.58364 7.83167 7.58364 8.34477V8.33649ZM4.17584 6.15167H4.86895V9.30477H4.17584V6.15167ZM1.94797 9.30477H0.924805V6.15167H1.94797C3.07016 6.15167 3.84578 6.79718 3.84578 7.72408C3.84578 8.19581 3.61474 8.6427 3.21043 8.94063C2.86387 9.18891 2.47606 9.30477 1.93972 9.30477H1.94797ZM2.7566 6.93787C2.52557 6.75581 2.26152 6.6896 1.8077 6.6896H1.61792V8.77512H1.8077C2.25327 8.77512 2.53382 8.69236 2.7566 8.52684C2.99589 8.32822 3.13617 8.03029 3.13617 7.72408C3.13617 7.41787 2.99589 7.12822 2.7566 6.93787Z" fill="black"/>
<path d="M12.4767 6.06891C11.569 6.06891 10.8264 6.79718 10.8264 7.69925C10.8264 8.65925 11.536 9.37925 12.4767 9.37925C13.4008 9.37925 14.127 8.65098 14.127 7.72408C14.127 6.79718 13.4091 6.06891 12.4767 6.06891Z" fill="#F27712"/>
</g>
<defs>
<clipPath id="clip0">
<rect width="23.9289" height="16" fill="white" transform="translate(0.0996094)"/>
</clipPath>
</defs>
</svg>
