<svg width="48" height="48" viewBox="0 0 48 48" fill="none" xmlns="http://www.w3.org/2000/svg">
<circle cx="24" cy="24" r="24" fill="#3C4257"/>
<path d="M17.424 19.256C17.424 18.872 17.376 18.608 17.28 18.464C17.184 18.304 17 18.192 16.728 18.128L15.24 17.84V17.216C15.768 17.232 16.384 17.232 17.088 17.216C17.808 17.184 18.544 17.152 19.296 17.12C20.064 17.088 20.808 17.064 21.528 17.048C22.264 17.016 22.904 17 23.448 17C24.68 17.016 25.824 17.184 26.88 17.504C27.952 17.824 28.88 18.304 29.664 18.944C30.448 19.568 31.064 20.352 31.512 21.296C31.96 22.224 32.184 23.296 32.184 24.512C32.184 25.664 31.96 26.72 31.512 27.68C31.08 28.64 30.48 29.464 29.712 30.152C28.96 30.824 28.08 31.352 27.072 31.736C26.064 32.104 24.984 32.28 23.832 32.264L19.944 32.168H15V31.568L16.728 31.16C16.984 31.112 17.16 31.008 17.256 30.848C17.368 30.688 17.424 30.384 17.424 29.936V19.256ZM19.944 29.36C19.944 29.616 20.008 29.872 20.136 30.128C20.264 30.368 20.456 30.592 20.712 30.8C20.984 30.992 21.32 31.152 21.72 31.28C22.12 31.392 22.592 31.448 23.136 31.448C24.096 31.448 24.952 31.288 25.704 30.968C26.456 30.632 27.088 30.16 27.6 29.552C28.128 28.944 28.52 28.208 28.776 27.344C29.048 26.48 29.184 25.504 29.184 24.416C29.184 23.392 29.024 22.472 28.704 21.656C28.384 20.84 27.92 20.152 27.312 19.592C26.704 19.032 25.96 18.6 25.08 18.296C24.216 17.992 23.232 17.84 22.128 17.84C21.52 17.84 21.088 17.864 20.832 17.912C20.576 17.96 20.392 18.024 20.28 18.104C20.056 18.28 19.944 18.664 19.944 19.256V29.36Z" fill="#F9F9F9"/>
</svg>
