<svg width="48" height="12" viewBox="0 0 48 12" fill="none" xmlns="http://www.w3.org/2000/svg">
<path d="M9.28125 5.6875C9.28125 4.22396 8.88542 3.11458 8.09375 2.35938C7.30729 1.60417 6.18229 1.22656 4.71875 1.22656H3.3125V10.2656C3.9375 10.3073 4.67969 10.3281 5.53906 10.3281C6.82031 10.3281 7.76302 9.95052 8.36719 9.19531C8.97656 8.4401 9.28125 7.27083 9.28125 5.6875ZM5.21875 0.523438C7.15104 0.523438 8.58333 0.955729 9.51562 1.82031C10.4479 2.67969 10.9141 3.97396 10.9141 5.70312C10.9141 7.45312 10.4635 8.77865 9.5625 9.67969C8.66667 10.5807 7.32552 11.0312 5.53906 11.0312L1.80469 11H0.460938V10.5859L1.80469 10.375V1.14062L0.460938 0.9375V0.523438H5.21875Z" fill="#697386"/>
<path d="M16.99 3.46094V5.44531H16.6541L16.2009 4.58594C15.9405 4.58594 15.6306 4.6224 15.2712 4.69531C14.9171 4.76302 14.6098 4.85417 14.3494 4.96875V10.4531L15.6072 10.6484V11H12.1228V10.6484L13.0525 10.4531V4.20312L12.1228 4.00781V3.65625H14.2634L14.3337 4.57031C14.6462 4.3099 15.0681 4.0599 15.5994 3.82031C16.1358 3.58073 16.5603 3.46094 16.8728 3.46094H16.99Z" fill="#697386"/>
<path d="M23.4175 11.1562C21.7196 11.1562 20.3967 10.6953 19.4487 9.77344C18.5008 8.84635 18.0269 7.54948 18.0269 5.88281C18.0269 4.08073 18.4826 2.71875 19.3941 1.79688C20.3055 0.869792 21.6571 0.40625 23.4487 0.40625C24.5373 0.40625 25.7066 0.539062 26.9566 0.804688L27.0034 3.09375H26.4878L26.2534 1.73438C25.8889 1.51042 25.4644 1.33854 24.98 1.21875C24.5008 1.09375 24.0112 1.03125 23.5112 1.03125C22.1727 1.03125 21.1961 1.42448 20.5816 2.21094C19.967 2.9974 19.6597 4.21615 19.6597 5.86719C19.6597 7.38802 19.98 8.54948 20.6206 9.35156C21.2665 10.1536 22.204 10.5547 23.4331 10.5547C24.0269 10.5547 24.5868 10.4844 25.1128 10.3438C25.6389 10.1979 26.0555 10.0052 26.3628 9.76562L26.6519 8.20312H27.1597L27.1128 10.6641C25.967 10.9922 24.7352 11.1562 23.4175 11.1562Z" fill="#697386"/>
<path d="M31.9153 3.49219C32.7174 3.49219 33.3059 3.65625 33.6809 3.98438C34.0611 4.3125 34.2513 4.8151 34.2513 5.49219V10.4531L35.1653 10.6484V11H33.1497L33.0013 10.2656C32.4075 10.8594 31.6497 11.1562 30.7278 11.1562C29.4726 11.1562 28.845 10.4271 28.845 8.96875C28.845 8.47917 28.9387 8.07552 29.1262 7.75781C29.319 7.4349 29.6236 7.1901 30.0403 7.02344C30.457 6.85156 31.0611 6.75781 31.8528 6.74219L32.9544 6.71094V5.5625C32.9544 5.05729 32.8606 4.6849 32.6731 4.44531C32.4908 4.20573 32.207 4.08594 31.8216 4.08594C31.3007 4.08594 30.8242 4.20833 30.3919 4.45312L30.1262 5.36719H29.6887V3.76562C30.5325 3.58333 31.2747 3.49219 31.9153 3.49219ZM32.9544 7.25781L31.9309 7.28906C31.233 7.3151 30.7591 7.45052 30.5091 7.69531C30.2643 7.9401 30.1419 8.34896 30.1419 8.92188C30.1419 9.83854 30.5143 10.2969 31.2591 10.2969C31.6132 10.2969 31.9179 10.2578 32.1731 10.1797C32.4335 10.0964 32.694 9.99219 32.9544 9.86719V7.25781Z" fill="#697386"/>
<path d="M40.8194 3.46094V5.44531H40.4834L40.0303 4.58594C39.7699 4.58594 39.46 4.6224 39.1006 4.69531C38.7465 4.76302 38.4392 4.85417 38.1787 4.96875V10.4531L39.4366 10.6484V11H35.9522V10.6484L36.8819 10.4531V4.20312L35.9522 4.00781V3.65625H38.0928L38.1631 4.57031C38.4756 4.3099 38.8975 4.0599 39.4287 3.82031C39.9652 3.58073 40.3897 3.46094 40.7022 3.46094H40.8194Z" fill="#697386"/>
<path d="M43.2313 7.30469V7.44531C43.2313 8.16406 43.3094 8.72396 43.4656 9.125C43.6271 9.52083 43.8719 9.82292 44.2 10.0312C44.5333 10.2396 44.9682 10.3438 45.5047 10.3438C45.7859 10.3438 46.1193 10.3203 46.5047 10.2734C46.8901 10.2266 47.2078 10.1745 47.4578 10.1172V10.5547C47.2078 10.7161 46.8667 10.8568 46.4344 10.9766C46.0073 11.0964 45.5698 11.1562 45.1219 11.1562C43.9813 11.1562 43.1453 10.849 42.6141 10.2344C42.088 9.61979 41.825 8.63281 41.825 7.27344C41.825 5.99219 42.0932 5.03646 42.6297 4.40625C43.1661 3.77604 43.9318 3.46094 44.9266 3.46094C46.8068 3.46094 47.7469 4.52865 47.7469 6.66406V7.30469H43.2313ZM44.9266 4.08594C44.3849 4.08594 43.9682 4.30469 43.6766 4.74219C43.3901 5.17969 43.2469 5.82552 43.2469 6.67969H46.3875C46.3875 5.7474 46.2677 5.08333 46.0281 4.6875C45.7885 4.28646 45.4214 4.08594 44.9266 4.08594Z" fill="#697386"/>
</svg>
