<svg width="25" height="16" viewBox="0 0 25 16" fill="none" xmlns="http://www.w3.org/2000/svg">
<g clip-path="url(#clip0)">
<path d="M22.1768 0H2.23602C1.13472 0 0.241943 0.89543 0.241943 2V14C0.241943 15.1046 1.13472 16 2.23602 16H22.1768C23.2781 16 24.1709 15.1046 24.1709 14V2C24.1709 0.89543 23.2781 0 22.1768 0Z" fill="#252525"/>
<path d="M9.21517 13C11.9684 13 14.2004 10.7614 14.2004 8C14.2004 5.23858 11.9684 3 9.21517 3C6.46193 3 4.22998 5.23858 4.22998 8C4.22998 10.7614 6.46193 13 9.21517 13Z" fill="#EB001B"/>
<path d="M15.1976 13C17.9508 13 20.1828 10.7614 20.1828 8C20.1828 5.23858 17.9508 3 15.1976 3C12.4443 3 10.2124 5.23858 10.2124 8C10.2124 10.7614 12.4443 13 15.1976 13Z" fill="#F79E1B"/>
<path fill-rule="evenodd" clip-rule="evenodd" d="M12.2065 3.99963C13.4173 4.91184 14.2006 6.36418 14.2006 8C14.2006 9.63582 13.4173 11.0882 12.2065 12.0004C10.9956 11.0882 10.2124 9.63582 10.2124 8C10.2124 6.36418 10.9956 4.91184 12.2065 3.99963Z" fill="#FF5F00"/>
</g>
<defs>
<clipPath id="clip0">
<rect width="23.9289" height="16" fill="white" transform="translate(0.241943)"/>
</clipPath>
</defs>
</svg>
