<svg width="16" height="16" viewBox="0 0 16 16" fill="none" xmlns="http://www.w3.org/2000/svg">
<path d="M8 14.75C9.26389 14.75 10.4387 14.434 11.5243 13.8021C12.5938 13.1863 13.4363 12.3438 14.0521 11.2743C14.684 10.1887 15 9.01389 15 7.75C15 7.28009 14.9514 6.81018 14.8542 6.34028L14.8299 6.19444H8V8.52778H12.6667C12.537 9.25694 12.2494 9.91724 11.8038 10.5087C11.3582 11.1001 10.8032 11.566 10.1389 11.9062C9.47454 12.2465 8.76157 12.4167 8 12.4167C7.15741 12.4167 6.37963 12.206 5.66667 11.7847C4.9537 11.3634 4.38657 10.7963 3.96528 10.0833C3.54398 9.37037 3.33333 8.59259 3.33333 7.75C3.33333 6.90741 3.54398 6.12963 3.96528 5.41667C4.38657 4.7037 4.9537 4.13657 5.66667 3.71528C6.37963 3.29398 7.15741 3.08333 8 3.08333C8.56713 3.08333 9.114 3.18461 9.64062 3.38715C10.1672 3.5897 10.6331 3.86921 11.0382 4.22569L12.7153 2.57292C12.0833 2.00579 11.3623 1.56019 10.5521 1.23611C9.7419 0.912037 8.8912 0.75 8 0.75C6.73611 0.75 5.56134 1.06597 4.47569 1.69792C3.40625 2.31366 2.56366 3.15625 1.94792 4.22569C1.31597 5.31134 1 6.48611 1 7.75C1 9.01389 1.31597 10.1887 1.94792 11.2743C2.56366 12.3438 3.40625 13.1863 4.47569 13.8021C5.56134 14.434 6.73611 14.75 8 14.75Z" fill="#8083A3"/>
</svg>
