<svg width="16" height="16" viewBox="0 0 16 16" fill="none" xmlns="http://www.w3.org/2000/svg">
<path fill-rule="evenodd" clip-rule="evenodd" d="M2.6875 4.37499C2.22916 4.37499 1.83333 4.20833 1.5 3.87499C1.16667 3.54166 1 3.14583 1 2.6875C1 2.22916 1.16667 1.83333 1.5 1.5C1.83333 1.16667 2.22916 1 2.6875 1C3.14583 1 3.54166 1.16667 3.87499 1.5C4.20833 1.83333 4.37499 2.22916 4.37499 2.6875C4.37499 3.14583 4.20833 3.54166 3.87499 3.87499C3.54166 4.20833 3.14583 4.37499 2.6875 4.37499ZM4.12499 15H1.21875V5.65624H4.12499V15ZM12.0937 15H15V9.87498C15 8.43748 14.7916 7.37498 14.375 6.68749C13.8333 5.83332 12.8854 5.40624 11.5312 5.40624C10.8646 5.40624 10.2812 5.57291 9.78123 5.90624C9.3229 6.17707 8.98956 6.52082 8.78123 6.93749H8.74998V5.65624H5.96874V15H8.84373V10.375C8.84373 9.64581 8.9479 9.09373 9.15623 8.71873C9.42706 8.21873 9.89581 7.96873 10.5625 7.96873C11.2291 7.96873 11.6771 8.24998 11.9062 8.81248C12.0312 9.14581 12.0937 9.68748 12.0937 10.4375V15Z" fill="#8083A3"/>
</svg>
