<svg width="16" height="16" viewBox="0 0 16 16" fill="none" xmlns="http://www.w3.org/2000/svg">
<path d="M8.37498 0C9.35415 0.0208334 10.276 0.244791 11.1406 0.671873C12.0052 1.09896 12.6875 1.6875 13.1875 2.43749C13.7291 3.24999 14 4.16145 14 5.17186C14 6.18228 13.8333 7.1354 13.5 8.03123C13.125 9.0104 12.5937 9.78123 11.9062 10.3437C11.1354 10.9687 10.2291 11.2812 9.18748 11.2812C8.77082 11.2812 8.35415 11.1823 7.93749 10.9843C7.52082 10.7864 7.21874 10.5104 7.03124 10.1562L6.78124 11.1562C6.51041 12.2396 6.29166 12.9896 6.12499 13.4062C5.87499 13.9687 5.42708 14.6875 4.78124 15.5625L4.65624 15.625L4.56249 15.5312L4.53124 15.0625C4.46874 14.4791 4.43749 14.0416 4.43749 13.75C4.43749 13.125 4.54166 12.3125 4.74999 11.3125C4.87499 10.7291 5.08333 9.86456 5.37499 8.71873L5.74999 7.21873C5.54166 6.8229 5.43749 6.30207 5.43749 5.65624C5.43749 5.05207 5.59374 4.55207 5.90624 4.15624C6.17707 3.82291 6.51041 3.61457 6.90624 3.53124C7.30207 3.44791 7.64582 3.52083 7.93749 3.74999C8.22915 3.97916 8.37498 4.34374 8.37498 4.84374C8.37498 5.11457 8.33332 5.41665 8.24999 5.74999C8.20832 5.93749 8.11457 6.22915 7.96874 6.62498C7.8229 7.02082 7.72915 7.31248 7.68749 7.49998C7.60415 7.83331 7.56249 8.12498 7.56249 8.37498C7.56249 8.77081 7.70311 9.09894 7.98436 9.35935C8.26561 9.61977 8.60415 9.74998 8.99998 9.74998C9.66665 9.74998 10.2291 9.45831 10.6875 8.87498C11.0833 8.39581 11.375 7.74998 11.5625 6.93748C11.7291 6.27082 11.8125 5.61457 11.8125 4.96874C11.8125 3.88541 11.4739 3.04166 10.7969 2.43749C10.1198 1.83333 9.22915 1.53125 8.12499 1.53125C7.31249 1.53125 6.5677 1.71875 5.89062 2.09374C5.21353 2.46874 4.68749 2.97916 4.31249 3.62499C3.9375 4.27082 3.75 5.0104 3.75 5.84374C3.75 6.1979 3.8125 6.54165 3.9375 6.87498C4 7.06248 4.11458 7.29165 4.28124 7.56248C4.40624 7.77081 4.46874 7.90623 4.46874 7.96873C4.46874 8.1354 4.42708 8.34373 4.34374 8.59373C4.23958 8.90623 4.12499 9.06248 4 9.06248C3.72916 9.06248 3.4375 8.92185 3.125 8.6406C2.8125 8.35935 2.55208 7.97915 2.34375 7.49998C2.11458 6.93748 2 6.31249 2 5.62499C2 4.49999 2.3125 3.49999 2.9375 2.62499C3.52083 1.8125 4.30208 1.17187 5.28124 0.703123C6.26041 0.234374 7.29165 0 8.37498 0Z" fill="#8083A3"/>
</svg>
