<svg width="16" height="16" viewBox="0 0 16 16" fill="none" xmlns="http://www.w3.org/2000/svg">
<path d="M14.3437 5.24999C14.3645 5.33333 14.375 5.46874 14.375 5.65624C14.375 7.15624 14.0104 8.60415 13.2812 9.99998C12.5312 11.4791 11.4791 12.6562 10.125 13.5312C8.64581 14.5104 6.9479 15 5.03124 15C3.19791 15 1.52083 14.5104 0 13.5312C0.229166 13.5521 0.489582 13.5625 0.781248 13.5625C2.30208 13.5625 3.66666 13.0937 4.87499 12.1562C4.14582 12.1562 3.5052 11.9427 2.95312 11.5156C2.40104 11.0885 2.02083 10.5521 1.8125 9.90623C2.02083 9.92706 2.21874 9.93748 2.40624 9.93748C2.69791 9.93748 2.98958 9.90623 3.28124 9.84373C2.53124 9.67707 1.90625 9.29165 1.40625 8.68748C0.906248 8.08332 0.656248 7.39582 0.656248 6.62499V6.56249C1.11458 6.83332 1.60416 6.97915 2.12499 6.99999C1.6875 6.68749 1.33333 6.29166 1.0625 5.81249C0.791665 5.33333 0.656248 4.80728 0.656248 4.23437C0.656248 3.66145 0.812498 3.11458 1.125 2.59375C1.9375 3.61458 2.93228 4.42708 4.10936 5.03124C5.28645 5.63541 6.54165 5.96874 7.87498 6.03124C7.83331 5.78124 7.81248 5.53124 7.81248 5.28124C7.81248 4.69791 7.95831 4.15104 8.24998 3.64062C8.54165 3.13021 8.93748 2.72916 9.43748 2.4375C9.93748 2.14583 10.4791 2 11.0625 2C11.5416 2 11.9843 2.09375 12.3906 2.28125C12.7968 2.46875 13.1562 2.71875 13.4687 3.03125C14.2187 2.88541 14.9166 2.625 15.5625 2.25C15.3125 3.02083 14.8333 3.625 14.125 4.06249C14.75 3.97916 15.375 3.80208 16 3.53125C15.5416 4.19791 14.9895 4.77083 14.3437 5.24999Z" fill="#8083A3"/>
</svg>
