<?xml version="1.0" standalone="no"?>
<!DOCTYPE svg PUBLIC "-//W3C//DTD SVG 1.1//EN" "http://www.w3.org/Graphics/SVG/1.1/DTD/svg11.dtd" >
<svg xmlns="http://www.w3.org/2000/svg">
<metadata>Generated by IcoMoon</metadata>
<defs>
<font id="icomoon" horiz-adv-x="1024">
<font-face units-per-em="1024" ascent="960" descent="-64" />
<missing-glyph horiz-adv-x="1024" />
<glyph unicode="&#x20;" d="" />
<glyph unicode="&#xe900;" glyph-name="d-cube-scan1" d="M972.8 661.333v-85.333c0-17.067-12.8-34.133-34.133-34.133s-34.133 17.067-34.133 34.133v85.333c0 110.933-72.533 179.2-179.2 179.2h-426.667c-110.933 0-179.2-68.267-179.2-179.2v-85.333c0-17.067-12.8-34.133-34.133-34.133s-34.133 17.067-34.133 34.133v85.333c0 145.067 98.133 247.467 247.467 247.467h426.667c145.067-4.267 247.467-102.4 247.467-247.467zM938.667 349.867c-17.067 0-34.133-12.8-34.133-34.133v-85.333c0-110.933-72.533-179.2-179.2-179.2h-426.667c-110.933 0-179.2 72.533-179.2 179.2v85.333c0 17.067-12.8 34.133-34.133 34.133s-34.133-12.8-34.133-29.867v-85.333c0-145.067 98.133-247.467 247.467-247.467h426.667c145.067 0 247.467 98.133 247.467 247.467v85.333c0 17.067-17.067 29.867-34.133 29.867zM307.2 251.733c-42.667 21.333-72.533 76.8-72.533 123.733v145.067c0 46.933 29.867 102.4 72.533 123.733l136.533 76.8c38.4 21.333 98.133 21.333 136.533 0l136.533-76.8c42.667-21.333 72.533-76.8 72.533-123.733v-145.067c0-46.933-29.867-102.4-72.533-123.733l-136.533-76.8c-21.333-12.8-42.667-17.067-68.267-17.067s-51.2 4.267-68.267 17.067l-136.533 76.8zM725.333 520.533c0 0 0 0 0 0l-183.467-106.667v-183.467c0 0 4.267 0 4.267 0l136.533 76.8c21.333 12.8 38.4 42.667 38.4 68.267v145.067zM337.067 588.8c-4.267-4.267-8.533-8.533-8.533-8.533l183.467-106.667 187.733 106.667c-4.267 4.267-8.533 8.533-12.8 8.533l-136.533 76.8c-8.533 4.267-25.6 8.533-38.4 8.533s-25.6-4.267-38.4-8.533c0 0 0 0 0 0l-136.533-76.8zM298.667 375.467c0-25.6 17.067-55.467 38.4-68.267l136.533-76.8c0 0 4.267 0 4.267 0v183.467l-179.2 106.667c0 0 0 0 0 0v-145.067z" />
<glyph unicode="&#xe901;" glyph-name="d-rotate1" d="M789.333 375.467v145.067c0 46.933-34.133 102.4-72.533 123.733l-136.533 76.8c-38.4 21.333-98.133 21.333-136.533 0l-136.533-76.8c-42.667-21.333-72.533-76.8-72.533-123.733v-145.067c0-46.933 34.133-102.4 72.533-123.733l136.533-76.8c21.333-12.8 42.667-17.067 68.267-17.067s51.2 4.267 68.267 17.067l136.533 76.8c42.667 21.333 72.533 76.8 72.533 123.733zM473.6 665.6c0 0 0 0 0 0 8.533 4.267 25.6 8.533 38.4 8.533s25.6-4.267 38.4-8.533l136.533-76.8c4.267-4.267 8.533-4.267 12.8-8.533l-187.733-110.933-183.467 110.933c4.267 4.267 8.533 8.533 12.8 8.533l132.267 76.8zM337.067 307.2c-21.333 12.8-38.4 42.667-38.4 68.267v145.067c0 0 0 0 0 0l183.467-106.667v-183.467c0 0-4.267 0-4.267 0l-140.8 76.8zM686.933 307.2l-136.533-76.8c0 0-4.267 0-4.267 0v183.467l183.467 106.667c0 0 0 0 0 0v-145.067c-4.267-25.6-21.333-55.467-42.667-68.267zM972.8 320c0-183.467-149.333-332.8-332.8-332.8-12.8 0-21.333 4.267-29.867 17.067-4.267 8.533-4.267 21.333 0 34.133l42.667 76.8c8.533 17.067 29.867 21.333 42.667 12.8 17.067-8.533 21.333-29.867 12.8-42.667l-12.8-21.333c119.467 25.6 204.8 132.267 204.8 260.267 0 17.067 12.8 34.133 34.133 34.133s38.4-21.333 38.4-38.4zM324.267 836.267c-119.467-29.867-204.8-132.267-204.8-260.267 0-17.067-12.8-34.133-34.133-34.133s-34.133 17.067-34.133 34.133c0 183.467 149.333 332.8 332.8 332.8 12.8 0 21.333-4.267 29.867-17.067 4.267-8.533 4.267-21.333 0-34.133l-42.667-76.8c-8.533-17.067-29.867-21.333-42.667-12.8-17.067 8.533-21.333 29.867-12.8 42.667l8.533 25.6z" />
<glyph unicode="&#xe902;" glyph-name="d-square1" d="M640 904.533h-256c-230.4 0-332.8-98.133-332.8-328.533v-256c0-230.4 98.133-332.8 332.8-332.8h256c230.4 0 332.8 98.133 332.8 332.8v256c0 230.4-102.4 328.533-332.8 328.533zM904.533 320c0-196.267-68.267-264.533-264.533-264.533h-256c-196.267 0-264.533 68.267-264.533 264.533v256c0 196.267 68.267 264.533 264.533 264.533h256c196.267 0 264.533-68.267 264.533-264.533v-256zM716.8 644.267l-136.533 76.8c-38.4 21.333-98.133 21.333-136.533 0l-136.533-76.8c-42.667-21.333-72.533-76.8-72.533-123.733v-145.067c0-46.933 34.133-102.4 72.533-123.733l136.533-76.8c21.333-12.8 42.667-17.067 68.267-17.067s51.2 4.267 68.267 17.067l136.533 76.8c42.667 21.333 72.533 76.8 72.533 123.733v145.067c0 46.933-29.867 102.4-72.533 123.733zM473.6 665.6c0 0 0 0 0 0 8.533 4.267 25.6 8.533 38.4 8.533s25.6-4.267 38.4-8.533l136.533-76.8c4.267-4.267 8.533-4.267 12.8-8.533l-187.733-110.933-183.467 110.933c4.267 4.267 8.533 8.533 12.8 8.533l132.267 76.8zM337.067 307.2c-21.333 12.8-38.4 42.667-38.4 68.267v145.067c0 0 0 0 0 0l183.467-106.667v-183.467c0 0-4.267 0-4.267 0l-140.8 76.8zM725.333 375.467c0-25.6-17.067-55.467-38.4-68.267l-136.533-76.8c0 0-4.267 0-4.267 0v183.467l183.467 106.667c0 0 0 0 0 0v-145.067z" />
<glyph unicode="&#xe903;" glyph-name="dcube1" d="M844.8 601.6c25.6 12.8 42.667 42.667 42.667 72.533s-17.067 55.467-42.667 72.533l-277.333 149.333c0 0 0 0 0 0-34.133 17.067-76.8 17.067-106.667 0l-281.6-153.6c-25.6-12.8-42.667-42.667-42.667-72.533s17.067-55.467 42.667-72.533l277.333-149.333c17.067-8.533 34.133-12.8 55.467-12.8 17.067 0 38.4 4.267 55.467 12.8l277.333 153.6zM486.4 507.733l-277.333 149.333c-4.267 4.267-4.267 12.8-4.267 12.8s0 8.533 8.533 12.8l277.333 149.333c8.533 4.267 17.067 4.267 25.6 4.267s17.067 0 25.6-4.267l277.333-149.333c8.533-4.267 8.533-12.8 8.533-12.8s0-8.533-8.533-12.8l-277.333-149.333c-21.333-8.533-38.4-8.533-55.467 0zM426.667 426.667l-260.267 128c-21.333 12.8-51.2 12.8-76.8 0s-38.4-38.4-38.4-68.267v-243.2c0-46.933 25.6-89.6 68.267-115.2l260.267-128c12.8-4.267 25.6-8.533 34.133-8.533 12.8 0 29.867 4.267 42.667 12.8 25.6 12.8 38.4 38.4 38.4 68.267v243.2c0 46.933-25.6 89.6-68.267 110.933zM430.933 68.267c0-8.533-4.267-12.8-8.533-12.8s-8.533-4.267-17.067 0l-256 128c-21.333 12.8-34.133 34.133-34.133 55.467v243.2c0 8.533 4.267 12.8 8.533 12.8 0 0 4.267 4.267 8.533 4.267 0 0 4.267 0 8.533 0l256-128c21.333-12.8 34.133-34.133 34.133-55.467v-247.467zM934.4 554.667c-25.6 12.8-51.2 17.067-76.8 4.267 0 0 0 0 0 0l-260.267-128c-42.667-21.333-68.267-64-68.267-115.2v-243.2c0-25.6 12.8-51.2 38.4-68.267 12.8-8.533 25.6-12.8 42.667-12.8 12.8 0 25.6 4.267 34.133 8.533l260.267 128c42.667 21.333 68.267 64 68.267 115.2v243.2c0 25.6-17.067 51.2-38.4 68.267zM904.533 243.2c0-25.6-12.8-46.933-34.133-55.467l-256-128c-8.533-4.267-12.8 0-17.067 0s-8.533 4.267-8.533 12.8v243.2c0 21.333 12.8 46.933 34.133 55.467l256 128c8.533 4.267 12.8 0 17.067 0s8.533-4.267 8.533-12.8v-243.2z" />
<glyph unicode="&#xe904;" glyph-name="square1" d="M827.733 904.533h-204.8c-98.133 0-145.067-46.933-145.067-145.067v-68.267h-68.267c-98.133 0-145.067-46.933-145.067-145.067v-68.267h-68.267c-98.133 0-145.067-46.933-145.067-145.067v-204.8c0-98.133 46.933-145.067 145.067-145.067h204.8c98.133 0 145.067 46.933 145.067 145.067v68.267h68.267c98.133 0 145.067 46.933 145.067 145.067v68.267h68.267c98.133 0 145.067 46.933 145.067 145.067v209.067c0 98.133-46.933 140.8-145.067 140.8zM477.867 132.267c0-64-17.067-81.067-81.067-81.067h-200.533c-64 0-81.067 17.067-81.067 81.067v204.8c0 64 17.067 81.067 81.067 81.067h68.267v-68.267c0-98.133 46.933-145.067 145.067-145.067h68.267v-72.533zM691.2 345.6c0-64-17.067-81.067-81.067-81.067h-200.533c-64 0-81.067 17.067-81.067 81.067v204.8c0 64 17.067 81.067 81.067 81.067h68.267v-68.267c0-98.133 46.933-145.067 145.067-145.067h68.267v-72.533zM904.533 558.933c0-64-17.067-81.067-81.067-81.067h-200.533c-64 0-81.067 17.067-81.067 81.067v204.8c0 64 17.067 81.067 81.067 81.067h204.8c64 0 81.067-17.067 81.067-81.067v-204.8z" />
<glyph unicode="&#xe905;" glyph-name="support1" d="M768 904.533h-512c-89.6 0-162.133-68.267-162.133-157.867v-465.067c0-89.6 72.533-157.867 162.133-157.867h34.133c25.6 0 51.2-8.533 68.267-29.867l72.533-72.533c21.333-21.333 51.2-34.133 81.067-34.133s59.733 12.8 81.067 34.133l72.533 72.533c17.067 17.067 42.667 29.867 68.267 29.867h34.133c89.6 0 162.133 72.533 162.133 157.867v465.067c0 89.6-72.533 157.867-162.133 157.867zM861.867 281.6c0-51.2-42.667-93.867-93.867-93.867h-34.133c-42.667 0-81.067-17.067-110.933-46.933l-72.533-72.533c-21.333-21.333-55.467-21.333-76.8 0l-72.533 72.533c-29.867 29.867-72.533 46.933-115.2 46.933h-29.867c-51.2 0-93.867 42.667-93.867 93.867v465.067c0 51.2 42.667 93.867 93.867 93.867h512c51.2 0 93.867-42.667 93.867-93.867v-465.067zM337.067 405.333h102.4c17.067 0 34.133-12.8 34.133-34.133s-12.8-34.133-34.133-34.133h-110.933c-17.067 0-34.133 8.533-46.933 25.6-8.533 12.8-12.8 34.133-8.533 51.2 17.067 46.933 51.2 72.533 85.333 93.867s51.2 38.4 51.2 64c0 21.333-17.067 38.4-38.4 38.4s-38.4-17.067-38.4-42.667c0-17.067-12.8-34.133-34.133-34.133s-34.133 17.067-34.133 34.133c0 55.467 46.933 102.4 102.4 102.4s102.4-46.933 102.4-102.4c0-59.733-46.933-89.6-81.067-115.2-17.067-12.8-38.4-29.867-51.2-46.933zM725.333 465.067h-8.533v153.6c0 25.6-17.067 46.933-42.667 55.467s-51.2-4.267-64-25.6c-29.867-51.2-64-106.667-93.867-157.867-8.533-17.067-8.533-42.667 0-59.733s29.867-29.867 51.2-29.867h85.333v-29.867c0-17.067 12.8-34.133 34.133-34.133s34.133 12.8 34.133 34.133v29.867h4.267c17.067 0 34.133 12.8 34.133 29.867s-17.067 34.133-34.133 34.133zM652.8 465.067h-76.8c25.6 38.4 51.2 85.333 76.8 123.733v-123.733z" />
<glyph unicode="&#xe906;" glyph-name="activity1" d="M640 904.533h-256c-230.4 0-332.8-98.133-332.8-328.533v-256c0-230.4 98.133-332.8 332.8-332.8h256c230.4 0 332.8 98.133 332.8 332.8v256c0 230.4-102.4 328.533-332.8 328.533zM904.533 320c0-196.267-68.267-264.533-264.533-264.533h-256c-196.267 0-264.533 68.267-264.533 264.533v256c0 196.267 68.267 264.533 264.533 264.533h256c196.267 0 264.533-68.267 264.533-264.533v-256zM729.6 580.267c12.8-12.8 17.067-29.867 4.267-46.933l-98.133-128c-25.6-34.133-72.533-38.4-106.667-12.8l-76.8 59.733c-4.267 4.267-12.8 4.267-17.067 0l-102.4-132.267c-4.267-8.533-17.067-12.8-25.6-12.8s-12.8 4.267-21.333 8.533c-12.8 12.8-17.067 29.867-4.267 46.933l102.4 132.267c25.6 34.133 72.533 38.4 106.667 12.8l76.8-59.733c4.267-4.267 12.8-4.267 17.067 0l98.133 128c12.8 12.8 34.133 12.8 46.933 4.267z" />
<glyph unicode="&#xe907;" glyph-name="add-circle1" d="M512 904.533c-251.733 0-460.8-204.8-460.8-456.533s209.067-460.8 460.8-460.8 460.8 209.067 460.8 460.8-209.067 456.533-460.8 456.533zM512 51.2c-217.6 0-392.533 174.933-392.533 392.533s174.933 396.8 392.533 396.8 392.533-174.933 392.533-392.533-174.933-396.8-392.533-396.8zM716.8 448c0-17.067-12.8-34.133-34.133-34.133h-136.533v-136.533c0-17.067-12.8-34.133-34.133-34.133s-34.133 12.8-34.133 34.133v136.533h-136.533c-17.067 0-34.133 12.8-34.133 34.133s12.8 34.133 34.133 34.133h136.533v136.533c0 17.067 12.8 34.133 34.133 34.133s34.133-12.8 34.133-34.133v-136.533h136.533c17.067-4.267 34.133-17.067 34.133-34.133z" />
<glyph unicode="&#xe908;" glyph-name="add-square1" d="M682.667 477.867h-136.533v140.8c0 17.067-12.8 34.133-34.133 34.133s-34.133-17.067-34.133-34.133v-136.533h-136.533c-17.067 0-34.133-12.8-34.133-34.133s12.8-34.133 34.133-34.133h136.533v-136.533c0-17.067 12.8-34.133 34.133-34.133s34.133 12.8 34.133 34.133v136.533h136.533c17.067 0 34.133 12.8 34.133 34.133s-17.067 29.867-34.133 29.867zM640 904.533h-256c-230.4 0-332.8-98.133-332.8-328.533v-256c0-230.4 98.133-332.8 332.8-332.8h256c230.4 0 332.8 98.133 332.8 332.8v256c0 230.4-102.4 328.533-332.8 328.533zM904.533 320c0-196.267-68.267-264.533-264.533-264.533h-256c-196.267 0-264.533 68.267-264.533 264.533v256c0 196.267 68.267 264.533 264.533 264.533h256c196.267 0 264.533-68.267 264.533-264.533v-256z" />
<glyph unicode="&#xe909;" glyph-name="add1" d="M802.133 448c0-17.067-12.8-34.133-34.133-34.133h-221.867v-221.867c0-17.067-12.8-34.133-34.133-34.133s-34.133 12.8-34.133 34.133v221.867h-221.867c-17.067 0-34.133 12.8-34.133 34.133s12.8 34.133 34.133 34.133h221.867v221.867c0 17.067 12.8 34.133 34.133 34.133s34.133-12.8 34.133-34.133v-221.867h221.867c17.067-4.267 34.133-17.067 34.133-34.133z" />
<glyph unicode="&#xe90a;" glyph-name="additem1" d="M375.467 277.333c0-17.067-12.8-34.133-34.133-34.133h-110.933c-115.2 0-179.2 64-179.2 179.2v307.2c0 115.2 64 179.2 179.2 179.2h196.267c115.2 0 179.2-64 179.2-179.2 0-17.067-12.8-34.133-34.133-34.133s-34.133 12.8-34.133 34.133c0 81.067-34.133 115.2-115.2 115.2h-192c-81.067 0-115.2-34.133-115.2-115.2v-302.933c0-81.067 34.133-115.2 115.2-115.2h110.933c17.067-4.267 34.133-17.067 34.133-34.133zM972.8 473.6v-302.933c0-115.2-64-179.2-179.2-179.2h-196.267c-115.2 0-179.2 64-179.2 179.2v302.933c0 115.2 64 179.2 179.2 179.2h196.267c115.2-4.267 179.2-64 179.2-179.2zM904.533 473.6c0 81.067-34.133 115.2-115.2 115.2h-192c-81.067 0-115.2-34.133-115.2-115.2v-302.933c0-81.067 34.133-115.2 115.2-115.2h196.267c81.067 0 115.2 34.133 115.2 115.2v302.933zM772.267 349.867h-38.4v38.4c0 17.067-12.8 34.133-34.133 34.133s-34.133-12.8-34.133-34.133v-38.4h-38.4c-17.067 0-34.133-12.8-34.133-34.133s12.8-34.133 34.133-34.133h38.4v-38.4c0-17.067 12.8-34.133 34.133-34.133s34.133 12.8 34.133 34.133v38.4h38.4c17.067 0 34.133 12.8 34.133 34.133s-17.067 34.133-34.133 34.133z" />
<glyph unicode="&#xe90b;" glyph-name="airdrop1" d="M512 375.467c8.533 0 21.333 0 29.867 4.267 46.933 12.8 81.067 46.933 89.6 89.6s0 89.6-34.133 119.467c-29.867 29.867-76.8 42.667-119.467 34.133-42.667-12.8-81.067-46.933-89.6-89.6s0-89.6 34.133-119.467c25.6-25.6 55.467-38.4 89.6-38.4zM452.267 516.267c4.267 21.333 21.333 38.4 42.667 42.667 4.267 0 12.8 0 17.067 0 17.067 0 29.867-4.267 42.667-17.067 17.067-17.067 21.333-38.4 17.067-59.733 0 0 0 0 0 0-4.267-21.333-21.333-38.4-42.667-42.667s-42.667 0-59.733 17.067c-17.067 12.8-21.333 38.4-17.067 59.733zM917.333 499.2c0-115.2-46.933-217.6-128-294.4-12.8-12.8-34.133-12.8-46.933 0s-12.8 34.133 0 46.933c68.267 64 106.667 153.6 106.667 251.733 0 187.733-153.6 341.333-341.333 341.333s-341.333-153.6-341.333-341.333c0-93.867 38.4-187.733 110.933-251.733 12.8-12.8 12.8-34.133 0-46.933-4.267-8.533-12.8-12.8-21.333-12.8s-17.067 4.267-21.333 8.533c-81.067 76.8-132.267 183.467-132.267 298.667 0 226.133 183.467 405.333 405.333 405.333 230.4 0 409.6-179.2 409.6-405.333zM776.533 499.2c0-68.267-25.6-132.267-72.533-183.467-4.267-8.533-12.8-8.533-21.333-8.533s-17.067 4.267-21.333 8.533c-12.8 12.8-12.8 34.133 0 46.933 34.133 38.4 55.467 85.333 55.467 136.533-4.267 110.933-93.867 204.8-204.8 204.8s-200.533-89.6-200.533-200.533c0-51.2 21.333-102.4 55.467-136.533 12.8-12.8 12.8-34.133 0-46.933s-34.133-12.8-46.933 0c-46.933 51.2-72.533 115.2-72.533 183.467 0 145.067 119.467 264.533 264.533 264.533s264.533-119.467 264.533-268.8zM610.133 268.8c-25.6 29.867-59.733 46.933-98.133 46.933 0 0 0 0 0 0-38.4 0-72.533-17.067-98.133-46.933l-59.733-76.8c-29.867-38.4-34.133-89.6-17.067-132.267 21.333-42.667 64-72.533 110.933-72.533h123.733c46.933 0 93.867 25.6 110.933 72.533 21.333 42.667 12.8 93.867-17.067 132.267l-55.467 76.8zM627.2 89.6c-8.533-21.333-29.867-34.133-55.467-34.133h-123.733c-25.6 0-42.667 12.8-55.467 34.133-8.533 21.333-8.533 46.933 8.533 64l59.733 76.8c0 0 0 0 0 0 12.8 12.8 29.867 21.333 46.933 21.333 0 0 0 0 0 0 17.067 0 34.133-8.533 46.933-21.333l59.733-76.8c21.333-21.333 25.6-42.667 12.8-64z" />
<glyph unicode="&#xe90c;" glyph-name="airplane-square1" d="M768 520.533l-162.133 68.267v81.067c0 42.667-25.6 85.333-64 106.667-17.067 8.533-38.4 8.533-59.733 0-38.4-17.067-64-64-64-106.667v-81.067l-162.133-68.267c-29.867-12.8-55.467-46.933-55.467-81.067v-38.4c0-21.333 8.533-42.667 25.6-55.467s38.4-12.8 59.733-4.267l128 55.467v-59.733l-72.533-68.267c-17.067-17.067-21.333-42.667-17.067-64l12.8-42.667c4.267-17.067 17.067-29.867 34.133-38.4s34.133-4.267 51.2 0c4.267 0 4.267 4.267 4.267 4.267l68.267 59.733 72.533-59.733c0 0 4.267-4.267 4.267-4.267 8.533-4.267 17.067-8.533 29.867-8.533 8.533 0 17.067 0 25.6 4.267 17.067 8.533 29.867 21.333 34.133 38.4l12.8 42.667c8.533 21.333 0 46.933-12.8 64l-68.267 68.267v64l128-55.467c21.333-8.533 42.667-8.533 59.733 4.267s25.6 29.867 25.6 55.467v38.4c17.067 29.867-8.533 68.267-38.4 81.067zM759.467 401.067l-140.8 59.733c-17.067 8.533-38.4 4.267-51.2-4.267s-21.333-25.6-21.333-46.933v-81.067c0-17.067 8.533-34.133 17.067-42.667l68.267-68.267-12.8-38.4-68.267 55.467c-12.8 8.533-25.6 12.8-38.4 12.8s-29.867-4.267-38.4-12.8l-64-55.467-12.8 38.4 72.533 68.267c12.8 12.8 17.067 29.867 17.067 42.667v81.067c0 21.333-8.533 38.4-25.6 46.933s-34.133 8.533-51.2 4.267l-140.8-59.733v38.4c0 8.533 8.533 21.333 17.067 21.333l166.4 72.533c17.067 8.533 34.133 29.867 34.133 46.933v89.6c0 17.067 12.8 38.4 29.867 46.933 17.067-8.533 29.867-29.867 29.867-46.933v-89.6c0-21.333 12.8-42.667 34.133-46.933l166.4-72.533c8.533-4.267 17.067-17.067 17.067-21.333l-4.267-38.4zM640 904.533h-256c-230.4 0-332.8-98.133-332.8-328.533v-256c0-230.4 98.133-332.8 332.8-332.8h256c230.4 0 332.8 98.133 332.8 332.8v256c0 230.4-102.4 328.533-332.8 328.533zM904.533 320c0-196.267-68.267-264.533-264.533-264.533h-256c-196.267 0-264.533 68.267-264.533 264.533v256c0 196.267 68.267 264.533 264.533 264.533h256c196.267 0 264.533-68.267 264.533-264.533v-256z" />
<glyph unicode="&#xe90d;" glyph-name="airplane1" d="M861.867 533.333l-230.4 98.133v123.733c0 51.2-38.4 110.933-81.067 136.533-21.333 12.8-46.933 12.8-68.267 0-46.933-25.6-81.067-81.067-81.067-136.533v-119.467l-238.933-102.4c-38.4-17.067-68.267-59.733-68.267-102.4v-55.467c0-29.867 12.8-51.2 29.867-64 21.333-12.8 46.933-12.8 72.533-4.267l196.267 85.333v-106.667c0 0 0-8.533-4.267-8.533l-98.133-98.133c-17.067-17.067-25.6-51.2-17.067-76.8l17.067-55.467c8.533-21.333 21.333-38.4 42.667-46.933 8.533-4.267 17.067-4.267 29.867-4.267s21.333 4.267 34.133 8.533c4.267 0 4.267 4.267 4.267 4.267l98.133 85.333c4.267 4.267 8.533 4.267 12.8 0l98.133-85.333c0 0 4.267-4.267 4.267-4.267 21.333-8.533 42.667-8.533 59.733-4.267 21.333 8.533 34.133 25.6 42.667 46.933l17.067 55.467c8.533 25.6 0 59.733-17.067 76.8l-98.133 98.133c0 0-4.267 4.267-4.267 8.533v106.667l196.267-85.333c25.6-12.8 51.2-8.533 72.533 4.267s29.867 38.4 29.867 64v55.467c17.067 42.667-12.8 89.6-51.2 102.4zM866.133 379.733c0-8.533 0-12.8-4.267-12.8 0 0-4.267 0-12.8 0l-209.067 89.6c-17.067 8.533-38.4 4.267-51.2-4.267s-21.333-25.6-21.333-46.933v-119.467c0-17.067 8.533-42.667 21.333-51.2l98.133-98.133c0 0 4.267-8.533 4.267-12.8l-17.067-55.467c0-4.267-4.267-4.267-8.533-8.533 0 0-4.267 0-4.267 0l-93.867 81.067c-25.6 21.333-68.267 21.333-98.133 0l-102.4-76.8c-4.267 0-4.267 0-4.267 0s-4.267 4.267-4.267 8.533l-17.067 55.467c0 4.267 0 8.533 4.267 12.8l98.133 98.133c12.8 12.8 21.333 34.133 21.333 51.2v119.467c0 21.333-8.533 38.4-25.6 46.933-8.533 4.267-17.067 8.533-25.6 8.533s-17.067 0-25.6-4.267l-209.067-89.6c-8.533-4.267-12.8-4.267-12.8 0 0 0-4.267 4.267-4.267 12.8v55.467c0 17.067 12.8 38.4 29.867 42.667l234.667 98.133c17.067 8.533 34.133 29.867 34.133 46.933v128c0 29.867 21.333 64 46.933 76.8 4.267 0 8.533 0 12.8 0 25.6-12.8 46.933-51.2 46.933-76.8v-128c0-21.333 12.8-42.667 34.133-46.933l238.933-102.4c12.8-4.267 29.867-25.6 29.867-42.667v-55.467z" />
<glyph unicode="&#xe90e;" glyph-name="airpod1" d="M938.667 699.733c-17.067 174.933-119.467 204.8-294.4 204.8h-264.533c-174.933 0-277.333-29.867-294.4-204.8-4.267-25.6-4.267-55.467-4.267-93.867v-320c0-38.4 0-68.267 4.267-93.867 17.067-170.667 123.733-204.8 294.4-204.8h264.533c174.933 0 273.067 34.133 294.4 204.8 4.267 25.6 4.267 55.467 4.267 93.867v320c0 34.133 0 64-4.267 93.867zM379.733 840.533h264.533c183.467 0 217.6-38.4 230.4-149.333 4.267-25.6 4.267-55.467 4.267-81.067h-123.733c-4.267 21.333-17.067 38.4-29.867 51.2-21.333 21.333-51.2 34.133-85.333 34.133h-260.267c-55.467 4.267-98.133-34.133-115.2-85.333h-119.467c0 34.133 0 59.733 4.267 81.067 12.8 110.933 46.933 149.333 230.4 149.333zM699.733 580.267c0-29.867-25.6-55.467-55.467-55.467h-264.533c-12.8 0-29.867 4.267-38.4 17.067-8.533 8.533-17.067 21.333-17.067 38.4 0 29.867 25.6 55.467 55.467 55.467h264.533c12.8 0 29.867-4.267 38.4-17.067s17.067-25.6 17.067-38.4zM874.667 204.8c-12.8-110.933-51.2-149.333-230.4-149.333h-264.533c-183.467 0-217.6 38.4-230.4 149.333-4.267 21.333-4.267 51.2-4.267 85.333v256h123.733c4.267-21.333 17.067-38.4 29.867-51.2 21.333-21.333 51.2-34.133 85.333-34.133h264.533c55.467 0 102.4 38.4 115.2 85.333h123.733v-260.267c-8.533-34.133-8.533-59.733-12.8-81.067z" />
<glyph unicode="&#xe90f;" glyph-name="airpods1" d="M328.533 904.533h-81.067c-106.667 0-192-85.333-192-192s85.333-192 192-192h8.533v-290.133c0-51.2 29.867-89.6 76.8-106.667v-102.4c0-17.067 12.8-34.133 34.133-34.133s34.133 12.8 34.133 34.133v98.133c46.933 12.8 85.333 55.467 85.333 110.933v524.8c-8.533 81.067-76.8 149.333-157.867 149.333zM418.133 230.4c0-25.6-21.333-46.933-46.933-46.933s-46.933 21.333-46.933 46.933v320c0 17.067-12.8 34.133-34.133 34.133h-42.667c-72.533 0-128 59.733-128 128 0 72.533 59.733 128 128 128h81.067c46.933 0 89.6-38.4 89.6-89.6v-520.533zM238.933 712.533c0-4.267 4.267-8.533 8.533-8.533 17.067 0 34.133-12.8 34.133-34.133s-17.067-29.867-34.133-29.867c-38.4 0-72.533 34.133-72.533 72.533s34.133 72.533 72.533 72.533c17.067 0 34.133-12.8 34.133-34.133s-17.067-29.867-34.133-29.867c-4.267 0-8.533-4.267-8.533-8.533zM776.533 904.533h-81.067c-85.333 0-153.6-68.267-153.6-153.6v-524.8c0-51.2 38.4-98.133 85.333-110.933v-93.867c0-17.067 12.8-34.133 34.133-34.133s34.133 12.8 34.133 34.133v102.4c42.667 17.067 76.8 55.467 76.8 106.667v290.133h8.533c106.667 0 192 85.333 192 192s-89.6 192-196.267 192zM776.533 584.533h-38.4c-17.067 0-34.133-12.8-34.133-34.133v-320c0-25.6-21.333-46.933-46.933-46.933s-46.933 21.333-46.933 46.933v524.8c0 46.933 38.4 89.6 89.6 89.6h81.067c72.533 0 128-59.733 128-128-4.267-76.8-59.733-132.267-132.267-132.267zM849.067 712.533c0-38.4-34.133-72.533-72.533-72.533-17.067 0-34.133 12.8-34.133 34.133s17.067 29.867 34.133 29.867c4.267 0 8.533 4.267 8.533 8.533s-4.267 8.533-8.533 8.533c-17.067 0-34.133 12.8-34.133 34.133s12.8 34.133 34.133 34.133c42.667-4.267 72.533-34.133 72.533-76.8z" />
<glyph unicode="&#xe910;" glyph-name="alarm1" d="M938.667 51.2h-8.533v268.8c0 230.4-187.733 418.133-418.133 418.133s-418.133-187.733-418.133-418.133v-264.533h-8.533c-17.067 0-34.133-12.8-34.133-34.133s12.8-34.133 34.133-34.133h853.333c17.067 0 34.133 12.8 34.133 34.133s-17.067 29.867-34.133 29.867zM162.133 51.2v268.8c0 192 157.867 349.867 349.867 349.867s349.867-157.867 349.867-349.867v-264.533h-699.733zM477.867 832v42.667c0 17.067 12.8 34.133 34.133 34.133s34.133-12.8 34.133-34.133v-42.667c0-17.067-12.8-34.133-34.133-34.133s-34.133 17.067-34.133 34.133zM149.333 768c-12.8 12.8-12.8 34.133 0 46.933s34.133 12.8 46.933 0l42.667-42.667c12.8-12.8 12.8-34.133 0-46.933-8.533-8.533-17.067-12.8-25.6-12.8s-17.067 4.267-21.333 12.8l-42.667 42.667zM789.333 725.333c-12.8 12.8-12.8 34.133 0 46.933l42.667 42.667c12.8 12.8 34.133 12.8 46.933 0s12.8-34.133 0-46.933l-42.667-42.667c-4.267-4.267-12.8-8.533-21.333-8.533s-21.333 0-25.6 8.533z" />
<glyph unicode="&#xe911;" glyph-name="align-bottom1" d="M938.667 776.533h-853.333c-17.067 0-34.133-12.8-34.133-29.867s17.067-34.133 34.133-34.133h106.667v-260.267c0-81.067 42.667-123.733 128-123.733h42.667c85.333 0 128 38.4 128 123.733v260.267h64v-477.867c0-81.067 42.667-119.467 128-119.467h42.667c85.333 0 128 38.4 128 119.467v477.867h85.333c17.067 0 34.133 12.8 34.133 34.133s-17.067 29.867-34.133 29.867zM426.667 452.267c0-42.667-8.533-59.733-64-59.733h-42.667c-55.467 0-64 17.067-64 59.733v260.267h170.667v-260.267zM789.333 238.933c0-42.667-8.533-55.467-64-55.467h-42.667c-55.467 0-64 17.067-64 55.467v473.6h170.667v-473.6z" />
<glyph unicode="&#xe912;" glyph-name="align-horizontally1" d="M938.667 477.867h-106.667v115.2c0 81.067-42.667 119.467-128 119.467h-42.667c-85.333 0-128-38.4-128-119.467v-115.2h-64v200.533c0 81.067-42.667 119.467-128 119.467h-42.667c-85.333 0-128-38.4-128-119.467v-200.533h-85.333c-17.067 0-34.133-12.8-34.133-34.133s12.8-34.133 34.133-34.133h85.333v-196.267c0-81.067 42.667-123.733 128-123.733h42.667c85.333 0 128 38.4 128 123.733v196.267h64v-110.933c0-81.067 42.667-123.733 128-123.733h42.667c85.333 0 128 38.4 128 123.733v110.933h106.667c17.067 0 34.133 12.8 34.133 34.133s-17.067 34.133-34.133 34.133zM405.333 217.6c0-42.667-8.533-59.733-64-59.733h-42.667c-55.467 0-64 17.067-64 59.733v460.8c0 42.667 8.533 55.467 64 55.467h42.667c55.467 0 64-17.067 64-55.467v-460.8zM768 302.933c0-42.667-8.533-59.733-64-59.733h-42.667c-55.467 0-64 17.067-64 59.733v290.133c0 42.667 8.533 55.467 64 55.467h42.667c55.467 0 64-17.067 64-55.467v-290.133z" />
<glyph unicode="&#xe913;" glyph-name="align-left1" d="M721.067 405.333h-473.6v64h260.267c81.067 0 123.733 42.667 123.733 128v42.667c0 85.333-38.4 128-123.733 128h-260.267v106.667c0 17.067-12.8 34.133-34.133 34.133s-34.133-17.067-34.133-34.133v-853.333c0-17.067 12.8-34.133 34.133-34.133s34.133 12.8 34.133 34.133v85.333h477.867c81.067 0 119.467 42.667 119.467 128v42.667c0 85.333-42.667 128-123.733 128zM507.733 704c42.667 0 59.733-8.533 59.733-64v-42.667c0-55.467-17.067-64-59.733-64h-260.267v170.667h260.267zM776.533 234.667c0-55.467-17.067-64-55.467-64h-473.6v170.667h477.867c42.667 0 55.467-8.533 55.467-64v-42.667z" />
<glyph unicode="&#xe914;" glyph-name="align-right1" d="M810.667 908.8c-17.067 0-34.133-12.8-34.133-34.133v-106.667h-260.267c-81.067 0-123.733-42.667-123.733-128v-42.667c0-85.333 38.4-128 123.733-128h260.267v-64h-473.6c-81.067 0-123.733-42.667-123.733-128v-42.667c0-85.333 38.4-128 123.733-128h473.6v-85.333c0-17.067 12.8-34.133 34.133-34.133s34.133 12.8 34.133 34.133v853.333c0 17.067-17.067 34.133-34.133 34.133zM516.267 533.333c-42.667 0-59.733 8.533-59.733 64v42.667c0 55.467 17.067 64 59.733 64h260.267v-170.667h-260.267zM302.933 170.667c-42.667 0-59.733 8.533-59.733 64v42.667c0 55.467 17.067 64 59.733 64h473.6v-170.667h-473.6z" />
<glyph unicode="&#xe915;" glyph-name="align-vertically1" d="M742.4 405.333h-200.533v64h115.2c81.067 0 119.467 42.667 119.467 128v42.667c0 85.333-38.4 128-119.467 128h-115.2v106.667c0 17.067-12.8 34.133-34.133 34.133s-29.867-17.067-29.867-34.133v-106.667h-110.933c-81.067 0-123.733-42.667-123.733-128v-42.667c0-85.333 38.4-128 123.733-128h110.933v-64h-196.267c-81.067 0-123.733-42.667-123.733-128v-42.667c0-85.333 38.4-128 123.733-128h196.267v-85.333c0-17.067 12.8-34.133 34.133-34.133s34.133 12.8 34.133 34.133v85.333h200.533c81.067 0 119.467 42.667 119.467 128v42.667c-4.267 85.333-42.667 128-123.733 128zM307.2 597.333v42.667c0 55.467 17.067 64 59.733 64h290.133c42.667 0 55.467-8.533 55.467-64v-42.667c0-55.467-17.067-64-55.467-64h-290.133c-42.667 0-59.733 8.533-59.733 64zM802.133 234.667c0-55.467-17.067-64-55.467-64h-465.067c-42.667 0-59.733 8.533-59.733 64v42.667c0 55.467 17.067 64 59.733 64h460.8c42.667 0 55.467-8.533 55.467-64v-42.667z" />
<glyph unicode="&#xe916;" glyph-name="aquarius1" d="M546.133 247.467v-64h93.867c17.067 0 34.133-12.8 34.133-34.133s-12.8-34.133-34.133-34.133h-93.867v-93.867c0-17.067-12.8-34.133-34.133-34.133s-34.133 12.8-34.133 34.133v93.867h-93.867c-17.067 0-34.133 12.8-34.133 34.133s12.8 34.133 34.133 34.133h93.867v93.867c0 17.067 12.8 34.133 34.133 34.133 145.067 0 264.533 119.467 264.533 264.533s-119.467 264.533-264.533 264.533-264.533-119.467-264.533-264.533c0-17.067-12.8-34.133-34.133-34.133s-34.133 17.067-34.133 34.133c0 183.467 149.333 332.8 332.8 332.8s332.8-149.333 332.8-332.8c0-170.667-132.267-311.467-298.667-328.533z" />
<glyph unicode="&#xe917;" glyph-name="archive-11" d="M810.667 904.533h-597.333c-102.4 0-162.133-55.467-162.133-157.867v-85.333c0-85.333 38.4-136.533 106.667-153.6v-358.4c0-81.067 21.333-162.133 162.133-162.133h384c140.8 0 162.133 76.8 162.133 162.133v358.4c68.267 17.067 106.667 68.267 106.667 153.6v85.333c0 102.4-59.733 157.867-162.133 157.867zM704 51.2h-384c-85.333 0-93.867 21.333-93.867 93.867v349.867h576v-345.6c0-72.533-12.8-98.133-98.133-98.133zM904.533 661.333c0-68.267-29.867-93.867-93.867-93.867h-597.333c-68.267-4.267-93.867 25.6-93.867 93.867v85.333c0 68.267 29.867 93.867 93.867 93.867h597.333c68.267 0 93.867-29.867 93.867-93.867v-85.333zM622.933 362.667c0-17.067-12.8-34.133-34.133-34.133h-153.6c-17.067 0-34.133 12.8-34.133 34.133s12.8 34.133 34.133 34.133h153.6c17.067-4.267 34.133-17.067 34.133-34.133z" />
<glyph unicode="&#xe918;" glyph-name="archive-add1" d="M648.533 503.467c0-17.067-12.8-34.133-34.133-34.133h-76.8v-76.8c0-17.067-12.8-34.133-34.133-34.133s-34.133 12.8-34.133 34.133v76.8h-64c-17.067 0-34.133 12.8-34.133 34.133s12.8 34.133 34.133 34.133h76.8v72.533c0 17.067 12.8 34.133 34.133 34.133s34.133-12.8 34.133-34.133v-72.533h76.8c8.533 0 21.333-12.8 21.333-34.133zM913.067 708.267v-601.6c0-46.933-17.067-85.333-51.2-106.667-12.8-8.533-29.867-12.8-51.2-12.8s-46.933 8.533-68.267 21.333l-209.067 115.2c-12.8 8.533-38.4 8.533-46.933 0l-209.067-115.2c-42.667-21.333-85.333-25.6-119.467-4.267-29.867 17.067-46.933 55.467-46.933 102.4v601.6c0 106.667 89.6 196.267 196.267 196.267h409.6c110.933 0 196.267-85.333 196.267-196.267zM849.067 708.267c0 72.533-59.733 132.267-132.267 132.267h-409.6c-72.533 0-132.267-59.733-132.267-132.267v-601.6c0-25.6 8.533-42.667 21.333-51.2s34.133-4.267 55.467 8.533l209.067 115.2c17.067 8.533 34.133 12.8 55.467 12.8s38.4-4.267 55.467-12.8l209.067-115.2c21.333-12.8 42.667-17.067 55.467-8.533s21.333 25.6 21.333 51.2v601.6z" />
<glyph unicode="&#xe919;" glyph-name="archive-book1" d="M682.667 904.533h-341.333c-157.867 0-247.467-85.333-247.467-243.2v-426.667c0-157.867 89.6-247.467 247.467-247.467h341.333c157.867 0 247.467 89.6 247.467 247.467v426.667c0 157.867-89.6 243.2-247.467 243.2zM631.467 840.533v-277.333l-81.067 72.533c-21.333 21.333-51.2 21.333-72.533 0l-85.333-72.533v277.333h238.933zM861.867 234.667c0-123.733-59.733-179.2-179.2-179.2h-341.333c-123.733 0-179.2 59.733-179.2 179.2v426.667c0 119.467 55.467 174.933 170.667 179.2v-302.933c0-21.333 12.8-38.4 29.867-46.933 21.333-8.533 42.667-4.267 59.733 8.533l93.867 85.333 93.867-85.333c8.533-8.533 21.333-12.8 34.133-12.8 8.533 0 12.8 0 21.333 4.267 21.333 8.533 29.867 25.6 29.867 46.933v302.933c115.2-4.267 170.667-64 170.667-179.2v-426.667zM776.533 362.667c0-17.067-12.8-34.133-34.133-34.133h-179.2c-17.067 0-34.133 12.8-34.133 34.133s12.8 34.133 34.133 34.133h179.2c21.333-4.267 34.133-17.067 34.133-34.133zM776.533 192c0-17.067-12.8-34.133-34.133-34.133h-358.4c-17.067 0-34.133 12.8-34.133 34.133s12.8 34.133 34.133 34.133h362.667c17.067-4.267 29.867-17.067 29.867-34.133z" />
<glyph unicode="&#xe91a;" glyph-name="archive-minus1" d="M648.533 503.467c0-17.067-12.8-34.133-34.133-34.133h-213.333c-17.067 0-34.133 12.8-34.133 34.133s12.8 34.133 34.133 34.133h213.333c21.333 0 34.133-12.8 34.133-34.133zM913.067 708.267v-601.6c0-46.933-17.067-85.333-51.2-106.667-12.8-8.533-29.867-12.8-51.2-12.8s-46.933 8.533-68.267 21.333l-209.067 115.2c-12.8 8.533-38.4 8.533-46.933 0l-209.067-115.2c-42.667-21.333-85.333-25.6-119.467-4.267-29.867 17.067-46.933 55.467-46.933 102.4v601.6c0 106.667 89.6 196.267 196.267 196.267h409.6c110.933 0 196.267-85.333 196.267-196.267zM849.067 708.267c0 72.533-59.733 132.267-132.267 132.267h-409.6c-72.533 0-132.267-59.733-132.267-132.267v-601.6c0-25.6 8.533-42.667 21.333-51.2s34.133-4.267 55.467 8.533l209.067 115.2c17.067 8.533 34.133 12.8 55.467 12.8s38.4-4.267 55.467-12.8l209.067-115.2c21.333-12.8 42.667-17.067 55.467-8.533s21.333 25.6 21.333 51.2v601.6z" />
<glyph unicode="&#xe91b;" glyph-name="archive-slash1" d="M960 896c-12.8 12.8-34.133 12.8-46.933 0l-55.467-55.467c-38.4 38.4-89.6 64-145.067 64h-405.333c-106.667 0-196.267-89.6-196.267-196.267v-601.6c0-4.267 0-8.533 4.267-12.8l-51.2-51.2c-12.8-12.8-12.8-34.133 0-46.933 4.267-4.267 12.8-8.533 21.333-8.533s17.067 4.267 21.333 8.533l853.333 853.333c12.8 17.067 12.8 34.133 0 46.933zM174.933 708.267c0 72.533 59.733 132.267 132.267 132.267h409.6c38.4 0 72.533-17.067 98.133-46.933l-640-640v554.667zM913.067 588.8v-469.333c0-51.2-21.333-93.867-55.467-115.2-17.067-8.533-34.133-12.8-51.2-12.8-25.6 0-51.2 8.533-76.8 21.333l-277.333 174.933c-17.067 8.533-21.333 29.867-8.533 42.667 8.533 17.067 29.867 21.333 42.667 8.533l277.333-170.667c25.6-12.8 46.933-17.067 64-8.533s25.6 29.867 25.6 59.733v469.333c0 17.067 12.8 34.133 34.133 34.133s25.6-17.067 25.6-34.133z" />
<glyph unicode="&#xe91c;" glyph-name="archive-tick1" d="M716.8 904.533h-409.6c-106.667 0-196.267-89.6-196.267-196.267v-601.6c0-46.933 17.067-85.333 51.2-106.667s76.8-17.067 119.467 4.267l209.067 115.2c12.8 8.533 38.4 8.533 46.933 0l209.067-115.2c21.333-12.8 46.933-21.333 68.267-21.333 17.067 0 34.133 4.267 51.2 12.8 34.133 21.333 51.2 59.733 51.2 106.667v605.867c-4.267 110.933-89.6 196.267-200.533 196.267zM849.067 106.667c0-25.6-8.533-42.667-21.333-51.2s-34.133-4.267-55.467 8.533l-209.067 115.2c-12.8 8.533-29.867 12.8-51.2 12.8s-38.4-4.267-55.467-12.8l-209.067-115.2c-21.333-12.8-42.667-12.8-55.467-8.533-12.8 8.533-17.067 29.867-17.067 51.2v601.6c0 72.533 59.733 132.267 132.267 132.267h409.6c72.533 0 132.267-59.733 132.267-132.267v-601.6zM665.6 618.667c12.8-12.8 12.8-34.133 0-46.933l-170.667-170.667c-4.267-4.267-12.8-8.533-21.333-8.533s-17.067 4.267-21.333 8.533l-64 64c-12.8 12.8-12.8 34.133 0 46.933s34.133 12.8 46.933 0l42.667-42.667 145.067 149.333c12.8 12.8 29.867 12.8 42.667 0z" />
<glyph unicode="&#xe91d;" glyph-name="archive1" d="M640 904.533h-256c-230.4 0-332.8-98.133-332.8-328.533v-256c0-230.4 98.133-332.8 332.8-332.8h256c230.4 0 332.8 98.133 332.8 332.8v256c0 230.4-102.4 328.533-332.8 328.533zM904.533 320c0-196.267-68.267-264.533-264.533-264.533h-256c-196.267 0-264.533 68.267-264.533 264.533v256c0 196.267 68.267 264.533 264.533 264.533h256c196.267 0 264.533-68.267 264.533-264.533v-256zM810.667 320h-8.533v307.2c0 68.267-55.467 119.467-119.467 119.467h-341.333c-64 0-119.467-51.2-119.467-119.467v-307.2h-8.533c-17.067 0-34.133-12.8-34.133-34.133s12.8-34.133 34.133-34.133h162.133c17.067-55.467 72.533-102.4 136.533-102.4s119.467 46.933 136.533 106.667h162.133c17.067 0 34.133 12.8 34.133 34.133s-17.067 29.867-34.133 29.867zM716.8 452.267c-4.267 0-4.267 0-8.533 4.267-8.533 0-17.067 4.267-25.6 4.267h-341.333c-8.533 0-17.067 0-25.6-4.267-4.267 0-4.267 0-8.533-4.267-4.267 0-8.533-4.267-17.067-4.267 0 0-4.267 0-4.267 0v42.667c0 29.867 25.6 51.2 51.2 51.2h341.333c29.867 0 51.2-25.6 51.2-51.2v-46.933c0 0-4.267 0-4.267 0 0 4.267-4.267 8.533-8.533 8.533zM341.333 682.667h341.333c29.867 0 51.2-25.6 51.2-51.2v-34.133c-17.067 8.533-34.133 12.8-51.2 12.8h-341.333c-21.333 0-38.4-4.267-51.2-12.8v29.867c0 29.867 21.333 55.467 51.2 55.467zM618.667 320c-17.067 0-34.133-12.8-34.133-34.133 0-42.667-34.133-76.8-76.8-76.8s-76.8 34.133-76.8 76.8c0 17.067-12.8 34.133-34.133 34.133h-106.667v21.333c0 29.867 25.6 51.2 51.2 51.2h341.333c29.867 0 51.2-25.6 51.2-51.2v-21.333h-115.2z" />
<glyph unicode="&#xe91e;" glyph-name="arrange-circle-21" d="M759.467 358.4c0-4.267-4.267-8.533-8.533-8.533l-128-128c-4.267-4.267-12.8-8.533-21.333-8.533s-17.067 4.267-21.333 8.533c-12.8 12.8-12.8 34.133 0 46.933l76.8 76.8h-362.667c-17.067 0-34.133 12.8-34.133 34.133s12.8 34.133 34.133 34.133h439.467c0 0 0 0 0 0 4.267 0 8.533 0 12.8-4.267 8.533-4.267 12.8-8.533 17.067-17.067 0-17.067 0-25.6-4.267-34.133zM733.867 558.933h-362.667l76.8 76.8c12.8 12.8 12.8 34.133 0 46.933s-34.133 12.8-46.933 0l-128-128c-4.267-8.533-8.533-12.8-8.533-17.067-4.267-8.533-4.267-17.067 0-25.6s8.533-12.8 17.067-17.067c4.267 0 8.533-4.267 12.8-4.267h439.467c17.067 0 34.133 12.8 34.133 34.133s-17.067 34.133-34.133 34.133zM972.8 448c0-251.733-204.8-460.8-460.8-460.8s-460.8 209.067-460.8 460.8 209.067 456.533 460.8 456.533 460.8-204.8 460.8-456.533zM904.533 448c0 217.6-174.933 392.533-392.533 392.533s-392.533-174.933-392.533-392.533 174.933-392.533 392.533-392.533 392.533 174.933 392.533 392.533z" />
<glyph unicode="&#xe91f;" glyph-name="arrange-circle1" d="M742.4 558.933c12.8-12.8 12.8-34.133 0-46.933-4.267-4.267-12.8-8.533-21.333-8.533s-17.067 4.267-21.333 8.533l-76.8 76.8v-362.667c0-17.067-12.8-34.133-34.133-34.133s-34.133 12.8-34.133 34.133v443.733c0 4.267 0 8.533 4.267 12.8 4.267 8.533 8.533 12.8 17.067 17.067s17.067 4.267 25.6 0c4.267 0 8.533-4.267 8.533-8.533l132.267-132.267zM465.067 230.4v439.467c0 17.067-12.8 34.133-34.133 34.133s-29.867-17.067-29.867-34.133v-362.667l-76.8 76.8c-12.8 12.8-34.133 12.8-46.933 0s-12.8-34.133 0-46.933l128-128c4.267-4.267 8.533-4.267 8.533-8.533 4.267 0 8.533-4.267 12.8-4.267 0 0 0 0 0 0s0 0 0 0 0 0 0 0c4.267 0 8.533 0 12.8 4.267 4.267 0 4.267 4.267 8.533 4.267 0 0 0 0 0 0s0 0 0 0c4.267 4.267 4.267 4.267 4.267 8.533 12.8 8.533 12.8 12.8 12.8 17.067zM972.8 448c0-251.733-204.8-460.8-460.8-460.8s-460.8 209.067-460.8 460.8 209.067 456.533 460.8 456.533 460.8-204.8 460.8-456.533zM904.533 448c0 217.6-174.933 392.533-392.533 392.533s-392.533-174.933-392.533-392.533 174.933-392.533 392.533-392.533 392.533 174.933 392.533 392.533z" />
<glyph unicode="&#xe920;" glyph-name="arrange-square-21" d="M640 904.533h-256c-230.4 0-332.8-98.133-332.8-328.533v-256c0-230.4 98.133-332.8 332.8-332.8h256c230.4 0 332.8 98.133 332.8 332.8v256c0 230.4-102.4 328.533-332.8 328.533zM904.533 320c0-196.267-68.267-264.533-264.533-264.533h-256c-196.267 0-264.533 68.267-264.533 264.533v256c0 196.267 68.267 264.533 264.533 264.533h256c196.267 0 264.533-68.267 264.533-264.533v-256zM465.067 665.6v-439.467c0-4.267 0-8.533-4.267-12.8-4.267-8.533-8.533-12.8-17.067-17.067-4.267 0-8.533-4.267-12.8-4.267s-8.533 0-12.8 4.267c-4.267 0-8.533 4.267-8.533 8.533l-128 128c-12.8 12.8-12.8 34.133 0 46.933s34.133 12.8 46.933 0l76.8-76.8v362.667c0 17.067 12.8 34.133 34.133 34.133s25.6-12.8 25.6-34.133zM742.4 558.933c12.8-12.8 12.8-34.133 0-46.933-4.267-4.267-12.8-8.533-21.333-8.533s-17.067 4.267-21.333 8.533l-76.8 76.8v-362.667c0-17.067-12.8-34.133-34.133-34.133s-34.133 12.8-34.133 34.133v439.467c0 4.267 0 8.533 4.267 12.8 4.267 8.533 8.533 12.8 17.067 17.067s17.067 4.267 25.6 0c4.267 0 8.533-4.267 8.533-8.533l132.267-128z" />
<glyph unicode="&#xe921;" glyph-name="arrange-square1" d="M640 904.533h-256c-230.4 0-332.8-98.133-332.8-328.533v-256c0-230.4 98.133-332.8 332.8-332.8h256c230.4 0 332.8 98.133 332.8 332.8v256c0 230.4-102.4 328.533-332.8 328.533zM904.533 320c0-196.267-68.267-264.533-264.533-264.533h-256c-196.267 0-264.533 68.267-264.533 264.533v256c0 196.267 68.267 264.533 264.533 264.533h256c196.267 0 264.533-68.267 264.533-264.533v-256zM759.467 358.4c0-4.267-4.267-8.533-8.533-8.533l-128-128c-4.267-4.267-12.8-8.533-21.333-8.533s-17.067 4.267-21.333 8.533c-12.8 12.8-12.8 34.133 0 46.933l76.8 76.8h-362.667c-17.067 0-34.133 12.8-34.133 34.133s12.8 34.133 34.133 34.133h439.467c4.267 0 8.533 0 12.8-4.267 8.533-4.267 12.8-8.533 17.067-17.067 0-17.067 0-25.6-4.267-34.133zM763.733 524.8c0-17.067-12.8-34.133-34.133-34.133h-435.2c-4.267 0-8.533 0-12.8 4.267-8.533 4.267-12.8 8.533-17.067 17.067s-4.267 17.067 0 25.6c0 4.267 4.267 8.533 8.533 8.533l128 128c12.8 12.8 34.133 12.8 46.933 0s12.8-34.133 0-46.933l-76.8-68.267h362.667c17.067 0 29.867-17.067 29.867-34.133z" />
<glyph unicode="&#xe922;" glyph-name="arrow-21" d="M93.867 674.133c0 17.067 17.067 29.867 34.133 29.867h691.2l-102.4 102.4c-12.8 12.8-12.8 34.133 0 46.933s34.133 12.8 46.933 0l157.867-157.867c4.267-4.267 4.267-8.533 8.533-8.533 4.267-8.533 4.267-17.067 0-25.6 0-4.267-4.267-8.533-8.533-8.533l-162.133-162.133c-4.267-4.267-12.8-8.533-21.333-8.533s-17.067 4.267-21.333 8.533c-12.8 12.8-12.8 34.133 0 46.933l102.4 102.4h-691.2c-17.067 0-34.133 17.067-34.133 34.133zM896 256h-691.2l102.4 102.4c12.8 12.8 12.8 34.133 0 46.933s-34.133 12.8-46.933 0l-157.867-157.867c-4.267-4.267-4.267-8.533-8.533-8.533-4.267-8.533-4.267-17.067 0-25.6 0-4.267 4.267-8.533 8.533-8.533l157.867-157.867c4.267-4.267 12.8-8.533 21.333-8.533s17.067 4.267 21.333 8.533c12.8 12.8 12.8 34.133 0 46.933l-98.133 98.133h691.2c17.067 0 34.133 12.8 34.133 34.133s-17.067 29.867-34.133 29.867z" />
<glyph unicode="&#xe923;" glyph-name="arrow-31" d="M469.333 695.467c12.8-12.8 12.8-34.133 0-46.933s-34.133-12.8-46.933 0l-102.4 106.667v-691.2c0-17.067-12.8-34.133-34.133-34.133s-29.867 17.067-29.867 34.133v691.2l-106.667-106.667c-4.267-4.267-12.8-8.533-21.333-8.533s-17.067 4.267-21.333 8.533c-12.8 12.8-12.8 34.133 0 46.933l157.867 157.867c4.267 4.267 8.533 4.267 8.533 8.533 8.533 4.267 17.067 4.267 25.6 0 4.267 0 8.533-4.267 8.533-8.533l162.133-157.867zM917.333 243.2c-12.8 12.8-34.133 12.8-46.933 0l-102.4-102.4v691.2c0 17.067-12.8 34.133-34.133 34.133s-29.867-17.067-29.867-34.133v-691.2l-102.4 102.4c-12.8 12.8-34.133 12.8-46.933 0s-12.8-34.133 0-46.933l157.867-157.867c4.267-4.267 8.533-4.267 8.533-8.533 4.267 0 8.533 0 12.8-4.267 0 0 0 0 0 0s0 0 0 0 0 0 0 0c4.267 0 8.533 0 12.8 4.267 4.267 0 4.267 4.267 8.533 4.267 0 0 0 0 4.267 0l157.867 157.867c12.8 21.333 12.8 42.667 0 51.2z" />
<glyph unicode="&#xe924;" glyph-name="arrow-bottom1" d="M797.867 652.8c-29.867 51.2-89.6 81.067-170.667 81.067h-230.4c-81.067 0-140.8-29.867-170.667-81.067s-25.6-119.467 12.8-187.733l115.2-196.267c38.4-68.267 93.867-106.667 157.867-106.667s115.2 38.4 157.867 106.667l115.2 196.267c38.4 68.267 42.667 136.533 12.8 187.733zM725.333 499.2l-115.2-196.267c-29.867-46.933-64-76.8-102.4-76.8s-72.533 25.6-102.4 76.8l-115.2 196.267c-21.333 46.933-25.6 89.6-8.533 123.733 17.067 29.867 59.733 46.933 115.2 46.933h226.133c55.467 0 98.133-17.067 115.2-51.2 21.333-29.867 17.067-72.533-12.8-119.467z" />
<glyph unicode="&#xe925;" glyph-name="arrow-circle-down1" d="M512 904.533c-251.733 0-460.8-204.8-460.8-456.533s209.067-460.8 460.8-460.8 460.8 209.067 460.8 460.8-209.067 456.533-460.8 456.533zM512 51.2c-217.6 0-392.533 174.933-392.533 392.533s174.933 396.8 392.533 396.8 392.533-174.933 392.533-392.533-174.933-396.8-392.533-396.8zM686.933 524.8c12.8-12.8 12.8-34.133 0-46.933l-149.333-149.333c-8.533-4.267-17.067-8.533-25.6-8.533s-17.067 4.267-21.333 8.533l-149.333 149.333c-12.8 12.8-12.8 34.133 0 46.933s34.133 12.8 46.933 0l128-128 128 128c8.533 12.8 29.867 12.8 42.667 0z" />
<glyph unicode="&#xe926;" glyph-name="arrow-circle-left1" d="M512 904.533c-251.733 0-460.8-204.8-460.8-456.533s209.067-460.8 460.8-460.8 460.8 209.067 460.8 460.8-209.067 456.533-460.8 456.533zM512 51.2c-217.6 0-392.533 174.933-392.533 392.533s174.933 396.8 392.533 396.8 392.533-174.933 392.533-392.533-174.933-396.8-392.533-396.8zM588.8 576l-128-128 128-128c12.8-12.8 12.8-34.133 0-46.933-4.267-4.267-12.8-8.533-21.333-8.533s-17.067 4.267-21.333 8.533l-149.333 149.333c-12.8 12.8-12.8 34.133 0 46.933l149.333 149.333c12.8 12.8 34.133 12.8 46.933 0s8.533-29.867-4.267-42.667z" />
<glyph unicode="&#xe927;" glyph-name="arrow-circle-right1" d="M512 904.533c-251.733 0-460.8-204.8-460.8-456.533s209.067-460.8 460.8-460.8 460.8 209.067 460.8 460.8-209.067 456.533-460.8 456.533zM512 51.2c-217.6 0-392.533 174.933-392.533 392.533s174.933 396.8 392.533 396.8 392.533-174.933 392.533-392.533-174.933-396.8-392.533-396.8zM631.467 469.333c12.8-12.8 12.8-34.133 0-46.933l-149.333-149.333c-4.267-4.267-12.8-8.533-21.333-8.533s-17.067 4.267-21.333 8.533c-12.8 12.8-12.8 34.133 0 46.933l128 128-128 128c-12.8 12.8-12.8 34.133 0 46.933s34.133 12.8 46.933 0l145.067-153.6z" />
<glyph unicode="&#xe928;" glyph-name="arrow-down-11" d="M793.6 320l-260.267-256c-4.267-4.267-12.8-8.533-21.333-8.533s-17.067 4.267-21.333 8.533l-260.267 256c-12.8 12.8-12.8 34.133 0 46.933s34.133 12.8 46.933 0l204.8-204.8v648.533c0 17.067 12.8 34.133 34.133 34.133s34.133-12.8 34.133-34.133v-648.533l204.8 204.8c12.8 12.8 34.133 12.8 46.933 0s4.267-34.133-8.533-46.933z" />
<glyph unicode="&#xe929;" glyph-name="arrow-down-21" d="M512 904.533c-251.733 0-460.8-204.8-460.8-456.533s209.067-460.8 460.8-460.8 460.8 209.067 460.8 460.8-209.067 456.533-460.8 456.533zM512 51.2c-217.6 0-392.533 174.933-392.533 392.533s174.933 396.8 392.533 396.8 392.533-174.933 392.533-392.533-174.933-396.8-392.533-396.8zM661.333 448c12.8-12.8 12.8-34.133 0-46.933l-128-128c-4.267-4.267-12.8-8.533-21.333-8.533s-17.067 4.267-21.333 8.533l-128 128c-12.8 12.8-12.8 34.133 0 46.933s34.133 12.8 46.933 0l72.533-72.533v221.867c0 17.067 12.8 34.133 34.133 34.133s34.133-12.8 34.133-34.133v-221.867l72.533 72.533c8.533 12.8 25.6 12.8 38.4 0z" />
<glyph unicode="&#xe92a;" glyph-name="arrow-down1" d="M874.667 554.667l-281.6-277.333c-21.333-21.333-51.2-34.133-81.067-34.133s-59.733 12.8-81.067 34.133l-281.6 277.333c-12.8 12.8-12.8 34.133 0 46.933s34.133 12.8 46.933 0l277.333-277.333c21.333-21.333 55.467-21.333 72.533 0l277.333 277.333c12.8 12.8 34.133 12.8 46.933 0s12.8-34.133 4.267-46.933z" />
<glyph unicode="&#xe92b;" glyph-name="arrow-left-11" d="M661.333 132.267c12.8-12.8 12.8-34.133 0-46.933-4.267-4.267-12.8-8.533-21.333-8.533s-17.067 4.267-21.333 8.533l-277.333 277.333c-46.933 46.933-46.933 119.467 0 166.4l277.333 277.333c12.8 12.8 34.133 12.8 46.933 0s12.8-34.133 0-46.933l-281.6-273.067c-21.333-21.333-21.333-55.467 0-72.533l277.333-281.6z" />
<glyph unicode="&#xe92c;" glyph-name="arrow-left-21" d="M512 904.533c-251.733 0-460.8-204.8-460.8-456.533s209.067-460.8 460.8-460.8 460.8 209.067 460.8 460.8-209.067 456.533-460.8 456.533zM512 51.2c-217.6 0-392.533 174.933-392.533 392.533s174.933 396.8 392.533 396.8 392.533-174.933 392.533-392.533-174.933-396.8-392.533-396.8zM691.2 448c0-17.067-12.8-34.133-34.133-34.133h-221.867l72.533-72.533c12.8-12.8 12.8-34.133 0-46.933-4.267-4.267-12.8-8.533-21.333-8.533s-17.067 4.267-21.333 8.533l-128 128c-12.8 12.8-12.8 34.133 0 46.933l128 128c12.8 12.8 34.133 12.8 46.933 0s12.8-34.133 0-46.933l-72.533-72.533h221.867c17.067 0 29.867-12.8 29.867-29.867z" />
<glyph unicode="&#xe92d;" glyph-name="arrow-left-31" d="M716.8 733.867c-51.2 29.867-119.467 25.6-187.733-12.8l-196.267-115.2c-68.267-42.667-106.667-98.133-106.667-157.867s38.4-115.2 106.667-157.867l196.267-115.2c38.4-21.333 81.067-34.133 115.2-34.133 25.6 0 51.2 8.533 72.533 21.333 51.2 29.867 81.067 89.6 81.067 170.667v230.4c4.267 76.8-25.6 140.8-81.067 170.667zM733.867 332.8c0-55.467-17.067-98.133-51.2-115.2-29.867-17.067-76.8-12.8-123.733 17.067l-196.267 115.2c-46.933 29.867-76.8 64-76.8 102.4s25.6 72.533 76.8 102.4l196.267 115.2c29.867 17.067 59.733 25.6 81.067 25.6 17.067 0 29.867-4.267 42.667-12.8 34.133-21.333 51.2-64 51.2-119.467v-230.4z" />
<glyph unicode="&#xe92e;" glyph-name="arrow-left1" d="M904.533 448c0-17.067-12.8-34.133-34.133-34.133h-644.267l204.8-204.8c12.8-12.8 12.8-34.133 0-46.933-4.267-4.267-12.8-8.533-21.333-8.533s-17.067 8.533-25.6 12.8l-256 260.267c-12.8 12.8-12.8 34.133 0 46.933l256 256c12.8 12.8 34.133 12.8 46.933 0s12.8-34.133 0-46.933l-204.8-204.8h648.533c17.067 0 29.867-12.8 29.867-29.867z" />
<glyph unicode="&#xe92f;" glyph-name="arrow-right-11" d="M716.8 448c0-29.867-12.8-59.733-34.133-81.067l-277.333-277.333c-4.267-4.267-12.8-8.533-21.333-8.533s-17.067 4.267-21.333 8.533c-12.8 12.8-12.8 34.133 0 46.933l277.333 277.333c8.533 8.533 17.067 21.333 17.067 38.4s-4.267 25.6-17.067 38.4l-281.6 273.067c-12.8 12.8-12.8 34.133 0 46.933s34.133 12.8 46.933 0l277.333-277.333c21.333-25.6 34.133-55.467 34.133-85.333z" />
<glyph unicode="&#xe930;" glyph-name="arrow-right-21" d="M512 904.533c-251.733 0-460.8-204.8-460.8-456.533s209.067-460.8 460.8-460.8 460.8 209.067 460.8 460.8-209.067 456.533-460.8 456.533zM512 51.2c-217.6 0-392.533 174.933-392.533 392.533s174.933 396.8 392.533 396.8 392.533-174.933 392.533-392.533-174.933-396.8-392.533-396.8zM682.667 469.333c12.8-12.8 12.8-34.133 0-46.933l-128-128c-4.267-4.267-12.8-8.533-21.333-8.533s-17.067 4.267-21.333 8.533c-12.8 12.8-12.8 34.133 0 46.933l72.533 72.533h-221.867c-17.067 0-34.133 12.8-34.133 34.133s12.8 34.133 34.133 34.133h221.867l-72.533 72.533c-12.8 12.8-12.8 34.133 0 46.933s34.133 12.8 46.933 0l123.733-132.267z" />
<glyph unicode="&#xe931;" glyph-name="arrow-right-31" d="M691.2 601.6l-196.267 115.2c-68.267 42.667-136.533 46.933-187.733 17.067-55.467-29.867-85.333-89.6-85.333-170.667v-226.133c0-81.067 29.867-140.8 81.067-170.667 21.333-12.8 46.933-21.333 76.8-21.333 34.133 0 72.533 12.8 115.2 34.133l196.267 115.2c68.267 38.4 106.667 93.867 106.667 157.867s-38.4 110.933-106.667 149.333zM661.333 345.6l-196.267-115.2c-51.2-29.867-93.867-34.133-123.733-12.8-34.133 17.067-51.2 59.733-51.2 115.2v230.4c0 55.467 17.067 98.133 46.933 115.2 12.8 8.533 25.6 12.8 42.667 12.8 25.6 0 51.2-8.533 81.067-25.6l196.267-115.2c46.933-29.867 76.8-64 76.8-102.4s-25.6-72.533-72.533-102.4z" />
<glyph unicode="&#xe932;" glyph-name="arrow-right1" d="M904.533 448c0-8.533-4.267-17.067-8.533-21.333l-256-260.267c-4.267-4.267-12.8-8.533-21.333-8.533s-17.067 4.267-21.333 8.533c-12.8 12.8-12.8 34.133 0 46.933l204.8 204.8h-652.8c-17.067 0-34.133 12.8-34.133 34.133s12.8 34.133 34.133 34.133h648.533l-204.8 204.8c-12.8 12.8-12.8 34.133 0 46.933s34.133 12.8 46.933 0l260.267-260.267c4.267-12.8 4.267-21.333 4.267-29.867z" />
<glyph unicode="&#xe933;" glyph-name="arrow-square-down1" d="M640 904.533h-256c-230.4 0-332.8-98.133-332.8-328.533v-256c0-230.4 98.133-332.8 332.8-332.8h256c230.4 0 332.8 98.133 332.8 332.8v256c0 230.4-102.4 328.533-332.8 328.533zM904.533 320c0-196.267-68.267-264.533-264.533-264.533h-256c-196.267 0-264.533 68.267-264.533 264.533v256c0 196.267 68.267 264.533 264.533 264.533h256c196.267 0 264.533-68.267 264.533-264.533v-256zM686.933 529.067c12.8-12.8 12.8-34.133 0-46.933l-149.333-149.333c-4.267-4.267-12.8-8.533-21.333-8.533s-17.067 4.267-21.333 8.533l-149.333 149.333c-12.8 12.8-12.8 34.133 0 46.933s34.133 12.8 46.933 0l128-128 128 128c4.267 12.8 25.6 12.8 38.4 0z" />
<glyph unicode="&#xe934;" glyph-name="arrow-square-left1" d="M640 904.533h-256c-230.4 0-332.8-98.133-332.8-328.533v-256c0-230.4 98.133-332.8 332.8-332.8h256c230.4 0 332.8 98.133 332.8 332.8v256c0 230.4-102.4 328.533-332.8 328.533zM904.533 320c0-196.267-68.267-264.533-264.533-264.533h-256c-196.267 0-264.533 68.267-264.533 264.533v256c0 196.267 68.267 264.533 264.533 264.533h256c196.267 0 264.533-68.267 264.533-264.533v-256zM588.8 576l-128-128 128-128c12.8-12.8 12.8-34.133 0-46.933-4.267-4.267-12.8-8.533-21.333-8.533s-17.067 4.267-21.333 8.533l-149.333 149.333c-12.8 12.8-12.8 34.133 0 46.933l149.333 149.333c12.8 12.8 34.133 12.8 46.933 0s8.533-29.867-4.267-42.667z" />
<glyph unicode="&#xe935;" glyph-name="arrow-square-right1" d="M640 904.533h-256c-230.4 0-332.8-98.133-332.8-328.533v-256c0-230.4 98.133-332.8 332.8-332.8h256c230.4 0 332.8 98.133 332.8 332.8v256c0 230.4-102.4 328.533-332.8 328.533zM904.533 320c0-196.267-68.267-264.533-264.533-264.533h-256c-196.267 0-264.533 68.267-264.533 264.533v256c0 196.267 68.267 264.533 264.533 264.533h256c196.267 0 264.533-68.267 264.533-264.533v-256zM631.467 469.333c12.8-12.8 12.8-34.133 0-46.933l-149.333-149.333c-4.267-4.267-12.8-8.533-21.333-8.533s-17.067 4.267-21.333 8.533c-12.8 12.8-12.8 34.133 0 46.933l128 128-128 128c-12.8 12.8-12.8 34.133 0 46.933s34.133 12.8 46.933 0l145.067-153.6z" />
<glyph unicode="&#xe936;" glyph-name="arrow-square-up1" d="M640 904.533h-256c-230.4 0-332.8-98.133-332.8-328.533v-256c0-230.4 98.133-332.8 332.8-332.8h256c230.4 0 332.8 98.133 332.8 332.8v256c0 230.4-102.4 328.533-332.8 328.533zM904.533 320c0-196.267-68.267-264.533-264.533-264.533h-256c-196.267 0-264.533 68.267-264.533 264.533v256c0 196.267 68.267 264.533 264.533 264.533h256c196.267 0 264.533-68.267 264.533-264.533v-256zM686.933 409.6c12.8-12.8 12.8-34.133 0-46.933-4.267-4.267-12.8-8.533-21.333-8.533s-17.067 4.267-21.333 8.533l-128 128-128-128c-12.8-12.8-34.133-12.8-46.933 0s-12.8 34.133 0 46.933l149.333 149.333c12.8 12.8 34.133 12.8 46.933 0l149.333-149.333z" />
<glyph unicode="&#xe937;" glyph-name="arrow-square1" d="M827.733 597.333c0-8.533-4.267-17.067-8.533-21.333 0 0 0 0 0 0l-76.8-76.8c-4.267-4.267-12.8-8.533-21.333-8.533s-17.067 4.267-21.333 8.533c-12.8 12.8-12.8 34.133 0 46.933l21.333 21.333h-4.267c-89.6 0-162.133-72.533-162.133-162.133 0 0 0 0 0-4.267v-174.933c0-17.067-12.8-34.133-34.133-34.133s-34.133 12.8-34.133 34.133v89.6c0 0 0 0 0 0v85.333c0 0 0 0 0 0 0 89.6-72.533 162.133-162.133 162.133h-17.067l21.333-21.333c12.8-12.8 12.8-34.133 0-46.933-4.267-4.267-12.8-8.533-21.333-8.533s-17.067 4.267-25.6 8.533l-76.8 76.8c-12.8 12.8-12.8 34.133 0 46.933l76.8 76.8c12.8 12.8 34.133 12.8 46.933 0s12.8-34.133 0-46.933l-21.333-21.333h17.067c81.067 0 153.6-46.933 196.267-110.933 38.4 68.267 110.933 110.933 196.267 110.933h4.267l-21.333 21.333c-17.067 12.8-17.067 34.133-4.267 46.933s34.133 12.8 46.933 0l72.533-76.8c8.533-4.267 12.8-12.8 12.8-21.333zM972.8 576v-256c0-230.4-98.133-332.8-332.8-332.8h-256c-230.4 0-332.8 98.133-332.8 332.8v256c0 230.4 98.133 332.8 332.8 332.8h256c230.4-4.267 332.8-102.4 332.8-332.8zM904.533 576c0 196.267-68.267 264.533-264.533 264.533h-256c-196.267 0-264.533-68.267-264.533-264.533v-256c0-196.267 68.267-264.533 264.533-264.533h256c196.267 0 264.533 68.267 264.533 264.533v256z" />
<glyph unicode="&#xe938;" glyph-name="arrow-swap-horizontal1" d="M904.533 307.2c0-4.267-4.267-4.267-4.267-8.533 0 0 0 0 0-4.267l-213.333-213.333c-4.267-4.267-12.8-8.533-21.333-8.533s-17.067 4.267-21.333 8.533c-12.8 12.8-12.8 34.133 0 46.933l157.867 157.867h-652.8c-17.067 0-34.133 12.8-34.133 34.133s12.8 34.133 34.133 34.133h725.333c0 0 0 0 0 0 4.267 0 8.533 0 8.533 0 4.267 0 4.267-4.267 8.533-4.267 0 0 0 0 4.267 0 0 0 0 0 0-4.267s4.267-4.267 4.267-8.533c0-4.267 4.267-8.533 4.267-12.8 0 0 0 0 0 0s0 0 0 0c0-8.533 0-12.8 0-17.067zM119.467 576c0 0 0 0 0 0s0 0 0 0c0-4.267 0-8.533 4.267-12.8 0-4.267 4.267-8.533 8.533-8.533 0 0 0 0 0 0s0 0 0 0c4.267-4.267 4.267-4.267 8.533-8.533 4.267 0 8.533-4.267 12.8-4.267h725.333c17.067 0 34.133 12.8 34.133 34.133s-12.8 34.133-34.133 34.133h-652.8l157.867 157.867c12.8 12.8 12.8 34.133 0 46.933-12.8 8.533-29.867 8.533-42.667-4.267l-213.333-213.333c0 0 0 0 0 0-4.267-4.267-8.533-4.267-8.533-8.533s0-8.533 0-12.8z" />
<glyph unicode="&#xe939;" glyph-name="arrow-up-11" d="M874.667 294.4c-4.267-4.267-12.8-8.533-21.333-8.533s-17.067 4.267-21.333 8.533l-277.333 277.333c-21.333 21.333-55.467 21.333-72.533 0l-277.333-277.333c-12.8-12.8-34.133-12.8-46.933 0s-12.8 34.133 0 46.933l273.067 277.333c46.933 46.933 119.467 46.933 166.4 0l277.333-277.333c8.533-12.8 8.533-34.133 0-46.933z" />
<glyph unicode="&#xe93a;" glyph-name="arrow-up-21" d="M512 904.533c-251.733 0-460.8-204.8-460.8-456.533s209.067-460.8 460.8-460.8 460.8 209.067 460.8 460.8-209.067 456.533-460.8 456.533zM512 51.2c-217.6 0-392.533 174.933-392.533 392.533s174.933 396.8 392.533 396.8 392.533-174.933 392.533-392.533-174.933-396.8-392.533-396.8zM661.333 490.667c12.8-12.8 12.8-34.133 0-46.933-4.267-4.267-12.8-8.533-21.333-8.533s-17.067 4.267-21.333 8.533l-72.533 72.533v-221.867c0-17.067-12.8-34.133-34.133-34.133s-34.133 12.8-34.133 34.133v221.867l-72.533-68.267c-12.8-12.8-34.133-12.8-46.933 0s-12.8 34.133 0 46.933l128 128c12.8 12.8 34.133 12.8 46.933 0l128-132.267z" />
<glyph unicode="&#xe93b;" glyph-name="arrow-up-31" d="M785.067 430.933l-115.2 196.267c-38.4 68.267-93.867 106.667-157.867 106.667s-115.2-38.4-153.6-106.667l-115.2-196.267c-38.4-68.267-46.933-136.533-17.067-187.733s89.6-81.067 170.667-81.067h230.4c81.067 0 140.8 29.867 170.667 81.067s25.6 119.467-12.8 187.733zM742.4 273.067c-17.067-29.867-59.733-51.2-115.2-51.2h-230.4c-55.467 0-98.133 17.067-115.2 51.2-17.067 29.867-12.8 76.8 17.067 123.733l115.2 196.267c29.867 46.933 64 76.8 102.4 76.8s72.533-25.6 102.4-76.8l115.2-196.267c21.333-46.933 29.867-89.6 8.533-123.733z" />
<glyph unicode="&#xe93c;" glyph-name="arrow-up1" d="M793.6 529.067c-4.267-4.267-12.8-8.533-21.333-8.533s-17.067 4.267-21.333 8.533l-204.8 204.8v-648.533c0-17.067-12.8-34.133-34.133-34.133s-34.133 12.8-34.133 34.133v648.533l-204.8-204.8c-12.8-12.8-34.133-12.8-46.933 0s-8.533 34.133 4.267 46.933l260.267 256c12.8 12.8 34.133 12.8 46.933 0l256-256c12.8-12.8 12.8-34.133 0-46.933z" />
<glyph unicode="&#xe93d;" glyph-name="arrow1" d="M546.133 106.667v-85.333c0-17.067-12.8-34.133-34.133-34.133s-34.133 12.8-34.133 34.133v85.333c0 17.067 12.8 34.133 34.133 34.133s34.133-17.067 34.133-34.133zM512 307.2c-17.067 0-34.133-12.8-34.133-34.133v-85.333c0-17.067 12.8-34.133 34.133-34.133s34.133 12.8 34.133 34.133v85.333c0 21.333-17.067 34.133-34.133 34.133zM968.533 802.133c0 4.267-4.267 8.533-8.533 8.533l-85.333 85.333c-12.8 12.8-34.133 12.8-46.933 0s-12.8-34.133 0-46.933l29.867-29.867h-46.933c-132.267 0-247.467-76.8-298.667-187.733-51.2 110.933-166.4 187.733-298.667 187.733h-51.2l29.867 29.867c12.8 12.8 12.8 34.133 0 46.933s-34.133 12.8-46.933 0l-85.333-85.333c0 0-4.267-4.267-4.267-8.533-4.267-8.533-4.267-17.067 0-25.6 0-4.267 4.267-8.533 8.533-8.533l85.333-85.333c4.267-8.533 12.8-12.8 21.333-12.8s17.067 4.267 21.333 8.533c12.8 12.8 12.8 34.133 0 46.933l-29.867 29.867h51.2c145.067 0 264.533-119.467 264.533-264.533v-128c0-17.067 12.8-34.133 34.133-34.133s34.133 12.8 34.133 34.133v128c0 145.067 119.467 264.533 264.533 264.533h51.2l-29.867-29.867c-12.8-12.8-12.8-34.133 0-46.933 4.267-4.267 12.8-8.533 21.333-8.533s17.067 4.267 21.333 8.533l85.333 85.333c4.267 4.267 4.267 8.533 8.533 8.533 4.267 12.8 4.267 21.333 0 29.867z" />
<glyph unicode="&#xe93e;" glyph-name="attach-circle1" d="M699.733 635.733c76.8-81.067 76.8-209.067 0-285.867l-93.867-93.867c-21.333-21.333-51.2-34.133-81.067-34.133s-59.733 12.8-81.067 34.133c-46.933 46.933-46.933 119.467 0 166.4l59.733 59.733c12.8 12.8 34.133 12.8 46.933 0s12.8-34.133 0-46.933l-59.733-59.733c-21.333-21.333-21.333-55.467 0-76.8s55.467-21.333 76.8 0l93.867 93.867c55.467 55.467 55.467 140.8 0 196.267s-140.8 55.467-196.267 0l-102.4-102.4c-42.667-42.667-42.667-115.2 0-162.133 12.8-12.8 12.8-34.133 0-46.933s-34.133-12.8-46.933 0c-68.267 68.267-68.267 183.467 0 251.733l102.4 102.4c72.533 81.067 200.533 81.067 281.6 4.267zM972.8 448c0-251.733-204.8-460.8-460.8-460.8s-460.8 209.067-460.8 460.8 209.067 456.533 460.8 456.533 460.8-204.8 460.8-456.533zM904.533 448c0 217.6-174.933 392.533-392.533 392.533s-392.533-174.933-392.533-392.533 174.933-392.533 392.533-392.533 392.533 174.933 392.533 392.533z" />
<glyph unicode="&#xe93f;" glyph-name="attach-square1" d="M699.733 635.733c76.8-81.067 76.8-209.067 0-285.867l-93.867-93.867c-21.333-21.333-51.2-34.133-81.067-34.133s-59.733 12.8-81.067 34.133c-46.933 46.933-46.933 119.467 0 166.4l59.733 59.733c12.8 12.8 34.133 12.8 46.933 0s12.8-34.133 0-46.933l-59.733-59.733c-21.333-21.333-21.333-55.467 0-76.8s55.467-21.333 76.8 0l93.867 93.867c55.467 55.467 55.467 140.8 0 196.267s-140.8 55.467-196.267 0l-102.4-102.4c-42.667-42.667-42.667-115.2 0-162.133 12.8-12.8 12.8-34.133 0-46.933s-34.133-12.8-46.933 0c-68.267 68.267-68.267 183.467 0 251.733l102.4 102.4c72.533 81.067 200.533 81.067 281.6 4.267zM972.8 576v-256c0-230.4-98.133-332.8-332.8-332.8h-256c-230.4 0-332.8 98.133-332.8 332.8v256c0 230.4 98.133 332.8 332.8 332.8h256c230.4-4.267 332.8-102.4 332.8-332.8zM904.533 576c0 196.267-68.267 264.533-264.533 264.533h-256c-196.267 0-264.533-68.267-264.533-264.533v-256c0-196.267 68.267-264.533 264.533-264.533h256c196.267 0 264.533 68.267 264.533 264.533v256z" />
<glyph unicode="&#xe940;" glyph-name="audio-square1" d="M640 904.533h-256c-230.4 0-332.8-98.133-332.8-328.533v-256c0-230.4 98.133-332.8 332.8-332.8h256c230.4 0 332.8 98.133 332.8 332.8v256c0 230.4-102.4 328.533-332.8 328.533zM904.533 320c0-196.267-68.267-264.533-264.533-264.533h-256c-196.267 0-264.533 68.267-264.533 264.533v256c0 196.267 68.267 264.533 264.533 264.533h256c196.267 0 264.533-68.267 264.533-264.533v-256zM669.867 669.867l-98.133 34.133c-25.6 8.533-51.2 4.267-72.533-8.533-17.067-17.067-29.867-38.4-29.867-68.267v-209.067c-17.067 8.533-38.4 17.067-59.733 17.067-68.267 0-123.733-55.467-123.733-123.733s55.467-119.467 123.733-119.467 123.733 55.467 123.733 123.733v200.533c0 0 0 0 0 0l98.133-34.133c8.533-4.267 17.067-4.267 29.867-4.267 17.067 0 29.867 4.267 42.667 12.8 21.333 12.8 29.867 38.4 29.867 64v21.333c0 38.4-25.6 81.067-64 93.867zM409.6 256c-34.133 0-59.733 25.6-59.733 59.733s25.6 59.733 59.733 59.733 59.733-25.6 59.733-59.733-25.6-59.733-59.733-59.733zM674.133 550.4c0-4.267 0-8.533-4.267-12.8-4.267 0-8.533 0-12.8 0l-102.4 34.133c-12.8 4.267-21.333 17.067-21.333 29.867v25.6c0 4.267 0 8.533 4.267 12.8 0 0 4.267 0 4.267 0 4.267 0 4.267 0 8.533 0 0 0 0 0 0 0l98.133-34.133c12.8-4.267 21.333-17.067 21.333-29.867v-25.6z" />
<glyph unicode="&#xe941;" glyph-name="autobrightness1" d="M942.933 524.8l-55.467 68.267c-4.267 8.533-12.8 25.6-12.8 34.133v68.267c0 64-51.2 115.2-115.2 115.2h-72.533c-8.533 0-25.6 4.267-34.133 12.8l-68.267 55.467c-42.667 34.133-106.667 34.133-149.333 0 0 0 0 0 0 0l-64-55.467c-8.533-8.533-25.6-12.8-34.133-12.8h-72.533c-64 0-115.2-51.2-115.2-115.2v-72.533c0-8.533-4.267-25.6-12.8-34.133l-59.733-68.267c-34.133-42.667-34.133-106.667 0-149.333l59.733-68.267c4.267-4.267 12.8-21.333 12.8-34.133v-72.533c0-64 51.2-115.2 115.2-115.2h76.8c8.533 0 25.6-4.267 34.133-12.8l68.267-55.467c21.333-17.067 46.933-25.6 72.533-25.6s55.467 8.533 76.8 25.6l68.267 55.467c8.533 4.267 25.6 12.8 34.133 12.8h72.533c64 0 115.2 51.2 115.2 115.2v72.533c0 8.533 4.267 25.6 12.8 34.133l55.467 68.267c29.867 42.667 29.867 110.933-8.533 153.6zM896 413.867l-59.733-68.267c-17.067-17.067-25.6-51.2-25.6-72.533v-72.533c0-29.867-21.333-51.2-51.2-51.2h-72.533c-25.6 0-55.467-12.8-72.533-25.6l-68.267-55.467c-17.067-17.067-46.933-17.067-64 0l-68.267 59.733c-21.333 12.8-51.2 21.333-76.8 21.333h-72.533c-29.867 0-51.2 25.6-51.2 51.2v72.533c0 25.6-12.8 55.467-25.6 72.533l-59.733 72.533c-12.8 17.067-12.8 46.933 0 64l59.733 68.267c12.8 17.067 25.6 46.933 25.6 72.533v72.533c0 29.867 21.333 51.2 51.2 51.2h72.533c25.6 0 55.467 12.8 72.533 25.6l68.267 59.733c17.067 12.8 46.933 17.067 64 0l68.267-59.733c21.333-12.8 51.2-25.6 76.8-25.6h72.533c29.867 0 51.2-21.333 51.2-51.2v-72.533c0-25.6 12.8-55.467 25.6-72.533l55.467-68.267c17.067-17.067 17.067-46.933 4.267-68.267zM482.133 627.2l-149.333-337.067 59.733-25.6 42.667 93.867c0 0 4.267 0 4.267 0h149.333c0 0 4.267 0 4.267 0l42.667-93.867 59.733 25.6-149.333 337.067h-64zM460.8 422.4l51.2 115.2 51.2-115.2h-102.4z" />
<glyph unicode="&#xe942;" glyph-name="award1" d="M785.067 644.267l-4.267 4.267v98.133c0 102.4-55.467 162.133-162.133 162.133h-213.333c-102.4-4.267-157.867-59.733-157.867-162.133v-98.133l-8.533-4.267c-85.333-55.467-89.6-64-89.6-153.6v-213.333c0-89.6 4.267-98.133 89.6-153.6l200.533-115.2c21.333-12.8 46.933-17.067 72.533-17.067s51.2 4.267 72.533 17.067l204.8 119.467c81.067 55.467 89.6 64 89.6 153.6v213.333c-4.267 85.333-8.533 93.867-93.867 149.333zM307.2 746.667c0 68.267 29.867 93.867 93.867 93.867h213.333c68.267 0 93.867-29.867 93.867-93.867v-59.733l-132.267 76.8c-38.4 21.333-102.4 21.333-140.8 0l-128-76.8v59.733zM810.667 277.333c0-59.733 0-59.733-55.467-98.133l-200.533-115.2c-21.333-12.8-59.733-12.8-76.8 0l-200.533 115.2c-64 38.4-64 38.4-64 98.133v213.333c0 59.733 0 59.733 55.467 98.133l204.8 115.2c8.533 4.267 25.6 8.533 38.4 8.533s29.867-4.267 38.4-8.533l200.533-115.2c59.733-38.4 59.733-38.4 59.733-98.133v-213.333zM631.467 460.8l-42.667 12.8-25.6 38.4c0 0 0 0 0 0-8.533 17.067-29.867 29.867-51.2 29.867s-42.667-12.8-55.467-34.133l-25.6-38.4-42.667-12.8c-25.6-4.267-42.667-21.333-46.933-42.667-8.533-21.333 0-42.667 12.8-59.733l29.867-29.867v-46.933c0-25.6 8.533-46.933 25.6-59.733s38.4-12.8 64-4.267l42.667 17.067 42.667-17.067c8.533-4.267 17.067-4.267 29.867-4.267s25.6 4.267 34.133 12.8c17.067 12.8 25.6 34.133 25.6 59.733l-4.267 42.667 29.867 34.133c17.067 17.067 21.333 42.667 12.8 59.733-12.8 21.333-29.867 34.133-55.467 42.667zM588.8 362.667c-8.533-12.8-12.8-29.867-12.8-42.667l4.267-42.667-42.667 17.067c-8.533 4.267-17.067 4.267-25.6 4.267s-17.067 0-25.6-4.267l-42.667-17.067 4.267 42.667c0 12.8-4.267 34.133-12.8 42.667l-29.867 34.133 42.667 12.8c12.8 4.267 29.867 17.067 38.4 25.6l25.6 38.4c0 0 0 0 0 0s0 0 0 0l25.6-38.4c8.533-12.8 21.333-21.333 38.4-25.6l42.667-12.8-29.867-34.133z" />
<glyph unicode="&#xe943;" glyph-name="back-square1" d="M640 904.533h-256c-230.4 0-332.8-98.133-332.8-328.533v-256c0-230.4 98.133-332.8 332.8-332.8h256c230.4 0 332.8 98.133 332.8 332.8v256c0 230.4-102.4 328.533-332.8 328.533zM904.533 320c0-196.267-68.267-264.533-264.533-264.533h-256c-196.267 0-264.533 68.267-264.533 264.533v256c0 196.267 68.267 264.533 264.533 264.533h256c196.267 0 264.533-68.267 264.533-264.533v-256zM759.467 435.2c0-89.6-72.533-162.133-162.133-162.133h-213.333c-17.067 0-34.133 12.8-34.133 34.133s12.8 34.133 34.133 34.133h209.067c55.467 0 98.133 42.667 98.133 98.133s-42.667 98.133-98.133 98.133h-217.6l12.8-12.8c12.8-12.8 12.8-34.133 0-46.933-4.267-4.267-12.8-8.533-21.333-8.533s-17.067 4.267-21.333 8.533l-68.267 68.267c-12.8 12.8-12.8 29.867 0 42.667l64 68.267c12.8 12.8 34.133 12.8 46.933 0s12.8-34.133 0-46.933l-12.8-12.8h217.6c89.6 0 166.4-72.533 166.4-162.133z" />
<glyph unicode="&#xe944;" glyph-name="backward-5-seconds1" d="M563.2 332.8c0 17.067-17.067 34.133-34.133 34.133h-98.133c-8.533 0-21.333 4.267-25.6 12.8s-8.533 17.067-4.267 29.867l34.133 98.133c4.267 12.8 17.067 21.333 29.867 21.333h132.267c17.067 0 34.133-12.8 34.133-34.133s-12.8-34.133-34.133-34.133h-106.667l-12.8-34.133h55.467c55.467 0 98.133-42.667 98.133-98.133s-42.667-98.133-98.133-98.133h-98.133c-17.067 0-34.133 12.8-34.133 34.133s12.8 34.133 34.133 34.133h98.133c12.8 4.267 29.867 17.067 29.867 34.133zM512 810.667c-4.267 0-8.533 0-8.533 0l34.133 42.667c12.8 12.8 8.533 34.133-4.267 46.933s-34.133 8.533-46.933-4.267l-85.333-106.667c0 0 0 0 0 0 0-4.267-4.267-4.267-4.267-8.533 0 0 0-4.267 0-4.267s0-4.267 0-4.267 0-4.267 0-8.533c0 0 0 0 0 0s0 0 0-4.267 0-4.267 4.267-8.533c0 0 0 0 4.267-4.267 0 0 4.267-4.267 4.267-4.267s0 0 4.267 0c0 0 0 0 0 0 4.267-4.267 8.533-4.267 12.8-4.267 0 0 4.267 0 4.267 0s0 0 0 0c29.867 8.533 55.467 8.533 81.067 8.533 192 0 345.6-157.867 345.6-345.6s-157.867-345.6-345.6-345.6-345.6 157.867-345.6 345.6c0 72.533 25.6 145.067 72.533 209.067 8.533 12.8 8.533 34.133-4.267 46.933-21.333 4.267-38.4 4.267-51.2-8.533-55.467-72.533-85.333-157.867-85.333-247.467 0-226.133 183.467-409.6 409.6-409.6s409.6 183.467 409.6 409.6-179.2 409.6-405.333 409.6z" />
<glyph unicode="&#xe945;" glyph-name="backward-10-seconds1" d="M320 413.867c-12.8 12.8-12.8 34.133-4.267 46.933l68.267 68.267c8.533 8.533 21.333 12.8 34.133 8.533s21.333-17.067 21.333-29.867v-226.133c0-17.067-12.8-34.133-34.133-34.133s-34.133 12.8-34.133 34.133v145.067l-8.533-8.533c-8.533-17.067-29.867-17.067-42.667-4.267zM512 810.667c-4.267 0-8.533 0-8.533 0l34.133 42.667c12.8 12.8 8.533 34.133-4.267 46.933s-34.133 8.533-46.933-4.267l-85.333-106.667c0 0 0 0 0 0 0-4.267-4.267-4.267-4.267-8.533 0 0 0-4.267 0-4.267s0-4.267 0-4.267 0-4.267 0-8.533c0 0 0 0 0 0s0 0 0-4.267 0-4.267 4.267-8.533c0 0 0 0 4.267-4.267 0 0 4.267-4.267 4.267-4.267s0 0 4.267 0c0 0 0 0 0 0 4.267-4.267 8.533-4.267 12.8-4.267 0 0 4.267 0 4.267 0s0 0 0 0c29.867 8.533 55.467 8.533 81.067 8.533 192 0 345.6-157.867 345.6-345.6s-157.867-345.6-345.6-345.6-345.6 157.867-345.6 345.6c0 72.533 25.6 145.067 72.533 209.067 8.533 12.8 8.533 34.133-4.267 46.933-21.333 4.267-38.4 4.267-51.2-8.533-55.467-72.533-85.333-157.867-85.333-247.467 0-226.133 183.467-409.6 409.6-409.6s409.6 183.467 409.6 409.6-179.2 409.6-405.333 409.6zM477.867 366.933v55.467c0 64 51.2 119.467 119.467 119.467s119.467-51.2 119.467-119.467v-55.467c0-64-51.2-119.467-119.467-119.467s-119.467 55.467-119.467 119.467zM546.133 366.933c0-29.867 25.6-51.2 51.2-51.2s51.2 25.6 51.2 51.2v55.467c0 29.867-25.6 51.2-51.2 51.2s-51.2-25.6-51.2-51.2v-55.467z" />
<glyph unicode="&#xe946;" glyph-name="backward-15-seconds1" d="M648.533 332.8c0 17.067-12.8 34.133-34.133 34.133h-98.133c-8.533 0-21.333 4.267-25.6 12.8s-8.533 17.067-4.267 29.867l34.133 98.133c4.267 12.8 17.067 21.333 29.867 21.333h132.267c17.067 0 34.133-12.8 34.133-34.133s-12.8-34.133-34.133-34.133h-106.667l-12.8-34.133h55.467c55.467 0 98.133-42.667 98.133-98.133s-42.667-98.133-98.133-98.133h-98.133c-17.067 0-34.133 12.8-34.133 34.133s12.8 34.133 34.133 34.133h98.133c17.067 4.267 29.867 17.067 29.867 34.133zM366.933 405.333l8.533 8.533v-145.067c0-17.067 12.8-34.133 34.133-34.133s34.133 12.8 34.133 34.133v226.133c0 12.8-8.533 25.6-21.333 29.867s-25.6 0-34.133-8.533l-68.267-68.267c-12.8-12.8-12.8-34.133 4.267-46.933 8.533-8.533 29.867-8.533 42.667 4.267zM512 810.667c-4.267 0-8.533 0-8.533 0l34.133 42.667c12.8 12.8 8.533 34.133-4.267 46.933s-34.133 8.533-46.933-4.267l-85.333-106.667c0 0 0 0 0 0 0-4.267-4.267-4.267-4.267-8.533 0 0 0-4.267 0-4.267s0-4.267 0-4.267 0-4.267 0-8.533c0 0 0 0 0 0s0 0 0-4.267 0-4.267 4.267-8.533c0 0 0 0 4.267-4.267 0 0 4.267-4.267 4.267-4.267s0 0 4.267 0c0 0 0 0 0 0 4.267-4.267 8.533-4.267 12.8-4.267 0 0 4.267 0 4.267 0s0 0 0 0c29.867 8.533 55.467 8.533 81.067 8.533 192 0 345.6-157.867 345.6-345.6s-157.867-345.6-345.6-345.6-345.6 157.867-345.6 345.6c0 72.533 25.6 145.067 72.533 209.067 8.533 12.8 8.533 34.133-4.267 46.933-21.333 4.267-38.4 4.267-51.2-8.533-55.467-72.533-85.333-157.867-85.333-247.467 0-226.133 183.467-409.6 409.6-409.6s409.6 183.467 409.6 409.6-179.2 409.6-405.333 409.6z" />
<glyph unicode="&#xe947;" glyph-name="backward-item-1" d="M802.133 904.533h-115.2c-115.2 0-166.4-51.2-166.4-166.4v-29.867h-81.067c-132.267 0-192-59.733-192-192v-81.067h-29.867c-115.2 0-166.4-51.2-166.4-166.4v-115.2c0-115.2 51.2-166.4 166.4-166.4h115.2c115.2 0 166.4 51.2 166.4 166.4v29.867h81.067c132.267 0 192 59.733 192 192v81.067h29.867c115.2 0 166.4 51.2 166.4 166.4v115.2c4.267 115.2-51.2 166.4-166.4 166.4zM435.2 157.867c0-76.8-25.6-102.4-102.4-102.4h-115.2c-76.8 0-102.4 25.6-102.4 102.4v115.2c0 76.8 25.6 102.4 102.4 102.4h115.2c29.867 0 51.2-4.267 68.267-12.8 25.6-12.8 34.133-42.667 34.133-89.6v-115.2zM708.267 379.733c0-98.133-29.867-128-128-128h-81.067v21.333c0 98.133-38.4 153.6-128 162.133-12.8 0-25.6 4.267-38.4 4.267h-17.067v81.067c0 98.133 29.867 128 128 128h81.067v-21.333c0-85.333 29.867-136.533 93.867-157.867 21.333-8.533 46.933-8.533 72.533-8.533h21.333v-81.067zM904.533 627.2c0-76.8-25.6-102.4-102.4-102.4h-115.2c-76.8 0-102.4 25.6-102.4 102.4v110.933c0 76.8 25.6 102.4 102.4 102.4h115.2c76.8 0 102.4-25.6 102.4-102.4v-110.933z" />
<glyph unicode="&#xe948;" glyph-name="backward-item1" d="M802.133 904.533h-115.2c-115.2 0-166.4-51.2-166.4-166.4v-29.867h-81.067c-132.267 0-192-59.733-192-192v-81.067h-29.867c-115.2 0-166.4-51.2-166.4-166.4v-115.2c0-115.2 51.2-166.4 166.4-166.4h115.2c115.2 0 166.4 51.2 166.4 166.4v29.867h81.067c132.267 0 192 59.733 192 192v81.067h29.867c115.2 0 166.4 51.2 166.4 166.4v115.2c4.267 115.2-51.2 166.4-166.4 166.4zM435.2 157.867c0-76.8-25.6-102.4-102.4-102.4h-115.2c-76.8 0-102.4 25.6-102.4 102.4v115.2c0 76.8 25.6 102.4 102.4 102.4h115.2c29.867 0 51.2-4.267 68.267-12.8 25.6-12.8 34.133-42.667 34.133-89.6v-115.2zM708.267 379.733c0-98.133-29.867-128-128-128h-81.067v21.333c0 98.133-38.4 153.6-128 162.133-12.8 0-25.6 4.267-38.4 4.267h-17.067v81.067c0 98.133 29.867 128 128 128h81.067v-21.333c0-85.333 29.867-136.533 93.867-157.867 21.333-8.533 46.933-8.533 72.533-8.533h21.333v-81.067zM904.533 627.2c0-76.8-25.6-102.4-102.4-102.4h-115.2c-76.8 0-102.4 25.6-102.4 102.4v110.933c0 76.8 25.6 102.4 102.4 102.4h115.2c76.8 0 102.4-25.6 102.4-102.4v-110.933z" />
<glyph unicode="&#xe949;" glyph-name="backward1" d="M913.067 704c-34.133 21.333-81.067 21.333-115.2 0l-243.2-140.8v42.667c0 42.667-21.333 81.067-59.733 98.133-34.133 21.333-81.067 21.333-115.2 0l-268.8-157.867c-38.4-21.333-59.733-55.467-59.733-98.133s21.333-76.8 59.733-98.133l268.8-157.867c17.067-8.533 38.4-17.067 55.467-17.067 21.333 0 38.4 4.267 59.733 17.067 34.133 21.333 59.733 59.733 59.733 98.133v38.4l243.2-140.8c17.067-8.533 38.4-17.067 55.467-17.067 21.333 0 38.4 4.267 59.733 17.067 34.133 21.333 59.733 59.733 59.733 98.133v320c0 38.4-25.6 76.8-59.733 98.133zM490.667 290.133c0-17.067-8.533-34.133-25.6-42.667s-34.133-8.533-51.2 0l-268.8 153.6c-17.067 8.533-25.6 25.6-25.6 42.667s8.533 34.133 25.6 42.667l268.8 157.867c8.533 4.267 17.067 8.533 25.6 8.533s17.067-4.267 25.6-8.533 25.6-25.6 25.6-42.667v-311.467zM904.533 290.133c0-17.067-8.533-34.133-25.6-42.667s-34.133-8.533-51.2 0l-268.8 153.6c0 0-4.267 4.267-4.267 4.267v85.333c0 0 4.267 4.267 4.267 4.267l268.8 157.867c17.067 8.533 34.133 8.533 51.2 0s25.6-25.6 25.6-42.667v-320z" />
<glyph unicode="&#xe94a;" glyph-name="bag-21" d="M878.933 588.8c-29.867 34.133-76.8 55.467-140.8 59.733v34.133c0 64-25.6 123.733-72.533 166.4s-110.933 64-170.667 55.467c-115.2-8.533-204.8-115.2-204.8-230.4v-25.6c-68.267-8.533-110.933-25.6-145.067-59.733-34.133-38.4-46.933-89.6-38.4-162.133l29.867-256c8.533-89.6 46.933-179.2 243.2-179.2h256c196.267 0 234.667 89.6 243.2 179.2l34.133 256c8.533 72.533-4.267 123.733-34.133 162.133zM494.933 840.533c46.933 4.267 89.6-8.533 123.733-42.667 34.133-29.867 51.2-72.533 51.2-119.467v-29.867h-320v25.6c0 81.067 68.267 162.133 145.067 166.4zM853.333 435.2l-34.133-256c-8.533-68.267-25.6-123.733-179.2-123.733h-256c-153.6 0-170.667 55.467-179.2 123.733l-29.867 256c-4.267 51.2 0 89.6 21.333 110.933 25.6 29.867 72.533 42.667 145.067 42.667h341.333c72.533 0 123.733-12.8 145.067-42.667 21.333-25.6 29.867-59.733 25.6-110.933zM704 448c0-25.6-17.067-42.667-42.667-42.667s-42.667 17.067-42.667 42.667 17.067 42.667 42.667 42.667v0c25.6 0 42.667-17.067 42.667-42.667zM405.333 448c0-25.6-17.067-42.667-42.667-42.667s-42.667 17.067-42.667 42.667 17.067 42.667 42.667 42.667v0c25.6 0 42.667-17.067 42.667-42.667z" />
<glyph unicode="&#xe94b;" glyph-name="bag-cross-11" d="M512 520.533c-110.933 0-204.8-89.6-204.8-204.8s89.6-204.8 204.8-204.8 204.8 89.6 204.8 204.8-93.867 204.8-204.8 204.8zM512 179.2c-76.8 0-136.533 64-136.533 136.533s64 136.533 136.533 136.533 136.533-64 136.533-136.533-59.733-136.533-136.533-136.533zM580.267 294.4c12.8-12.8 12.8-34.133 0-46.933-4.267-4.267-12.8-8.533-21.333-8.533s-17.067 4.267-21.333 8.533l-25.6 25.6-25.6-25.6c-4.267-4.267-12.8-8.533-21.333-8.533s-17.067 4.267-21.333 8.533c-12.8 12.8-12.8 34.133 0 46.933l25.6 25.6-21.333 21.333c-12.8 12.8-12.8 34.133 0 46.933s34.133 12.8 46.933 0l17.067-25.6 21.333 21.333c12.8 12.8 34.133 12.8 46.933 0s12.8-34.133 0-46.933l-21.333-21.333 21.333-21.333zM878.933 588.8c-29.867 34.133-76.8 55.467-140.8 59.733v34.133c0 64-25.6 123.733-72.533 166.4s-110.933 64-170.667 55.467c-115.2-8.533-204.8-115.2-204.8-230.4v-25.6c-68.267-8.533-110.933-25.6-145.067-59.733-34.133-38.4-46.933-89.6-38.4-162.133l29.867-256c8.533-89.6 46.933-179.2 243.2-179.2h256c196.267 0 234.667 89.6 243.2 179.2l34.133 256c8.533 72.533-4.267 123.733-34.133 162.133zM494.933 840.533c46.933 4.267 89.6-8.533 123.733-42.667 34.133-29.867 51.2-72.533 51.2-119.467v-29.867h-320v25.6c0 81.067 68.267 162.133 145.067 166.4zM853.333 435.2l-34.133-256c-8.533-68.267-25.6-123.733-179.2-123.733h-256c-153.6 0-170.667 55.467-179.2 123.733l-29.867 256c-4.267 51.2 0 89.6 21.333 110.933 25.6 29.867 72.533 42.667 145.067 42.667h341.333c72.533 0 123.733-12.8 145.067-42.667 21.333-25.6 29.867-59.733 25.6-110.933z" />
<glyph unicode="&#xe94c;" glyph-name="bag-cross1" d="M593.067 243.2c12.8-12.8 12.8-34.133 0-46.933-4.267-4.267-12.8-8.533-21.333-8.533s-17.067 4.267-21.333 8.533l-38.4 38.4-38.4-38.4c-4.267-4.267-12.8-8.533-21.333-8.533s-17.067 4.267-21.333 8.533c-12.8 12.8-12.8 34.133 0 46.933l38.4 34.133-34.133 34.133c-12.8 12.8-12.8 34.133 0 46.933s34.133 12.8 46.933 0l34.133-34.133 34.133 34.133c12.8 12.8 34.133 12.8 46.933 0s12.8-34.133 0-46.933l-38.4-34.133 34.133-34.133zM942.933 533.333c-12.8-12.8-25.6-17.067-38.4-21.333l-68.267-358.4c-17.067-85.333-42.667-162.133-200.533-162.133h-256c-153.6 0-187.733 89.6-200.533 170.667l-55.467 354.133c-12.8 4.267-25.6 8.533-38.4 21.333-21.333 12.8-34.133 42.667-34.133 89.6 0 119.467 85.333 119.467 128 119.467h17.067l153.6 153.6c12.8 12.8 34.133 12.8 46.933 0s12.8-34.133 0-46.933l-106.667-110.933h443.733l-110.933 110.933c-12.8 12.8-12.8 34.133 0 46.933s34.133 12.8 46.933 0l153.6-153.6h17.067c42.667 0 128 0 128-119.467 4.267-46.933-8.533-76.8-25.6-93.867zM836.267 507.733h-652.8l55.467-337.067c12.8-76.8 38.4-115.2 136.533-115.2h256c110.933 0 123.733 38.4 136.533 110.933l68.267 341.333zM904.533 627.2c0 46.933-12.8 51.2-64 51.2h-661.333c-51.2 0-59.733-4.267-59.733-51.2 0-38.4 4.267-46.933 8.533-51.2s25.6-4.267 42.667-4.267h682.667c17.067 0 38.4 0 42.667 4.267s8.533 12.8 8.533 51.2z" />
<glyph unicode="&#xe94d;" glyph-name="bag-happy1" d="M691.2 349.867c0-98.133-81.067-179.2-179.2-179.2s-179.2 81.067-179.2 179.2c0 17.067 12.8 34.133 34.133 34.133s34.133-12.8 34.133-34.133c0-64 51.2-119.467 119.467-119.467s119.467 51.2 119.467 119.467c0 17.067 12.8 34.133 34.133 34.133s17.067-12.8 17.067-34.133zM942.933 533.333c-12.8-12.8-25.6-17.067-38.4-21.333l-68.267-358.4c-17.067-85.333-42.667-162.133-200.533-162.133h-256c-153.6 0-187.733 89.6-200.533 170.667l-55.467 354.133c-12.8 4.267-25.6 8.533-38.4 21.333-21.333 12.8-34.133 42.667-34.133 89.6 0 119.467 85.333 119.467 128 119.467h17.067l153.6 153.6c12.8 12.8 34.133 12.8 46.933 0s12.8-34.133 0-46.933l-106.667-110.933h443.733l-110.933 110.933c-12.8 12.8-12.8 34.133 0 46.933s34.133 12.8 46.933 0l153.6-153.6h17.067c42.667 0 128 0 128-119.467 4.267-46.933-8.533-76.8-25.6-93.867zM836.267 507.733h-652.8l55.467-337.067c12.8-76.8 38.4-115.2 136.533-115.2h256c110.933 0 123.733 38.4 136.533 110.933l68.267 341.333zM904.533 627.2c0 46.933-12.8 51.2-64 51.2h-661.333c-51.2 0-59.733-4.267-59.733-51.2 0-38.4 4.267-46.933 8.533-51.2s25.6-4.267 42.667-4.267h682.667c17.067 0 38.4 0 42.667 4.267s8.533 12.8 8.533 51.2z" />
<glyph unicode="&#xe94e;" glyph-name="bag-tick-21" d="M512 520.533c-110.933 0-204.8-89.6-204.8-204.8s89.6-204.8 204.8-204.8 204.8 89.6 204.8 204.8-93.867 204.8-204.8 204.8zM512 179.2c-76.8 0-136.533 64-136.533 136.533s64 136.533 136.533 136.533 136.533-64 136.533-136.533-59.733-136.533-136.533-136.533zM601.6 384c12.8-12.8 12.8-34.133 0-46.933l-76.8-68.267c-8.533-8.533-21.333-12.8-34.133-12.8s-25.6 4.267-38.4 17.067l-25.6 25.6c-12.8 12.8-12.8 34.133 0 46.933s34.133 12.8 46.933 0l21.333-21.333 68.267 64c8.533 8.533 25.6 8.533 38.4-4.267zM878.933 588.8c-29.867 34.133-76.8 55.467-140.8 59.733v34.133c0 64-25.6 123.733-72.533 166.4s-110.933 64-170.667 55.467c-115.2-8.533-204.8-115.2-204.8-230.4v-25.6c-68.267-8.533-110.933-25.6-145.067-59.733-34.133-38.4-46.933-89.6-38.4-162.133l29.867-256c8.533-89.6 46.933-179.2 243.2-179.2h256c196.267 0 234.667 89.6 243.2 179.2l34.133 256c8.533 72.533-4.267 123.733-34.133 162.133zM494.933 840.533c46.933 4.267 89.6-8.533 123.733-42.667 34.133-29.867 51.2-72.533 51.2-119.467v-29.867h-320v25.6c0 81.067 68.267 162.133 145.067 166.4zM853.333 435.2l-34.133-256c-8.533-68.267-25.6-123.733-179.2-123.733h-256c-153.6 0-170.667 55.467-179.2 123.733l-29.867 256c-4.267 51.2 0 89.6 21.333 110.933 25.6 29.867 72.533 42.667 145.067 42.667h341.333c72.533 0 123.733-12.8 145.067-42.667 21.333-25.6 29.867-59.733 25.6-110.933z" />
<glyph unicode="&#xe94f;" glyph-name="bag-tick1" d="M635.733 362.667c12.8-12.8 12.8-34.133 0-46.933l-136.533-128c-4.267-4.267-12.8-8.533-21.333-8.533s-17.067 4.267-21.333 8.533l-64 64c-12.8 12.8-12.8 34.133 0 46.933s34.133 12.8 46.933 0l42.667-42.667 115.2 106.667c8.533 12.8 25.6 12.8 38.4 0zM942.933 533.333c-12.8-12.8-25.6-17.067-38.4-21.333l-68.267-358.4c-17.067-85.333-42.667-162.133-200.533-162.133h-256c-153.6 0-187.733 89.6-200.533 170.667l-55.467 354.133c-12.8 4.267-25.6 8.533-38.4 21.333-21.333 12.8-34.133 42.667-34.133 89.6 0 119.467 85.333 119.467 128 119.467h17.067l153.6 153.6c12.8 12.8 34.133 12.8 46.933 0s12.8-34.133 0-46.933l-106.667-110.933h443.733l-110.933 110.933c-12.8 12.8-12.8 34.133 0 46.933s34.133 12.8 46.933 0l153.6-153.6h17.067c42.667 0 128 0 128-119.467 4.267-46.933-8.533-76.8-25.6-93.867zM836.267 507.733h-652.8l55.467-337.067c12.8-76.8 38.4-115.2 136.533-115.2h256c110.933 0 123.733 38.4 136.533 110.933l68.267 341.333zM904.533 627.2c0 46.933-12.8 51.2-64 51.2h-661.333c-51.2 0-59.733-4.267-59.733-51.2 0-38.4 4.267-46.933 8.533-51.2s25.6-4.267 42.667-4.267h682.667c17.067 0 38.4 0 42.667 4.267s8.533 12.8 8.533 51.2z" />
<glyph unicode="&#xe950;" glyph-name="bag-timer1" d="M512 520.533c-110.933 0-204.8-89.6-204.8-204.8s89.6-204.8 204.8-204.8 204.8 89.6 204.8 204.8-93.867 204.8-204.8 204.8zM512 179.2c-76.8 0-136.533 64-136.533 136.533s64 136.533 136.533 136.533 136.533-64 136.533-136.533-59.733-136.533-136.533-136.533zM554.667 371.2v-38.4c0-25.6-12.8-51.2-38.4-64l-29.867-21.333c-4.267-4.267-12.8-4.267-17.067-4.267-12.8 0-21.333 4.267-25.6 17.067-8.533 17.067-4.267 34.133 12.8 42.667l34.133 21.333c4.267 0 4.267 4.267 4.267 8.533v38.4c0 17.067 12.8 34.133 34.133 34.133s25.6-12.8 25.6-34.133zM878.933 588.8c-29.867 34.133-76.8 55.467-140.8 59.733v34.133c0 64-25.6 123.733-72.533 166.4s-110.933 64-170.667 55.467c-115.2-8.533-204.8-115.2-204.8-230.4v-25.6c-68.267-8.533-110.933-25.6-145.067-59.733-34.133-38.4-46.933-89.6-38.4-162.133l29.867-256c8.533-89.6 46.933-179.2 243.2-179.2h256c196.267 0 234.667 89.6 243.2 179.2l34.133 256c8.533 72.533-4.267 123.733-34.133 162.133zM494.933 840.533c46.933 4.267 89.6-8.533 123.733-42.667 34.133-29.867 51.2-72.533 51.2-119.467v-29.867h-320v25.6c0 81.067 68.267 162.133 145.067 166.4zM853.333 435.2l-34.133-256c-8.533-68.267-25.6-123.733-179.2-123.733h-256c-153.6 0-170.667 55.467-179.2 123.733l-29.867 256c-4.267 51.2 0 89.6 21.333 110.933 25.6 29.867 72.533 42.667 145.067 42.667h341.333c72.533 0 123.733-12.8 145.067-42.667 21.333-25.6 29.867-59.733 25.6-110.933z" />
<glyph unicode="&#xe951;" glyph-name="bag1" d="M972.8 627.2c0 119.467-85.333 119.467-128 119.467h-17.067l-153.6 153.6c-12.8 12.8-34.133 12.8-46.933 0s-12.8-34.133 0-46.933l110.933-110.933h-448l110.933 110.933c12.8 12.8 12.8 34.133 0 46.933-17.067 8.533-34.133 8.533-46.933-4.267l-153.6-153.6h-21.333c-42.667 0-128 0-128-119.467 0-42.667 8.533-72.533 29.867-93.867 12.8-12.8 25.6-17.067 38.4-21.333l55.467-354.133c12.8-81.067 46.933-170.667 200.533-170.667h256c153.6 0 183.467 76.8 200.533 162.133l68.267 358.4c12.8 4.267 25.6 8.533 38.4 21.333 21.333 25.6 34.133 55.467 34.133 102.4zM772.267 166.4c-12.8-72.533-25.6-110.933-136.533-110.933h-256c-98.133 0-123.733 42.667-136.533 115.2l-55.467 337.067h652.8l-68.267-341.333zM896 576c-4.267-4.267-25.6-4.267-42.667-4.267h-682.667c-17.067 0-38.4 0-42.667 4.267s-8.533 12.8-8.533 51.2c0 46.933 12.8 51.2 64 51.2h665.6c51.2 0 64-4.267 64-51.2-8.533-38.4-12.8-46.933-17.067-51.2zM448 362.667v-149.333c0-17.067-12.8-34.133-34.133-34.133s-29.867 12.8-29.867 34.133v149.333c0 17.067 12.8 34.133 34.133 34.133s29.867-17.067 29.867-34.133zM644.267 362.667v-149.333c0-17.067-12.8-34.133-34.133-34.133s-34.133 12.8-34.133 34.133v149.333c0 17.067 12.8 34.133 34.133 34.133s34.133-17.067 34.133-34.133z" />
<glyph unicode="&#xe952;" glyph-name="bank1" d="M981.333 51.2h-8.533v98.133c0 42.667-34.133 76.8-76.8 76.8h-8.533v234.667h8.533c42.667 0 76.8 34.133 76.8 76.8v136.533c0 29.867-21.333 59.733-46.933 68.267l-384 153.6c-17.067 8.533-38.4 8.533-55.467 0l-384-153.6c-29.867-8.533-51.2-38.4-51.2-68.267v-140.8c0-42.667 34.133-76.8 76.8-76.8h8.533v-234.667h-8.533c-42.667 0-76.8-34.133-76.8-76.8v-93.867h-8.533c-17.067 0-34.133-12.8-34.133-34.133s12.8-34.133 34.133-34.133h938.667c17.067 0 34.133 12.8 34.133 34.133s-17.067 34.133-34.133 34.133zM819.2 221.867h-106.667v234.667h106.667v-234.667zM546.133 221.867v234.667h106.667v-234.667h-106.667zM375.467 221.867v234.667h106.667v-234.667h-106.667zM119.467 533.333v140.8c0 4.267 4.267 8.533 8.533 8.533l384 153.6c0 0 4.267 0 4.267 0s4.267 0 4.267 0l384-153.6c4.267 0 8.533-8.533 8.533-8.533v-140.8c0-4.267-4.267-8.533-8.533-8.533h-776.533c-4.267-4.267-8.533 4.267-8.533 8.533zM204.8 456.533h106.667v-234.667h-106.667v234.667zM119.467 51.2v98.133c0 4.267 4.267 8.533 8.533 8.533h768c4.267 0 8.533-4.267 8.533-8.533v-93.867h-785.067zM512 563.2c51.2 0 93.867 42.667 93.867 93.867s-42.667 93.867-93.867 93.867c-51.2 0-93.867-42.667-93.867-93.867s42.667-93.867 93.867-93.867zM512 691.2c17.067 0 34.133-12.8 34.133-34.133s-17.067-29.867-34.133-29.867-34.133 17.067-34.133 34.133 17.067 29.867 34.133 29.867z" />
<glyph unicode="&#xe953;" glyph-name="barcode1" d="M725.333 840.533h-426.667c-157.867 0-247.467-89.6-247.467-247.467v-298.667c0-157.867 89.6-247.467 247.467-247.467h426.667c157.867 0 247.467 89.6 247.467 247.467v298.667c0 162.133-89.6 247.467-247.467 247.467zM904.533 298.667c0-123.733-59.733-179.2-179.2-179.2h-426.667c-123.733 0-179.2 59.733-179.2 179.2v298.667c0 123.733 59.733 179.2 179.2 179.2h426.667c123.733 0 179.2-59.733 179.2-179.2v-298.667zM290.133 618.667v-341.333c0-17.067-12.8-34.133-34.133-34.133s-34.133 17.067-34.133 34.133v341.333c0 17.067 12.8 34.133 34.133 34.133s34.133-17.067 34.133-34.133zM418.133 618.667v-170.667c0-17.067-12.8-34.133-34.133-34.133s-34.133 17.067-34.133 34.133v170.667c0 17.067 12.8 34.133 34.133 34.133s34.133-17.067 34.133-34.133zM418.133 320v-42.667c0-17.067-12.8-34.133-34.133-34.133s-34.133 17.067-34.133 34.133v42.667c0 17.067 12.8 34.133 34.133 34.133s34.133-17.067 34.133-34.133zM674.133 618.667v-42.667c0-17.067-12.8-34.133-34.133-34.133s-34.133 17.067-34.133 34.133v42.667c0 17.067 12.8 34.133 34.133 34.133s34.133-17.067 34.133-34.133zM546.133 618.667v-341.333c0-17.067-12.8-34.133-34.133-34.133s-34.133 12.8-34.133 34.133v341.333c0 17.067 12.8 34.133 34.133 34.133s34.133-17.067 34.133-34.133zM674.133 448v-170.667c0-17.067-12.8-34.133-34.133-34.133s-34.133 12.8-34.133 34.133v170.667c0 17.067 12.8 34.133 34.133 34.133s34.133-17.067 34.133-34.133zM802.133 618.667v-341.333c0-17.067-12.8-34.133-34.133-34.133s-34.133 12.8-34.133 34.133v341.333c0 17.067 12.8 34.133 34.133 34.133s34.133-17.067 34.133-34.133z" />
<glyph unicode="&#xe954;" glyph-name="battery-3full1" d="M972.8 490.667v-85.333c0-51.2-8.533-93.867-93.867-93.867-17.067 0-34.133 12.8-34.133 34.133s12.8 34.133 34.133 34.133c25.6 0 29.867 4.267 29.867 4.267 0 4.267 0 17.067 0 29.867v85.333c0 8.533 0 25.6 0 29.867 0 0-8.533 4.267-29.867 4.267-17.067 0-34.133 12.8-34.133 34.133s12.8 34.133 34.133 34.133c85.333-17.067 93.867-59.733 93.867-110.933zM264.533 563.2c-17.067-4.267-25.6-21.333-21.333-38.4 12.8-51.2 12.8-102.4 0-153.6-4.267-17.067 4.267-34.133 21.333-38.4 4.267 0 4.267 0 8.533 0 12.8 0 25.6 8.533 29.867 25.6 17.067 59.733 17.067 123.733 0 187.733-4.267 12.8-21.333 21.333-38.4 17.067zM413.867 563.2c-17.067-4.267-25.6-21.333-21.333-38.4 12.8-51.2 12.8-102.4 0-153.6-4.267-17.067 4.267-34.133 21.333-38.4 4.267 0 4.267 0 8.533 0 12.8 0 25.6 8.533 29.867 25.6 17.067 59.733 17.067 123.733 0 187.733-4.267 12.8-21.333 21.333-38.4 17.067zM802.133 533.333v-170.667c0-187.733-55.467-247.467-247.467-247.467h-256c-187.733 0-247.467 55.467-247.467 247.467v170.667c0 187.733 55.467 247.467 247.467 247.467h256c187.733-4.267 247.467-59.733 247.467-247.467zM733.867 533.333c0 153.6-29.867 179.2-179.2 179.2h-256c-153.6 0-179.2-29.867-179.2-179.2v-170.667c0-153.6 29.867-179.2 179.2-179.2h256c153.6 0 179.2 29.867 179.2 179.2v170.667z" />
<glyph unicode="&#xe955;" glyph-name="battery-charging1" d="M972.8 490.667v-85.333c0-51.2-8.533-93.867-93.867-93.867-17.067 0-34.133 12.8-34.133 34.133s12.8 34.133 34.133 34.133c25.6 0 29.867 4.267 29.867 4.267 0 4.267 0 17.067 0 29.867v85.333c0 8.533 0 25.6 0 29.867 0 0-8.533 4.267-29.867 4.267-17.067 0-34.133 12.8-34.133 34.133s12.8 34.133 34.133 34.133c85.333-17.067 93.867-59.733 93.867-110.933zM546.133 366.933c12.8 25.6 12.8 51.2 0 76.8-12.8 21.333-38.4 38.4-64 38.4h-98.133c-4.267 0-8.533 4.267-8.533 4.267s-4.267 4.267-4.267 4.267l81.067 106.667c8.533 12.8 8.533 34.133-4.267 46.933s-34.133 8.533-46.933-4.267l-81.067-110.933c-12.8-21.333-12.8-51.2 0-76.8 12.8-21.333 38.4-38.4 64-38.4h98.133c4.267 0 8.533-4.267 8.533-4.267s4.267-4.267 0-8.533l-89.6-102.4c-12.8-12.8-8.533-34.133 4.267-46.933 4.267-4.267 12.8-8.533 21.333-8.533s17.067 4.267 25.6 12.8l89.6 106.667c0 0 4.267 4.267 4.267 4.267zM298.667 179.2c-153.6 0-179.2 29.867-179.2 179.2v170.667c0 153.6 29.867 179.2 179.2 179.2 17.067 0 34.133 12.8 34.133 34.133s-17.067 34.133-34.133 34.133c-187.733 0-247.467-55.467-247.467-247.467v-170.667c0-187.733 55.467-247.467 247.467-247.467 17.067 0 34.133 12.8 34.133 34.133s-17.067 34.133-34.133 34.133zM554.667 776.533c-17.067 0-34.133-12.8-34.133-34.133s12.8-34.133 34.133-34.133c153.6 0 179.2-29.867 179.2-179.2v-170.667c0-153.6-29.867-179.2-179.2-179.2-17.067 0-34.133-12.8-34.133-34.133s12.8-34.133 34.133-34.133c187.733 0 247.467 55.467 247.467 247.467v170.667c0 192-59.733 247.467-247.467 247.467z" />
<glyph unicode="&#xe956;" glyph-name="battery-disable1" d="M972.8 490.667v-85.333c0-51.2-8.533-93.867-93.867-93.867-17.067 0-34.133 12.8-34.133 34.133s12.8 34.133 34.133 34.133c25.6 0 29.867 4.267 29.867 4.267 0 4.267 0 17.067 0 29.867v85.333c0 8.533 0 25.6 0 29.867 0 0-8.533 4.267-29.867 4.267-17.067 0-34.133 12.8-34.133 34.133s12.8 34.133 34.133 34.133c85.333-17.067 93.867-59.733 93.867-110.933zM665.6 768l42.667 68.267c8.533 17.067 4.267 34.133-8.533 42.667-17.067 8.533-34.133 4.267-42.667-8.533l-430.933-682.667c-81.067 8.533-106.667 42.667-106.667 174.933v170.667c0 153.6 29.867 179.2 179.2 179.2 17.067 0 34.133 12.8 34.133 34.133s-17.067 29.867-34.133 29.867c-187.733 0-247.467-55.467-247.467-247.467v-170.667c0-128 21.333-209.067 132.267-234.667l-42.667-68.267c-8.533-17.067-4.267-34.133 8.533-42.667 4.267-4.267 12.8-4.267 17.067-4.267 8.533 0 21.333 4.267 25.6 12.8l430.933 682.667c81.067-8.533 106.667-42.667 106.667-174.933v-170.667c0-153.6-29.867-179.2-179.2-179.2-17.067 0-34.133-12.8-34.133-34.133s12.8-34.133 34.133-34.133c187.733 0 247.467 55.467 247.467 247.467v170.667c4.267 132.267-21.333 213.333-132.267 238.933z" />
<glyph unicode="&#xe957;" glyph-name="battery-empty-11" d="M554.667 776.533h-256c-187.733 0-247.467-55.467-247.467-247.467v-170.667c0-187.733 55.467-247.467 247.467-247.467h256c187.733 0 247.467 55.467 247.467 247.467v170.667c0 192-59.733 247.467-247.467 247.467zM733.867 362.667c0-153.6-29.867-179.2-179.2-179.2h-256c-153.6 0-179.2 29.867-179.2 179.2v170.667c0 153.6 29.867 179.2 179.2 179.2h256c153.6 0 179.2-29.867 179.2-179.2v-170.667zM972.8 490.667v-85.333c0-51.2-8.533-93.867-93.867-93.867-17.067 0-34.133 12.8-34.133 34.133s12.8 34.133 34.133 34.133c25.6 0 29.867 4.267 29.867 4.267 0 4.267 0 17.067 0 29.867v85.333c0 8.533 0 25.6 0 29.867 0 0-8.533 4.267-29.867 4.267-17.067 0-34.133 12.8-34.133 34.133s12.8 34.133 34.133 34.133c85.333-17.067 93.867-59.733 93.867-110.933zM302.933 541.867c17.067-59.733 17.067-123.733 0-187.733-4.267-12.8-17.067-25.6-29.867-25.6-4.267 0-4.267 0-8.533 0-17.067 4.267-25.6 21.333-21.333 38.4 12.8 51.2 12.8 102.4 0 153.6-4.267 21.333 4.267 38.4 21.333 42.667s34.133-4.267 38.4-21.333z" />
<glyph unicode="&#xe958;" glyph-name="battery-empty1" d="M554.667 776.533h-256c-187.733 0-247.467-55.467-247.467-247.467v-170.667c0-187.733 55.467-247.467 247.467-247.467h256c187.733 0 247.467 55.467 247.467 247.467v170.667c0 192-59.733 247.467-247.467 247.467zM733.867 362.667c0-153.6-29.867-179.2-179.2-179.2h-256c-153.6 0-179.2 29.867-179.2 179.2v170.667c0 153.6 29.867 179.2 179.2 179.2h256c153.6 0 179.2-29.867 179.2-179.2v-170.667zM972.8 490.667v-85.333c0-51.2-8.533-93.867-93.867-93.867-17.067 0-34.133 12.8-34.133 34.133s12.8 34.133 34.133 34.133c25.6 0 29.867 4.267 29.867 4.267 0 4.267 0 17.067 0 29.867v85.333c0 8.533 0 25.6 0 29.867 0 0-8.533 4.267-29.867 4.267-17.067 0-34.133 12.8-34.133 34.133s12.8 34.133 34.133 34.133c85.333-17.067 93.867-59.733 93.867-110.933z" />
<glyph unicode="&#xe959;" glyph-name="battery-full1" d="M972.8 490.667v-85.333c0-51.2-8.533-93.867-93.867-93.867-17.067 0-34.133 12.8-34.133 34.133s12.8 34.133 34.133 34.133c25.6 0 29.867 4.267 29.867 4.267 0 4.267 0 17.067 0 29.867v85.333c0 8.533 0 25.6 0 29.867 0 0-8.533 4.267-29.867 4.267-17.067 0-34.133 12.8-34.133 34.133s12.8 34.133 34.133 34.133c85.333-17.067 93.867-59.733 93.867-110.933zM264.533 563.2c-17.067-4.267-25.6-21.333-21.333-38.4 12.8-51.2 12.8-102.4 0-153.6-4.267-17.067 4.267-34.133 21.333-38.4 4.267 0 4.267 0 8.533 0 12.8 0 25.6 8.533 29.867 25.6 17.067 59.733 17.067 123.733 0 187.733-4.267 12.8-21.333 21.333-38.4 17.067zM413.867 563.2c-17.067-4.267-25.6-21.333-21.333-38.4 12.8-51.2 12.8-102.4 0-153.6-4.267-17.067 4.267-34.133 21.333-38.4 4.267 0 4.267 0 8.533 0 12.8 0 25.6 8.533 29.867 25.6 17.067 59.733 17.067 123.733 0 187.733-4.267 12.8-21.333 21.333-38.4 17.067zM563.2 563.2c-17.067-4.267-25.6-21.333-21.333-38.4 12.8-51.2 12.8-102.4 0-153.6-4.267-17.067 4.267-34.133 21.333-38.4 4.267 0 4.267 0 8.533 0 12.8 0 25.6 8.533 29.867 25.6 17.067 59.733 17.067 123.733 0 187.733-4.267 12.8-21.333 21.333-38.4 17.067zM802.133 533.333v-170.667c0-187.733-55.467-247.467-247.467-247.467h-256c-187.733 0-247.467 55.467-247.467 247.467v170.667c0 187.733 55.467 247.467 247.467 247.467h256c187.733-4.267 247.467-59.733 247.467-247.467zM733.867 533.333c0 153.6-29.867 179.2-179.2 179.2h-256c-153.6 0-179.2-29.867-179.2-179.2v-170.667c0-153.6 29.867-179.2 179.2-179.2h256c153.6 0 179.2 29.867 179.2 179.2v170.667z" />
<glyph unicode="&#xe95a;" glyph-name="bezier-1" d="M896 541.867c64 0 119.467 51.2 119.467 119.467s-55.467 115.2-119.467 115.2c-55.467 0-98.133-34.133-110.933-85.333h-110.933v34.133c0 51.2-42.667 93.867-93.867 93.867h-128c-51.2 0-93.867-42.667-93.867-93.867v-34.133h-119.467c-12.8 51.2-59.733 85.333-110.933 85.333-64 0-119.467-51.2-119.467-115.2s55.467-119.467 119.467-119.467c55.467 0 98.133 34.133 110.933 85.333h81.067c-85.333-64-136.533-166.4-140.8-277.333h-8.533c-51.2 0-93.867-42.667-93.867-93.867v-85.333c0-51.2 42.667-93.867 93.867-93.867h85.333c12.8 0 25.6 4.267 38.4 8.533 34.133 12.8 55.467 51.2 55.467 85.333v85.333c0 51.2-42.667 93.867-93.867 93.867h-8.533c4.267 89.6 42.667 170.667 110.933 221.867 12.8-42.667 46.933-72.533 93.867-72.533h128c42.667 0 81.067 29.867 93.867 72.533 64-51.2 106.667-132.267 110.933-221.867h-17.067c-51.2 0-93.867-42.667-93.867-93.867v-85.333c0-38.4 21.333-72.533 55.467-85.333 12.8-4.267 25.6-8.533 38.4-8.533h85.333c51.2 0 93.867 42.667 93.867 93.867v85.333c0 51.2-42.667 93.867-93.867 93.867h-12.8c-4.267 110.933-55.467 213.333-140.8 277.333h81.067c17.067-46.933 59.733-85.333 115.2-85.333zM290.133 256v-85.333c0-12.8-8.533-25.6-21.333-29.867-4.267 0-8.533-4.267-12.8-4.267h-85.333c-17.067 0-34.133 12.8-34.133 34.133v85.333c0 17.067 12.8 34.133 34.133 34.133h85.333c17.067-4.267 34.133-17.067 34.133-34.133zM887.467 256v-85.333c0-17.067-12.8-34.133-34.133-34.133h-85.333c-4.267 0-8.533 0-12.8 4.267-12.8 4.267-17.067 17.067-17.067 29.867v85.333c0 17.067 12.8 34.133 34.133 34.133h85.333c12.8-4.267 29.867-17.067 29.867-34.133zM896 712.533c29.867 0 51.2-25.6 51.2-51.2s-21.333-55.467-51.2-55.467-51.2 25.6-51.2 55.467 21.333 51.2 51.2 51.2zM128 605.867c-29.867 0-51.2 25.6-51.2 55.467s21.333 51.2 51.2 51.2 51.2-21.333 51.2-51.2-21.333-55.467-51.2-55.467zM605.867 597.333c0-17.067-12.8-34.133-34.133-34.133h-128c-17.067 0-34.133 12.8-34.133 34.133v128c0 17.067 12.8 34.133 34.133 34.133h128c17.067 0 34.133-12.8 34.133-34.133v-128z" />
<glyph unicode="&#xe95b;" glyph-name="bezier1" d="M896 541.867c64 0 119.467 51.2 119.467 119.467s-55.467 115.2-119.467 115.2c-55.467 0-98.133-34.133-110.933-85.333h-110.933v34.133c0 51.2-42.667 93.867-93.867 93.867h-128c-51.2 0-93.867-42.667-93.867-93.867v-34.133h-119.467c-12.8 51.2-59.733 85.333-110.933 85.333-64 0-119.467-51.2-119.467-115.2s55.467-119.467 119.467-119.467c55.467 0 98.133 34.133 110.933 85.333h81.067c-85.333-64-136.533-166.4-140.8-277.333h-8.533c-51.2 0-93.867-42.667-93.867-93.867v-85.333c0-51.2 42.667-93.867 93.867-93.867h85.333c12.8 0 25.6 4.267 38.4 8.533 34.133 12.8 55.467 51.2 55.467 85.333v85.333c0 51.2-42.667 93.867-93.867 93.867h-8.533c4.267 89.6 42.667 170.667 110.933 221.867 12.8-42.667 46.933-72.533 93.867-72.533h128c42.667 0 81.067 29.867 93.867 72.533 64-51.2 106.667-132.267 110.933-221.867h-17.067c-51.2 0-93.867-42.667-93.867-93.867v-85.333c0-38.4 21.333-72.533 55.467-85.333 12.8-4.267 25.6-8.533 38.4-8.533h85.333c51.2 0 93.867 42.667 93.867 93.867v85.333c0 51.2-42.667 93.867-93.867 93.867h-12.8c-4.267 110.933-55.467 213.333-140.8 277.333h81.067c17.067-46.933 59.733-85.333 115.2-85.333zM290.133 256v-85.333c0-12.8-8.533-25.6-21.333-29.867-4.267 0-8.533-4.267-12.8-4.267h-85.333c-17.067 0-34.133 12.8-34.133 34.133v85.333c0 17.067 12.8 34.133 34.133 34.133h85.333c17.067-4.267 34.133-17.067 34.133-34.133zM887.467 256v-85.333c0-17.067-12.8-34.133-34.133-34.133h-85.333c-4.267 0-8.533 0-12.8 4.267-12.8 4.267-17.067 17.067-17.067 29.867v85.333c0 17.067 12.8 34.133 34.133 34.133h85.333c12.8-4.267 29.867-17.067 29.867-34.133zM896 712.533c29.867 0 51.2-25.6 51.2-51.2s-21.333-55.467-51.2-55.467-51.2 25.6-51.2 55.467 21.333 51.2 51.2 51.2zM128 605.867c-29.867 0-51.2 25.6-51.2 55.467s21.333 51.2 51.2 51.2 51.2-21.333 51.2-51.2-21.333-55.467-51.2-55.467zM605.867 597.333c0-17.067-12.8-34.133-34.133-34.133h-128c-17.067 0-34.133 12.8-34.133 34.133v128c0 17.067 12.8 34.133 34.133 34.133h128c17.067 0 34.133-12.8 34.133-34.133v-128z" />
<glyph unicode="&#xe95c;" glyph-name="bill1" d="M938.667 883.2h-853.333c-17.067 0-34.133-12.8-34.133-34.133s17.067-29.867 34.133-29.867h38.4v-477.867c0-51.2 25.6-102.4 68.267-132.267l221.867-166.4c29.867-21.333 64-34.133 98.133-34.133s68.267 12.8 98.133 34.133l221.867 166.4c42.667 29.867 68.267 81.067 68.267 132.267v477.867h38.4c17.067 0 34.133 12.8 34.133 34.133s-17.067 29.867-34.133 29.867zM836.267 341.333c0-29.867-17.067-64-38.4-81.067l-221.867-166.4c-34.133-25.6-85.333-25.6-123.733 0l-221.867 166.4c-25.6 17.067-38.4 51.2-38.4 81.067v477.867h648.533v-477.867zM307.2 618.667c0 17.067 12.8 34.133 34.133 34.133h341.333c17.067 0 34.133-12.8 34.133-34.133s-17.067-34.133-34.133-34.133h-341.333c-17.067 0-34.133 17.067-34.133 34.133zM307.2 405.333c0 17.067 12.8 34.133 34.133 34.133h341.333c17.067 0 34.133-12.8 34.133-34.133s-12.8-34.133-34.133-34.133h-341.333c-17.067 0-34.133 17.067-34.133 34.133z" />
<glyph unicode="&#xe95d;" glyph-name="bitcoin-card1" d="M341.333 285.867c17.067 0 34.133-12.8 34.133-34.133s-17.067-29.867-34.133-29.867h-85.333c-17.067 0-34.133 12.8-34.133 34.133s12.8 34.133 34.133 34.133h85.333zM418.133 256c0-17.067 12.8-34.133 34.133-34.133h170.667c17.067 0 34.133 12.8 34.133 34.133s-12.8 34.133-34.133 34.133h-170.667c-21.333-4.267-34.133-17.067-34.133-34.133zM938.667 507.733c-17.067 0-34.133-12.8-34.133-34.133v-204.8c0-132.267-25.6-153.6-157.867-153.6h-473.6c-132.267 0-157.867 21.333-157.867 153.6v294.4h439.467c17.067 0 34.133 12.8 34.133 34.133s-17.067 29.867-34.133 29.867h-435.2c0 128 25.6 149.333 157.867 149.333h290.133c17.067 0 34.133 12.8 34.133 34.133s-12.8 34.133-34.133 34.133h-294.4c-170.667 0-221.867-51.2-221.867-217.6v-349.867c0-166.4 51.2-217.6 221.867-217.6h473.6c170.667 0 221.867 51.2 221.867 217.6v204.8c4.267 12.8-12.8 25.6-29.867 25.6zM691.2 712.533v76.8h-8.533c-17.067 0-34.133 12.8-34.133 34.133s12.8 34.133 34.133 34.133h85.333v17.067c0 17.067 12.8 34.133 34.133 34.133s34.133-12.8 34.133-34.133v-21.333h25.6c46.933 0 85.333-38.4 85.333-85.333 0-12.8-4.267-25.6-8.533-38.4 21.333-17.067 38.4-38.4 38.4-68.267 0-46.933-42.667-85.333-93.867-85.333h-46.933v-21.333c0-17.067-12.8-34.133-34.133-34.133s-34.133 17.067-34.133 34.133v21.333h-85.333c-17.067 0-34.133 12.8-34.133 34.133s12.8 34.133 34.133 34.133h8.533v68.267zM904.533 661.333c0 12.8-12.8 21.333-29.867 21.333h-119.467v-42.667h119.467c17.067 0 29.867 8.533 29.867 21.333zM759.467 789.333v-42.667h102.4c12.8 0 21.333 8.533 21.333 21.333 0 8.533-8.533 21.333-21.333 21.333h-102.4z" />
</font>
</defs>
</svg>
