<svg width="400" height="400" viewBox="0 0 400 400" fill="none" xmlns="http://www.w3.org/2000/svg">
<path d="M0 16C0 7.16345 7.16344 0 16 0H400V400H16C7.16345 400 0 392.837 0 384V16Z" fill="#BCD1FF"/>
<path d="M93.2932 260.964L176.893 309.547C178.665 310.58 181.519 310.58 183.291 309.563L310.319 236.214C312.09 235.197 312.09 233.54 310.319 232.507L226.719 183.924C224.963 182.907 222.109 182.907 220.337 183.924L93.3096 257.256C91.5378 258.29 91.5213 259.947 93.2932 260.964Z" fill="#AABAFD"/>
<path d="M192.083 265.901C191.084 266.478 191.09 267.418 192.082 267.994L212.69 279.97C213.682 280.547 215.305 280.553 216.304 279.977L256.913 256.531C257.912 255.954 257.906 255.014 256.914 254.438L236.306 242.462C235.314 241.885 233.691 241.878 232.693 242.455L192.083 265.901Z" fill="#2E4277"/>
<path d="M91.9807 259.126L91.9971 264.017C91.9971 264.673 92.44 265.345 93.3095 265.854L176.909 314.437C178.681 315.454 181.536 315.454 183.308 314.437L310.335 241.105C311.221 240.596 311.664 239.923 311.664 239.234L311.647 234.361C311.647 235.033 311.204 235.706 310.319 236.214L183.291 309.563C181.519 310.58 178.665 310.58 176.893 309.547L93.2931 260.964C92.4073 260.455 91.9807 259.799 91.9807 259.126Z" fill="#798FFE"/>
<path d="M220.09 87.1888C221.86 86.1668 223.299 86.9872 223.305 89.0212L223.532 178.391C223.537 180.413 222.107 182.902 220.337 183.924L95.1403 256.2C93.3701 257.222 91.9305 256.389 91.9247 254.367L91.6982 164.998C91.6925 162.964 93.1228 160.486 94.8929 159.464L220.09 87.1888Z" fill="#1B2A4F"/>
<path d="M88.3361 163.05L88.5658 252.416C88.5658 253.416 88.9268 254.138 89.5009 254.466L92.8587 256.419C92.2845 256.091 91.9236 255.369 91.9236 254.368L91.6939 165.003C91.6939 162.968 93.1212 160.491 94.893 159.457L220.09 87.1901C220.976 86.6815 221.78 86.6324 222.371 86.9604L219.013 85.0077C218.439 84.6796 217.619 84.7287 216.733 85.2373L91.5352 157.521C89.7634 158.538 88.3361 161.016 88.3361 163.05Z" fill="#384E85"/>
<path d="M96.2169 163.908L96.4348 250.244L219.013 179.48L218.795 93.1441L96.2169 163.908Z" fill="#384E85"/>
<path d="M96.2169 163.908L96.2535 178.389L218.832 107.625L218.795 93.1441L96.2169 163.908Z" fill="#AABAFD"/>
<path d="M198.584 110.276C199.766 109.594 200.727 110.118 200.73 111.476C200.734 112.834 199.78 114.487 198.598 115.169C197.437 115.84 196.476 115.292 196.472 113.934C196.468 112.577 197.423 110.947 198.584 110.276Z" fill="white"/>
<path d="M205.41 106.335C206.571 105.665 207.532 106.189 207.536 107.547C207.539 108.905 206.585 110.558 205.424 111.229C204.242 111.911 203.281 111.363 203.277 110.005C203.273 108.648 204.228 107.018 205.41 106.335Z" fill="white"/>
<path d="M212.215 102.406C213.397 101.724 214.357 102.248 214.361 103.606C214.365 104.964 213.411 106.617 212.229 107.3C211.047 107.982 210.086 107.434 210.083 106.076C210.079 104.719 211.033 103.089 212.215 102.406Z" fill="white"/>
<path d="M118.93 254.967L110.906 259.63L107.449 257.634L115.473 252.971L118.93 254.967Z" fill="#384E85"/>
<path d="M205.269 204.792L197.234 209.461L193.777 207.466L201.812 202.796L205.269 204.792Z" fill="#384E85"/>
<path d="M226.854 192.248L218.818 196.918L215.362 194.922L223.397 190.252L226.854 192.248Z" fill="#384E85"/>
<path d="M212.452 221.448L204.428 226.111L197.293 221.992L205.317 217.329L212.452 221.448Z" fill="#384E85"/>
<path d="M252.029 219.292L243.994 223.962L236.848 219.836L244.883 215.167L252.029 219.292Z" fill="#384E85"/>
<path d="M262.827 213.018L254.792 217.687L238.65 208.367L246.685 203.698L262.827 213.018Z" fill="#384E85"/>
<path d="M235.85 197.442L221.034 206.052L213.888 201.926L228.704 193.316L235.85 197.442Z" fill="#384E85"/>
<path d="M218.283 207.651L210.248 212.32L203.102 208.195L211.137 203.525L218.283 207.651Z" fill="#384E85"/>
<path d="M244.835 202.63L226.002 213.574L218.867 209.455L237.7 198.51L244.835 202.63Z" fill="#384E85"/>
<path d="M223.25 215.173L215.215 219.843L208.08 215.723L216.115 211.054L223.25 215.173Z" fill="#384E85"/>
<path d="M232.246 220.367L224.211 225.037L217.065 220.911L225.1 216.241L232.246 220.367Z" fill="#384E85"/>
<path d="M207.485 213.926L199.45 218.596L192.304 214.47L200.339 209.8L207.485 213.926Z" fill="#384E85"/>
<path d="M194.471 211.067L186.447 215.73L182.99 213.734L191.014 209.071L194.471 211.067Z" fill="#384E85"/>
<path d="M183.684 217.336L175.649 222.005L172.193 220.009L180.228 215.34L183.684 217.336Z" fill="#384E85"/>
<path d="M189.077 245.455L181.042 250.124L173.896 245.998L181.931 241.329L189.077 245.455Z" fill="#384E85"/>
<path d="M172.886 223.61L164.862 228.273L161.405 226.278L169.43 221.615L172.886 223.61Z" fill="#384E85"/>
<path d="M185.9 226.47L177.876 231.133L170.73 227.007L178.754 222.344L185.9 226.47Z" fill="#384E85"/>
<path d="M162.099 229.879L154.064 234.549L150.608 232.553L158.643 227.883L162.099 229.879Z" fill="#384E85"/>
<path d="M175.113 232.738L167.078 237.408L159.932 233.282L167.967 228.613L175.113 232.738Z" fill="#384E85"/>
<path d="M190.867 233.992L182.843 238.655L175.708 234.536L183.733 229.873L190.867 233.992Z" fill="#384E85"/>
<path d="M151.312 236.148L143.277 240.817L139.821 238.821L147.856 234.152L151.312 236.148Z" fill="#384E85"/>
<path d="M164.326 239.007L156.291 243.676L149.145 239.551L157.18 234.881L164.326 239.007Z" fill="#384E85"/>
<path d="M199.864 239.186L191.84 243.849L184.694 239.723L192.718 235.06L199.864 239.186Z" fill="#384E85"/>
<path d="M180.081 240.261L172.045 244.93L164.911 240.811L172.946 236.141L180.081 240.261Z" fill="#384E85"/>
<path d="M140.515 242.423L132.48 247.092L129.023 245.097L137.058 240.427L140.515 242.423Z" fill="#384E85"/>
<path d="M153.528 245.282L145.493 249.952L138.347 245.826L146.383 241.156L153.528 245.282Z" fill="#384E85"/>
<path d="M169.294 246.529L161.259 251.199L154.124 247.079L162.159 242.41L169.294 246.529Z" fill="#384E85"/>
<path d="M142.742 251.551L134.706 256.22L127.561 252.094L135.596 247.425L142.742 251.551Z" fill="#384E85"/>
<path d="M178.29 251.723L170.255 256.393L163.109 252.267L171.144 247.598L178.29 251.723Z" fill="#384E85"/>
<path d="M158.496 252.804L150.461 257.474L143.326 253.354L151.361 248.685L158.496 252.804Z" fill="#384E85"/>
<path d="M167.492 257.998L159.457 262.668L152.311 258.542L160.346 253.873L167.492 257.998Z" fill="#384E85"/>
<path d="M209.322 244.111L168.453 267.862L161.307 263.736L202.176 239.985L209.322 244.111Z" fill="#384E85"/>
<path d="M156.705 264.267L148.67 268.936L141.524 264.811L149.559 260.141L156.705 264.267Z" fill="#384E85"/>
<path d="M147.709 259.073L128.887 270.011L121.752 265.892L140.574 254.954L147.709 259.073Z" fill="#384E85"/>
<path d="M145.907 270.542L137.883 275.205L130.737 271.079L138.761 266.416L145.907 270.542Z" fill="#384E85"/>
<path d="M165.701 269.461L146.879 280.399L139.733 276.273L158.555 265.335L165.701 269.461Z" fill="#384E85"/>
<path d="M129.728 248.691L121.693 253.361L118.236 251.365L126.271 246.696L129.728 248.691Z" fill="#384E85"/>
<path d="M216.056 198.523L208.021 203.193L204.564 201.197L212.599 196.527L216.056 198.523Z" fill="#384E85"/>
<path d="M196.698 220.195L188.663 224.864L181.517 220.739L189.552 216.069L196.698 220.195Z" fill="#384E85"/>
<path d="M219.658 238.105L211.623 242.774L204.477 238.649L212.512 233.979L219.658 238.105Z" fill="#384E85"/>
<path d="M210.662 232.911L202.627 237.58L195.481 233.455L203.516 228.785L210.662 232.911Z" fill="#384E85"/>
<path d="M201.666 227.717L193.63 232.386L186.496 228.267L194.531 223.598L201.666 227.717Z" fill="#384E85"/>
<path d="M241.243 225.561L233.208 230.231L226.062 226.105L234.097 221.435L241.243 225.561Z" fill="#384E85"/>
<path d="M230.445 231.836L222.42 236.499L215.275 232.374L223.299 227.71L230.445 231.836Z" fill="#384E85"/>
<path d="M131.944 257.826L119.902 264.824L112.756 260.698L124.798 253.7L131.944 257.826Z" fill="#384E85"/>
<path d="M107.611 186.728C109.167 185.83 110.086 186.027 110.743 186.622L109.86 188.054C109.295 187.485 108.57 187.531 107.685 188.042C105.882 189.083 104.739 191.347 104.745 193.524C104.752 195.693 105.904 196.65 107.706 195.609C108.592 195.098 109.315 194.281 109.874 193.081L110.763 193.499C110.111 194.859 109.196 196.114 107.641 197.012C105.099 198.479 103.383 197.219 103.375 194.316C103.366 191.413 105.07 188.196 107.611 186.728Z" fill="#D9DDF6"/>
<path d="M113.341 191.442C113.865 191.14 114.313 191.395 114.315 191.997C114.317 192.608 113.871 193.37 113.347 193.673C112.816 193.979 112.376 193.728 112.374 193.118C112.372 192.516 112.81 191.749 113.341 191.442Z" fill="#D9DDF6"/>
<path d="M114.006 185.044C114.386 184.39 114.387 183.683 114.009 183.463C113.63 183.243 113.016 183.594 112.636 184.247C112.257 184.901 112.256 185.608 112.634 185.828C113.012 186.048 113.627 185.697 114.006 185.044Z" fill="#D9DDF6"/>
<path d="M116.288 177.818L120.511 189.741L119.471 190.341L115.248 178.419L116.288 177.818Z" fill="#D9DDF6"/>
<path d="M124.518 171.693L131.889 175.903L124.565 188.597L123.383 187.923L129.548 177.255L123.343 173.727L124.518 171.693Z" fill="#D9DDF6"/>
<path d="M140.12 175.919L140.129 179.088L132.42 183.539L132.411 180.371L140.12 175.919Z" fill="#D9DDF6"/>
</svg>
