<svg width="400" height="400" viewBox="0 0 400 400" fill="none" xmlns="http://www.w3.org/2000/svg">
<path d="M0 16C0 7.16345 7.16344 0 16 0H400V400H16C7.16345 400 0 392.837 0 384V16Z" fill="url(#paint0_linear)"/>
<path d="M169.859 127.484C165.172 129.453 147.031 137 136.906 156.547C134.75 160.719 124.625 180.266 132.078 197.516C141.969 220.391 172.063 214.812 185.891 236.328C197.75 254.844 173.141 273.031 183.734 295.062C189.266 306.547 202.016 316.156 213.781 317.047C250.578 319.812 316.672 240.547 289.813 178.344C270.219 133.156 207.781 111.687 169.859 127.484Z" fill="url(#paint1_linear)"/>
<path d="M244.859 163.016L177.125 137.891C175.062 137.141 172.812 138.172 172.062 140.234L126.312 263.375C125.562 265.437 126.594 267.687 128.656 268.437L196.391 293.562C198.453 294.312 200.703 293.281 201.453 291.219L247.203 168.031C247.953 166.016 246.922 163.766 244.859 163.016Z" fill="#2D548D"/>
<path opacity="0.09" d="M204.266 226.109C202.578 226.109 200.844 226.062 199.062 225.969C172.766 224.516 151.297 212.797 141.641 194.656C126.219 165.687 141.359 125.328 164.562 112.625C176.281 106.156 186.453 106.344 192.922 107.656C203.984 109.859 212.141 114.969 215.891 122C219.922 129.547 217.766 136.625 215.469 144.078C213.406 150.781 211.297 157.672 213.828 165.125C216.078 171.781 221.937 173.844 228.172 176.047C234.5 178.297 241.062 180.594 244.578 187.859C248.281 195.547 247.812 206.047 243.547 212.375C237.734 220.812 222.359 226.109 204.266 226.109ZM185.609 107.469C179.844 107.469 172.672 108.781 164.844 113.094C141.875 125.703 126.875 165.734 142.156 194.422C151.719 212.422 173.047 224 199.156 225.453C219.219 226.578 236.891 221.187 243.125 212.094C247.297 205.953 247.766 195.641 244.109 188.141C240.687 181.062 234.266 178.812 228.031 176.609C221.703 174.359 215.703 172.25 213.359 165.359C210.781 157.719 212.937 150.734 215 143.937C217.25 136.578 219.406 129.594 215.469 122.234C211.812 115.344 203.75 110.328 192.875 108.172C190.766 107.75 188.328 107.469 185.609 107.469Z" fill="#AAAAD5"/>
<path opacity="0.2" d="M228.453 156.922L220.953 161.937L155.469 205.906L145.109 212.891L159.359 174.406L169.766 167.422L193.25 151.625L200.75 146.609L228.453 156.922Z" fill="#EEEDF3"/>
<path opacity="0.2" d="M243.359 162.453L235.859 167.469L147.781 226.625L137.375 233.562L142.438 220.016L152.797 213.078V213.031L226.109 163.859L233.609 158.797L243.359 162.453Z" fill="#EEEDF3"/>
<path d="M244.859 163.016L243.359 162.453L233.609 158.844L228.453 156.922L200.75 146.656L177.125 137.891C175.109 137.141 172.812 138.172 172.062 140.234L159.359 174.453L145.062 212.937L142.391 220.109L137.375 233.656L126.312 263.469C126.172 263.844 126.125 264.219 126.078 264.594C125.937 266.281 126.969 267.922 128.656 268.531L141.219 273.219L150.687 276.734L175.719 286.016L184.859 289.391L196.391 293.656C198.406 294.406 200.703 293.375 201.453 291.359L246.359 170.422L247.203 168.172C247.953 166.016 246.922 163.766 244.859 163.016ZM238.437 170.656L237.5 173.234L198.828 277.437C198.406 278.516 197.187 279.125 196.062 278.703L187.578 275.562L177.312 271.766L156.125 263.891L146.422 260.281L138.687 257.422C137.844 257.094 137.328 256.344 137.328 255.5C137.328 255.219 137.328 254.937 137.469 254.656L147.875 226.672L152.891 213.125L155.562 205.953L169.859 167.469L177.125 147.922C177.547 146.844 178.766 146.234 179.844 146.656L193.344 151.672L221.047 161.937L226.203 163.859L235.953 167.469L237.219 167.937C238.297 168.359 238.859 169.578 238.437 170.656Z" fill="#EEEDF3"/>
<path d="M160.625 275.938C158.703 275.234 157.719 273.078 158.422 271.156C159.125 269.234 161.281 268.25 163.203 268.953C165.125 269.656 166.109 271.812 165.406 273.734C164.656 275.703 162.5 276.641 160.625 275.938Z" fill="#C9C7D9"/>
<path opacity="0.1" d="M205.906 90.3593L111.359 121.672C109.063 122.422 107.844 124.906 108.594 127.156L117.781 154.812C118.531 157.109 121.016 158.328 123.266 157.578L132.594 154.484L137.141 152.984C138.313 153.734 141.219 155.703 142.391 156.406C143.469 157.016 144.875 156.547 145.391 155.422C145.953 154.156 147.125 150.875 147.594 149.562L170.563 141.922L217.813 126.266C220.109 125.516 221.328 123.031 220.578 120.781L211.391 93.125C210.641 90.8281 208.203 89.6093 205.906 90.3593Z" fill="#3F3F3F"/>
<path d="M205.906 83.0469L104.469 116.656C102.031 117.453 100.719 120.125 101.516 122.562L111.359 152.234C112.156 154.672 114.828 155.984 117.266 155.187L127.25 151.859L132.125 150.266C133.344 151.109 136.484 153.172 137.75 153.922C138.875 154.578 140.422 154.062 140.984 152.844C141.547 151.484 142.859 147.922 143.328 146.562L167.984 138.406L218.703 121.578C221.141 120.781 222.453 118.109 221.656 115.672L211.812 86C211.016 83.5625 208.391 82.25 205.906 83.0469Z" fill="url(#paint2_linear)"/>
<path d="M130.156 130.578C130.859 129.359 131.047 127.859 130.578 126.406L129.781 124.016C128.89 121.344 126.078 119.703 123.359 120.5C120.547 121.344 119.047 124.297 119.937 127.062L120.781 129.687C121.25 131.141 122.328 132.219 123.594 132.781C120.687 134.984 119 138.5 119.234 142.203C119.328 143.656 120.781 144.547 122.14 144.125L137.984 138.875C139.344 138.406 139.953 136.812 139.203 135.594C137.234 132.406 133.812 130.578 130.156 130.578Z" fill="white"/>
<path d="M168.312 105.547L148.109 112.25C146.469 112.812 145.578 114.594 146.094 116.234L149.375 126.172C149.937 127.812 151.719 128.703 153.359 128.187L155.328 127.531C155.328 127.531 159.078 130.062 160.344 130.812C161.281 131.328 162.547 130.953 162.969 129.922C163.578 128.562 165.078 124.297 165.078 124.297L173.562 121.484C175.203 120.922 176.094 119.141 175.578 117.5L172.297 107.562C171.734 105.875 169.953 104.984 168.312 105.547Z" fill="white"/>
<path d="M151.625 116.844C150.969 116.984 150.265 116.656 150.078 116C149.844 115.297 150.219 114.547 150.922 114.359L167.328 108.922C167.984 108.687 168.781 109.062 168.969 109.766C169.203 110.469 168.828 111.219 168.125 111.406L151.719 116.844C151.672 116.844 151.672 116.844 151.625 116.844Z" fill="#E2E1E1"/>
<path d="M153.031 121.156C152.375 121.297 151.672 120.969 151.484 120.312C151.25 119.609 151.625 118.859 152.328 118.672L168.734 113.234C169.39 113 170.187 113.375 170.375 114.078C170.609 114.781 170.234 115.531 169.531 115.719L153.125 121.156C153.125 121.109 153.078 121.156 153.031 121.156Z" fill="#E2E1E1"/>
<path d="M154.484 125.422C153.828 125.562 153.125 125.234 152.938 124.578C152.703 123.875 153.078 123.125 153.781 122.937L161.188 120.5C161.844 120.266 162.594 120.641 162.828 121.344C163.063 122.047 162.687 122.797 161.984 122.984L154.578 125.422C154.531 125.422 154.531 125.422 154.484 125.422Z" fill="#E2E1E1"/>
<path d="M210.406 110.234C209.75 108.219 208.438 106.531 206.844 105.406L206.141 103.25C204.922 99.6406 201.359 97.5312 197.703 98.0469L197.516 97.4375C197.281 96.7344 196.531 96.3594 195.828 96.5937C195.125 96.8281 194.75 97.5781 194.984 98.2812L195.172 98.8906C191.938 100.625 190.344 104.469 191.516 108.078L192.219 110.234C191.609 112.109 191.563 114.219 192.219 116.234L192.547 117.172C192.688 117.641 193.203 117.922 193.672 117.734L197.281 116.516C197.328 116.797 197.469 117.078 197.797 117.172C199.297 117.687 200.984 117.687 202.625 117.172C204.266 116.656 205.578 115.625 206.516 114.312C206.703 114.031 206.703 113.703 206.563 113.469L210.172 112.25C210.641 112.109 210.922 111.594 210.734 111.125L210.406 110.234Z" fill="white"/>
<path d="M195.031 116.187C195.734 118.297 194.563 120.641 192.453 121.344C190.344 122.047 188 120.875 187.297 118.766C186.594 116.656 187.766 114.312 189.875 113.609C192.031 112.906 194.328 114.031 195.031 116.187Z" fill="#E83C3B"/>
<path opacity="0.1" d="M307.906 170L281.984 166.906C280.859 166.766 279.875 167.563 279.734 168.688L276.641 194.609C276.5 195.734 277.297 196.719 278.422 196.859L304.344 199.953C305.469 200.094 306.453 199.297 306.594 198.172L309.687 172.25C309.828 171.172 309.031 170.141 307.906 170Z" fill="#3F3F3F"/>
<path d="M310.953 196.344L280.672 192.734C280.156 192.688 279.781 192.219 279.875 191.703L283.484 161.422C283.531 160.906 284 160.531 284.515 160.625L314.797 164.234C315.312 164.281 315.687 164.75 315.594 165.266L311.984 195.547C311.937 196.016 311.469 196.391 310.953 196.344Z" fill="#F8AA09"/>
<path d="M283.109 189.406L286.109 164.328C286.156 164 286.437 163.812 286.719 163.812L311.797 166.812C312.125 166.859 312.312 167.141 312.312 167.422L309.312 192.5C309.265 192.828 308.984 193.016 308.703 193.016L283.625 190.016C283.297 190.016 283.109 189.734 283.109 189.406Z" fill="#FBBA38"/>
<path d="M298.344 180.594L295.437 182.891C294.922 183.312 294.125 183.219 293.703 182.703C293.281 182.187 292.531 182.094 291.969 182.516L287.703 185.891C286.859 186.547 287.234 187.953 288.312 188.094L288.828 188.141L298.906 189.359L304.578 190.016C305.656 190.156 306.359 188.891 305.703 188.047L300.078 180.781C299.656 180.266 298.859 180.172 298.344 180.594Z" fill="#EE9F05"/>
<path d="M293.14 175.719C293 176.891 291.922 177.734 290.75 177.594C289.578 177.453 288.734 176.375 288.875 175.203C289.015 174.031 290.093 173.187 291.265 173.328C292.437 173.469 293.281 174.547 293.14 175.719Z" fill="#EE9F05"/>
<path opacity="0.1" d="M144.031 243.547C143.047 240.406 139.719 238.672 136.578 239.656L98.3281 251.75C95.1875 252.734 93.4531 256.062 94.4375 259.203L102.313 284.094C103.297 287.234 106.625 288.969 109.766 287.984L113.516 286.812C113.516 286.812 120.5 291.641 122.938 293.094C124.672 294.125 127.063 293.375 127.906 291.5C129.078 288.922 131.984 280.953 131.984 280.953L148.016 275.891C151.156 274.906 152.891 271.578 151.906 268.437L144.031 243.547Z" fill="#3F3F3F"/>
<path d="M129.969 233.984L88.9531 246.969C85.5781 248.047 83.75 251.609 84.7812 254.984L93.2187 281.703C94.2969 285.078 97.8594 286.906 101.234 285.875L105.219 284.609C105.219 284.609 112.719 289.813 115.297 291.359C117.172 292.484 119.75 291.641 120.641 289.672C121.906 286.906 125 278.328 125 278.328L142.203 272.891C145.578 271.813 147.406 268.25 146.375 264.875L137.937 238.156C136.953 234.781 133.344 232.906 129.969 233.984Z" fill="url(#paint3_linear)"/>
<path d="M130.109 247.813L96.8281 258.359C95.75 258.688 94.5781 258.125 94.25 257C93.9219 255.922 94.5313 254.75 95.6094 254.422L128.891 243.875C129.969 243.547 131.141 244.109 131.469 245.234C131.797 246.313 131.188 247.484 130.109 247.813Z" fill="#EDB7D5"/>
<path d="M133.062 257.234L99.7811 267.781C98.703 268.109 97.5311 267.547 97.203 266.422C96.8749 265.344 97.4842 264.172 98.5624 263.844L131.844 253.297C132.922 252.969 134.094 253.531 134.422 254.656C134.75 255.688 134.14 256.859 133.062 257.234Z" fill="#EDB7D5"/>
<path d="M117.781 272.375L102.781 277.109C101.703 277.437 100.531 276.828 100.203 275.75C99.8749 274.672 100.484 273.5 101.562 273.172L116.562 268.437C117.641 268.109 118.812 268.719 119.141 269.797C119.469 270.875 118.859 272.047 117.781 272.375Z" fill="#EDB7D5"/>
<path opacity="0.1" d="M213.828 187.438C213.266 185.047 210.078 184.531 208.766 186.641L203.516 195.125L200.563 182.797C199.953 180.313 197.469 178.766 194.984 179.375L161.094 187.438C158.609 188.047 157.063 190.531 157.672 193.016L165.734 226.906C166.344 229.391 168.828 230.938 171.313 230.328L205.203 222.266C207.688 221.656 209.234 219.172 208.625 216.688L205.672 204.359L214.156 209.609C216.266 210.922 218.891 209 218.281 206.609L213.828 187.438Z" fill="#3F3F3F"/>
<path d="M212.797 177.406L207.172 186.547L204.031 173.328C203.375 170.656 200.703 169.016 198.031 169.625L161.656 178.297C158.985 178.953 157.344 181.625 157.953 184.297L166.625 220.672C167.281 223.344 169.953 224.984 172.625 224.375L209 215.703C211.672 215.047 213.313 212.375 212.703 209.703L209.563 196.484L218.703 202.109C220.953 203.516 223.766 201.453 223.156 198.875L218.235 178.297C217.625 175.719 214.203 175.156 212.797 177.406Z" fill="#E83B5B"/>
<path d="M178.859 187.203L192.172 195.359L183.969 208.672" fill="white"/>
<path d="M237.886 239.938L182.571 248.749L187.548 279.994L242.863 271.183L237.886 239.938Z" fill="#E83C3B"/>
<path d="M212.703 260L237.875 239.984L182.563 248.797L212.703 260Z" fill="#EE7375"/>
<path d="M249.125 293.609H280.766C281.703 293.609 282.5 292.812 282.5 291.875C282.5 290.937 281.703 290.141 280.766 290.141H249.125C248.187 290.141 247.391 290.937 247.391 291.875C247.391 292.859 248.141 293.609 249.125 293.609Z" fill="#E2E2E1"/>
<path d="M259.578 286.25L258.078 277.109L262.203 275.844L262.859 285.594L259.578 286.25Z" fill="#D7DDE9"/>
<path d="M263 284.609C263.281 284.656 263.515 284.75 263.75 284.937C265.203 286.156 269.656 288.312 271.906 288.641C274.344 289.016 274.484 290.187 271.015 290.187C267.594 290.187 265.062 289.859 263.562 289.906C262.015 289.953 262.437 290.187 258.687 290.187C255.781 290.187 256.719 286.484 257.75 284.797C258.078 284.281 258.5 284 259.109 284.047L263 284.609Z" fill="#ED9558"/>
<path d="M246.312 277.719L252.031 270.453L255.734 272.656L249.031 279.687L246.312 277.719Z" fill="#D7DDE9"/>
<path d="M249.875 279.125C250.015 279.359 250.156 279.594 250.156 279.875C250.25 281.75 251.703 286.625 253.437 288.172C255.172 289.766 254.047 290.141 251.234 288.828C248.14 287.375 247.437 284.234 246.359 283.156C245.281 282.078 245.375 282.5 242.844 279.734C240.875 277.625 244.203 275.797 246.172 275.375C246.781 275.234 247.25 275.375 247.625 275.891L249.875 279.125Z" fill="#ED9558"/>
<path d="M243.734 123.219C243.734 123.219 242.609 130.719 244.766 134.188C246.922 137.656 247.25 138.172 247.25 138.172" fill="#ED8C61"/>
<path d="M249.266 141.5C248.656 141.875 247.953 142.062 247.297 142.062C245.984 142.062 244.672 141.406 243.969 140.141C243.922 140.094 243.547 139.437 241.531 136.25C240.125 134 239.656 130.953 239.609 128.281C239.516 125.656 239.797 123.406 239.938 122.656C240.266 120.547 242.234 119.047 244.391 119.375C246.5 119.703 248 121.672 247.672 123.828C247.484 124.953 247.438 126.266 247.438 127.484C247.438 128.75 247.531 129.969 247.719 130.859C247.813 131.375 247.953 131.844 248.141 132.125C250.344 135.641 250.672 136.203 250.672 136.203C251.75 138.031 251.141 140.422 249.266 141.5Z" fill="#F6AD86"/>
<path d="M234.875 184.437C235.672 173.234 231.922 145.437 230 134.375C229.719 132.688 230.984 131.141 232.719 131.141H255.734C256.953 131.141 258.078 131.984 258.406 133.156C261.031 143.187 262.719 184.391 262.719 184.391H234.875V184.437Z" fill="#E8E8E8"/>
<path d="M272.891 161.141C272.516 159.031 269.937 153.641 267.078 148.016C264.031 142.063 260.609 135.781 259.016 132.969C258.125 131.375 256.109 130.813 254.516 131.656C252.922 132.547 252.359 134.563 253.203 136.156C255.641 140.563 258.125 145.203 260.328 149.375C262.812 154.156 265.203 157.063 266.187 159.406C264.406 160.953 259.953 161.094 256.437 160.859C255.453 160.766 251.703 160.484 249.219 162.781C248.234 163.672 247.109 165.313 247.203 167.891C247.297 169.672 247.531 170.375 249.125 171.172C249.781 171.5 250.625 171.547 251.328 171.5C253.156 171.266 253.297 170.281 253.297 168.172C253.297 166.672 254.094 165.172 254.094 165.172C254.094 165.172 259.437 166.484 263.891 167.047C268.344 167.609 270.172 166.719 271.812 164.891C272.75 163.813 273.125 162.453 272.891 161.141Z" fill="#F6AD86"/>
<path d="M236.094 202.531C236.094 202.531 232.719 196.344 234.875 184.438H262.672C262.672 184.438 263.047 193.484 262.438 202.531H236.094Z" fill="#3A63A9"/>
<path d="M267.031 148.016L263.797 148.672L260.328 149.375C258.172 145.203 255.64 140.516 253.203 136.156C252.312 134.563 252.922 132.547 254.515 131.656C256.109 130.766 258.125 131.375 259.015 132.969C260.562 135.781 263.984 142.063 267.031 148.016Z" fill="#ED8C61"/>
<path d="M235.766 133.766C235.344 131.984 233.516 130.906 231.781 131.375C223.812 133.344 218.281 135.125 214.437 136.766C205.578 140.516 205.672 143.281 205.672 144.688C205.719 146.281 206.047 149.422 225.125 156.359C225.125 156.922 224.516 159.078 224.141 159.781C223.25 161.375 224.187 162.922 225.125 164.469C225.453 164.984 226.203 165.641 227.094 165.641C228.266 165.641 229.719 164.141 229.906 162.922C230.609 158.469 230.516 155.844 230.281 155.328C230.281 155.281 230.234 155.234 230.234 155.188C230.141 155.047 230.094 154.906 230 154.766C229.953 154.672 229.859 154.625 229.812 154.531C229.719 154.438 229.672 154.344 229.578 154.297C229.437 154.156 229.297 154.063 229.156 153.969C229.109 153.969 229.109 153.922 229.062 153.922C228.828 153.781 228.594 153.641 228.359 153.547C221.891 150.875 215.844 146.563 213.172 144.688C214.109 144.172 215.422 143.516 217.062 142.906C221.141 141.266 227.141 139.344 233.281 137.844C235.109 137.328 236.187 135.547 235.766 133.766Z" fill="#F6AD86"/>
<path d="M267.547 146.562L263.094 147.406L259.625 148.062L256.672 148.625C252.875 141.172 251.984 139.484 251.844 136.953C251.703 134.094 252.453 132.641 254.328 131.609C256.203 130.578 258.547 131.234 259.578 133.109C259.672 133.25 263.703 139.016 267.547 146.562Z" fill="#E8E8E8"/>
<path d="M279.641 239.281C279.219 242 277.766 244.953 275.703 248.563C272.234 254.563 266.938 261.266 262.156 266.844C258.828 270.734 255.781 274.109 253.859 276.406C253.016 277.391 252.359 278.188 251.984 278.703L248.047 273.641C249.5 271.578 250.859 268.813 252.547 266.234C252.594 266.188 252.641 266.094 252.688 266.047C255.875 261.219 259.297 255.781 262.016 250.813C262.109 250.625 262.203 250.484 262.297 250.297C265.203 245.047 267.359 240.406 267.781 237.688C268.531 232.859 261.266 217.766 254.094 204.453C253.297 202.906 252.453 201.406 251.656 199.953C251.375 199.438 251.234 198.922 251.188 198.359C251 195.922 252.781 193.109 254.984 191.891C257.656 190.391 261.125 189.641 262.625 192.313C265.672 197.844 281.469 227.422 279.641 239.281Z" fill="#3A63A9"/>
<path d="M262.156 266.844C258.828 270.734 255.781 274.109 253.859 276.406C253.531 273.687 253.203 270.734 252.875 267.734C252.828 267.172 252.734 266.562 252.687 266C255.875 261.172 259.297 255.734 262.015 250.766C262.203 255.687 262.203 261.453 262.156 266.844Z" fill="#2D548D"/>
<path d="M261.453 240.781C260.094 229.672 250.766 199.812 249.312 196.531C248.094 193.719 241.344 193.109 238.531 194.375C235.719 195.594 234.453 198.875 235.672 201.687C239.422 210.219 250.062 233.047 251.141 241.109C251.75 245.937 252.594 255.641 254.094 263.937C255.172 269.703 256.25 275.328 257.047 279.406C257.75 282.969 257.75 282.312 257.797 282.641L264.453 281.609C264.453 281.609 263.047 253.906 261.453 240.781Z" fill="#3A63A9"/>
<path d="M233.328 137.75C227.187 139.25 221.187 141.172 217.109 142.812L214.391 136.719C218.234 135.125 223.766 133.297 231.734 131.328C233.516 130.906 235.297 131.984 235.719 133.719C236.187 135.547 235.109 137.328 233.328 137.75Z" fill="#ED8C61"/>
<path d="M231.828 131.234C233.938 130.906 235.484 131.938 236.047 134C236.609 136.063 235.203 137.656 233.328 138.734C231.078 140.047 230.281 140.328 220.766 143.609L215.469 136.297C227.656 131.563 228.266 131.75 231.828 131.234Z" fill="#E8E8E8"/>
<path d="M247.672 130.859C247.484 130.859 247.297 130.859 247.156 130.859C244.297 130.859 241.672 129.922 239.609 128.281C239.516 125.656 239.797 123.406 239.938 122.656C240.266 120.547 242.234 119.047 244.391 119.375C246.5 119.703 248 121.672 247.672 123.828C247.484 124.953 247.438 126.266 247.438 127.484C247.344 128.703 247.438 129.922 247.672 130.859Z" fill="#ED8C61"/>
<path d="M258.687 116.984C257.141 124.156 253.156 129.406 246.266 129.406C239.422 129.406 235.109 124.203 233.844 116.984C232.719 110.234 239.422 103.625 246.266 103.625C253.203 103.578 260.141 110.281 258.687 116.984Z" fill="#F6AD86"/>
<path d="M259.625 282.687L259.578 282.5C257.703 270.875 254.844 253.344 253.437 242.281C252.406 234.219 242.422 210.312 238.672 201.781C238.625 201.734 238.625 201.641 238.625 201.594C238.625 201.547 238.625 201.547 238.578 201.5C237.969 199.859 236.141 193.766 237.875 184.156L238.437 184.25C236.703 193.719 238.531 199.672 239.094 201.312C239.094 201.359 239.141 201.406 239.141 201.453C239.141 201.5 239.141 201.547 239.187 201.594C242.937 210.125 252.922 234.125 253.953 242.234C255.406 253.25 258.219 270.828 260.094 282.453L260.141 282.641L259.625 282.687Z" fill="#658BC1"/>
<path d="M250.719 131.187C250.719 132.875 250.062 135.687 245.656 135.687C242.469 135.687 238.437 134.328 236.937 131.75L236.609 131.187H250.719V131.187Z" fill="#C8D6DB"/>
<path d="M237.922 131.187C239.094 133.25 242.609 134.562 245.656 134.562C248.703 134.562 249.594 133.062 249.594 131.187H237.922Z" fill="#F6AD86"/>
<path d="M254.609 165.828C254.609 165.781 254.797 163.906 252.828 161.187L254.656 160.109C256.953 163.531 256.719 165.969 256.719 166.109L254.609 165.828Z" fill="#82AACE"/>
<path d="M253.203 160.156C254.234 159.687 255.594 159.922 256.297 160.672C256.953 161.422 256.672 162.453 255.594 162.922C254.562 163.391 253.203 163.156 252.5 162.406C251.844 161.609 252.125 160.625 253.203 160.156Z" fill="#4E7DB0"/>
<path d="M258.406 107.797C254.656 101.75 245.422 101.281 243.641 101.375C242.703 101.422 240.641 101.984 239.75 103.391C239.703 102.406 239.75 101.516 239.75 101.516C238.953 102.5 238.813 103.344 238.953 104C238.391 103.25 238.016 102.453 238.016 102.453C237.875 103.484 238.156 104.094 238.578 104.422C236.047 105.031 232.813 108.594 233.938 115.906C234.406 119.094 241.625 116.656 243.641 113.469C245 115.672 247.719 116.141 247.719 116.141C246.781 115.203 245.938 113.797 245.281 112.391C249.125 114.734 254.234 117.266 254.844 118.812C254.844 118.812 255.969 116.328 255.125 114.734C255.125 114.734 258.172 115.484 258.547 118.531C258.5 118.437 262.391 114.266 258.406 107.797Z" fill="#424344"/>
<path d="M249.43 184.141L248.875 184.231L251.91 203.018L252.465 202.929L249.43 184.141Z" fill="#658BC1"/>
<path d="M251.609 199.437L251.515 198.875C251.515 198.875 252.687 198.687 253.297 197.797C253.672 197.281 253.765 196.625 253.672 195.875L251.75 183.969L252.312 183.875L254.234 195.781C254.375 196.719 254.234 197.516 253.765 198.125C253.015 199.25 251.656 199.437 251.609 199.437Z" fill="#658BC1"/>
<path d="M233.469 116.234C232.906 117.453 233 118.766 233.516 119.891C234.125 121.203 236.047 121.109 236.609 119.797L238.203 116.234C238.812 114.922 237.594 113.469 236.187 113.844C235.016 114.219 233.984 115.062 233.469 116.234Z" fill="#F6AD86"/>
<defs>
<linearGradient id="paint0_linear" x1="0" y1="0" x2="400" y2="400" gradientUnits="userSpaceOnUse">
<stop stop-color="#F395BA"/>
<stop offset="1" stop-color="#FED182"/>
</linearGradient>
<linearGradient id="paint1_linear" x1="304.628" y1="296.258" x2="66.8136" y2="77.7908" gradientUnits="userSpaceOnUse">
<stop stop-color="#6FC7DA"/>
<stop offset="0.3693" stop-color="#0D71B9"/>
<stop offset="0.7613" stop-color="#9E1460"/>
<stop offset="1" stop-color="#E7267A"/>
</linearGradient>
<linearGradient id="paint2_linear" x1="204.597" y1="164.744" x2="101.488" y2="55.3799" gradientUnits="userSpaceOnUse">
<stop stop-color="#6FC7DA"/>
<stop offset="1" stop-color="#9E1460"/>
</linearGradient>
<linearGradient id="paint3_linear" x1="155.54" y1="266.12" x2="96.8786" y2="259.704" gradientUnits="userSpaceOnUse">
<stop stop-color="#6FC7DA"/>
<stop offset="0.6927" stop-color="#9E1460"/>
<stop offset="1" stop-color="#E7267A"/>
</linearGradient>
</defs>
</svg>
