<svg width="400" height="400" viewBox="0 0 400 400" fill="none" xmlns="http://www.w3.org/2000/svg">
<path d="M0 16C0 7.16345 7.16344 0 16 0H400V400H16C7.16345 400 0 392.837 0 384V16Z" fill="#D2EBF7"/>
<path opacity="0.34" d="M117.078 303.5C136.003 303.5 151.344 300.499 151.344 296.797C151.344 293.095 136.003 290.094 117.078 290.094C98.1537 290.094 82.8125 293.095 82.8125 296.797C82.8125 300.499 98.1537 303.5 117.078 303.5Z" fill="#575FA8"/>
<path d="M120.828 284.703L120.125 296.141H140.562C140.562 296.141 132.219 290.563 128.516 288.781L128.094 284.75H120.828V284.703Z" fill="#F08789"/>
<path d="M127.156 193.953L128.516 287.797H120.453C120.453 287.797 111.547 251.047 115.906 240.313L108.125 193.953H127.156V193.953Z" fill="#32388D"/>
<path opacity="0.2" d="M127.156 193.953H108.172L115.953 240.313C114.453 244.016 114.5 250.859 115.25 258.219L128.328 274.203L127.156 193.953Z" fill="#020203"/>
<path d="M99.2657 286.203L96.1251 297.641H118.438C118.438 297.641 109.016 292.063 105.266 290.281L105.969 286.25H99.2657V286.203Z" fill="#F08789"/>
<path d="M127.719 192.781L119.797 239.844L106.438 287.797H98.422C98.422 287.797 101 241.766 109.25 236.984L102.734 192.828H127.719V192.781Z" fill="#32388D"/>
<path opacity="0.2" d="M127.203 196.016L127.719 192.781H102.734L103.297 196.625L127.25 199.672L127.203 196.016Z" fill="#020203"/>
<path d="M140.609 160.297C140.609 160.297 145.578 152.281 153.313 150.453L150.266 154.109C150.266 154.109 151.719 157.906 149.891 159.828C148.063 161.75 145.109 161.891 145.109 161.891L143.047 164.188L140.609 160.297Z" fill="#F5ABAE"/>
<path d="M120.969 153.734L127.766 167.609L141.078 158.609L144.406 163.719C144.406 163.719 132.828 185.469 127.719 183.875C122.609 182.281 118.203 170.797 118.203 170.797L120.969 153.734Z" fill="white"/>
<path opacity="0.2" d="M127.719 167.609L120.922 153.734L118.203 170.797C118.203 170.797 122.609 182.281 127.719 183.875C127.859 183.922 127.953 183.922 128.094 183.922L134.234 163.156L127.719 167.609Z" fill="#020203"/>
<path d="M126.125 120.969C126.125 120.969 126.922 128.047 127.719 129.781H125.516C125.516 129.781 125.703 136.578 124.297 137.422C123.313 138.031 120.453 137.422 119.797 138.219C119.141 139.016 118.156 144.688 118.156 144.688L109.297 143.938L110.188 136.016C110.188 136.016 105.219 130.063 106.719 122.75C108.219 115.438 124.813 114.172 126.125 120.969Z" fill="#F5ABAE"/>
<path opacity="0.2" d="M115.063 132.781L108.078 132.406C109.109 134.609 110.234 135.969 110.234 135.969L109.344 143.891L118.203 144.641C118.203 144.641 119.188 138.969 119.844 138.172C120.078 137.891 120.641 137.75 121.297 137.75C117.875 136.813 114.781 132.969 115.063 132.781Z" fill="#020203"/>
<path d="M126.406 123.313C126.406 123.313 124.531 124.438 120.781 121.953C120.781 121.953 118.25 126.5 116.047 125.891C116.047 125.891 115.953 129.125 115.484 129.359C115.016 129.594 114.078 126.594 113.141 126.406C112.203 126.219 111.219 127.156 112.25 129.969C113.234 132.781 115.063 132.781 115.063 132.781L110.188 136.016C110.188 136.016 106.344 134.797 105.594 131.609C105.594 131.609 100.719 126.875 103.672 123.5C103.672 123.5 100.438 120.781 107.984 117.453C107.984 117.453 109.766 110.891 113.281 113.891C113.281 113.891 119.797 109.016 121.391 113.375C121.391 113.375 129.781 112.672 130.297 117.219C130.813 121.766 128.797 122.844 128.797 122.844C128.797 122.844 129.266 126.594 126.922 126.781L126.406 123.313Z" fill="#212226"/>
<path d="M103.156 153.125C103.156 153.125 98.75 152.047 99.5 147.359C100.25 142.625 106.437 140.516 119.141 143.469C120.641 143.797 121.812 146.281 120.828 148.438C120.828 148.438 124.906 158.469 126.172 166.672C127.437 174.875 128.094 183.453 129.5 187.438C130.859 191.422 129.734 195.875 125.937 195.875C122.187 195.875 107.375 195.875 102.781 195.875C98.1875 195.875 97.625 189.5 99.4531 182.844C101.234 176.234 103.906 157.906 103.156 153.125Z" fill="#444496"/>
<path d="M113.469 150.547C120.688 152.094 115.672 166.438 114.219 170.516C112.766 174.641 111.172 178.297 113.469 181.484C115.766 184.672 119.797 188.234 119.797 188.234L117.078 193.953C117.078 193.953 102.031 192.031 98.4221 187.578C94.8596 183.125 96.8752 173.188 99.9689 166.344C103.063 159.5 108.078 149.422 113.469 150.547Z" fill="white"/>
<path d="M116.656 194.938C116.469 194.844 116.422 194.656 116.469 194.469L120.125 186.5C120.219 186.313 120.406 186.266 120.594 186.313C120.781 186.406 120.828 186.594 120.781 186.781L117.125 194.75C117.031 194.938 116.844 194.984 116.656 194.938Z" fill="#A77071"/>
<path d="M113.234 222.078C113.234 223.25 112.297 224.234 111.078 224.234C109.906 224.234 108.922 223.25 108.922 222.078C108.922 220.906 109.859 219.922 111.078 219.922C112.297 219.969 113.234 220.906 113.234 222.078Z" fill="#59BCAB"/>
<path d="M99.828 221.516C96.828 221.516 94.3905 219.078 94.3905 216.078C94.3905 213.078 96.828 210.641 99.828 210.641C102.828 210.641 105.266 213.078 105.266 216.078C105.266 219.078 102.828 221.516 99.828 221.516ZM99.828 213.5C98.3749 213.5 97.2499 214.672 97.2499 216.078C97.2499 217.484 98.4218 218.656 99.828 218.656C101.281 218.656 102.406 217.484 102.406 216.078C102.406 214.672 101.281 213.5 99.828 213.5Z" fill="#FCC450"/>
<path d="M256.156 115.156H254.375V116.984C254.375 117.828 253.719 118.484 252.875 118.484C252.031 118.484 251.375 117.828 251.375 116.984V115.156H249.547C248.703 115.156 248.047 114.5 248.047 113.656C248.047 112.813 248.703 112.156 249.547 112.156H251.375V110.328C251.375 109.484 252.031 108.828 252.875 108.828C253.719 108.828 254.375 109.484 254.375 110.328V112.156H256.203C257.047 112.156 257.703 112.813 257.703 113.656C257.656 114.5 257 115.156 256.156 115.156Z" fill="#59BCAB"/>
<path d="M270.875 105.687C270.875 106.859 269.937 107.844 268.719 107.844C267.547 107.844 266.562 106.906 266.562 105.687C266.562 104.516 267.547 103.531 268.719 103.531C269.891 103.531 270.875 104.469 270.875 105.687Z" fill="#345185"/>
<path d="M159.922 153.922C153.453 137.703 156.781 118.531 169.906 105.406C176.234 99.0782 183.969 95.0001 192.125 93.2657L196.953 115.156C186.781 117.359 179.188 126.406 179.188 137.234C179.188 140.188 179.75 143 180.781 145.625L159.922 153.922Z" fill="#345185"/>
<path d="M169.906 169.062C169.578 168.734 169.203 168.359 168.875 167.984L185.234 152.656C189.359 157.062 195.219 159.781 201.734 159.781C214.203 159.781 224.328 149.656 224.328 137.187C224.328 128.281 219.219 120.594 211.719 116.937L221.656 96.8281C225.969 98.9375 230 101.797 233.562 105.359C251.141 122.937 251.141 151.484 233.562 169.062C216.031 186.641 187.484 186.641 169.906 169.062Z" fill="white"/>
<path d="M201.781 114.641C200.094 114.641 198.5 114.828 196.953 115.156L192.172 93.2657C202.016 91.1094 212.469 92.2813 221.703 96.875L211.766 116.984C208.766 115.438 205.344 114.641 201.781 114.641Z" fill="#59BCAB"/>
<path d="M168.875 167.984C164.938 163.766 161.938 158.984 159.922 153.922L180.781 145.625C181.813 148.25 183.359 150.641 185.281 152.703L168.875 167.984Z" fill="#C1E4EE"/>
<path d="M304.39 127.203V278.047C304.39 280.578 302.328 282.641 299.797 282.641H203.328C200.797 282.641 198.734 280.578 198.734 278.047V127.203C198.734 124.672 200.797 122.562 203.328 122.562H299.75C302.328 122.562 304.39 124.625 304.39 127.203Z" fill="#4FBECB"/>
<path d="M188.094 286.953H315.031C316.203 286.953 317.187 286.016 317.187 284.797C317.187 283.625 316.25 282.641 315.031 282.641H188.094C186.922 282.641 185.937 283.578 185.937 284.797C185.937 286.016 186.922 286.953 188.094 286.953Z" fill="#E2E2E1"/>
<path d="M304.39 127.156V138.406H198.734V127.156C198.734 124.625 200.797 122.516 203.328 122.516H299.75C302.328 122.562 304.39 124.625 304.39 127.156Z" fill="#4FBECB"/>
<path d="M251.562 278.656C249.172 278.656 247.25 276.734 247.25 274.344C247.25 271.953 249.172 270.031 251.562 270.031C253.953 270.031 255.875 271.953 255.875 274.344C255.922 276.734 253.953 278.656 251.562 278.656Z" fill="#E6F2EA"/>
<path d="M210.922 132.125C209.937 132.125 209.14 131.328 209.14 130.344C209.14 129.359 209.937 128.562 210.922 128.562C211.906 128.562 212.703 129.359 212.703 130.344C212.656 131.328 211.859 132.125 210.922 132.125Z" fill="#E6F2EA"/>
<path d="M216.5 132.125C215.515 132.125 214.719 131.328 214.719 130.344C214.719 129.359 215.515 128.562 216.5 128.562C217.484 128.562 218.281 129.359 218.281 130.344C218.281 131.328 217.484 132.125 216.5 132.125Z" fill="#E6F2EA"/>
<path d="M302.75 138.406H200.375V265.391H302.75V138.406Z" fill="#D2EBF7"/>
<path d="M218.699 180.969V165.922H184.808V180.969H218.699Z" fill="#A9DAE5"/>
<path d="M239.381 219.258V204.211H205.49V219.258H239.381Z" fill="#A9DAE5"/>
<path d="M229.064 200.137V185.09H195.173V200.137H229.064Z" fill="#A9DAE5"/>
<path d="M296.891 143.75H205.484V160.859H296.891V143.75Z" fill="#EDF6F4"/>
<path d="M294.125 146.188H281.984V158.328H294.125V146.188Z" fill="#D2E8F2"/>
<path d="M237.687 146.938H211.39V149.281H237.687V146.938Z" fill="#ACD8C8"/>
<path d="M237.687 151.109H211.39V153.453H237.687V151.109Z" fill="#ACD8C8"/>
<path d="M229.109 155.281H211.39V157.625H229.109V155.281Z" fill="#ACD8C8"/>
<path opacity="0.5" d="M314.14 216.828H239.375V251.938H314.14V216.828Z" fill="#96CEB8"/>
<path d="M276.172 228.969H246.828V231.922H276.172V228.969Z" fill="#E6F2EA"/>
<path d="M269.187 234.219H246.828V237.172H269.187V234.219Z" fill="#E6F2EA"/>
<path d="M261.922 239.516H246.828V242.469H261.922V239.516Z" fill="#E6F2EA"/>
<path d="M272.797 239.516H263.797V242.469H272.797V239.516Z" fill="#E6F2EA"/>
<path d="M267.219 244.766H246.828V247.719H267.219V244.766Z" fill="#E6F2EA"/>
<path d="M232.484 224.891H205.484V251.891H232.484V224.891Z" fill="#9FD2BA"/>
<path d="M224.955 244.447C228.25 241.152 228.25 235.809 224.955 232.514C221.66 229.219 216.318 229.219 213.023 232.514C209.728 235.809 209.728 241.152 213.023 244.447C216.318 247.742 221.66 247.742 224.955 244.447Z" fill="#7CC39E"/>
<path d="M225.406 238.484C225.406 240.594 224.375 242.469 222.781 243.641C222.313 243.969 221.797 244.297 221.234 244.484C221 244.578 220.719 244.672 220.484 244.719C220.344 244.766 220.156 244.766 220.016 244.813C219.688 244.859 219.359 244.906 219.031 244.906C218.375 244.906 217.719 244.813 217.109 244.625C214.484 243.828 212.609 241.391 212.609 238.484C212.609 237.5 212.844 236.516 213.266 235.672C213.781 234.641 214.531 233.75 215.469 233.141C215.703 233 215.938 232.859 216.172 232.719C216.688 232.438 217.25 232.25 217.859 232.156C218.234 232.063 218.656 232.063 219.031 232.063C221.75 232.063 224.094 233.75 224.984 236.141C225.219 236.891 225.406 237.641 225.406 238.484Z" fill="#EFF4F4"/>
<path d="M218.984 239.234C218.563 239.234 218.234 238.906 218.234 238.484V234.359C218.234 233.937 218.563 233.609 218.984 233.609C219.406 233.609 219.734 233.937 219.734 234.359V238.484C219.734 238.906 219.406 239.234 218.984 239.234Z" fill="#C1D6CF"/>
<path d="M218.984 239.234C218.75 239.234 218.516 239.094 218.375 238.906C218.141 238.578 218.281 238.109 218.609 237.875L220.719 236.516C221.047 236.281 221.516 236.422 221.75 236.75C221.984 237.078 221.844 237.547 221.516 237.781L219.406 239.141C219.266 239.188 219.125 239.234 218.984 239.234Z" fill="#C1D6CF"/>
<path d="M296.89 165.922H243.547V219.266H296.89V165.922Z" fill="#98D5E9"/>
<path d="M270.219 194.984C266.469 194.984 263.422 191.937 263.422 188.187V184.109C263.422 180.359 266.469 177.312 270.219 177.312C273.969 177.312 277.015 180.359 277.015 184.109V188.187C277.015 191.937 273.969 194.984 270.219 194.984Z" fill="#F8FCFA"/>
<path d="M270.219 191.516C263.797 191.516 258.312 195.266 255.734 200.703C254.234 203.891 256.531 207.547 260.047 207.547H280.437C283.953 207.547 286.25 203.891 284.75 200.703C282.172 195.266 276.64 191.516 270.219 191.516Z" fill="#F8FCFA"/>
<path d="M296.88 258.057V253.697L205.474 253.697V258.057H296.88Z" fill="#FFE1AB"/>
<path d="M303.734 164.188V148.297C304.859 148.297 305.797 149.234 305.797 150.359V162.172C305.797 163.297 304.859 164.188 303.734 164.188Z" fill="#4FBECB"/>
<path d="M303.734 181.953V166.062C304.859 166.062 305.797 167 305.797 168.125V179.937C305.797 181.016 304.859 181.953 303.734 181.953Z" fill="#4FBECB"/>
<path opacity="0.3" d="M259.765 138.406L200.375 197.797V165.875L227.844 138.406H259.765Z" fill="#F6FBFD"/>
<path opacity="0.3" d="M281.984 138.406L200.375 220.016V204.078L266.047 138.406H281.984Z" fill="#F6FBFD"/>
<path opacity="0.3" d="M221.562 229.813V243.5C221.562 244.063 221.187 244.578 220.672 244.719V282.594H203.375C200.844 282.594 198.781 280.531 198.781 278V201.922H217.484C219.265 201.922 220.672 203.375 220.672 205.109V228.594C221.187 228.781 221.562 229.25 221.562 229.813Z" fill="#385F82"/>
<path d="M208.391 195.594V300.313C208.391 302.094 206.938 303.5 205.203 303.5H150.219C148.484 303.5 147.031 302.094 147.031 300.313V195.594C147.031 193.813 148.484 192.406 150.219 192.406H205.156C206.938 192.406 208.391 193.813 208.391 195.594Z" fill="#5BB98E"/>
<path d="M208.391 195.594V203.422H147.031V195.594C147.031 193.813 148.484 192.406 150.219 192.406H205.203C206.938 192.406 208.391 193.859 208.391 195.594Z" fill="#5BB98E"/>
<path d="M177.687 300.781C176.047 300.781 174.688 299.422 174.688 297.781C174.688 296.141 176.047 294.781 177.687 294.781C179.328 294.781 180.687 296.141 180.687 297.781C180.687 299.422 179.375 300.781 177.687 300.781Z" fill="#E6F2EA"/>
<path d="M166.578 199.016C165.922 199.016 165.359 198.453 165.359 197.797C165.359 197.141 165.922 196.578 166.578 196.578C167.234 196.578 167.797 197.141 167.797 197.797C167.797 198.5 167.281 199.016 166.578 199.016Z" fill="#E6F2EA"/>
<path d="M183.875 198.266H171.734C171.5 198.266 171.266 198.078 171.266 197.797C171.266 197.516 171.453 197.328 171.734 197.328H183.875C184.109 197.328 184.344 197.516 184.344 197.797C184.344 198.078 184.109 198.266 183.875 198.266Z" fill="#E6F2EA"/>
<path d="M207.219 203.422H148.156V291.594H207.219V203.422Z" fill="#D2EBF7"/>
<path d="M163.625 250.297H152.891V253.672H163.625V250.297Z" fill="#EDF6F4"/>
<path d="M190.953 250.297H180.219V253.672H190.953V250.297Z" fill="#EDF6F4"/>
<path d="M177.266 250.297H166.531V253.672H177.266V250.297Z" fill="#EDF6F4"/>
<path d="M202.578 256.438H159.359V268.297H202.578V256.438Z" fill="#EDF6F4"/>
<path d="M200.656 258.125H192.219V266.562H200.656V258.125Z" fill="#D5EAE4"/>
<path d="M175.391 258.641H157.109V260.281H175.391V258.641Z" fill="#ACD8C8"/>
<path d="M175.391 261.547H157.109V263.188H175.391V261.547Z" fill="#ACD8C8"/>
<path d="M169.391 264.453H157.109V266.094H169.391V264.453Z" fill="#ACD8C8"/>
<path d="M184.578 271.25H152.984V286.062H184.578V271.25Z" fill="#EDF6F4"/>
<path d="M173.234 273.5H157.109V275.141H173.234V273.5Z" fill="#FFE1AB"/>
<path d="M169.391 276.359H157.109V278H169.391V276.359Z" fill="#FFE1AB"/>
<path d="M165.406 279.266H157.109V280.906H165.406V279.266Z" fill="#FFE1AB"/>
<path d="M171.359 279.266H166.437V280.906H171.359V279.266Z" fill="#ACD8C8"/>
<path d="M168.313 282.172H157.109V283.812H168.313V282.172Z" fill="#FFE1AB"/>
<path opacity="0.5" d="M191 208.906H144.5V246.828H191V208.906Z" fill="#FFE1AB"/>
<path d="M172.016 239.891C178.591 239.891 183.922 234.56 183.922 227.984C183.922 221.409 178.591 216.078 172.016 216.078C165.44 216.078 160.109 221.409 160.109 227.984C160.109 234.56 165.44 239.891 172.016 239.891Z" fill="#FCC450"/>
<path d="M181.016 227.984C181.016 230.984 179.562 233.609 177.359 235.25C176.703 235.719 175.953 236.141 175.156 236.422C174.828 236.563 174.453 236.656 174.078 236.75C173.844 236.797 173.609 236.844 173.422 236.891C172.953 236.984 172.484 236.984 172.016 236.984C171.078 236.984 170.187 236.844 169.344 236.563C165.687 235.438 163.016 231.969 163.016 227.938C163.016 226.531 163.344 225.219 163.906 224C164.609 222.547 165.687 221.281 167.047 220.391C167.375 220.156 167.703 219.969 168.031 219.828C168.781 219.453 169.578 219.172 170.375 219.031C170.937 218.938 171.453 218.891 172.016 218.891C175.859 218.891 179.141 221.281 180.406 224.656C180.828 225.734 181.016 226.859 181.016 227.984Z" fill="#EFF4F4"/>
<path d="M172.016 229.063C171.453 229.063 170.984 228.594 170.984 228.031V222.266C170.984 221.703 171.453 221.234 172.016 221.234C172.578 221.234 173.047 221.703 173.047 222.266V228.031C173.047 228.594 172.578 229.063 172.016 229.063Z" fill="#C1D6CF"/>
<path d="M172.016 229.062C171.687 229.062 171.312 228.875 171.125 228.594C170.797 228.125 170.984 227.469 171.453 227.141L174.453 225.266C174.922 224.937 175.578 225.125 175.906 225.594C176.234 226.062 176.047 226.719 175.578 227.047L172.578 228.922C172.391 229.016 172.203 229.062 172.016 229.062Z" fill="#C1D6CF"/>
<path opacity="0.3" d="M189.406 203.422L148.156 244.625V222.5L167.234 203.422H189.406Z" fill="#F6FBFD"/>
<path opacity="0.3" d="M204.828 203.422L148.156 260.094V248.984L193.719 203.422H204.828Z" fill="#F6FBFD"/>
<g opacity="0.7">
<path opacity="0.7" d="M210.641 271.25H187.766V294.125H210.641V271.25Z" fill="#9FD2BA"/>
<path opacity="0.7" d="M199.156 283.719C197.563 283.719 196.25 282.406 196.25 280.812V279.078C196.25 277.484 197.563 276.172 199.156 276.172C200.75 276.172 202.063 277.484 202.063 279.078V280.812C202.109 282.406 200.797 283.719 199.156 283.719Z" fill="#F8FCFA"/>
<path opacity="0.7" d="M199.156 282.219C196.391 282.219 194.047 283.812 192.922 286.156C192.266 287.516 193.25 289.109 194.75 289.109H203.469C204.969 289.109 205.953 287.516 205.297 286.156C204.313 283.812 201.922 282.219 199.156 282.219Z" fill="#F8FCFA"/>
</g>
<path d="M201.969 208.906H195.172V253.672H201.969V208.906Z" fill="#9FD2BA"/>
<path d="M207.922 235.344V218.984C208.672 218.984 209.281 219.594 209.281 220.344V234.031C209.281 234.734 208.672 235.344 207.922 235.344Z" fill="#5BB98E"/>
<path opacity="0.3" d="M166.859 192.406L161.234 208.906L148.297 246.828L147.031 250.578V246.828H144.547V208.906H147.031V195.594C147.031 193.813 148.484 192.406 150.219 192.406H166.859V192.406Z" fill="#385F82"/>
<path d="M116.422 307.812H217.016C218.187 307.812 219.172 306.875 219.172 305.656C219.172 304.484 218.234 303.5 217.016 303.5H116.422C115.25 303.5 114.266 304.438 114.266 305.656C114.312 306.875 115.25 307.812 116.422 307.812Z" fill="#E2E2E1"/>
</svg>
