<svg width="366" height="288" viewBox="0 0 366 288" fill="none" xmlns="http://www.w3.org/2000/svg">
<path d="M104.68 124.286C108.311 132.192 110.343 139.666 107.677 143.006C107.519 143.208 107.346 143.381 107.159 143.554C105.098 145.368 101.064 145.411 94.234 142.704C76.0644 135.533 75.1999 123.149 71.5256 111.067C67.909 99.1295 55.2436 101.146 54.9266 101.203C84.4071 90.9359 98.5278 110.88 104.68 124.286Z" fill="url(#paint0_linear)"/>
<path d="M107.677 143.006C107.519 143.208 107.346 143.381 107.159 143.554C103.744 141.494 97.2166 137.146 94.1331 132.25C92.6778 129.946 91.4531 127.339 90.1563 124.603C87.7067 119.405 85.1852 114.048 80.7617 109.93L81.2516 109.397C85.776 113.616 88.3263 119.045 90.8047 124.301C92.087 127.022 93.2974 129.6 94.7383 131.875C97.7497 136.642 104.349 141.005 107.677 143.006Z" fill="url(#paint1_linear)"/>
<path d="M101.525 127.512C101.309 128.045 101.179 128.333 101.165 128.376C101.107 128.088 101.049 127.8 101.006 127.512C98.5855 115.099 95.3435 113.803 85.6175 102.946C75.6754 91.8432 81.3957 81.504 81.3957 81.504C114.68 91.1232 103.787 121.968 101.525 127.512Z" fill="url(#paint2_linear)"/>
<path d="M101.525 127.512C101.309 128.045 101.179 128.333 101.165 128.376C101.107 128.088 101.049 127.8 101.006 127.512C102.087 116.784 95.6028 104.198 93.5712 101.938C91.4675 99.6048 90.1707 96.3792 89.6808 95.1696C89.5943 94.968 89.5223 94.7808 89.4935 94.7376L89.969 94.4784C90.0122 94.5504 90.0698 94.68 90.1851 94.9824C90.6606 96.1632 91.943 99.3168 93.9746 101.592C96.5394 104.443 102.519 117.086 101.525 127.512Z" fill="url(#paint3_linear)"/>
<path d="M290.353 76.5071L286.247 69.7967C285.915 69.2495 286.088 68.5295 286.636 68.1839C287.183 67.8527 287.904 68.0255 288.25 68.5727L291.146 73.3247L298.855 68.7599C299.417 68.4287 300.123 68.6159 300.454 69.1631C300.785 69.7247 300.598 70.4303 300.051 70.7615L290.353 76.5071Z" fill="#F0C141"/>
<path d="M293.105 86.8463C284.964 86.8463 278.351 80.2367 278.351 72.1007C278.351 63.9647 284.964 57.3551 293.105 57.3551C301.246 57.3551 307.86 63.9647 307.86 72.1007C307.86 80.2367 301.246 86.8463 293.105 86.8463ZM293.105 59.4575C286.131 59.4575 280.454 65.1311 280.454 72.1007C280.454 79.0703 286.131 84.7439 293.105 84.7439C300.079 84.7439 305.756 79.0703 305.756 72.1007C305.756 65.1311 300.079 59.4575 293.105 59.4575Z" fill="#F0C141"/>
<path d="M244.648 54.8062L242.112 50.659C241.911 50.3134 242.012 49.8814 242.357 49.6654C242.703 49.4638 243.135 49.5646 243.352 49.9102L245.138 52.8478L249.908 50.0254C250.253 49.8238 250.7 49.939 250.902 50.2846C251.104 50.6302 250.988 51.0766 250.642 51.2782L244.648 54.8062Z" fill="#F0C141"/>
<path d="M246.349 61.1999C241.32 61.1999 237.228 57.1103 237.228 52.0847C237.228 47.0591 241.32 42.9695 246.349 42.9695C251.377 42.9695 255.469 47.0591 255.469 52.0847C255.469 57.1247 251.377 61.1999 246.349 61.1999ZM246.349 44.2799C242.04 44.2799 238.539 47.7791 238.539 52.0847C238.539 56.3903 242.04 59.8895 246.349 59.8895C250.657 59.8895 254.158 56.3903 254.158 52.0847C254.158 47.7791 250.671 44.2799 246.349 44.2799Z" fill="#F0C141"/>
<path d="M197.762 39.4992L193.871 33.1344C193.554 32.616 193.713 31.9248 194.246 31.608C194.765 31.2912 195.456 31.4496 195.773 31.9824L198.526 36.4896L205.845 32.1696C206.378 31.8528 207.056 32.0256 207.358 32.5584C207.675 33.0912 207.502 33.768 206.969 34.0704L197.762 39.4992Z" fill="#F0C141"/>
<path d="M200.37 49.3056C192.661 49.3056 186.379 43.0272 186.379 35.3232C186.379 27.6192 192.661 21.3408 200.37 21.3408C208.079 21.3408 214.361 27.6192 214.361 35.3232C214.361 43.0416 208.079 49.3056 200.37 49.3056ZM200.37 23.3424C193.756 23.3424 188.382 28.7136 188.382 35.3232C188.382 41.9328 193.756 47.304 200.37 47.304C206.984 47.304 212.358 41.9328 212.358 35.3232C212.358 28.7136 206.984 23.3424 200.37 23.3424Z" fill="#F0C141"/>
<path d="M156.61 54.7488L154.045 50.544C153.829 50.1983 153.945 49.7519 154.29 49.5359C154.636 49.3199 155.083 49.4352 155.299 49.7808L157.114 52.7615L161.941 49.9104C162.287 49.7088 162.734 49.8239 162.95 50.1695C163.152 50.5151 163.036 50.9615 162.691 51.1775L156.61 54.7488Z" fill="#F0C141"/>
<path d="M158.339 61.2287C153.238 61.2287 149.089 57.0815 149.089 51.9839C149.089 46.8863 153.238 42.7391 158.339 42.7391C163.44 42.7391 167.59 46.8863 167.59 51.9839C167.59 57.0959 163.44 61.2287 158.339 61.2287ZM158.339 44.0783C153.973 44.0783 150.414 47.6351 150.414 51.9983C150.414 56.3615 153.973 59.9183 158.339 59.9183C162.705 59.9183 166.264 56.3615 166.264 51.9983C166.264 47.6351 162.705 44.0783 158.339 44.0783Z" fill="#F0C141"/>
<path d="M120.501 34.5456L117.288 29.2896C117.029 28.8576 117.159 28.296 117.591 28.0368C118.023 27.7776 118.585 27.9072 118.844 28.3392L121.121 32.0688L127.173 28.4976C127.605 28.2384 128.167 28.3824 128.426 28.8144C128.686 29.2464 128.542 29.808 128.109 30.0672L120.501 34.5456Z" fill="#F0C141"/>
<path d="M122.663 42.6672C116.28 42.6672 111.092 37.4832 111.092 31.104C111.092 24.7248 116.28 19.5408 122.663 19.5408C129.046 19.5408 134.233 24.7248 134.233 31.104C134.233 37.4832 129.046 42.6672 122.663 42.6672ZM122.663 21.1824C117.187 21.1824 112.749 25.632 112.749 31.0896C112.749 36.5616 117.202 40.9968 122.663 40.9968C128.124 40.9968 132.576 36.5472 132.576 31.0896C132.576 25.632 128.138 21.1824 122.663 21.1824Z" fill="#F0C141"/>
<path d="M79.5226 60.7248L75.9491 54.8928C75.661 54.4176 75.8051 53.784 76.2806 53.496C76.756 53.208 77.39 53.352 77.6782 53.8272L80.1998 57.96L86.8999 54C87.3898 53.712 88.0094 53.8704 88.2976 54.36C88.5857 54.8496 88.4272 55.4688 87.9373 55.7568L79.5226 60.7248Z" fill="#F0C141"/>
<path d="M81.9144 69.7248C74.8397 69.7248 69.0905 63.9792 69.0905 56.9088C69.0905 49.8384 74.8397 44.0928 81.9144 44.0928C88.9892 44.0928 94.7383 49.8384 94.7383 56.9088C94.7383 63.9648 88.9892 69.7248 81.9144 69.7248ZM81.9144 45.9072C75.8483 45.9072 70.9204 50.832 70.9204 56.8944C70.9204 62.9568 75.8483 67.8816 81.9144 67.8816C87.9806 67.8816 92.9084 62.9568 92.9084 56.8944C92.9084 50.8464 87.9806 45.9072 81.9144 45.9072Z" fill="#F0C141"/>
<path d="M275.224 36.7199L273.192 33.4079C273.02 33.1343 273.106 32.7743 273.38 32.6159C273.654 32.4431 274.014 32.5295 274.172 32.8031L275.613 35.1503L279.432 32.8895C279.705 32.7311 280.065 32.8175 280.224 33.0911C280.382 33.3647 280.296 33.7247 280.022 33.8831L275.224 36.7199Z" fill="#F0C141"/>
<path d="M276.593 41.8464C272.573 41.8464 269.302 38.5776 269.302 34.56C269.302 30.5424 272.573 27.2736 276.593 27.2736C280.613 27.2736 283.884 30.5424 283.884 34.56C283.884 38.5776 280.613 41.8464 276.593 41.8464ZM276.593 28.296C273.149 28.296 270.339 31.104 270.339 34.5456C270.339 37.9872 273.149 40.7952 276.593 40.7952C280.037 40.7952 282.846 37.9872 282.846 34.5456C282.846 31.104 280.037 28.296 276.593 28.296Z" fill="#F0C141"/>
<path d="M193.266 177.926H173.152V238.997H193.266V177.926Z" fill="#8F8F8F"/>
<path d="M105.17 207.346H261.233C266.118 207.346 270.066 203.386 270.066 198.518V93.7007C270.066 88.8191 266.103 84.8735 261.233 84.8735H105.17C100.286 84.8735 96.3377 88.8335 96.3377 93.7007V198.518C96.3377 203.4 100.3 207.346 105.17 207.346Z" fill="#F0F0F0"/>
<path d="M263.265 71.8271H103.139V188.15H263.265V71.8271Z" fill="white"/>
<path d="M263.265 71.8271H103.139V85.8816H263.265V71.8271Z" fill="url(#paint4_linear)"/>
<path d="M250.369 202.536C254.005 202.536 256.954 200.028 256.954 196.934C256.954 193.841 254.005 191.333 250.369 191.333C246.732 191.333 243.784 193.841 243.784 196.934C243.784 200.028 246.732 202.536 250.369 202.536Z" fill="#CCCCCC"/>
<path d="M228.467 236.693H137.951V241.301H228.467V236.693Z" fill="#CCCCCC"/>
<path d="M130.761 81.504H111.741C110.689 81.504 109.824 80.6544 109.824 79.5888V78.0912C109.824 77.04 110.675 76.176 111.741 76.176H130.761C131.812 76.176 132.677 77.0256 132.677 78.0912V79.5888C132.663 80.6544 131.812 81.504 130.761 81.504Z" fill="#F5F7FF"/>
<path d="M198.698 134.827H114.868V137.707H198.698V134.827Z" fill="#E6E6E6"/>
<path d="M177.042 140.026H114.868V142.906H177.042V140.026Z" fill="#E6E6E6"/>
<path d="M154.29 151.286H114.868V154.166H154.29V151.286Z" fill="#E6E6E6"/>
<path d="M185.702 156.47H114.868V159.35H185.702V156.47Z" fill="#E6E6E6"/>
<path d="M181.22 168.869H114.868V171.749H181.22V168.869Z" fill="#E6E6E6"/>
<path d="M195.903 174.053H114.868V176.933H195.903V174.053Z" fill="#E6E6E6"/>
<path d="M112.893 134.827H110.79V142.891H112.893V134.827Z" fill="#78C2FF"/>
<path d="M112.893 151.286H110.79V159.35H112.893V151.286Z" fill="#78C2FF"/>
<path d="M112.893 168.869H110.79V176.933H112.893V168.869Z" fill="#78C2FF"/>
<path d="M226.551 180.576H219.836C218.496 180.576 217.416 179.496 217.416 178.157V171.446C217.416 170.107 218.496 169.027 219.836 169.027H226.551C227.891 169.027 228.972 170.107 228.972 171.446V178.157C228.972 179.496 227.891 180.576 226.551 180.576Z" fill="#78C2FF"/>
<path d="M222.833 177.336L219.908 174.787C219.663 174.586 219.649 174.211 219.851 173.981C220.052 173.736 220.427 173.722 220.658 173.923L222.718 175.723L225.658 172.44C225.874 172.21 226.234 172.181 226.464 172.397C226.695 172.613 226.724 172.973 226.508 173.203L222.833 177.336Z" fill="#F3F3F3"/>
<path d="M226.349 162.994H220.052C218.597 162.994 217.416 161.813 217.416 160.358V154.08C217.416 152.626 218.597 151.445 220.052 151.445H226.349C227.804 151.445 228.986 152.626 228.986 154.08V160.373C228.972 161.813 227.79 162.994 226.349 162.994ZM220.052 152.179C219.001 152.179 218.151 153.029 218.151 154.08V160.373C218.151 161.424 219.001 162.274 220.052 162.274H226.349C227.401 162.274 228.251 161.424 228.251 160.373V154.08C228.251 153.029 227.401 152.179 226.349 152.179H220.052Z" fill="#78C2FF"/>
<path d="M243.726 180.576H237.429C235.974 180.576 234.793 179.395 234.793 177.941V171.648C234.793 170.194 235.974 169.013 237.429 169.013H243.726C245.181 169.013 246.363 170.194 246.363 171.648V177.941C246.363 179.395 245.181 180.576 243.726 180.576ZM237.429 169.762C236.378 169.762 235.527 170.611 235.527 171.662V177.955C235.527 179.006 236.378 179.856 237.429 179.856H243.726C244.778 179.856 245.628 179.006 245.628 177.955V171.648C245.628 170.597 244.778 169.747 243.726 169.747H237.429V169.762Z" fill="#78C2FF"/>
<path d="M243.942 162.994H237.228C235.888 162.994 234.807 161.914 234.807 160.574V153.864C234.807 152.525 235.888 151.445 237.228 151.445H243.942C245.282 151.445 246.363 152.525 246.363 153.864V160.574C246.349 161.914 245.268 162.994 243.942 162.994Z" fill="#78C2FF"/>
<path d="M240.21 159.768L237.285 157.219C237.04 157.018 237.026 156.643 237.228 156.413C237.43 156.168 237.804 156.154 238.035 156.355L240.095 158.155L243.035 154.872C243.251 154.642 243.611 154.613 243.841 154.829C244.072 155.045 244.101 155.405 243.885 155.635L240.21 159.768Z" fill="#F3F3F3"/>
<path d="M243.726 145.411H237.429C235.974 145.411 234.793 144.23 234.793 142.776V136.483C234.793 135.029 235.974 133.848 237.429 133.848H243.726C245.181 133.848 246.363 135.029 246.363 136.483V142.776C246.363 144.23 245.181 145.411 243.726 145.411ZM237.429 134.597C236.378 134.597 235.527 135.446 235.527 136.498V142.79C235.527 143.842 236.378 144.691 237.429 144.691H243.726C244.778 144.691 245.628 143.842 245.628 142.79V136.498C245.628 135.446 244.778 134.597 243.726 134.597H237.429Z" fill="#78C2FF"/>
<path d="M226.551 145.411H219.836C218.496 145.411 217.416 144.331 217.416 142.992V136.282C217.416 134.942 218.496 133.862 219.836 133.862H226.551C227.891 133.862 228.972 134.942 228.972 136.282V142.992C228.972 144.331 227.891 145.411 226.551 145.411Z" fill="#78C2FF"/>
<path d="M222.833 142.186L219.908 139.637C219.663 139.435 219.649 139.061 219.851 138.83C220.052 138.586 220.427 138.571 220.658 138.773L222.718 140.573L225.658 137.29C225.874 137.059 226.234 137.03 226.464 137.246C226.695 137.462 226.724 137.822 226.508 138.053L222.833 142.186Z" fill="#F3F3F3"/>
<path d="M84.5656 149.702C81.8424 148.406 79.1335 157.075 79.1335 157.075C74.4938 163.195 68.0243 155.059 68.6582 164.203C69.7677 180.202 50.2293 169.243 59.2348 185.947C68.2548 202.651 51.2811 195.394 56.8718 208.872C62.4768 222.35 55.2148 238.421 63.644 231.811C63.644 231.811 71.0645 215.539 78.7156 210.514C86.3668 205.474 74.1336 199.512 76.5255 192.672C79.998 182.736 88.384 183.139 82.3467 172.469C76.3094 161.784 93.845 154.123 84.5656 149.702Z" fill="url(#paint5_linear)"/>
<path d="M60.9783 225.677C64.6382 223.114 68.9032 205.214 69.1626 194.544C69.2923 189.086 70.906 186.811 72.3325 184.795C73.7014 182.88 74.8685 181.224 74.1913 177.408C72.8801 170.136 76.3238 166.997 76.3526 166.968L75.9492 166.507C75.7907 166.637 72.2173 169.877 73.5861 177.509C74.2201 181.066 73.1682 182.549 71.8282 184.435C70.4306 186.408 68.6871 188.87 68.543 194.515C68.2692 205.949 63.9033 222.854 60.6181 225.158L60.9783 225.677Z" fill="white"/>
<path d="M53.3272 220.464C52.9814 219.686 52.6212 218.88 52.2177 218.016C50.1285 213.61 48.2841 212.89 45.215 211.68C44.4658 211.392 43.6156 211.061 42.6935 210.629C38.2988 208.656 39.1489 205.747 39.8981 203.184C39.999 202.824 40.1143 202.464 40.2007 202.118C40.5898 200.606 39.8405 199.858 38.7166 198.706C37.8809 197.856 36.8435 196.79 36.051 195.12C35.172 193.291 35.6187 192.312 36.1518 191.808C37.2613 190.757 39.8261 190.944 42.2612 192.269C43.0105 192.686 43.63 193.334 44.2929 194.011C45.8346 195.624 47.7654 197.64 52.6212 197.669C55.3877 197.683 56.915 198.058 57.6931 198.95C58.5865 199.958 58.4136 201.456 58.183 203.53C58.0966 204.25 58.0101 205.056 57.9525 205.949C57.6211 211.205 60.719 214.978 60.7478 215.021C62.6065 217.224 64.8831 221.803 63.9033 224.611C63.4855 225.792 62.5633 226.541 61.1657 226.814C60.6037 226.93 60.085 226.987 59.6239 226.987C56.209 227.002 54.9698 224.179 53.3272 220.464ZM41.9586 192.83C39.7973 191.65 37.4775 191.405 36.5553 192.283C35.8637 192.946 36.1951 194.069 36.5841 194.89C37.3478 196.474 38.2988 197.453 39.1489 198.302C40.3304 199.498 41.2526 200.448 40.7771 202.277C40.6906 202.637 40.5754 202.997 40.4745 203.371C39.7252 205.92 39.0192 208.339 42.9384 210.096C43.8606 210.514 44.6963 210.845 45.4456 211.133C48.5435 212.342 50.5751 213.149 52.7653 217.771C53.1687 218.635 53.5289 219.442 53.8748 220.234C55.7623 224.51 56.9006 227.102 61.036 226.267C62.2175 226.022 62.9956 225.418 63.327 224.453C64.1915 221.976 62.1166 217.627 60.2867 215.453C60.157 215.294 57.0015 211.45 57.3473 205.949C57.4049 205.056 57.4914 204.235 57.5778 203.501C57.794 201.586 57.9525 200.189 57.232 199.382C56.5836 198.648 55.1572 198.317 52.6068 198.302C47.4916 198.274 45.46 196.157 43.8462 194.458C43.1978 193.781 42.6358 193.19 41.9586 192.83Z" fill="url(#paint6_linear)"/>
<path d="M61.0936 230.486L61.6988 230.458C61.67 229.896 60.9063 216.533 55.5462 212.63C49.653 208.339 47.8086 203.731 46.9153 200.635C45.8778 196.992 40.5754 196.013 40.3448 195.97L40.244 196.56C40.3016 196.574 45.4023 197.51 46.3389 200.794C47.2467 203.976 49.1486 208.714 55.186 213.106C60.3155 216.85 61.0936 230.357 61.0936 230.486Z" fill="url(#paint7_linear)"/>
<path d="M48.8316 163.181C52.65 161.87 51.8575 169.214 53.4713 174.658C55.0851 180.086 71.3959 177.034 64.5517 190.642C57.7075 204.25 73.2114 195.192 68.5862 207.072C63.9465 218.952 68.1827 231.653 63.154 228.427C58.1109 225.202 60.3299 210.24 55.0851 208.454C49.8546 206.683 48.9901 204.61 54.1773 199.771C59.3645 194.933 40.5897 190.138 45.215 180.389C49.8402 170.626 44.4225 164.693 48.8316 163.181Z" fill="url(#paint8_linear)"/>
<path d="M60.791 227.851C61.2665 225.821 65.373 207.922 61.5403 205.762C58.1686 203.861 58.255 196.445 58.7737 189.432C59.2348 183.24 51.2667 180.331 50.9353 180.216L50.7336 180.792C50.8056 180.821 58.6008 183.658 58.1686 189.389C57.6354 196.574 57.5778 204.206 61.2377 206.28C64.1339 207.922 61.4682 222.307 60.2002 227.707L60.791 227.851Z" fill="white"/>
<path d="M75.1854 221.472L69.7389 242.122H57.5634L52.1168 221.472H75.1854Z" fill="url(#paint9_linear)"/>
<path d="M75.1854 221.472C75.1854 221.472 63.1972 223.718 63.1972 242.122H57.5634L52.1168 221.472H75.1854Z" fill="url(#paint10_linear)"/>
<path d="M170.558 207.778C170.558 207.778 170.976 208.469 171.033 209.03C171.077 209.477 171.451 210.139 171.61 210.499C171.768 210.859 172.287 212.515 172.316 212.947C172.33 213.12 171.927 214.229 171.984 214.589C172.042 214.949 172.244 215.654 171.927 215.698C171.61 215.741 171.249 215.165 171.249 215.165C171.249 215.165 171.278 215.496 171.004 215.611C170.486 215.856 170.198 215.64 170.198 215.64C170.198 215.64 170.01 216 169.765 216.043C169.232 216.144 168.973 215.928 168.973 215.928C168.973 215.928 168.742 216.13 168.368 216.13C167.892 216.115 167.69 215.712 167.69 215.712C167.69 215.712 167.085 215.827 166.912 215.554C166.739 215.28 166.768 214.978 166.696 214.718C166.624 214.459 166.682 212.17 167.46 210.528C168.238 208.872 167.258 207.274 167.258 207.274L170.558 207.778Z" fill="#EEA886"/>
<path d="M171.307 214.949C171.307 214.949 171.365 212.89 170.817 212.458C170.27 212.026 170.212 212.76 170.212 212.76C170.212 212.76 170.284 212.026 169.693 211.925C169.103 211.824 169.074 212.702 169.074 212.702C169.074 212.702 168.973 212.141 168.353 212.256C167.734 212.371 167.878 213.091 167.878 213.091C167.878 213.091 167.287 212.386 166.898 213.062C166.25 214.214 166.869 215.568 166.869 215.568C166.869 215.568 167.057 215.885 167.647 215.726C167.647 215.726 168.036 216.518 168.93 215.957C168.93 215.957 169.837 216.461 170.169 215.654C170.183 215.64 171.177 216.115 171.307 214.949Z" fill="#DB9C7C"/>
<path d="M177.532 178.171C177.532 178.171 174.016 189.893 172.82 194.213C172.445 195.567 171.538 208.527 171.379 209.045C171.221 209.563 166.754 210.283 166.754 210.283C166.754 210.283 167.301 194.083 167.345 193.191C167.402 192.312 172.273 174.211 173.685 173.563C174.751 173.074 175.313 173.477 176.653 174.47C178.54 175.882 177.532 178.171 177.532 178.171Z" fill="#323657"/>
<path d="M220.305 157.07L219.91 156.467L211.857 161.735L212.251 162.337L220.305 157.07Z" fill="#4DA8F2"/>
<path d="M221.162 159.509C221.162 159.509 221.09 159.97 220.96 160.142C220.96 160.142 220.701 160.459 220.528 160.69C220.47 160.762 220.427 160.834 220.398 160.877C220.297 161.064 220.11 161.525 219.735 161.914C219.346 162.302 217.862 163.541 217.862 163.541L216.58 162.461L215.254 161.87C215.254 161.87 216.004 158.63 216.321 158.227C216.349 158.184 216.378 158.155 216.421 158.112C216.724 157.795 217.084 157.68 217.257 157.536C217.329 157.478 218.006 156.989 218.251 157.046C218.583 157.133 218.784 157.334 218.871 157.565C218.871 157.565 219.519 157.766 219.779 158.155C219.779 158.155 220.384 158.328 220.571 158.89C220.528 158.89 221.133 159.134 221.162 159.509Z" fill="#EFAA88"/>
<path d="M174.664 258.221C174.664 258.221 174.347 260.453 174.304 260.784C174.261 261.115 170.731 260.582 170.731 260.582L170.443 257.933C170.457 257.933 174.232 257.904 174.664 258.221Z" fill="#424773"/>
<path d="M174.347 260.496C174.347 260.496 175.471 261.835 176.552 262.426C177.633 263.016 179.333 263.246 179.967 263.851C180.428 264.283 181.653 266.17 177.157 266.126C172.662 266.083 170.5 266.386 170.025 265.666C169.549 264.946 170.716 260.338 170.716 260.338C170.716 260.338 171.783 260.726 174.347 260.496Z" fill="#292C47"/>
<path d="M199.952 258.221C199.952 258.221 199.635 260.453 199.592 260.784C199.549 261.115 196.018 260.582 196.018 260.582L195.73 257.933C195.745 257.933 199.52 257.904 199.952 258.221Z" fill="#424773"/>
<path d="M199.635 260.496C199.635 260.496 200.759 261.835 201.84 262.426C202.92 263.016 206.897 263.491 207.545 264.096C208.007 264.528 208.77 266.285 202.459 266.126C197.964 266.011 195.802 266.386 195.327 265.666C194.851 264.946 196.018 260.338 196.018 260.338C196.018 260.338 196.998 260.755 199.635 260.496Z" fill="#292C47"/>
<path d="M177.589 201.038C177.589 201.038 174.275 206.309 174.52 211.061C174.765 215.813 173.324 221.011 172.82 225.994C172.258 231.538 169.996 244.656 169.91 247.622C169.823 250.589 170.255 260.05 170.255 260.05L174.809 260.15C174.809 260.15 178.627 237.211 179.621 234.864C180.615 232.517 185.514 215.842 185.687 213.97C185.86 212.098 177.589 201.038 177.589 201.038Z" fill="#292C47"/>
<path d="M195.053 201.744C195.053 201.744 197.546 214.79 197.877 217.699C198.209 220.608 198.425 231.797 198.598 233.611C198.77 235.426 200.139 257.386 200.572 260.136H194.75C194.75 260.136 190.284 244.138 190.284 236.578C190.284 229.003 186.84 220.118 184.607 215.136C182.373 210.139 177.287 210.024 175.918 200.765C175.918 200.765 193.194 198.806 195.053 201.744Z" fill="#292C47"/>
<path d="M183.122 156.773C183.122 156.773 187.575 155.117 189.621 158.501C191.667 161.885 191.48 168.667 189.232 169.502C186.984 170.338 183.612 169.906 182.474 167.774C181.321 165.658 180.284 162.59 180.342 160.546C180.399 158.501 181.955 157.363 183.122 156.773Z" fill="#EEA886"/>
<path d="M188.756 169.646C188.756 169.646 188.569 170.842 188.872 171.432C189.174 172.023 183.108 172.037 183.108 172.037C183.108 172.037 182.618 168.826 181.682 166.104C180.745 163.382 188.756 169.646 188.756 169.646Z" fill="#EEA886"/>
<path d="M181.682 166.104C181.682 166.104 182.099 166.795 183.814 166.522C185.529 166.248 187.618 163.973 188.324 163.728C189.044 163.483 189.044 163.066 189.044 163.066L189.491 163.714L190.255 163.757C190.255 163.757 189.563 161.726 190.601 160.891C191.638 160.056 189.52 154.31 184.03 156.226C184.03 156.226 179.823 157.392 179.967 159.782C180.125 162.187 180.745 164.909 181.682 166.104Z" fill="#D88A51"/>
<path d="M189.246 171.36C189.246 171.36 189.232 170.237 188.713 170.122C188.194 170.006 183.05 169.517 182.431 169.762V171.072C182.416 171.086 183.627 171.835 189.246 171.36Z" fill="#E2D2CA"/>
<path d="M188.929 162.202C188.828 161.798 187.805 160.646 187.416 161.885C187.027 163.109 188.007 164.765 188.555 164.621C189.117 164.477 189.174 163.21 188.929 162.202Z" fill="#EEA886"/>
<path d="M197.747 173.074C194.217 172.613 189.232 171.36 189.232 171.36L182.416 171.086C182.416 171.086 176.163 172.469 173.699 173.578C173.469 173.678 173.469 179.165 172.82 180.59L174.866 184.896C174.866 184.896 176.048 193.435 176.293 197.222C176.408 198.965 173.858 213.566 173.858 213.566C173.858 213.566 176.581 214.373 181.235 214.877C185.889 215.381 197.517 214.69 197.589 214.142C197.661 213.595 195.341 193.68 195.24 192.658C195.082 191.074 195.788 182.664 195.788 182.664C196.869 181.829 206.292 177.451 208.871 175.176C209.563 174.571 212.473 171.734 213.295 170.755C216.22 167.299 218.626 164.333 218.914 163.685C219.246 163.325 215.658 161.395 215.341 161.28C215.067 161.194 211.177 166.334 209.664 167.976C208.986 168.71 206.162 170.77 206.162 170.77C206.162 170.77 199.952 173.203 197.747 173.074Z" fill="#323657"/>
<path d="M181.854 157.162C181.854 157.162 176.177 157.608 181.682 166.104L181.854 157.162Z" fill="#D88A51"/>
<path d="M220.297 157.075L220.758 156.37L219.908 156.485L220.297 157.075Z" fill="#DFE1E8"/>
<path d="M106.683 197.87C106.683 197.87 109.45 198.043 110.213 198.461C110.992 198.893 116.208 197.251 116.308 196.862C116.409 196.488 116.308 196.301 116.308 196.301H106.049L106.683 197.87Z" fill="#DE9673"/>
<path d="M94.2917 185.702C94.2917 185.702 93.4127 192.614 94.2917 193.522C97.6489 196.978 110.127 196.704 110.127 196.704V198.115C110.127 198.115 91.1793 200.477 89.407 196.805C87.2889 192.384 88.1102 185.184 88.1102 185.184L94.2917 185.702Z" fill="#DE9673"/>
<path d="M88.0238 258.595L89.1621 257.314L87.116 255.182L85.4014 256.392L88.0238 258.595Z" fill="#2F4563"/>
<path d="M85.4014 256.392C85.4014 256.392 87.7213 258.134 88.3697 258.206C89.0181 258.278 89.3207 258.566 89.2486 259.546C89.1766 260.525 90.1852 264.672 90.9056 264.73C91.6117 264.802 94.0324 264.816 94.479 266.4C94.9113 267.998 86.7991 267.653 86.3092 266.357C85.8049 265.046 82.3179 258.71 82.7214 258.206C83.1248 257.702 84.2199 256.55 85.4014 256.392Z" fill="#1E2D40"/>
<path d="M100.286 206.885C100.286 206.885 115.444 233.266 109.291 238.723C106.885 240.869 104.551 242.798 101.222 245.664C99.45 247.19 97.3031 248.947 94.7672 251.597L94.6663 251.712C92.8508 253.598 91.3667 255.197 90.9056 255.686C90.8912 255.701 90.8768 255.715 90.8624 255.73L90.8047 255.787L89.1189 257.4L86.6406 255.226C86.6406 255.226 89.4503 251.352 91.0353 248.371C93.2542 244.195 96.9861 239.27 98.7152 237.902C101.669 235.555 102.49 235.094 102.49 232.848C102.49 230.443 88.6002 216.979 88.6002 216.979C88.6002 216.979 86.5829 208.555 91.3955 206.352C96.064 204.192 100.286 206.885 100.286 206.885Z" fill="#23344A"/>
<path d="M88.7298 262.685C88.7298 262.685 88.629 261.475 88.8451 260.698C89.0468 259.92 85.704 260.366 85.704 260.366C85.704 260.366 85.2717 263.606 85.4014 264.355C85.5167 265.09 88.7298 262.685 88.7298 262.685Z" fill="#41608A"/>
<path d="M89.3639 260.698L84.8539 261.504C84.8539 261.504 84.5225 255.759 84.5945 251.352C84.6522 246.615 84.4216 242.899 85.8625 239.127C87.217 235.599 86.9144 234.259 87.0296 231.855C87.1449 229.45 85.8769 217.051 85.8769 217.051C85.8769 217.051 84.3352 211.507 87.9086 207.59C91.3811 203.774 100.372 207.576 100.372 207.576C100.372 207.576 98.4991 224.496 94.0035 234.979C92.7356 237.946 93.4128 239.746 91.799 244.325C91.7702 244.325 89.3062 254.304 89.3639 260.698Z" fill="#2F4563"/>
<path d="M93.2831 174.125C93.0525 174.528 92.8796 175.032 92.7499 175.579C92.6347 176.083 92.5482 176.63 92.505 177.12C92.3897 178.2 92.4185 179.093 92.4185 179.093C92.4185 179.093 86.41 177.782 87.3898 176.386C88.3696 174.989 87.7933 170.741 87.7933 170.741C87.7933 170.741 94.0612 172.814 93.2831 174.125Z" fill="#EEA987"/>
<path d="M96.6692 162.547C96.6692 162.547 98.2109 163.886 97.5193 167.731C97.5193 167.731 97.8651 170.798 98.3262 171.331C98.8017 171.864 97.0582 172.066 96.8853 172.454C96.698 172.843 96.3522 174.643 95.1562 175.723C93.9459 176.803 87.9806 173.534 87.6924 171.691C87.4042 169.848 83.2689 161.914 89.8105 161.554C96.3522 161.179 96.6692 162.547 96.6692 162.547Z" fill="#EEA886"/>
<path d="M100.79 190.944C100.675 191.333 101.121 197.251 101.078 197.77C100.848 200.578 101.568 204.826 101.856 206.352C101.928 206.712 101.957 206.899 101.957 206.899C95.4588 210.067 86.4388 209.794 86.4388 209.794C86.4677 209.549 87.7356 206.496 87.7645 206.266C88.2976 202.45 89.0901 200.722 88.8739 198.144C88.7587 196.69 88.384 195.178 87.6204 193.306C85.4158 187.891 85.5311 184.291 85.8913 181.31C86.2515 178.33 87.1449 176.645 87.1449 176.645L92.6347 177.235C93.8018 178.531 94.8392 179.208 98.1388 182.146C101.669 185.256 102.289 186.206 100.79 190.944Z" fill="#EB4747"/>
<path d="M85.1996 263.506C85.1996 263.506 88.3696 262.598 88.4704 262.512C88.5713 262.426 88.5857 262.238 89.018 262.411C89.4503 262.584 89.6376 263.246 90.0698 263.462C90.5021 263.678 93.1245 264.442 94.551 265.147C95.0697 265.406 97.2599 266.242 97.5769 266.933C97.8939 267.638 97.793 268.675 94.0323 268.43C90.2571 268.186 86.1362 268.718 85.3149 268.301C84.4792 267.883 84.9835 264.6 85.1996 263.506Z" fill="#23344A"/>
<path d="M97.6778 166.349C97.6778 166.349 98.4126 158.357 90.6606 159.782C82.9087 161.208 86.8999 169.949 87.9518 172.786C87.9518 172.786 87.8221 168.365 91.554 168.221C95.2859 168.077 96.064 167.213 97.6778 166.349Z" fill="#464240"/>
<path d="M90.9488 167.098C90.4877 166.291 88.8883 166.723 89.0612 167.962C89.2485 169.2 90.5309 170.438 90.9488 169.834C91.381 169.229 91.6404 168.293 90.9488 167.098Z" fill="#EEA987"/>
<path d="M91.1217 182.808C91.1217 182.808 90.4877 189.648 91.3666 190.555C94.7239 194.011 108.009 194.083 108.009 194.083L108.643 196.07C108.643 196.07 88.9171 197.41 87.1448 193.738C85.0267 189.317 85.848 182.117 85.848 182.117L91.1217 182.808Z" fill="#EEA987"/>
<path d="M88.2111 161.741C88.2111 161.741 85.2285 158.875 83.096 162.115C80.9779 165.355 85.6175 169.877 87.5051 167.198C89.3926 164.52 88.2111 161.741 88.2111 161.741Z" fill="#464240"/>
<path d="M92.7499 175.565C92.6347 176.069 92.5482 176.616 92.505 177.106C90.5021 176.199 89.018 173.419 89.018 173.419C90.4589 174.672 92.7499 175.565 92.7499 175.565Z" fill="#A77860"/>
<path d="M121.294 196.07H102.476V197.122H121.294V196.07Z" fill="#6E6760"/>
<path d="M128.83 179.865L120.352 196.656L121.291 197.129L129.769 180.339L128.83 179.865Z" fill="#6E6760"/>
<path d="M105.242 194.083C105.242 194.083 108.009 193.867 108.773 193.32C109.551 192.773 114.767 194.861 114.868 195.35C114.968 195.84 114.868 196.07 114.868 196.07H104.608L105.242 194.083Z" fill="#EEA987"/>
<path d="M87.1449 176.63L87.5339 175.579L92.8076 176.63V177.566L87.1449 176.63Z" fill="#EB4747"/>
<path d="M91.1217 182.894C91.1217 182.894 91.6837 178.92 88.9172 178.574C86.1507 178.229 85.8481 182.146 85.8481 182.146L91.1217 182.894Z" fill="#EEA987"/>
<path d="M271.218 257.702C271.218 257.702 271.535 259.949 271.578 260.28C271.622 260.611 275.152 260.078 275.152 260.078L275.44 257.4C275.426 257.414 271.665 257.385 271.218 257.702Z" fill="#5C544D"/>
<path d="M271.535 260.006C271.535 260.006 270.411 261.36 269.331 261.95C268.25 262.541 266.55 262.771 265.916 263.39C265.455 263.837 264.23 265.723 268.726 265.694C273.221 265.651 275.382 265.968 275.858 265.234C276.333 264.499 275.166 259.862 275.166 259.862C275.166 259.862 274.114 260.237 271.535 260.006Z" fill="#3C4145"/>
<path d="M245.931 257.702C245.931 257.702 246.248 259.949 246.291 260.28C246.334 260.611 249.864 260.078 249.864 260.078L250.152 257.4C250.152 257.414 246.377 257.385 245.931 257.702Z" fill="#5C544D"/>
<path d="M246.262 260.006C246.262 260.006 245.138 261.36 244.058 261.95C242.977 262.541 239 263.03 238.352 263.635C237.891 264.082 237.127 265.853 243.438 265.68C247.934 265.565 250.095 265.954 250.57 265.219C251.046 264.485 249.879 259.848 249.879 259.848C249.879 259.848 248.885 260.266 246.262 260.006Z" fill="#3C4145"/>
<path d="M269.965 199.699C269.965 199.699 271.838 205.272 271.593 210.082C271.348 214.891 272.558 220.147 273.063 225.158C273.625 230.76 275.887 243.994 275.973 246.989C276.06 249.984 275.627 259.531 275.627 259.531L271.074 259.632C271.074 259.632 267.256 236.477 266.262 234.115C265.267 231.754 260.368 214.906 260.195 213.019C260.037 211.147 269.965 199.699 269.965 199.699Z" fill="#33373B"/>
<path d="M250.844 200.693C250.844 200.693 248.351 213.854 248.02 216.806C247.689 219.744 247.472 231.033 247.3 232.877C247.127 234.72 246.205 256.925 245.326 259.661H251.147C251.147 259.661 255.614 243.518 255.614 235.872C255.614 228.225 259.057 219.269 261.291 214.229C263.51 209.189 268.61 209.073 269.979 199.713C269.965 199.699 252.689 197.726 250.844 200.693Z" fill="#3C4145"/>
<path d="M262.659 155.693C262.659 155.693 258.077 153.979 255.959 157.464C253.841 160.949 254.043 167.933 256.363 168.797C258.668 169.661 262.141 169.2 263.322 167.026C264.504 164.837 265.57 161.683 265.527 159.581C265.469 157.478 263.87 156.312 262.659 155.693Z" fill="#EEA886"/>
<path d="M257.126 168.581C257.126 168.581 257.314 169.776 257.011 170.366C256.709 170.957 262.775 170.971 262.775 170.971C262.775 170.971 263.265 167.76 264.201 165.038C265.138 162.331 257.126 168.581 257.126 168.581Z" fill="#EEA886"/>
<path d="M264.201 165.053C264.201 165.053 263.783 165.744 262.069 165.47C260.354 165.197 258.265 162.922 257.559 162.677C256.838 162.432 256.838 162.014 256.838 162.014L256.392 162.662L255.628 162.706C255.628 162.706 256.32 160.675 255.282 159.84C254.245 159.005 256.363 153.259 261.853 155.174C261.853 155.174 266.06 156.341 265.916 158.731C265.757 161.136 265.152 163.858 264.201 165.053Z" fill="#FCCCA2"/>
<path d="M256.651 170.309C256.651 170.309 256.665 169.186 257.184 169.07C257.703 168.955 262.847 168.466 263.466 168.71V170.021C263.466 170.035 262.256 170.769 256.651 170.309Z" fill="#E2D2CA"/>
<path d="M256.954 161.136C257.054 160.733 258.077 159.581 258.466 160.819C258.855 162.043 257.876 163.699 257.328 163.555C256.781 163.411 256.709 162.158 256.954 161.136Z" fill="#EEA886"/>
<path d="M256.651 170.309C256.651 170.309 253.827 171.317 250.57 172.714C250.57 172.714 246.81 174.11 246.406 178.258C246.19 180.461 243.841 192.139 243.409 193.133C242.962 194.126 237.761 210.01 237.588 210.341C237.401 210.672 241.839 212.501 242.127 212.357C242.415 212.213 247.17 197.87 247.645 196.805C247.645 196.805 250.369 188.208 250.455 186.926C250.455 186.926 250.527 190.584 250.686 191.606C250.83 192.629 248.25 212.544 248.337 213.091C248.409 213.638 260.037 214.344 264.691 213.826C269.345 213.307 273.106 212.242 273.106 212.242C273.106 212.242 269.446 196.531 269.561 194.789C269.806 190.987 271.074 183.845 271.074 183.845L274.864 191.002L270.008 203.486L271.117 207.288C271.117 207.288 280.137 193.651 280.44 192.413C280.728 191.174 279.993 189.576 279.518 188.554C279.042 187.531 275.916 179.726 275.181 178.632C274.446 177.538 273.207 173.131 270.21 171.907C267.702 170.885 263.509 170.05 263.509 170.05L256.651 170.309Z" fill="#EB4747"/>
<path d="M254.254 202.717L232.997 197.27L229.192 212.098L250.45 217.545L254.254 202.717Z" fill="#D6D6D6"/>
<path d="M235.715 213.581C235.715 213.581 235.11 214.56 234.879 214.848C234.663 215.122 235.427 215.309 235.758 215.021C236.089 214.733 235.715 213.581 235.715 213.581Z" fill="#C98462"/>
<path d="M240.153 216.936C240.153 216.936 240.513 216.562 240.585 216.317C240.585 216.317 240.686 215.87 240.787 215.554C240.816 215.453 240.844 215.366 240.873 215.309C240.974 215.078 241.262 214.618 241.363 214.013C241.464 213.408 241.723 210.686 241.723 210.686L240.081 210.269L238.755 209.995C238.755 209.995 235.902 212.846 235.744 213.394C235.729 213.451 235.715 213.509 235.715 213.552C235.628 214.027 235.772 214.43 235.758 214.69C235.758 214.79 235.772 215.726 235.989 215.914C236.291 216.158 236.608 216.202 236.868 216.13C236.868 216.13 237.487 216.59 238.006 216.562C238.006 216.562 238.568 216.994 239.202 216.778C239.173 216.778 239.793 217.166 240.153 216.936Z" fill="#DE9D7D"/>
<path d="M246.579 199.742C246.579 199.742 242.804 211.162 242.112 212.357C242.112 212.357 239.346 211.781 237.573 210.341L241.723 198.014L246.579 199.742Z" fill="#EB4747"/>
<path d="M327.226 213.379C327.226 213.379 327.067 210.744 326.376 210.341C325.684 209.938 326.087 210.744 326.087 210.744C326.087 210.744 326.476 212.659 326.563 213.422C326.563 213.466 327.226 213.379 327.226 213.379Z" fill="#1D3B54"/>
<path d="M308.681 158.054C308.681 158.054 315.223 157.507 315.05 164.39C314.877 171.274 313.782 172.31 315.05 177.163C316.318 182.03 308.667 174.398 308.667 174.398L308.681 158.054Z" fill="#434343"/>
<path d="M303.177 176.645C303.177 176.645 293.912 182.419 293.12 181.814C292.025 180.95 289.042 173.621 289.042 173.621L286.708 174.73C286.708 174.73 289.489 187.416 293.235 186.48C296.981 185.544 305.583 180.23 305.583 180.23L303.177 176.645Z" fill="#EEA987"/>
<path d="M315.814 200.578C315.814 200.578 318.22 203.645 319.07 205.675C319.92 207.706 321.332 212.155 321.145 215.611C320.958 219.053 319.819 225.533 320.151 226.987C320.482 228.456 320.814 231.48 321.159 232.517C321.52 233.554 322.932 236.578 323.076 239.688C323.22 242.798 321.087 256.493 321.188 257.774C321.289 259.056 318.782 258.293 318.782 258.293C318.782 258.293 317.932 245.923 317.456 243.792C316.981 241.661 316.419 234.446 315.987 233.928C315.554 233.41 314.402 228.024 314.575 227.174C314.747 226.325 309.935 213.581 309.647 211.018C309.359 208.469 302.255 200.563 302.255 200.563C302.255 200.563 308.494 198.202 315.814 200.578Z" fill="#EEA987"/>
<path d="M304.316 200.578C304.316 200.578 304.186 201.859 304.056 202.334C303.912 202.81 300.656 214.848 300.324 219.47C299.993 224.093 299.143 228.024 298.999 229.018C298.855 230.011 299.143 233.309 299.431 234.158C299.719 235.008 298.019 255.082 297.875 255.557C297.731 256.032 299.013 256.176 299.906 256.032C300.8 255.888 305.339 241.301 305.05 238.838C304.762 236.376 304.488 231.149 305.281 229.018C306.088 226.886 313.321 211.493 313.364 210.557C313.408 209.606 316.491 193.334 304.316 200.578Z" fill="#EEA987"/>
<path d="M318.84 256.781C318.84 256.781 318.609 258.408 318.35 258.854C318.09 259.301 317.399 261.562 317.082 261.994C316.765 262.411 316.059 265.594 317.082 265.968C318.105 266.342 320.497 266.99 321.304 265.709C322.111 264.442 322.211 263.174 322.082 262.195C321.952 261.216 320.987 256.752 321.001 256.306C321.015 255.859 318.84 256.781 318.84 256.781Z" fill="#EEA987"/>
<path d="M317.485 261.115C317.485 261.115 317.37 263.578 319.243 263.578C321.116 263.578 321.937 261.331 321.937 261.331C321.937 261.331 322.571 262.44 321.937 264.787C321.303 267.134 318.652 266.645 318.061 266.573C317.456 266.486 314.647 265.738 317.485 261.115Z" fill="#EB4747"/>
<path d="M298.062 254.563C298.062 254.563 296.751 256.925 295.958 257.4C294.979 257.99 293.091 259.906 292.428 259.992C291.765 260.078 289.388 260.496 289.849 261.85C290.224 262.944 295.901 262.786 296.535 262.238C297.169 261.691 299.085 259.704 299.863 259.762C300.641 259.805 300.353 262.613 300.353 262.613H301.189C301.189 262.613 301.477 259.877 301.52 259.416C301.621 258.019 300.627 256.997 300.584 256.205C300.54 255.413 300.497 254.822 300.497 254.822L298.062 254.563Z" fill="#EB4747"/>
<path d="M292.615 259.934C292.615 259.934 294.489 260.582 295.915 259.747C297.356 258.926 300.108 257.674 301.088 257.659C301.088 257.659 300.555 256.032 300.54 255.845C300.526 255.658 300.468 254.808 300.468 254.808L298.062 254.419C298.062 254.419 296.491 256.709 295.8 257.256C295.137 257.803 293.365 259.157 292.615 259.934Z" fill="#EEA987"/>
<path d="M302.241 200.362C302.241 200.362 301.563 203.155 301.318 203.976C301.074 204.797 299.474 217.426 299.085 225.331C299.085 225.331 308.624 228.946 321.736 228.341C321.736 228.341 322.053 213.826 320.857 209.707C319.647 205.603 317.471 201.758 315.828 200.563C314.344 199.512 302.241 200.362 302.241 200.362Z" fill="#EB4747"/>
<path d="M324.012 207.446C324.012 207.446 323.811 208.627 323.465 209.765C323.105 210.902 322.773 211.262 322.917 211.91C323.033 212.4 323.58 212.774 323.724 212.616C323.868 212.458 323.926 210.542 324.718 210.557C325.511 210.571 324.488 212.918 324.949 212.746C325.424 212.573 327.24 211.579 327.125 210.614C327.009 209.65 326.289 208.958 326.332 207.518C326.375 206.208 325.972 205.661 325.972 205.661L324.012 207.446Z" fill="#EEA987"/>
<path d="M286.088 174.168C286.088 174.168 287.198 175.608 287.875 175.752C288.552 175.91 289.302 174.283 289.302 174.283L288.898 172.829L286.088 174.168Z" fill="#EEA886"/>
<path d="M288.826 173.678C288.826 173.678 289.359 172.022 289.431 171.763C289.503 171.504 289.244 170.755 288.768 170.05C288.307 169.358 287.731 168.595 287.529 168.394C287.428 168.293 287.371 168.178 287.025 168.322C286.679 168.48 286.477 168.797 286.477 168.797C286.477 168.797 285.959 168.782 285.742 169.2C285.742 169.2 285.253 169.214 285.08 169.733C285.08 169.733 284.604 169.762 284.503 170.15C284.503 170.15 284.734 170.856 284.734 171.144C284.748 171.432 285.325 172.872 286.088 174.168C286.088 174.168 287.227 175.147 288.826 173.678Z" fill="#EEA886"/>
<path d="M287.601 171.533C287.601 171.533 287.025 172.195 286.967 172.469C286.895 172.742 285.238 171.749 285.238 171.749C285.238 171.749 286.78 170.856 287.601 171.533Z" fill="#CF8C6C"/>
<path d="M287.616 168.566C287.616 168.566 288.538 170.525 288.235 170.683C287.933 170.856 287.716 170.726 287.716 170.726L287.673 171.706C287.673 171.706 287.27 172.339 286.708 171.72C286.708 171.72 286.391 172.354 285.915 171.691C285.915 171.691 285.526 172.008 285.253 171.749C284.979 171.475 284.518 170.165 284.518 170.165C284.518 170.165 284.547 169.848 285.094 169.747C285.094 169.747 285.238 169.243 285.757 169.214C285.757 169.214 286.059 168.696 286.621 168.682C286.621 168.682 286.938 168.221 287.558 168.394C287.529 168.394 287.587 168.48 287.616 168.566Z" fill="#DB9C7C"/>
<path d="M289.402 171.706C289.402 171.706 288.279 170.726 287.443 170.453C287.255 170.395 287.054 170.366 286.924 170.525C286.794 170.683 286.852 171.058 287.313 171.518C287.774 171.965 288.163 172.757 288.163 172.757C288.163 172.757 288.783 173.074 289.402 171.706Z" fill="#EEA886"/>
<path d="M286.593 168.682C286.593 168.682 287.731 170.712 287.716 170.942C287.702 171.187 288.466 170.77 288.466 170.568C288.466 170.366 287.644 168.552 287.529 168.394C287.428 168.221 286.794 168.106 286.593 168.682Z" fill="#EEA886"/>
<path d="M287.774 168.782C287.774 168.782 285.959 165.398 285.685 165.514C285.296 165.686 285.397 166.637 286.938 169.157C288.423 171.634 287.774 168.782 287.774 168.782Z" fill="#EEA886"/>
<path d="M302.687 183.672L298.941 178.704C298.941 178.704 305.627 173.52 307.702 176.818C307.702 176.832 307.846 182.246 302.687 183.672Z" fill="#323657"/>
<path d="M300.44 183.499C300.54 185.17 301.391 186.552 301.535 187.142C301.679 187.747 301.535 189.13 301.708 190.512C301.88 191.894 302.414 198.475 302.241 200.362C302.068 202.234 315.137 201.384 316.131 200.822C316.131 200.822 313.926 196.891 313.869 195.264C313.854 194.702 313.508 192.96 314.431 191.693C314.92 191.016 315.814 188.885 316.722 187.315C316.722 187.315 316.549 186.984 316.722 187.315C317.067 186.71 317.442 186.106 317.687 185.645C318.018 185.054 318.206 184.363 318.206 184.363C318.206 184.363 318.782 177.134 317.197 176.328C315.598 175.507 314.748 175.378 313.191 175.306C311.635 175.234 310.598 174.917 310.598 174.917L306.952 175.306C306.952 175.306 304.618 176.126 303.696 176.184C302.774 176.256 301.607 178.243 301.708 179.51C301.823 180.778 300.324 181.829 300.44 183.499Z" fill="#323657"/>
<path d="M324.632 210.485C324.632 210.485 323.58 210.758 323.638 214.33L324.834 214.128C324.834 214.128 324.805 212.155 325.165 211.075C325.18 211.075 325.122 210.37 324.632 210.485Z" fill="#1D3B54"/>
<path d="M320.252 215.122L329.56 212.486L329.531 223.934L320.281 229.493L320.252 215.122Z" fill="#1D3B54"/>
<path d="M320.281 229.493L321.433 229.709L330.453 224.107L330.338 212.544L329.56 212.486L320.281 229.493Z" fill="#1D3B54"/>
<path d="M315.641 175.651C315.641 175.651 318.537 175.637 319.848 178.186C321.16 180.734 321.304 183.427 321.621 184.378C321.938 185.328 322.773 190.958 323.09 191.779C323.407 192.6 325.309 198.13 325.77 201.24C326.231 204.35 326.332 207.518 326.332 207.518L324.012 207.446C324.012 207.446 321.707 198.965 320.915 196.949C320.237 195.221 319.978 192.211 319.589 191.146C319.2 190.08 316.794 182.606 316.289 182.074C315.785 181.555 313.177 176.112 315.641 175.651Z" fill="#EEA886"/>
<path d="M316.592 185.976L322.499 184.118C322.499 184.118 320.684 175.406 315.641 175.637C311.592 175.838 316.592 185.976 316.592 185.976Z" fill="#323657"/>
<path d="M309.33 158.76C307.702 158.501 303.998 158.904 302.947 163.152C302.947 163.152 302.947 164.333 303.12 165.283C303.292 166.234 302.169 168.84 302.37 168.998C302.572 169.157 303.437 169.43 303.437 169.43C303.437 169.43 304.056 172.483 305.094 172.584C306.131 172.67 310.151 172.31 312.413 168.854C314.675 165.398 315.871 159.826 309.33 158.76Z" fill="#EEA886"/>
<path d="M306.635 171.374C306.635 171.374 306.722 171.806 306.794 172.426C306.837 172.742 306.866 173.117 306.895 173.52C306.952 174.614 306.923 175.882 306.549 176.688C306.549 176.688 308.58 177.941 310.756 174.917C310.756 174.917 310.54 171.144 311.794 169.142C313.047 167.17 306.635 171.374 306.635 171.374Z" fill="#EEA886"/>
<path d="M302.947 163.152C302.947 163.152 305.382 165.254 307.975 165.917C310.555 166.579 311.923 169.488 311.923 169.488C311.923 169.488 316.505 164.923 313.739 160.502C310.972 156.082 302.947 158.054 302.947 163.152Z" fill="#434343"/>
<path d="M306.779 172.44C306.823 172.757 306.851 173.131 306.88 173.534C309.157 172.426 310.425 170.914 310.425 170.914C309.085 171.864 306.779 172.44 306.779 172.44Z" fill="#A77860"/>
<path d="M308.437 166.075C308.437 166.075 311.088 173.189 310.771 174.888C310.771 174.888 312.168 174.643 314.661 175.406C314.661 175.421 313.465 162.734 308.437 166.075Z" fill="#434343"/>
<path d="M311.65 175.118C311.65 175.118 310.785 180.446 307.558 179.842C304.33 179.237 306.779 175.334 306.779 175.334C306.779 175.334 308.033 174.211 311.65 175.118Z" fill="#EEA886"/>
<path d="M248.726 108.85C248.726 113.011 247.227 116.827 244.735 119.794C241.622 123.494 236.954 125.856 231.709 125.856C226.306 125.856 221.392 123.322 218.251 119.246C216.032 116.366 214.707 112.766 214.707 108.85C214.707 99.4607 222.329 91.8431 231.724 91.8431C241.104 91.8431 248.726 99.4607 248.726 108.85Z" fill="#EEF0F7"/>
<path d="M243.87 117.965C243.813 117.907 243.668 117.85 243.582 117.792C243.582 117.792 243.568 117.792 243.568 117.778C242.818 117.36 240.628 116.28 236.32 115.042C235.542 114.797 234.951 114.653 234.735 114.595L234.375 114.019C234.317 113.429 234.332 112.565 234.346 111.974C234.951 111.269 235.499 110.174 235.816 108.446C235.917 108.518 235.989 108.36 235.989 108.36C235.931 108.259 236.81 106.128 236.651 105.638C236.565 105.365 236.378 105.394 236.234 105.48C236.248 105.35 236.277 105.221 236.306 105.091C236.306 105.091 236.651 101.822 234.994 99.9935C234.821 99.8351 234.216 99.7919 234.216 99.7919C231.551 98.9711 229.951 99.3455 228.957 99.7631C227.473 100.973 227.358 103.046 227.43 104.184C227.459 104.458 227.487 104.731 227.516 104.99V105.005C227.531 105.106 227.545 105.206 227.559 105.322C227.415 105.235 227.242 105.192 227.142 105.466C226.969 105.941 227.617 108.072 227.689 108.202C227.689 108.202 227.833 108.418 227.934 108.317C228.237 110.189 228.799 111.355 229.375 112.061C229.332 112.824 229.216 113.717 229.144 114.293L228.482 114.984C228.453 114.998 228.409 115.013 228.381 115.013C220.931 117 218.828 118.382 218.828 118.382C218.64 118.498 218.453 118.8 218.251 119.261C221.364 123.278 226.248 125.87 231.709 125.87C236.954 125.87 241.622 123.494 244.735 119.808C244.418 119.002 244.187 118.267 243.87 117.965Z" fill="#78C2FF"/>
<path d="M112.188 95.4431H111.885V124.171H112.188V95.4431Z" fill="#E0E0E0"/>
<path d="M133.844 95.4431H133.542V124.171H133.844V95.4431Z" fill="#E0E0E0"/>
<path d="M155.515 95.4431H155.212V124.171H155.515V95.4431Z" fill="#E0E0E0"/>
<path d="M177.172 95.4431H176.869V124.171H177.172V95.4431Z" fill="#E0E0E0"/>
<path d="M198.843 95.4431H198.54V124.171H198.843V95.4431Z" fill="#E0E0E0"/>
<path d="M115.487 125.885H112.043V126.878H115.487V125.885Z" fill="#B8B8B8"/>
<path d="M117.231 91.9008H112.043V92.6496H117.231V91.9008Z" fill="#D9D9D9"/>
<path d="M119.406 93.2832H112.043V94.032H119.406V93.2832Z" fill="#D9D9D9"/>
<path d="M139.564 91.9008H133.469V92.6496H139.564V91.9008Z" fill="#D9D9D9"/>
<path d="M137.36 93.2832H133.469V94.032H137.36V93.2832Z" fill="#D9D9D9"/>
<path d="M159.29 91.9008H155.515V92.6496H159.29V91.9008Z" fill="#D9D9D9"/>
<path d="M159.91 93.2832H155.515V94.032H159.91V93.2832Z" fill="#D9D9D9"/>
<path d="M182.676 91.9008H177.172V92.6496H182.676V91.9008Z" fill="#D9D9D9"/>
<path d="M181.566 93.2832H177.172V94.032H181.566V93.2832Z" fill="#D9D9D9"/>
<path d="M201.969 91.9008H198.684V92.6496H201.969V91.9008Z" fill="#D9D9D9"/>
<path d="M201.306 93.2832H198.684V94.032H201.306V93.2832Z" fill="#D9D9D9"/>
<path d="M137.144 125.885H133.7V126.878H137.144V125.885Z" fill="#B8B8B8"/>
<path d="M158.959 125.885H155.515V126.878H158.959V125.885Z" fill="#B8B8B8"/>
<path d="M180.615 125.885H177.172V126.878H180.615V125.885Z" fill="#B8B8B8"/>
<path d="M202.286 125.885H198.843V126.878H202.286V125.885Z" fill="#B8B8B8"/>
<path d="M191.177 115.646C184.419 115.646 178.54 113.026 172.417 110.29C164.852 106.906 157.042 103.421 146.625 104.371C139.968 104.976 135.804 107.41 132.115 109.57C128.787 111.514 125.631 113.227 121.352 113.371C114.45 113.602 112.058 110.966 112.015 110.794V109.094C112.029 109.123 113.528 112.09 121.337 112.061C125.184 112.046 128.023 110.39 131.308 108.475C135.126 106.243 139.464 103.723 146.452 103.075C157.287 102.082 165.299 105.653 173.036 109.123C181.134 112.752 188.872 116.136 198.655 113.198V114.595C195.903 115.416 193.67 115.646 191.177 115.646Z" fill="url(#paint11_linear)"/>
<path d="M150.63 115.315C145.645 115.315 141.683 112.305 137.821 109.353C134.882 107.121 131.841 104.832 128.326 103.694C117.591 100.253 112.101 106.545 112.058 106.589V104.688C112.116 104.616 113.095 103.478 115.934 102.384C118.513 101.39 122.836 100.598 128.815 102.47C132.591 103.651 135.732 106.041 138.772 108.36C144.939 113.054 150.256 117.115 159.492 110.765C166.495 105.955 173.094 101.361 179.578 99.6911C185.932 98.0495 192.546 99.2591 198.742 104.817L198.698 106.56C185.529 94.6799 174.319 102.211 160.371 111.801C156.653 114.336 153.469 115.315 150.63 115.315Z" fill="url(#paint12_linear)"/>
<defs>
<linearGradient id="paint0_linear" x1="109.766" y1="122.83" x2="53.9247" y2="119.82" gradientUnits="userSpaceOnUse">
<stop stop-color="#40D5E6"/>
<stop offset="1" stop-color="#5577FF"/>
</linearGradient>
<linearGradient id="paint1_linear" x1="111.458" y1="147.799" x2="85.4455" y2="118.331" gradientUnits="userSpaceOnUse">
<stop stop-color="#40D5E6"/>
<stop offset="1" stop-color="#5577FF"/>
</linearGradient>
<linearGradient id="paint2_linear" x1="105.33" y1="105.697" x2="78.897" y2="104.272" gradientUnits="userSpaceOnUse">
<stop stop-color="#40D5E6"/>
<stop offset="1" stop-color="#5577FF"/>
</linearGradient>
<linearGradient id="paint3_linear" x1="104.149" y1="126.38" x2="85.1825" y2="92.7732" gradientUnits="userSpaceOnUse">
<stop stop-color="#40D5E6"/>
<stop offset="1" stop-color="#5577FF"/>
</linearGradient>
<linearGradient id="paint4_linear" x1="103.142" y1="78.8516" x2="263.269" y2="78.8516" gradientUnits="userSpaceOnUse">
<stop stop-color="#40D5E6"/>
<stop offset="1" stop-color="#5577FF"/>
</linearGradient>
<linearGradient id="paint5_linear" x1="87.334" y1="191.449" x2="55.72" y2="191.449" gradientUnits="userSpaceOnUse">
<stop stop-color="#40D5E6"/>
<stop offset="1" stop-color="#5577FF"/>
</linearGradient>
<linearGradient id="paint6_linear" x1="64.1427" y1="209.079" x2="35.5537" y2="209.079" gradientUnits="userSpaceOnUse">
<stop stop-color="#40D5E6"/>
<stop offset="1" stop-color="#5577FF"/>
</linearGradient>
<linearGradient id="paint7_linear" x1="61.699" y1="213.234" x2="40.241" y2="213.234" gradientUnits="userSpaceOnUse">
<stop stop-color="#40D5E6"/>
<stop offset="1" stop-color="#5577FF"/>
</linearGradient>
<linearGradient id="paint8_linear" x1="69.4477" y1="195.977" x2="44.4578" y2="195.977" gradientUnits="userSpaceOnUse">
<stop stop-color="#40D5E6"/>
<stop offset="1" stop-color="#5577FF"/>
</linearGradient>
<linearGradient id="paint9_linear" x1="52.1222" y1="231.799" x2="75.1823" y2="231.799" gradientUnits="userSpaceOnUse">
<stop stop-color="#FF9340"/>
<stop offset="1" stop-color="#FFCE45"/>
</linearGradient>
<linearGradient id="paint10_linear" x1="52.1222" y1="231.799" x2="75.1823" y2="231.799" gradientUnits="userSpaceOnUse">
<stop stop-color="#C97332"/>
<stop offset="1" stop-color="#FFCE45"/>
</linearGradient>
<linearGradient id="paint11_linear" x1="208.222" y1="109.268" x2="119.81" y2="109.268" gradientUnits="userSpaceOnUse">
<stop stop-color="#40D5E6"/>
<stop offset="1" stop-color="#5577FF"/>
</linearGradient>
<linearGradient id="paint12_linear" x1="112.037" y1="107.16" x2="198.734" y2="107.16" gradientUnits="userSpaceOnUse">
<stop stop-color="#40D5E6"/>
<stop offset="1" stop-color="#5577FF"/>
</linearGradient>
</defs>
</svg>
