<svg width="653" height="604" viewBox="0 0 653 604" fill="none" xmlns="http://www.w3.org/2000/svg">
<g clip-path="url(#clip0)">
<path d="M115.683 133.017C160.64 95.3816 109.053 61.6336 134.494 27.1645C158.634 -5.54897 225.551 -0.141133 260.319 1.08151C302.047 2.55495 499.053 -0.736777 522.66 22.1642C543.837 42.6983 547.067 77.2614 542.207 100.272C535.185 133.55 568.181 133.55 585.706 155.714C623.813 203.899 572.79 259.012 584.593 300.064C600.049 353.892 650.022 386.558 606.272 438.003C582.822 465.56 556.942 474.181 520.231 479.15C458.062 487.567 388.825 485.576 325.763 485.717C265.79 485.843 200.11 478.491 141.877 465.027C102.454 455.904 26.162 449.446 34.9088 391.558C40.1444 356.87 90.5403 281.474 63.5005 228.853C47.2452 197.206 78.2979 164.32 115.683 133.017Z" fill="#E6F3F9"/>
<path d="M560.594 129.521C505.292 110.069 552.412 61.6335 526.971 27.1644C502.831 -5.54903 435.929 -0.125519 401.161 1.08145C359.434 2.55489 315.888 3.38565 274.631 9.57723C243.907 14.1856 189.796 16.6623 166.189 39.5633C145.012 60.0974 155.938 75.1766 160.577 98.2187C170.045 145.29 97.4374 165.918 68.5323 192.033C29.5792 227.239 74.5045 257.131 62.7011 298.183C47.2452 352.011 11.4429 386.527 55.2083 437.972C78.6585 465.528 104.538 474.149 141.25 479.118C203.418 487.536 272.655 485.545 335.717 485.686C395.691 485.811 461.37 478.46 519.604 464.995C559.027 455.872 635.318 449.414 626.572 391.527C621.336 356.838 589.703 339.204 573.244 312.588C553.995 281.458 572.398 248.603 584.86 219.48C598.842 186.782 590.346 140.259 560.594 129.521Z" fill="url(#paint0_linear)"/>
<path d="M40.9908 276.285C56.5407 273.323 67.7642 285 68.5009 285.737C69.1906 283.339 75.9623 261.3 97.9547 253.494C111.859 248.541 124.101 252.067 128.318 253.494C125.527 245.97 127.001 237.6 132.127 231.612C137.66 225.169 146.595 222.552 154.919 224.997C164.324 210.466 181.582 202.942 198.559 205.968C215.315 208.993 228.749 221.69 232.746 238.274C237.825 230.703 246.932 226.878 255.538 228.759C263.235 230.405 269.379 236.283 271.715 243.964C282.202 233.023 298.096 228.916 312.502 233.54C325.34 237.584 335.153 247.929 338.758 260.767C349.072 252.616 362.961 249.544 375.877 253.604C395.189 259.685 407.353 280.188 403.152 300.926C381.99 300.926 360.829 300.926 339.683 300.926L313.301 339.298H17.2428C19.5784 288.355 29.156 278.495 40.9908 276.285Z" fill="url(#paint1_linear)"/>
<path d="M259.394 281.583C274.944 278.621 286.168 290.299 286.904 291.035C287.594 288.637 294.366 266.598 316.358 258.792C330.262 253.839 342.504 257.366 346.721 258.792C343.931 251.268 345.404 242.898 350.53 236.91C356.064 230.467 364.998 227.85 373.322 230.295C382.727 215.764 399.986 208.241 416.962 211.266C433.719 214.291 447.152 226.988 451.15 243.572C456.228 236.001 465.336 232.176 473.942 234.057C481.638 235.703 487.783 241.581 490.118 249.262C500.605 238.321 516.5 234.214 530.905 238.838C543.743 242.882 553.556 253.227 557.161 266.065C567.476 257.914 581.364 254.842 594.281 258.902C613.592 264.984 625.756 285.486 621.555 306.224C600.394 306.224 579.232 306.224 558.086 306.224H531.705H235.631C237.966 293.669 247.544 283.809 259.394 281.583Z" fill="url(#paint2_linear)"/>
<path d="M577.32 241.942C577.32 241.942 605.645 211.799 597.149 204.243C591.271 199.008 578.684 216.344 578.621 216.313C578.621 216.313 586.96 182.988 571.583 184.148C559.905 185.669 560.547 214.087 560.453 214.103C560.453 214.103 552.913 197.707 545.546 202.425C534.871 209.275 551.801 236.016 551.801 236.016C551.801 236.016 539.762 221.157 533.492 228.9C525.262 239.057 541.126 262.444 541.126 262.444C541.126 262.444 518.365 252.632 520.873 268.416C522.723 280.063 529.228 291.584 538.398 299.249C550.452 305.331 584.766 293.966 583.229 279.154C582.289 270.047 566.222 273.432 566.222 273.432C577.618 269.012 601.867 256.598 598.293 241.91C595.738 231.377 577.32 241.957 577.32 241.942Z" fill="url(#paint3_linear)"/>
<path d="M560.109 287.069C557.491 287.728 554.857 288.135 552.287 288.339C550.296 288.512 548.321 288.48 546.377 288.323C550.986 279.53 554.998 270.423 558.384 261.096C561.065 260.845 563.761 260.422 566.41 259.717C569.31 258.933 572.288 257.82 575.157 256.456C578.01 255.077 580.831 253.4 583.527 251.425C586.223 249.45 588.841 247.224 591.24 244.622C588.779 247.13 586.129 249.246 583.402 251.08C580.674 252.93 577.853 254.481 575 255.735C572.147 256.974 569.2 257.946 566.332 258.62C563.871 259.184 561.363 259.497 558.901 259.654C561.504 252.444 563.729 244.92 565.469 237.443C568.134 236.157 570.768 234.715 573.229 232.866C574.545 231.972 575.784 230.875 577.038 229.856C578.245 228.728 579.467 227.615 580.612 226.408C582.885 223.994 585.095 221.329 587.07 218.445C589.045 215.561 590.848 212.473 592.368 209.15C590.769 212.41 588.888 215.404 586.85 218.178C584.813 220.969 582.54 223.524 580.251 225.812C579.091 226.972 577.853 228.022 576.63 229.072C575.361 230.029 574.138 231.063 572.821 231.894C570.595 233.461 568.244 234.668 565.877 235.75C568.981 221.031 570.815 206.532 571.442 191.5C570.407 206.485 568.197 220.906 564.686 235.515C563.055 233.618 561.488 231.643 560.03 229.558C558.369 227.16 556.738 224.699 555.233 222.191C553.729 219.683 552.255 217.128 550.844 214.558C549.449 211.987 548.086 209.4 546.816 206.783C547.992 209.447 549.261 212.097 550.562 214.73C551.879 217.363 553.274 219.981 554.685 222.583C556.111 225.185 557.647 227.74 559.246 230.248C560.767 232.646 562.46 234.935 564.215 237.145C562.272 244.559 559.826 252.02 557.02 259.168C555.092 257.789 553.243 256.206 551.597 254.434C549.7 252.381 547.913 250.092 546.299 247.757C544.668 245.406 543.148 242.96 541.706 240.484C540.279 238.007 538.9 235.483 537.662 232.928C538.806 235.546 540.091 238.117 541.439 240.672C542.787 243.227 544.229 245.751 545.781 248.196C547.333 250.641 549.042 253.039 550.891 255.234C552.553 257.193 554.45 258.996 556.488 260.563C552.898 269.67 548.681 278.542 543.9 287.085C542.474 285.392 541.11 283.637 539.825 281.803C538.226 279.499 536.674 277.147 535.232 274.733C533.79 272.319 532.363 269.874 531.031 267.413C529.683 264.952 528.382 262.476 527.159 259.952C528.288 262.507 529.51 265.046 530.764 267.586C532.018 270.109 533.351 272.633 534.699 275.125C536.047 277.618 537.52 280.079 539.025 282.477C540.311 284.515 541.706 286.474 543.164 288.371C537.536 298.387 530.937 307.886 523.805 316.883C524.98 317.792 525.576 318.247 526.767 319.156C533.774 309.829 540.201 300.001 545.64 289.672C547.788 289.781 549.982 289.734 552.161 289.452C554.795 289.123 557.459 288.59 560.109 287.806C562.742 287.022 565.391 286.082 567.993 284.938C570.595 283.793 573.182 282.477 575.705 280.925C573.15 282.351 570.548 283.558 567.946 284.577C565.36 285.596 562.711 286.411 560.109 287.069Z" fill="#6943D8"/>
<path d="M73.0781 286.348C73.0781 286.348 58.9233 263.745 65.2404 260.03C69.6138 257.46 75.4137 269.984 75.445 269.984C75.445 269.984 74.3321 247.867 83.9097 250.516C91.1046 252.945 87.1545 270.83 87.2015 270.846C87.2015 270.846 94.0202 261.41 98.0958 265.328C103.99 270.987 89.9446 285.8 89.9446 285.8C89.9446 285.8 99.4125 277.9 102.422 283.574C106.357 291.02 93.3932 303.842 93.3932 303.842C93.3932 303.842 109.021 300.472 105.447 310.159C102.83 317.291 97.2807 323.764 90.509 327.479C82.1227 329.815 61.8389 318.357 64.6605 309.171C66.4004 303.528 76.1347 307.682 76.1347 307.682C69.4884 303.465 55.6942 292.587 59.7854 283.731C62.7324 277.367 73.0624 286.364 73.0781 286.348Z" fill="url(#paint4_linear)"/>
<path d="M78.3293 317.04C79.8968 317.777 81.5114 318.372 83.1259 318.827C84.3642 319.187 85.6183 319.407 86.8566 319.548C85.0383 313.403 83.6275 307.149 82.6556 300.816C80.9941 300.33 79.3325 299.719 77.7493 298.935C76.0093 298.073 74.2694 297.007 72.6235 295.785C70.9933 294.562 69.41 293.136 67.9522 291.552C66.4944 289.969 65.115 288.229 63.9237 286.286C65.1621 288.182 66.5728 289.844 68.0777 291.349C69.5668 292.853 71.1657 294.202 72.8116 295.346C74.4575 296.49 76.2131 297.478 77.9374 298.246C79.4265 298.92 80.9627 299.421 82.5146 299.829C81.7622 294.938 81.3076 289.907 81.1351 284.969C79.6146 283.825 78.1255 282.586 76.7931 281.113C76.072 280.376 75.4293 279.546 74.7553 278.73C74.1283 277.868 73.5013 277.006 72.9213 276.097C71.7927 274.294 70.7111 272.319 69.8333 270.25C68.9398 268.181 68.1874 266.002 67.6387 263.714C68.2501 265.971 69.0652 268.103 70.0057 270.125C70.9462 272.147 72.0592 274.044 73.2348 275.784C73.8148 276.661 74.4732 277.476 75.1158 278.307C75.7899 279.075 76.4482 279.875 77.1693 280.564C78.392 281.834 79.7244 282.884 81.0881 283.872C80.9627 274.169 81.6211 264.78 83.0946 255.187C81.8719 264.795 81.48 274.2 81.8719 283.872C83.1416 282.869 84.3799 281.834 85.5556 280.69C86.9036 279.373 88.2517 278.025 89.5057 276.63C90.7754 275.235 92.0295 273.809 93.2364 272.351C94.4434 270.909 95.6191 269.435 96.7477 267.93C95.6818 269.482 94.5375 270.987 93.3775 272.492C92.2176 273.997 91.0106 275.486 89.7879 276.943C88.5652 278.417 87.2642 279.828 85.9475 281.223C84.6778 282.555 83.3297 283.778 81.9346 284.969C82.2481 289.907 82.8437 294.923 83.7372 299.797C85.1323 299.17 86.4961 298.387 87.7501 297.478C89.2079 296.412 90.6187 295.189 91.9354 293.919C93.2521 292.634 94.5218 291.27 95.7445 289.891C96.9672 288.496 98.1428 287.085 99.2401 285.612C98.1898 287.132 97.0612 288.59 95.8856 290.032C94.7099 291.474 93.4873 292.901 92.2019 294.249C90.9165 295.597 89.5371 296.898 88.095 298.058C86.8096 299.092 85.3831 299.986 83.894 300.738C85.0226 306.945 86.5901 313.09 88.5495 319.093C89.6625 318.2 90.7441 317.259 91.7786 316.256C93.0797 315.002 94.3494 313.701 95.5721 312.353C96.7791 311.005 97.9861 309.641 99.146 308.246C100.306 306.851 101.45 305.456 102.532 304.014C101.497 305.487 100.416 306.945 99.3028 308.387C98.1898 309.829 97.0455 311.256 95.8699 312.667C94.6942 314.077 93.4716 315.441 92.2019 316.773C91.136 317.902 90.0073 318.968 88.8474 319.987C91.1516 327.025 94.1456 333.859 97.5315 340.442C96.6693 340.866 96.2461 341.085 95.384 341.508C92.1235 334.737 89.2863 327.714 87.1231 320.504C85.7437 320.3 84.3799 320.002 83.0319 319.548C81.4016 318.999 79.7871 318.341 78.2196 317.51C76.652 316.695 75.1002 315.755 73.5953 314.704C72.0905 313.654 70.617 312.494 69.2219 311.193C70.6641 312.416 72.1532 313.497 73.6737 314.469C75.1942 315.457 76.7618 316.303 78.3293 317.04Z" fill="#6943D8"/>
<path d="M102.281 240.86C102.281 240.86 80.32 205.811 90.1328 200.043C96.9201 196.046 105.902 215.498 105.965 215.482C105.965 215.482 104.24 181.17 119.101 185.293C130.261 189.055 124.117 216.799 124.211 216.83C124.211 216.83 134.776 202.206 141.093 208.272C150.232 217.05 128.443 240.014 128.443 240.014C128.443 240.014 143.131 227.771 147.786 236.565C153.9 248.117 133.788 267.993 133.788 267.993C133.788 267.993 158.022 262.773 152.489 277.774C148.413 288.841 139.808 298.888 129.321 304.625C116.31 308.246 84.8502 290.471 89.2236 276.238C91.9197 267.492 107.015 273.918 107.015 273.918C96.7007 267.382 75.304 250.5 81.6524 236.785C86.2453 226.925 102.281 240.876 102.281 240.86Z" fill="url(#paint5_linear)"/>
<path d="M110.432 288.465C112.878 289.609 115.37 290.518 117.862 291.239C119.79 291.788 121.734 292.148 123.662 292.368C120.841 282.853 118.662 273.134 117.157 263.322C114.586 262.554 112 261.629 109.554 260.406C106.858 259.074 104.146 257.413 101.607 255.516C99.0677 253.619 96.638 251.409 94.3651 248.964C92.0922 246.503 89.9603 243.807 88.1106 240.797C90.0387 243.728 92.2332 246.315 94.5375 248.65C96.8574 250.986 99.3185 253.071 101.874 254.842C104.429 256.613 107.14 258.134 109.821 259.341C112.125 260.375 114.523 261.175 116.922 261.802C115.762 254.215 115.041 246.409 114.774 238.744C112.407 236.973 110.103 235.045 108.05 232.756C106.937 231.627 105.933 230.311 104.899 229.057C103.927 227.724 102.939 226.392 102.062 224.981C100.306 222.175 98.6444 219.135 97.265 215.921C95.8856 212.708 94.7099 209.322 93.8791 205.78C94.8197 209.275 96.0894 212.582 97.5472 215.717C99.005 218.837 100.729 221.784 102.548 224.48C103.457 225.843 104.476 227.113 105.463 228.383C106.513 229.574 107.532 230.812 108.661 231.878C110.542 233.838 112.611 235.483 114.727 237.004C114.523 221.956 115.542 207.394 117.847 192.519C115.966 207.425 115.339 222.003 115.95 237.004C117.909 235.452 119.837 233.838 121.671 232.066C123.772 230.029 125.841 227.944 127.8 225.765C129.76 223.586 131.704 221.376 133.585 219.135C135.45 216.893 137.284 214.62 139.04 212.285C137.378 214.683 135.622 217.034 133.82 219.354C132.017 221.69 130.152 223.994 128.255 226.267C126.358 228.539 124.352 230.75 122.283 232.897C120.323 234.95 118.223 236.863 116.06 238.712C116.53 246.362 117.486 254.152 118.85 261.707C121.013 260.736 123.129 259.529 125.089 258.102C127.346 256.456 129.54 254.56 131.578 252.569C133.632 250.578 135.607 248.478 137.488 246.315C139.369 244.167 141.203 241.957 142.911 239.684C141.281 242.036 139.526 244.308 137.707 246.55C135.889 248.791 133.992 251.002 132.001 253.086C130.011 255.187 127.863 257.209 125.622 258.996C123.615 260.595 121.405 261.99 119.101 263.15C120.856 272.79 123.27 282.304 126.311 291.615C128.036 290.236 129.713 288.778 131.327 287.226C133.334 285.283 135.309 283.26 137.206 281.176C139.087 279.091 140.952 276.975 142.755 274.812C144.557 272.649 146.313 270.47 148.006 268.244C146.407 270.532 144.714 272.79 142.99 275.031C141.265 277.273 139.478 279.483 137.676 281.662C135.857 283.84 133.945 285.972 132.001 288.041C130.355 289.797 128.6 291.443 126.797 293.026C130.387 303.951 135.011 314.547 140.278 324.752C138.946 325.41 138.271 325.755 136.939 326.413C131.876 315.911 127.471 305.017 124.132 293.825C122.001 293.512 119.869 293.042 117.784 292.352C115.26 291.505 112.752 290.471 110.307 289.201C107.877 287.932 105.463 286.489 103.128 284.859C100.792 283.229 98.519 281.442 96.3402 279.42C98.566 281.317 100.886 282.994 103.253 284.499C105.557 286.004 107.987 287.32 110.432 288.465Z" fill="#6943D8"/>
<path d="M43.7497 310.159C66.7766 305.77 83.3767 323.059 84.474 324.156C85.4929 320.614 95.525 287.979 128.067 276.426C148.648 269.09 166.769 274.326 173.008 276.426C168.87 265.297 171.064 252.898 178.651 244.042C186.833 234.512 200.063 230.64 212.384 234.261C226.304 212.755 251.854 201.626 276.982 206.093C301.78 210.56 321.672 229.37 327.582 253.901C335.09 242.678 348.586 237.035 361.315 239.825C372.695 242.271 381.802 250.955 385.267 262.334C400.785 246.142 424.314 240.076 445.648 246.91C464.646 252.883 479.177 268.213 484.507 287.226C499.774 275.157 520.34 270.611 539.448 276.614C568.04 285.612 586.051 315.958 579.812 346.665C548.493 346.665 517.174 346.665 485.855 346.665H446.808H8.59004C12.0386 328.028 26.209 313.45 43.7497 310.159Z" fill="url(#paint6_linear)"/>
<path d="M623.201 276.395C623.201 276.395 662.483 235.139 650.852 224.668C642.795 217.41 625.317 241.174 625.239 241.127C625.239 241.127 637.027 195.309 615.85 196.782C599.751 198.789 600.394 237.913 600.253 237.929C600.253 237.929 590.017 215.279 579.828 221.721C565.077 231.048 588.136 268.04 588.136 268.04C588.136 268.04 571.692 247.475 562.993 258.071C551.565 271.975 573.213 304.328 573.213 304.328C573.213 304.328 541.956 290.596 545.279 312.385C547.725 328.436 556.566 344.361 569.137 354.989C585.69 363.469 633.03 348.139 631.054 327.73C629.832 315.175 607.698 319.705 607.698 319.705C623.421 313.733 656.934 296.851 652.138 276.583C648.673 262.021 623.217 276.411 623.201 276.395Z" fill="url(#paint7_linear)"/>
<path d="M599.108 338.374C595.503 339.251 591.882 339.784 588.324 340.066C585.581 340.286 582.853 340.223 580.188 339.988C586.615 327.918 592.227 315.426 596.961 302.588C600.644 302.274 604.375 301.71 608.028 300.754C612.04 299.704 616.147 298.199 620.097 296.334C624.048 294.468 627.935 292.164 631.682 289.484C635.412 286.803 639.033 283.747 642.356 280.173C638.955 283.606 635.271 286.49 631.509 288.998C627.747 291.521 623.844 293.637 619.909 295.33C615.975 297.023 611.899 298.324 607.949 299.218C604.563 299.986 601.099 300.393 597.698 300.581C601.35 290.675 604.485 280.329 606.946 270.062C610.63 268.323 614.266 266.363 617.668 263.84C619.486 262.617 621.195 261.128 622.935 259.717C624.612 258.181 626.305 256.66 627.888 254.983C631.039 251.676 634.111 248.024 636.854 244.074C639.598 240.123 642.121 235.891 644.222 231.33C641.996 235.797 639.362 239.904 636.541 243.729C633.719 247.553 630.569 251.033 627.371 254.184C625.772 255.767 624.048 257.209 622.37 258.651C620.615 259.968 618.906 261.363 617.088 262.492C614 264.623 610.755 266.269 607.479 267.727C611.899 247.491 614.533 227.552 615.536 206.846C613.968 227.474 610.802 247.318 605.833 267.398C603.607 264.764 601.46 262.053 599.485 259.168C597.212 255.845 595.001 252.444 592.948 248.98C590.894 245.5 588.888 241.989 586.976 238.431C585.079 234.888 583.214 231.314 581.505 227.693C583.088 231.377 584.813 235.029 586.599 238.666C588.386 242.302 590.283 245.923 592.211 249.513C594.155 253.102 596.255 256.629 598.434 260.109C600.519 263.432 602.823 266.583 605.222 269.655C602.479 279.859 599.046 290.111 595.127 299.907C592.478 297.995 589.938 295.785 587.712 293.324C585.126 290.487 582.681 287.32 580.47 284.076C578.26 280.831 576.175 277.445 574.216 274.013C572.272 270.595 570.391 267.116 568.714 263.557C570.266 267.178 572.006 270.736 573.84 274.248C575.674 277.775 577.633 281.27 579.749 284.656C581.85 288.026 584.201 291.349 586.725 294.39C588.982 297.102 591.584 299.594 594.374 301.788C589.343 314.297 583.48 326.476 576.802 338.201C574.859 335.85 572.993 333.436 571.253 330.897C569.075 327.715 566.958 324.454 564.999 321.131C563.04 317.808 561.096 314.422 559.278 311.021C557.444 307.619 555.657 304.187 554.011 300.723C555.547 304.265 557.193 307.761 558.901 311.256C560.61 314.752 562.413 318.231 564.247 321.68C566.096 325.128 568.087 328.514 570.156 331.853C571.896 334.674 573.808 337.37 575.799 340.004C567.962 353.751 558.792 366.776 548.885 379.097C550.499 380.367 551.314 380.994 552.929 382.263C562.663 369.473 571.598 356.008 579.185 341.822C582.148 341.979 585.157 341.947 588.167 341.587C591.804 341.148 595.472 340.443 599.108 339.392C602.745 338.342 606.397 337.057 609.987 335.505C613.577 333.953 617.151 332.151 620.646 330.05C617.119 331.994 613.53 333.624 609.924 335.003C606.35 336.383 602.714 337.496 599.108 338.374Z" fill="white"/>
<path d="M79.5049 339.533C80.1476 336.696 78.2823 334.016 78.0941 333.734C80.5865 334.157 82.7183 332.746 83.3454 330.458C83.988 328.091 82.9535 325.332 80.8216 323.686C83.267 322.714 84.8345 320.441 84.9442 317.839C85.101 314.548 82.9692 311.225 79.6303 309.735C83.9253 305.895 85.3518 299.813 83.5962 294.578C81.3546 287.916 74.7553 285.596 74.3478 285.455C76.3385 281.677 75.7585 277.116 72.9997 274.138C70.617 271.551 66.8863 270.47 63.4848 271.567C66.0712 267.429 65.9615 262.241 63.3594 258.557C60.2714 254.184 55.0515 254.137 54.7067 254.137C56.5407 248.384 55.6785 242.161 52.3397 237.568C48.5463 232.333 43.0129 231.643 42.1351 231.565C42.1821 230.938 42.621 225.828 39.5644 221.878C36.9309 218.461 30.3943 216.329 27.0869 219.856C24.861 218.226 19.4843 217.332 16.1769 220.122C13.324 222.536 11.7251 227.207 12.1483 232.082C6.52091 230.907 1.17564 235.703 0.156752 243.431C-0.799439 250.579 2.31994 258.385 7.3517 261.692C6.81874 261.974 2.49237 264.294 1.86536 271.191C1.36375 276.677 3.54261 282.822 7.32035 286.662C6.89711 287.117 3.18208 291.27 4.46745 298.967C5.50202 305.064 9.38948 310.801 14.1234 313.341C12.791 318.498 14.2958 325.238 18.0736 330.426C22.2275 336.116 28.2782 338.859 32.9808 337.527C32.8553 342.465 36.4763 347.888 40.5676 349.518C43.9378 350.866 47.0571 349.518 48.2171 346.321C49.7846 350.239 53.4213 353.171 56.6347 353.343C59.2838 353.484 61.2589 351.76 61.7762 349.079C63.234 351.039 65.3502 352.277 67.1842 352.246C69.6295 352.214 73.4856 348.766 73.1564 344.581C76.0093 344.879 78.9563 341.947 79.5049 339.533Z" fill="url(#paint8_linear)"/>
<path d="M68.3912 312.588C67.1528 315.159 65.8518 317.777 64.4097 320.253C63.7356 321.523 62.9675 322.746 62.2621 323.968C61.8076 324.752 61.3059 325.52 60.82 326.273C55.3807 318.404 52.9197 314.313 48.5149 305.833C49.2046 304.876 49.9414 303.936 50.5997 302.995C51.4149 301.804 52.2927 300.597 53.0921 299.39C54.6753 296.992 56.3055 294.484 57.7947 291.992C59.2838 289.499 60.726 286.929 62.074 284.342C63.4221 281.756 64.7075 279.154 65.7734 276.442C64.6291 279.091 63.234 281.646 61.8076 284.154C60.3811 286.662 58.8606 289.155 57.2774 291.553C55.7099 293.935 53.9856 296.365 52.324 298.638C51.4932 299.782 50.5841 300.942 49.7219 302.071C49.1106 302.87 48.4522 303.654 47.8095 304.438C43.8437 296.663 42.0881 292.666 39.0314 284.468C40.3481 282.618 41.6648 280.721 42.9032 278.825C44.2356 276.787 45.5366 274.671 46.8063 272.571C48.0604 270.47 49.2673 268.307 50.4273 266.144C51.5873 263.981 52.7002 261.802 53.7034 259.56C52.6219 261.739 51.4149 263.871 50.1765 265.956C48.9382 268.04 47.6528 270.125 46.3204 272.132C44.988 274.138 43.5929 276.16 42.1978 278.088C41.0065 279.734 39.7525 281.348 38.4828 282.947C34.7991 272.774 33.2943 267.539 31.0684 256.88C33.6548 253.902 36.1001 250.751 38.4044 247.491C40.7557 244.152 45.0194 237.161 45.0194 237.161C45.0194 237.161 40.5989 244.011 38.1849 247.24C35.8964 250.328 33.451 253.259 30.8959 256.034C28.5917 244.716 27.8393 238.932 27.2593 227.239C27.4631 234.637 27.7295 238.321 28.6387 245.61C25.582 244.983 22.5254 243.948 19.5471 242.6C16.4747 241.205 10.5181 237.49 10.5181 237.49C10.5181 237.49 16.3963 241.456 19.453 242.976C22.4626 244.465 25.5664 245.641 28.7171 246.393C30.1435 257.554 31.2565 263.072 34.2818 273.84C32.4164 273.683 30.5511 273.433 28.6857 273.056C26.5696 272.633 24.4221 272.1 22.2902 271.426C18.0422 270.094 13.7942 268.354 9.65596 266.081C13.7472 268.605 17.9795 270.611 22.2275 272.194C24.3594 272.994 26.5069 273.636 28.6544 274.185C30.6608 274.702 32.6829 275.063 34.705 275.329C37.2601 284.217 38.8119 288.575 42.4173 297.07C37.6677 297.964 32.6672 298.089 27.6198 297.603C22.2432 297.086 16.7569 295.957 11.2705 294.123C16.7412 296.24 22.2589 297.619 27.6982 298.387C32.871 299.108 38.0282 299.202 42.9972 298.434C46.7436 307.071 48.8755 311.287 53.6564 319.423C51.5403 319.987 49.3928 320.457 47.1982 320.771C44.5804 321.147 41.8686 321.398 39.1411 321.445C33.6861 321.539 28.043 321.069 22.3216 319.752C28.0587 321.335 33.7645 322.072 39.3136 322.213C42.0881 322.276 44.8469 322.15 47.5274 321.884C49.863 321.649 52.1516 321.225 54.4088 320.724C64.1745 336.743 75.8683 350.412 89.2079 363.485C90.1484 362.435 90.6187 361.902 91.5592 360.851C80.5395 350.522 70.3819 339.91 61.6665 327.511C62.1838 326.586 62.7324 325.661 63.2183 324.736C63.8924 323.451 64.6134 322.181 65.2404 320.865C66.5728 318.278 67.7955 315.582 68.9398 312.933C70.0998 310.269 71.1657 307.525 72.1376 304.782C73.1094 302.039 74.0343 299.281 74.724 296.459C73.9402 299.249 72.937 301.961 71.8554 304.641C70.7895 307.322 69.6295 310.018 68.3912 312.588Z" fill="white"/>
<path d="M452.717 343.828C455.304 339.643 458.078 335.677 460.524 331.273C462.201 328.248 463.721 325.05 465.069 321.664C464.207 313.262 462.028 304.234 458.893 296.381C458.658 296.945 458.407 297.478 458.125 297.995C453.564 306.679 447.952 315.473 443.767 324.266C443.218 325.426 442.716 326.68 442.215 327.95C443.437 321.178 445.052 314.61 447.121 308.372C449.378 301.6 452.184 295.236 453.485 287.806C453.626 286.976 453.752 286.098 453.83 285.251C448.171 275 440.585 265.83 430.239 260.125C430.38 265.924 430.788 271.865 431.07 277.649C431.305 282.446 431.462 287.273 431.853 292.07C428.797 280.972 426.947 269.561 425.818 258.103C420.693 256.159 415.959 255.642 411.883 255.814C412.244 260.36 412.745 264.952 413.357 269.498C411.648 265.093 409.986 260.642 408.403 256.159C401.146 257.193 396.694 260.062 396.694 260.062C395.33 260.767 392.164 263.024 388.511 266.551C391.631 271.003 394.17 275.956 396.224 281.066C392.775 276.975 388.95 273.386 384.828 270.392C382.288 273.244 379.67 276.615 377.335 280.392C384.749 286.019 389.593 293.167 394.343 300.989C391.866 298.277 389.17 295.785 386.364 293.622C382.508 290.659 378.416 288.214 374.263 285.957C370.579 292.963 368.463 302.76 369.278 310.629C370.516 311.381 371.802 312.102 373.04 312.808C379.373 316.382 386.035 319.971 391.176 325.771C393.449 328.326 395.393 331.289 397.18 334.345C397.274 334.518 397.368 334.674 397.478 334.831C392.07 329.423 384.357 324.501 377.319 321.711C375.172 320.865 372.93 320.081 370.689 319.532C372.209 326.633 373.777 333.248 375.407 339.502C376.285 339.894 377.147 340.286 378.04 340.693C387.398 344.91 396.302 351.102 401.976 359.676C402.18 359.989 402.415 360.35 402.619 360.679C397.289 355.757 391.882 351.07 385.596 348.406C382.868 347.246 380.031 346.477 377.162 345.913C379.953 355.287 382.962 364.472 386.238 373.673C386.756 374.003 387.304 374.347 387.822 374.661C393.198 377.953 398.873 381.182 403.089 386.417C405.691 389.63 407.604 393.518 409.062 397.703C408.795 397.499 408.497 397.295 408.215 397.092C403.089 393.361 397.525 390.383 391.756 388.11C399.892 408.628 409.25 460.873 409.25 460.873C409.265 460.873 438.719 416.748 450.946 393.769C448.595 395.289 446.275 396.857 443.955 398.424C440.992 400.43 437.967 402.437 434.957 404.381C435.521 403.628 436.117 402.876 436.728 402.186C438.233 400.462 439.864 398.879 441.368 397.139C443.061 395.179 444.613 392.954 446.212 390.79C450.037 385.586 454.097 380.664 458.345 376.197C463.22 362.058 465.32 347.998 465.728 333.107C465.461 333.593 465.195 334.047 464.913 334.518C463.173 337.59 461.37 340.678 459.316 343.295C457.341 345.819 455.1 347.935 452.905 350.02C450.131 352.653 447.341 355.365 444.691 358.234C447.215 353.265 449.88 348.421 452.717 343.828Z" fill="url(#paint9_linear)"/>
<path d="M425.662 392.938C426.116 385.477 426.195 381.73 426.085 374.269C428.546 369.441 431.117 364.613 433.735 359.864C436.493 354.848 439.362 349.769 442.168 344.722C444.974 339.675 447.78 334.549 450.538 329.392C453.297 324.25 456.009 319.015 458.721 313.827C455.852 318.843 452.999 323.906 450.099 328.89C447.2 333.891 444.253 338.875 441.321 343.781C438.374 348.703 435.38 353.672 432.48 358.578C430.286 362.293 428.107 366.071 425.991 369.88C425.709 361.071 425.364 356.65 424.298 347.888C426.931 343.248 429.361 338.358 431.43 333.232C433.546 328.012 435.365 322.432 436.838 316.695C438.312 310.958 439.409 304.955 440.13 298.81C440.851 292.65 441.196 286.302 440.976 279.797C441.008 286.239 440.475 292.509 439.597 298.544C438.719 304.594 437.45 310.457 435.835 316.053C434.22 321.648 432.261 327.056 430.035 332.104C428.185 336.32 426.069 340.364 423.812 344.205C422.903 337.511 422.323 334.188 420.959 327.558C421.069 327.605 421.132 327.621 421.241 327.668C422.009 322.714 422.574 317.667 422.84 312.557C423.107 307.447 423.232 302.149 422.919 296.96C422.276 286.113 420.693 275.768 418.482 264.952C420.316 275.721 421.57 286.019 421.837 296.772C421.962 301.882 421.68 307.102 421.241 312.118C420.928 315.708 420.473 319.235 419.893 322.714C416.115 307.51 411.366 293.073 405.409 278.59C411.021 293.293 415.394 307.949 418.78 323.326C413.968 316.523 409.218 309.61 404.296 302.917C398.653 295.268 392.759 287.806 386.693 280.423C392.509 288.057 398.12 295.769 403.513 303.669C406.224 307.635 408.826 311.726 411.476 315.802C414.109 319.877 416.727 324.015 419.454 328.091C419.533 328.012 419.564 327.965 419.642 327.887C420.693 333.781 421.132 336.743 421.821 342.668C419.501 338.797 417.009 335.113 414.313 331.696C410.723 327.103 406.867 322.824 402.823 318.952C398.763 315.096 394.515 311.538 390.126 308.372C385.737 305.221 381.207 302.384 376.567 300.001C381.144 302.556 385.596 305.55 389.875 308.858C394.154 312.181 398.277 315.88 402.196 319.861C406.115 323.859 409.798 328.263 413.2 332.919C416.601 337.574 419.642 342.668 422.386 347.982C423.201 356.603 423.42 360.914 423.483 369.535C421.335 365.758 418.906 362.231 416.319 359.033C412.808 354.722 408.905 350.804 404.861 347.34C400.832 343.891 396.553 340.803 392.195 338.091C387.837 335.38 383.339 332.997 378.761 331.022C383.291 333.154 387.696 335.709 391.96 338.593C396.224 341.477 400.378 344.706 404.265 348.311C408.168 351.917 411.899 355.945 415.222 360.35C418.373 364.519 421.179 369.175 423.499 374.159C423.42 380.884 423.263 384.238 422.73 390.931C421.1 388.188 419.298 385.586 417.338 383.266C414.517 379.912 411.413 376.887 408.168 374.238C404.923 371.589 401.506 369.237 397.995 367.184C394.484 365.131 390.878 363.328 387.179 361.87C390.816 363.5 394.343 365.491 397.744 367.701C401.146 369.927 404.437 372.451 407.541 375.241C410.645 378.031 413.576 381.213 416.194 384.63C418.545 387.702 420.599 391.167 422.354 394.819C417.746 434.241 405.425 469.948 384.734 503.838C386.85 505.154 387.916 505.813 390.032 507.129C410.081 472.3 421.712 435.84 425.427 395.838C431.462 391.856 437.058 386.793 442.215 381.103C447.78 374.959 453.046 367.717 457.091 360.444C452.796 367.372 447.309 374.238 441.572 379.99C436.634 385.053 431.289 389.474 425.662 392.938Z" fill="#5148FF"/>
<path d="M34.2661 346.462C32.4321 343.515 30.4727 340.709 28.7641 337.606C27.5728 335.458 26.5069 333.201 25.5507 330.818C26.162 324.878 27.6982 318.514 29.9084 312.965C30.0808 313.357 30.2533 313.748 30.4414 314.109C33.6548 320.238 37.6206 326.445 40.5832 332.652C40.9751 333.467 41.32 334.361 41.6805 335.254C40.8184 330.473 39.6741 325.834 38.2163 321.429C36.6174 316.648 34.6423 312.165 33.7175 306.898C33.6078 306.303 33.5294 305.691 33.4824 305.096C37.4795 297.854 42.8405 291.38 50.1452 287.352C50.0511 291.443 49.7533 295.644 49.5495 299.719C49.3771 303.105 49.2673 306.522 49.0009 309.908C51.164 302.071 52.4651 294.014 53.2645 285.925C56.8855 284.562 60.2243 284.186 63.1086 284.311C62.8578 287.524 62.4973 290.753 62.0584 293.967C63.2653 290.863 64.441 287.712 65.5539 284.546C70.6797 285.267 73.8148 287.289 73.8148 287.289C74.771 287.791 77.0125 289.39 79.599 291.866C77.4044 295.017 75.6018 298.497 74.1597 302.118C76.5893 299.218 79.3011 296.694 82.2011 294.578C84.0037 296.6 85.8377 298.967 87.4836 301.647C82.2481 305.629 78.8309 310.676 75.4764 316.194C77.232 314.281 79.1287 312.526 81.1038 310.99C83.8156 308.889 86.7155 307.165 89.6468 305.582C92.2489 310.535 93.738 317.448 93.1581 323.012C92.2803 323.545 91.3711 324.062 90.4933 324.548C86.0258 327.072 81.3232 329.611 77.6866 333.703C76.0877 335.505 74.7083 337.606 73.4386 339.753C73.3759 339.878 73.3132 339.988 73.2348 340.098C77.0439 336.273 82.4989 332.793 87.4679 330.834C88.9884 330.238 90.556 329.674 92.1548 329.298C91.0889 334.314 89.976 338.985 88.8317 343.405C88.2204 343.687 87.5933 343.954 86.9663 344.236C80.3514 347.214 74.0813 351.588 70.0684 357.638C69.9273 357.858 69.7549 358.108 69.6138 358.343C73.3759 354.879 77.185 351.556 81.6368 349.675C83.5648 348.86 85.5556 348.312 87.5933 347.92C85.6183 354.534 83.5021 361.024 81.1822 367.529C80.8216 367.764 80.4298 367.999 80.0692 368.219C76.2758 370.538 72.2629 372.827 69.2846 376.526C67.4506 378.799 66.0869 381.542 65.068 384.489C65.2561 384.348 65.4756 384.207 65.6637 384.066C69.2846 381.433 73.2191 379.332 77.279 377.718C71.5419 392.201 64.9269 429.1 64.9269 429.1C64.9112 429.1 44.1102 397.938 35.4888 381.715C37.1504 382.781 38.7963 383.893 40.4265 385.006C42.5113 386.433 44.6431 387.828 46.775 389.207C46.3674 388.674 45.9599 388.157 45.521 387.655C44.455 386.433 43.3107 385.32 42.2448 384.082C41.0378 382.702 39.9562 381.135 38.8276 379.599C36.1158 375.915 33.2629 372.451 30.2689 369.3C26.836 359.315 25.3469 349.393 25.0647 338.875C25.2528 339.22 25.441 339.534 25.6291 339.878C26.8517 342.057 28.1214 344.236 29.5792 346.086C30.9743 347.873 32.5575 349.362 34.1094 350.835C36.0688 352.7 38.0439 354.597 39.9092 356.635C38.1379 353.124 36.2726 349.691 34.2661 346.462Z" fill="url(#paint10_linear)"/>
<path d="M53.3586 381.135C53.0451 375.868 52.9824 373.234 53.0608 367.952C51.3208 364.535 49.5181 361.133 47.6528 357.779C45.6934 354.236 43.687 350.663 41.6962 347.089C39.7211 343.531 37.7304 339.91 35.7866 336.273C33.8429 332.636 31.9305 328.953 30.0024 325.285C32.0246 328.828 34.0467 332.401 36.0845 335.928C38.1379 339.455 40.207 342.966 42.2919 346.446C44.3767 349.926 46.4771 353.437 48.5306 356.901C50.0825 359.519 51.6186 362.199 53.1235 364.88C53.3272 358.657 53.5624 355.537 54.3148 349.362C52.4494 346.086 50.7408 342.637 49.2673 339.016C47.7782 335.333 46.4928 331.398 45.4426 327.338C44.408 323.279 43.6243 319.046 43.1226 314.704C42.621 310.362 42.3702 305.879 42.527 301.287C42.5113 305.848 42.8718 310.253 43.4988 314.532C44.1259 318.796 45.0037 322.949 46.148 326.899C47.2923 330.85 48.6717 334.674 50.2392 338.232C51.5559 341.211 53.0294 344.063 54.6283 346.775C55.271 342.057 55.6785 339.706 56.6347 335.019C56.5563 335.05 56.5093 335.066 56.4309 335.097C55.898 331.602 55.4904 328.044 55.3023 324.423C55.1142 320.818 55.0202 317.071 55.2396 313.419C55.6942 305.77 56.8228 298.45 58.3747 290.816C57.0736 298.418 56.1958 305.691 56.0077 313.278C55.9137 316.883 56.1174 320.567 56.4309 324.109C56.6504 326.633 56.9796 329.141 57.3871 331.586C60.0519 320.849 63.4064 310.66 67.6074 300.44C63.6572 310.833 60.5535 321.162 58.1709 332.025C61.5724 327.213 64.9269 322.338 68.4068 317.62C72.3884 312.212 76.558 306.945 80.8373 301.726C76.7304 307.118 72.7646 312.557 68.9711 318.137C67.0588 320.927 65.2248 323.827 63.3594 326.711C61.494 329.596 59.66 332.511 57.7163 335.38C57.6693 335.317 57.6379 335.286 57.5752 335.239C56.8385 339.408 56.525 341.493 56.0391 345.678C57.6693 342.951 59.4406 340.349 61.3373 337.935C63.8767 334.69 66.5885 331.665 69.4571 328.937C72.3257 326.21 75.3196 323.702 78.4233 321.476C81.527 319.25 84.7248 317.259 88.0009 315.567C84.7718 317.369 81.6368 319.485 78.6114 321.821C75.5861 324.156 72.6705 326.774 69.9117 329.596C67.1528 332.417 64.5507 335.521 62.1367 338.812C59.7384 342.104 57.5909 345.694 55.6472 349.456C55.0672 355.537 54.9104 358.594 54.8791 364.676C56.3996 362.011 58.1082 359.519 59.9422 357.262C62.4189 354.221 65.1777 351.446 68.0306 349.017C70.8835 346.571 73.8932 344.408 76.9812 342.48C80.0536 340.568 83.2356 338.875 86.4647 337.496C83.267 339 80.1633 340.803 77.1536 342.841C74.144 344.879 71.2127 347.167 68.4695 349.706C65.7107 352.246 63.0773 355.099 60.7416 358.202C58.5157 361.149 56.5407 364.425 54.9104 367.952C54.9731 372.701 55.0672 375.068 55.4591 379.802C56.619 377.859 57.8887 376.04 59.2682 374.394C61.2589 372.027 63.4535 369.88 65.742 368.015C68.0306 366.149 70.4446 364.488 72.9213 363.03C75.398 361.572 77.9374 360.303 80.5552 359.268C77.9844 360.428 75.4921 361.823 73.0937 363.391C70.6954 364.958 68.3598 366.745 66.1653 368.72C63.9707 370.695 61.9016 372.937 60.0519 375.351C58.3903 377.529 56.9325 379.959 55.6942 382.545C58.9547 410.384 67.6544 435.589 82.2481 459.525C80.7589 460.449 80.0065 460.92 78.5017 461.845C64.347 437.251 56.1331 411.512 53.5153 383.266C49.2517 380.445 45.3015 376.887 41.6648 372.858C37.746 368.516 34.0153 363.406 31.1624 358.281C34.1877 363.171 38.0752 368.015 42.1194 372.074C45.615 375.57 49.3927 378.689 53.3586 381.135Z" fill="#5148FF"/>
<path d="M519.901 380.68C522.629 378.439 525.435 376.385 528.115 373.971C529.965 372.31 531.736 370.476 533.429 368.501C534.793 362.591 535.404 355.945 535.106 349.895C534.824 350.224 534.511 350.537 534.213 350.819C529.103 355.663 523.256 360.334 518.35 365.334C517.707 365.993 517.08 366.729 516.437 367.482C518.835 363.156 521.469 359.08 524.322 355.334C527.425 351.258 530.811 347.59 533.429 342.841C533.727 342.308 534.009 341.744 534.26 341.179C532.802 332.887 529.777 324.909 524.071 318.623C522.817 322.605 521.72 326.727 520.575 330.724C519.619 334.032 518.6 337.355 517.754 340.709C518.255 332.448 519.651 324.282 521.547 316.241C518.506 313.733 515.418 312.275 512.612 311.444C511.797 314.61 511.076 317.855 510.434 321.084C510.292 317.698 510.198 314.281 510.167 310.88C504.994 309.892 501.311 310.801 501.311 310.801C500.213 310.974 497.548 311.773 494.241 313.309C495.323 317.056 495.903 321.006 496.106 324.956C494.711 321.366 492.94 318.043 490.855 315.049C488.457 316.397 485.917 318.075 483.441 320.112C487.171 325.661 488.802 331.633 490.212 338.06C489.162 335.63 487.908 333.326 486.497 331.194C484.569 328.279 482.359 325.677 480.055 323.185C475.917 327.088 472.217 333.248 470.932 338.797C471.59 339.596 472.296 340.396 472.985 341.148C476.465 345.051 480.149 349.033 482.296 354.158C483.253 356.431 483.88 358.892 484.381 361.384C484.413 361.525 484.428 361.651 484.475 361.776C482.061 356.839 477.97 351.713 473.832 348.186C472.562 347.104 471.23 346.054 469.835 345.176C469.223 350.349 468.737 355.208 468.408 359.832C468.91 360.303 469.411 360.773 469.929 361.243C475.305 366.275 479.914 372.56 481.779 379.693C481.842 379.959 481.92 380.257 481.983 380.523C479.506 375.946 476.92 371.51 473.267 368.234C471.684 366.808 469.944 365.632 468.11 364.582C467.828 371.589 467.734 378.533 467.828 385.555C468.11 385.9 468.392 386.26 468.675 386.59C471.559 390.069 474.663 393.58 476.324 398.126C477.343 400.916 477.751 404.004 477.751 407.186C477.61 406.982 477.468 406.779 477.327 406.575C474.71 402.844 471.622 399.537 468.236 396.653C468.988 412.484 463.22 450.151 463.22 450.151C463.235 450.151 493.489 427.015 507.126 414.24C505.167 414.726 503.239 415.259 501.295 415.792C498.818 416.466 496.294 417.124 493.802 417.751C494.366 417.375 494.946 416.999 495.511 416.67C496.937 415.854 498.411 415.149 499.837 414.318C501.452 413.378 503.019 412.234 504.602 411.136C508.411 408.487 512.315 406.089 516.233 404.036C522.833 395.556 527.52 386.495 531.25 376.479C530.952 376.746 530.67 376.981 530.372 377.247C528.476 378.94 526.532 380.617 524.541 381.918C522.613 383.172 520.591 384.082 518.616 384.991C516.124 386.135 513.6 387.326 511.139 388.659C513.976 385.821 516.907 383.141 519.901 380.68Z" fill="url(#paint11_linear)"/>
<path d="M490.118 407.766C492.156 402.797 493.081 400.289 494.743 395.179C497.533 392.468 500.401 389.787 503.286 387.17C506.327 384.411 509.446 381.621 512.534 378.831C515.606 376.056 518.71 373.219 521.782 370.366C524.855 367.513 527.912 364.582 530.953 361.698C527.833 364.441 524.729 367.215 521.594 369.927C518.459 372.655 515.309 375.351 512.174 378C509.023 380.664 505.841 383.345 502.721 386.01C500.37 388.016 498.019 390.085 495.683 392.186C497.533 386.135 498.332 383.063 499.649 376.856C502.518 374.316 505.308 371.557 507.91 368.564C510.559 365.507 513.098 362.137 515.418 358.579C517.754 355.02 519.886 351.196 521.798 347.183C523.711 343.17 525.419 338.938 526.783 334.471C525.309 338.86 523.491 342.982 521.485 346.885C519.478 350.788 517.268 354.487 514.87 357.905C512.471 361.337 509.885 364.551 507.204 367.466C504.963 369.896 502.596 372.153 500.166 374.238C501.107 369.488 501.483 367.09 502.094 362.262C502.157 362.325 502.188 362.341 502.267 362.403C503.928 359.221 505.496 355.914 506.86 352.497C508.223 349.08 509.54 345.506 510.543 341.916C512.628 334.408 513.945 326.994 514.964 319.141C513.71 326.884 512.174 334.173 509.854 341.54C508.756 345.051 507.346 348.515 505.888 351.823C504.838 354.19 503.709 356.478 502.518 358.704C503.474 347.496 503.599 336.587 502.925 325.364C503.317 336.665 502.894 347.622 501.608 358.861C499.915 353.124 498.301 347.324 496.498 341.634C494.445 335.129 492.172 328.687 489.774 322.26C491.952 328.796 493.975 335.333 495.793 341.948C496.702 345.271 497.533 348.656 498.379 352.042C499.226 355.428 500.041 358.829 500.95 362.247C501.013 362.215 501.06 362.184 501.122 362.152C500.464 366.4 500.072 368.516 499.179 372.702C498.505 369.535 497.658 366.447 496.639 363.501C495.26 359.55 493.645 355.741 491.78 352.183C489.915 348.625 487.861 345.224 485.62 342.057C483.378 338.891 480.948 335.928 478.346 333.217C480.87 336.022 483.19 339.079 485.322 342.324C487.469 345.568 489.397 349.048 491.137 352.669C492.862 356.29 494.351 360.13 495.589 364.096C496.827 368.046 497.705 372.216 498.332 376.464C496.89 382.498 496.028 385.492 494.069 391.37C493.489 388.298 492.658 385.351 491.639 382.577C490.26 378.831 488.504 375.272 486.576 371.981C484.632 368.705 482.453 365.617 480.118 362.748C477.782 359.895 475.29 357.231 472.625 354.832C475.211 357.34 477.61 360.099 479.835 363.046C482.061 365.993 484.13 369.159 485.933 372.498C487.736 375.852 489.35 379.458 490.573 383.22C491.733 386.778 492.579 390.587 492.987 394.521C491.372 399.067 490.495 401.308 488.567 405.744C488.096 403.503 487.469 401.324 486.686 399.286C485.557 396.355 484.146 393.565 482.547 391.026C480.948 388.471 479.177 386.088 477.28 383.862C475.384 381.652 473.346 379.583 471.167 377.733C473.252 379.693 475.196 381.856 476.998 384.16C478.801 386.464 480.447 388.941 481.905 391.559C483.362 394.176 484.616 397.013 485.604 399.96C486.482 402.594 487.077 405.415 487.422 408.315C475.133 434.022 458.47 455.418 436.556 473.648C437.685 475.027 438.265 475.733 439.393 477.112C461.104 458.098 477.469 436.044 489.288 409.726C494.304 408.425 499.288 406.277 504.116 403.613C509.321 400.728 514.588 397.029 519.024 393.032C514.493 396.747 509.18 400.133 503.944 402.703C499.398 404.945 494.743 406.716 490.118 407.766Z" fill="#5148FF"/>
<path d="M126.734 383.799C124.007 381.558 121.201 379.504 118.521 377.09C116.671 375.429 114.9 373.595 113.207 371.62C111.843 365.71 111.232 359.064 111.529 353.014C111.812 353.343 112.125 353.656 112.423 353.939C117.533 358.782 123.38 363.453 128.286 368.454C128.929 369.112 129.556 369.849 130.199 370.601C127.8 366.275 125.167 362.199 122.314 358.453C119.21 354.377 115.824 350.71 113.207 345.96C112.909 345.427 112.627 344.863 112.376 344.299C113.834 336.007 116.859 328.028 122.565 321.742C123.819 325.724 124.916 329.846 126.06 333.843C127.017 337.151 128.036 340.474 128.882 343.828C128.38 335.568 126.985 327.401 125.089 319.36C128.13 316.852 131.218 315.394 134.023 314.563C134.839 317.73 135.56 320.974 136.202 324.203C136.343 320.818 136.437 317.4 136.469 313.999C141.642 313.011 145.325 313.921 145.325 313.921C146.423 314.093 149.087 314.892 152.395 316.429C151.313 320.175 150.733 324.125 150.53 328.075C151.925 324.485 153.696 321.162 155.781 318.168C158.179 319.517 160.734 321.194 163.195 323.232C159.464 328.78 157.834 334.753 156.423 341.179C157.474 338.75 158.728 336.445 160.138 334.314C162.067 331.398 164.277 328.796 166.581 326.304C170.719 330.207 174.419 336.367 175.704 341.916C175.046 342.715 174.34 343.515 173.651 344.267C170.171 348.17 166.487 352.152 164.339 357.277C163.399 359.55 162.756 362.011 162.255 364.503C162.223 364.645 162.208 364.77 162.161 364.895C164.575 359.958 168.666 354.832 172.804 351.305C174.074 350.224 175.406 349.173 176.801 348.296C177.413 353.468 177.899 358.328 178.228 362.952C177.726 363.422 177.225 363.892 176.707 364.362C171.331 369.394 166.722 375.68 164.857 382.812C164.794 383.078 164.716 383.376 164.653 383.642C167.13 379.065 169.716 374.629 173.368 371.353C174.952 369.927 176.692 368.751 178.526 367.701C178.808 374.708 178.902 381.652 178.808 388.674C178.526 389.019 178.243 389.379 177.961 389.709C175.077 393.188 171.973 396.7 170.312 401.245C169.293 404.035 168.885 407.123 168.885 410.305C169.026 410.102 169.167 409.898 169.308 409.694C171.926 405.963 175.014 402.656 178.4 399.772C177.648 415.604 183.416 453.27 183.416 453.27C183.401 453.27 153.147 430.134 139.51 417.359C141.469 417.845 143.397 418.378 145.341 418.911C147.818 419.585 150.341 420.243 152.834 420.87C152.269 420.494 151.69 420.118 151.125 419.789C149.699 418.974 148.225 418.268 146.799 417.437C145.184 416.497 143.617 415.353 142.034 414.256C138.224 411.606 134.321 409.208 130.402 407.155C123.803 398.675 119.116 389.615 115.386 379.598C115.683 379.865 115.966 380.1 116.263 380.366C118.16 382.059 120.104 383.737 122.095 385.038C124.023 386.292 126.045 387.201 128.02 388.11C130.512 389.254 133.036 390.445 135.497 391.778C132.66 388.941 129.728 386.245 126.734 383.799Z" fill="url(#paint12_linear)"/>
<path d="M156.517 410.87C154.48 405.901 153.555 403.393 151.893 398.283C149.103 395.571 146.235 392.891 143.35 390.273C140.309 387.514 137.19 384.724 134.102 381.934C131.03 379.16 127.926 376.322 124.853 373.47C121.781 370.617 118.724 367.686 115.683 364.801C118.803 367.545 121.906 370.319 125.042 373.031C128.177 375.758 131.327 378.454 134.462 381.103C137.613 383.768 140.795 386.448 143.915 389.113C146.266 391.12 148.617 393.189 150.953 395.289C149.103 389.239 148.304 386.166 146.987 379.959C144.118 377.42 141.328 374.661 138.726 371.667C136.077 368.61 133.538 365.24 131.218 361.682C128.882 358.124 126.75 354.299 124.838 350.286C122.925 346.274 121.217 342.042 119.853 337.574C121.327 341.963 123.145 346.086 125.151 349.989C127.158 353.892 129.368 357.591 131.766 361.008C134.165 364.441 136.751 367.654 139.431 370.57C141.673 372.999 144.04 375.257 146.47 377.341C145.529 372.592 145.153 370.194 144.542 365.366C144.479 365.428 144.448 365.444 144.369 365.507C142.708 362.325 141.14 359.017 139.776 355.6C138.413 352.183 137.096 348.609 136.093 345.02C134.008 337.511 132.691 330.097 131.672 322.244C132.926 329.988 134.462 337.276 136.782 344.644C137.88 348.155 139.29 351.619 140.748 354.926C141.798 357.293 142.927 359.582 144.118 361.808C143.162 350.6 143.037 339.69 143.711 328.467C143.319 339.769 143.742 350.725 145.028 361.964C146.72 356.227 148.335 350.428 150.138 344.738C152.191 338.233 154.464 331.79 156.862 325.363C154.683 331.9 152.661 338.436 150.843 345.051C149.934 348.374 149.103 351.76 148.257 355.146C147.41 358.531 146.595 361.933 145.686 365.35C145.623 365.319 145.576 365.287 145.513 365.256C146.172 369.504 146.564 371.62 147.457 375.805C148.131 372.639 148.978 369.551 149.997 366.604C151.376 362.654 152.991 358.845 154.84 355.287C156.706 351.729 158.759 348.327 161.001 345.161C163.242 341.994 165.672 339.032 168.274 336.32C165.75 339.126 163.43 342.183 161.298 345.427C159.151 348.672 157.223 352.152 155.483 355.773C153.759 359.394 152.269 363.234 151.031 367.2C149.793 371.15 148.915 375.319 148.288 379.567C149.73 385.602 150.592 388.596 152.552 394.474C153.132 391.402 153.962 388.455 154.981 385.68C156.361 381.934 158.116 378.376 160.044 375.084C161.988 371.808 164.167 368.72 166.503 365.852C168.838 362.999 171.331 360.334 173.995 357.936C171.409 360.444 169.011 363.203 166.785 366.149C164.559 369.096 162.49 372.263 160.687 375.601C158.869 378.956 157.27 382.561 156.047 386.323C154.887 389.881 154.041 393.69 153.633 397.625C155.248 402.17 156.126 404.412 158.054 408.848C158.524 406.606 159.151 404.428 159.935 402.39C161.063 399.459 162.474 396.684 164.073 394.129C165.672 391.574 167.443 389.192 169.34 386.966C171.237 384.756 173.274 382.686 175.453 380.837C173.368 382.796 171.425 384.959 169.622 387.264C167.819 389.568 166.173 392.044 164.716 394.662C163.258 397.28 162.004 400.117 161.016 403.048C160.138 405.682 159.543 408.503 159.198 411.403C171.487 437.11 188.15 458.506 210.064 476.736C208.936 478.131 208.356 478.82 207.227 480.2C185.517 461.186 169.152 439.132 157.333 412.814C152.317 411.513 147.332 409.365 142.504 406.7C137.3 403.816 132.033 400.117 127.597 396.12C132.127 399.835 137.441 403.221 142.676 405.791C147.238 408.064 151.893 409.82 156.517 410.87Z" fill="#5148FF"/>
<path d="M241.728 432.47C239.001 430.228 236.195 428.175 233.514 425.761C231.665 424.099 229.893 422.266 228.2 420.29C226.837 414.381 226.225 407.735 226.523 401.684C226.805 402.014 227.119 402.327 227.417 402.609C232.527 407.453 238.374 412.124 243.28 417.124C243.923 417.782 244.55 418.519 245.192 419.272C242.794 414.945 240.161 410.87 237.308 407.124C234.204 403.048 230.818 399.38 228.2 394.631C227.903 394.098 227.62 393.533 227.37 392.969C228.827 384.677 231.853 376.699 237.559 370.413C238.813 374.394 239.91 378.517 241.054 382.514C242.01 385.821 243.029 389.145 243.876 392.499C243.374 384.238 241.979 376.072 240.082 368.03C243.123 365.522 246.211 364.065 249.017 363.234C249.832 366.4 250.553 369.645 251.196 372.874C251.337 369.488 251.431 366.071 251.463 362.67C256.635 361.682 260.319 362.591 260.319 362.591C261.416 362.764 264.081 363.563 267.389 365.099C266.307 368.846 265.727 372.796 265.523 376.746C266.918 373.156 268.69 369.833 270.774 366.839C273.173 368.187 275.712 369.864 278.189 371.902C274.458 377.451 272.828 383.423 271.417 389.85C272.467 387.42 273.721 385.116 275.132 382.984C277.06 380.069 279.27 377.467 281.575 374.974C285.713 378.877 289.412 385.038 290.698 390.587C290.039 391.386 289.334 392.185 288.644 392.938C285.164 396.841 281.481 400.822 279.333 405.948C278.393 408.221 277.75 410.682 277.248 413.174C277.217 413.315 277.201 413.441 277.154 413.566C279.568 408.628 283.66 403.503 287.798 399.976C289.067 398.894 290.4 397.844 291.795 396.966C292.406 402.139 292.892 406.998 293.221 411.622C292.72 412.093 292.218 412.563 291.701 413.033C286.324 418.065 281.716 424.35 279.85 431.482C279.788 431.749 279.709 432.047 279.647 432.313C282.123 427.736 284.71 423.3 288.362 420.024C289.945 418.598 291.685 417.422 293.519 416.372C293.801 423.378 293.895 430.322 293.801 437.345C293.519 437.69 293.237 438.05 292.955 438.379C290.071 441.859 286.967 445.37 285.305 449.916C284.287 452.706 283.879 455.794 283.879 458.976C284.02 458.772 284.161 458.569 284.302 458.365C286.92 454.634 290.008 451.327 293.394 448.443C292.641 464.274 298.41 501.941 298.41 501.941C298.394 501.941 268.141 478.805 254.504 466.03C256.463 466.516 258.391 467.049 260.335 467.582C262.811 468.256 265.335 468.914 267.827 469.541C267.263 469.165 266.683 468.789 266.119 468.459C264.692 467.644 263.219 466.939 261.793 466.108C260.178 465.168 258.61 464.023 257.027 462.926C253.218 460.277 249.315 457.879 245.396 455.825C238.797 447.345 234.11 438.285 230.379 428.269C230.677 428.535 230.959 428.771 231.257 429.037C233.154 430.73 235.098 432.407 237.088 433.708C239.016 434.962 241.038 435.871 243.014 436.78C245.506 437.925 248.03 439.116 250.491 440.448C247.653 437.611 244.722 434.931 241.728 432.47Z" fill="url(#paint13_linear)"/>
<path d="M271.496 459.556C269.458 454.587 268.533 452.079 266.871 446.969C264.081 444.257 261.213 441.577 258.328 438.959C255.287 436.201 252.168 433.41 249.08 430.62C246.008 427.846 242.904 425.009 239.832 422.156C236.759 419.303 233.702 416.372 230.661 413.488C233.781 416.231 236.885 419.005 240.02 421.717C243.155 424.444 246.305 427.141 249.44 429.79C252.591 432.454 255.773 435.135 258.893 437.799C261.244 439.806 263.595 441.875 265.931 443.975C264.081 437.925 263.282 434.853 261.965 428.645C259.096 426.106 256.306 423.347 253.704 420.353C251.055 417.297 248.516 413.927 246.196 410.368C243.86 406.81 241.728 402.986 239.816 398.973C237.903 394.96 236.195 390.728 234.831 386.26C236.305 390.649 238.123 394.772 240.129 398.675C242.136 402.578 244.346 406.277 246.744 409.694C249.143 413.127 251.729 416.341 254.409 419.256C256.651 421.686 259.018 423.943 261.448 426.028C260.507 421.278 260.131 418.88 259.52 414.052C259.457 414.115 259.426 414.13 259.347 414.193C257.686 411.011 256.118 407.704 254.754 404.287C253.391 400.869 252.074 397.296 251.071 393.706C248.986 386.198 247.669 378.784 246.65 370.93C247.904 378.674 249.44 385.963 251.76 393.33C252.858 396.841 254.268 400.305 255.726 403.613C256.776 405.979 257.905 408.268 259.096 410.494C258.14 399.286 258.015 388.377 258.689 377.153C258.297 388.455 258.72 399.412 260.006 410.651C261.698 404.914 263.313 399.114 265.116 393.424C267.169 386.919 269.442 380.476 271.84 374.05C269.662 380.586 267.639 387.123 265.821 393.737C264.896 397.06 264.081 400.446 263.235 403.832C262.388 407.218 261.573 410.619 260.664 414.036C260.601 414.005 260.554 413.974 260.491 413.942C261.15 418.19 261.542 420.306 262.435 424.491C263.109 421.325 263.956 418.237 264.975 415.29C266.354 411.34 267.969 407.531 269.834 403.973C271.699 400.415 273.753 397.013 275.994 393.847C278.236 390.681 280.666 387.718 283.268 385.006C280.744 387.812 278.424 390.869 276.292 394.114C274.145 397.358 272.217 400.838 270.477 404.459C268.752 408.08 267.263 411.92 266.025 415.886C264.787 419.836 263.909 424.006 263.282 428.253C264.724 434.288 265.586 437.282 267.545 443.16C268.125 440.088 268.956 437.141 269.975 434.367C271.354 430.62 273.11 427.062 275.038 423.77C276.982 420.494 279.161 417.406 281.496 414.538C283.832 411.685 286.324 409.02 288.989 406.622C286.403 409.13 284.004 411.889 281.778 414.836C279.553 417.783 277.483 420.949 275.681 424.288C273.878 427.642 272.264 431.247 271.041 435.009C269.881 438.567 269.035 442.377 268.627 446.311C270.241 450.857 271.119 453.098 273.047 457.534C273.518 455.293 274.145 453.114 274.928 451.076C276.057 448.145 277.468 445.37 279.067 442.815C280.666 440.26 282.437 437.878 284.334 435.652C286.23 433.442 288.268 431.373 290.447 429.523C288.362 431.482 286.418 433.646 284.616 435.95C282.813 438.254 281.167 440.731 279.709 443.348C278.252 445.966 276.998 448.803 276.01 451.734C275.132 454.368 274.537 457.189 274.192 460.089C286.481 485.796 303.144 507.192 325.058 525.422C323.929 526.817 323.349 527.507 322.221 528.886C300.51 509.872 284.145 487.818 272.326 461.5C267.31 460.199 262.326 458.051 257.498 455.387C252.293 452.502 247.026 448.803 242.59 444.806C247.12 448.521 252.434 451.907 257.67 454.477C262.216 456.75 266.887 458.506 271.496 459.556Z" fill="#5148FF"/>
<path d="M615.348 382.765C618.561 380.131 621.869 377.717 625.02 374.865C627.199 372.905 629.283 370.758 631.274 368.422C632.889 361.478 633.61 353.657 633.249 346.524C632.904 346.901 632.559 347.277 632.199 347.606C626.18 353.312 619.298 358.798 613.545 364.676C612.793 365.444 612.041 366.322 611.304 367.2C614.125 362.121 617.213 357.309 620.584 352.904C624.236 348.108 628.217 343.797 631.29 338.201C631.635 337.574 631.964 336.916 632.262 336.257C630.537 326.508 626.979 317.118 620.27 309.72C618.797 314.391 617.496 319.25 616.147 323.953C615.035 327.856 613.828 331.759 612.84 335.693C613.436 325.975 615.082 316.366 617.307 306.898C613.733 303.951 610.097 302.243 606.805 301.255C605.849 304.986 605.002 308.795 604.25 312.588C604.093 308.607 603.968 304.594 603.936 300.581C597.854 299.421 593.512 300.503 593.512 300.503C592.227 300.691 589.092 301.632 585.189 303.45C586.459 307.854 587.148 312.51 587.383 317.165C585.753 312.949 583.668 309.03 581.192 305.519C578.37 307.102 575.376 309.077 572.476 311.475C576.865 317.996 578.778 325.034 580.439 332.589C579.201 329.737 577.727 327.025 576.066 324.517C573.793 321.1 571.191 318.027 568.479 315.096C563.62 319.689 559.262 326.931 557.757 333.467C558.541 334.408 559.372 335.333 560.171 336.242C564.262 340.834 568.604 345.521 571.128 351.556C572.241 354.221 572.993 357.121 573.589 360.052C573.62 360.224 573.652 360.365 573.699 360.522C570.862 354.722 566.049 348.672 561.174 344.534C559.685 343.264 558.118 342.026 556.472 340.991C555.751 347.073 555.186 352.794 554.779 358.249C555.374 358.798 555.954 359.346 556.566 359.911C562.899 365.836 568.322 373.219 570.517 381.62C570.595 381.934 570.689 382.279 570.768 382.592C567.852 377.216 564.811 371.98 560.516 368.14C558.651 366.463 556.597 365.068 554.45 363.845C554.12 372.09 554.011 380.257 554.12 388.517C554.45 388.925 554.795 389.348 555.124 389.74C558.525 393.847 562.178 397.969 564.121 403.315C565.313 406.591 565.799 410.227 565.799 413.958C565.642 413.723 565.454 413.472 565.297 413.237C562.225 408.848 558.572 404.96 554.606 401.559C555.5 420.181 548.712 464.494 548.712 464.494C548.728 464.494 584.327 437.282 600.362 422.25C598.058 422.814 595.785 423.441 593.512 424.068C590.597 424.867 587.634 425.636 584.703 426.372C585.361 425.933 586.035 425.494 586.709 425.103C588.387 424.131 590.111 423.316 591.804 422.328C593.7 421.215 595.55 419.867 597.4 418.582C601.883 415.463 606.46 412.641 611.084 410.227C618.844 400.258 624.361 389.599 628.75 377.811C628.405 378.125 628.061 378.407 627.716 378.721C625.49 380.711 623.201 382.686 620.85 384.207C618.577 385.68 616.21 386.762 613.89 387.828C610.959 389.176 607.981 390.571 605.096 392.138C608.373 388.815 611.821 385.649 615.348 382.765Z" fill="url(#paint14_linear)"/>
<path d="M580.314 414.632C582.712 408.785 583.794 405.823 585.753 399.835C589.045 396.637 592.415 393.486 595.801 390.414C599.375 387.169 603.043 383.893 606.68 380.602C610.301 377.326 613.953 374.003 617.558 370.632C621.164 367.278 624.753 363.83 628.358 360.428C624.69 363.657 621.038 366.917 617.354 370.115C613.671 373.313 609.956 376.495 606.256 379.614C602.557 382.749 598.811 385.9 595.143 389.035C592.368 391.402 589.594 393.831 586.866 396.292C589.045 389.16 589.985 385.555 591.522 378.25C594.892 375.256 598.168 372.027 601.225 368.485C604.344 364.88 607.322 360.93 610.065 356.744C612.809 352.559 615.332 348.061 617.574 343.342C619.831 338.624 621.838 333.64 623.452 328.389C621.712 333.546 619.58 338.405 617.229 342.998C614.878 347.59 612.26 351.932 609.438 355.961C606.617 359.989 603.576 363.782 600.425 367.215C597.792 370.084 595.002 372.733 592.149 375.178C593.246 369.582 593.7 366.761 594.422 361.086C594.5 361.149 594.531 361.18 594.61 361.259C596.569 357.513 598.403 353.625 600.018 349.612C601.632 345.6 603.168 341.399 604.344 337.167C606.805 328.326 608.357 319.611 609.548 310.378C608.075 319.485 606.256 328.059 603.545 336.728C602.259 340.85 600.598 344.941 598.873 348.829C597.651 351.603 596.303 354.315 594.907 356.933C596.036 343.75 596.193 330.912 595.378 317.714C595.832 331.006 595.346 343.907 593.842 357.121C591.851 350.365 589.938 343.546 587.838 336.853C585.424 329.204 582.743 321.617 579.922 314.062C582.477 321.758 584.86 329.455 587.007 337.229C588.089 341.132 589.061 345.129 590.048 349.111C591.051 353.092 592.008 357.105 593.074 361.102C593.152 361.055 593.199 361.039 593.277 360.992C592.509 365.993 592.055 368.469 590.989 373.407C590.189 369.692 589.202 366.055 587.995 362.591C586.38 357.951 584.468 353.468 582.289 349.268C580.11 345.067 577.68 341.07 575.031 337.355C572.382 333.624 569.529 330.144 566.473 326.962C569.435 330.254 572.163 333.859 574.686 337.668C577.21 341.493 579.483 345.568 581.521 349.832C583.559 354.095 585.299 358.625 586.756 363.281C588.199 367.936 589.249 372.843 589.985 377.827C588.293 384.928 587.274 388.455 584.969 395.352C584.28 391.746 583.308 388.267 582.101 385.006C580.471 380.602 578.417 376.401 576.144 372.529C573.871 368.673 571.285 365.036 568.542 361.682C565.799 358.328 562.867 355.193 559.732 352.355C562.773 355.302 565.595 358.547 568.213 362.011C570.83 365.475 573.26 369.206 575.392 373.14C577.524 377.09 579.405 381.338 580.862 385.743C582.242 389.944 583.214 394.411 583.7 399.035C581.803 404.38 580.753 407.029 578.511 412.234C577.963 409.584 577.226 407.029 576.301 404.647C574.969 401.198 573.323 397.922 571.442 394.913C569.561 391.903 567.491 389.097 565.25 386.495C563.008 383.893 560.61 381.464 558.055 379.285C560.516 381.589 562.789 384.128 564.905 386.84C567.021 389.552 568.965 392.468 570.674 395.54C572.398 398.628 573.871 401.951 575.031 405.415C576.066 408.519 576.771 411.842 577.179 415.243C562.726 445.496 543.116 470.669 517.331 492.097C518.663 493.727 519.337 494.542 520.67 496.173C546.205 473.804 565.469 447.847 579.373 416.889C585.283 415.353 591.13 412.845 596.804 409.694C602.933 406.308 609.125 401.951 614.345 397.248C609.031 401.622 602.761 405.603 596.6 408.628C591.224 411.324 585.753 413.393 580.314 414.632Z" fill="#5148FF"/>
<path d="M495.307 498.602H447.043C447.043 472.739 430.004 447.236 417.275 425.495C416.868 424.805 416.46 424.099 416.053 423.41C405.08 404.443 390.816 386.856 386.599 364.801C385.376 358.39 385.125 351.446 388.135 345.647C391.333 339.455 397.838 335.505 404.594 333.765C484.961 313.168 501.781 420.494 495.307 498.602Z" fill="url(#paint15_linear)"/>
<path d="M474.553 498.602H472.484C472.311 487.661 471.151 476.72 469.396 465.951C467.264 452.91 464.035 440.088 459.834 427.595C451.463 402.609 438.641 379.144 421.853 358.641C420.473 356.886 421.696 355.961 423.138 357.513C441.494 376.934 455.507 400.681 463.988 426.2C468.251 438.959 471.292 452.126 472.985 465.45C474.396 476.438 475.054 487.536 474.553 498.602Z" fill="#5148FF"/>
<path d="M540.154 498.602H500.464C493.99 438.897 495.761 289.217 582.226 303.905C648.564 315.175 541.862 401.418 540.154 498.602Z" fill="url(#paint16_linear)"/>
<path d="M561.864 336.884C556.628 342.747 552.302 349.362 548.493 356.211C544.684 363.046 541.455 370.24 538.759 377.608C536.015 384.959 533.664 392.467 531.736 400.101C529.792 407.719 528.131 415.4 526.798 423.175C524.055 438.677 522.394 454.383 521.359 470.121C520.763 479.604 520.372 489.103 520.277 498.586H517.581C517.221 489.04 517.252 479.479 517.581 469.933C518.193 454.023 519.682 438.113 522.472 422.375C523.836 414.506 525.607 406.7 527.708 399.004C529.777 391.276 532.332 383.69 535.357 376.26C536.799 372.529 538.539 368.908 540.248 365.287C542.113 361.729 543.916 358.171 546.079 354.785C550.264 347.967 554.998 341.43 560.657 335.756C562.35 333.969 563.463 334.972 561.864 336.884Z" fill="#5148FF"/>
<path d="M567.147 498.602H541.941C541.941 498.602 535.294 445.495 563.823 445.543C589.782 445.558 572.445 478.366 567.147 498.602Z" fill="url(#paint17_linear)"/>
<path d="M559.638 458.647C555.892 470.591 554.309 483.1 553.415 495.561C553.368 496.564 553.305 497.599 553.258 498.602H551.064C551.095 497.52 551.158 496.47 551.22 495.404C552.145 482.802 554.246 470.168 558.87 458.349C559.262 457.424 559.952 457.706 559.638 458.647Z" fill="#5148FF"/>
<path d="M429.722 498.602H397.384C397.384 457.142 350.483 416.434 385.847 412.03C398.434 410.462 407.4 416.905 413.796 426.921C429.722 451.797 429.722 498.602 429.722 498.602Z" fill="url(#paint18_linear)"/>
<path d="M417.338 498.602H415.269C414.517 492.316 413.56 486.015 412.369 479.808C410.566 471.108 408.341 462.534 405.394 454.164C404.61 452.079 403.732 450.041 402.917 448.004C402.494 446.985 402.117 445.935 401.647 444.931L400.158 441.969L398.685 438.975C398.183 437.987 397.713 436.984 397.101 436.059L393.621 430.385C392.9 429.225 393.48 428.739 394.296 429.93L398.073 435.479C398.747 436.404 399.265 437.392 399.782 438.379L401.412 441.326L403.027 444.289C403.544 445.276 403.951 446.326 404.422 447.345C405.3 449.414 406.256 451.452 407.087 453.537C410.3 461.923 412.698 470.607 414.532 479.4C415.755 485.749 416.695 492.16 417.338 498.602Z" fill="#5148FF"/>
<path d="M594.03 498.602H570.485C570.485 436.248 594.359 385.492 627.857 386.166C661.371 386.809 596.694 455.151 594.03 498.602Z" fill="url(#paint19_linear)"/>
<path d="M616.367 404.302C612.887 408.44 609.893 412.986 607.119 417.641C606.445 418.801 605.739 419.961 605.065 421.137L603.168 424.726C601.836 427.093 600.77 429.586 599.594 432.031C595.096 441.875 591.6 452.158 588.81 462.613C585.879 474.416 583.919 486.454 582.853 498.586H581.051C581.803 486.282 583.668 474.024 586.662 462.048C589.5 451.483 593.168 441.091 597.933 431.232C599.156 428.786 600.315 426.294 601.711 423.958L603.733 420.385C604.438 419.193 605.175 418.049 605.912 416.905C608.859 412.296 612.041 407.829 615.724 403.753C616.916 402.499 617.48 403.017 616.367 404.302Z" fill="#5148FF"/>
<path d="M147.379 498.602H99.1147C99.1147 472.739 82.0757 447.236 69.3474 425.495C68.9398 424.805 68.5322 424.099 68.1247 423.41C57.152 404.443 42.8875 386.856 38.6709 364.801C37.4482 358.39 37.1974 351.446 40.207 345.647C43.4048 339.455 49.91 335.505 56.6661 333.765C137.033 313.168 153.837 420.494 147.379 498.602Z" fill="url(#paint20_linear)"/>
<path d="M126.625 498.602H124.556C124.383 487.661 123.223 476.72 121.468 465.951C119.336 452.91 116.107 440.088 111.906 427.595C103.535 402.609 90.7127 379.144 73.9245 358.641C72.5451 356.886 73.7678 355.961 75.2099 357.513C93.5656 376.934 107.579 400.681 116.06 426.2C120.323 438.959 123.364 452.126 125.057 465.45C126.468 476.438 127.126 487.536 126.625 498.602Z" fill="#5148FF"/>
<path d="M192.226 498.602H152.536C146.062 438.897 147.833 289.217 234.298 303.905C300.636 315.175 193.919 401.418 192.226 498.602Z" fill="url(#paint21_linear)"/>
<path d="M213.92 336.884C208.685 342.747 204.358 349.362 200.549 356.211C196.74 363.046 193.511 370.24 190.815 377.608C188.072 384.959 185.72 392.467 183.792 400.101C181.849 407.719 180.187 415.4 178.855 423.175C176.112 438.677 174.45 454.383 173.415 470.121C172.82 479.604 172.428 489.103 172.334 498.586H169.638C169.277 489.04 169.309 479.479 169.638 469.933C170.249 454.023 171.738 438.113 174.528 422.375C175.892 414.506 177.663 406.7 179.764 399.004C181.833 391.276 184.388 383.69 187.413 376.26C188.856 372.529 190.595 368.908 192.304 365.287C194.169 361.729 195.972 358.171 198.135 354.785C202.321 347.967 207.055 341.43 212.713 335.756C214.422 333.969 215.535 334.972 213.92 336.884Z" fill="#5148FF"/>
<path d="M219.219 498.602H194.013C194.013 498.602 187.366 445.495 215.895 445.543C241.854 445.558 224.517 478.366 219.219 498.602Z" fill="url(#paint22_linear)"/>
<path d="M211.71 458.647C207.964 470.591 206.38 483.1 205.487 495.561C205.44 496.564 205.377 497.599 205.33 498.602H203.136C203.167 497.52 203.23 496.47 203.292 495.404C204.217 482.802 206.318 470.168 210.942 458.349C211.334 457.424 212.024 457.706 211.71 458.647Z" fill="#5148FF"/>
<path d="M94.8823 498.602H62.5443C62.5443 457.142 15.6439 416.434 51.0073 412.03C63.5945 410.462 72.5608 416.905 78.9563 426.921C94.8823 451.797 94.8823 498.602 94.8823 498.602Z" fill="url(#paint23_linear)"/>
<path d="M82.5146 498.602H80.4454C79.693 492.317 78.7368 486.015 77.5455 479.808C75.7429 471.108 73.517 462.534 70.57 454.164C69.7863 452.079 68.9084 450.041 68.0933 448.004C67.6701 446.985 67.2939 445.935 66.8236 444.931L65.3345 441.969L63.861 438.975C63.3594 437.987 62.8891 436.984 62.2778 436.059L58.7979 430.385C58.0768 429.225 58.6568 428.739 59.4719 429.93L63.2497 435.479C63.9237 436.404 64.441 437.392 64.9583 438.379L66.5885 441.326L68.2031 444.289C68.7203 445.276 69.1279 446.326 69.5982 447.345C70.476 449.414 71.4322 451.452 72.2629 453.537C75.4764 461.923 77.8747 470.607 79.7087 479.4C80.9157 485.749 81.8562 492.16 82.5146 498.602Z" fill="#5148FF"/>
<path d="M246.086 498.602H222.542C222.542 436.248 246.415 385.492 279.913 386.166C313.443 386.809 248.766 455.151 246.086 498.602Z" fill="url(#paint24_linear)"/>
<path d="M268.423 404.302C264.943 408.44 261.949 412.986 259.175 417.641C258.501 418.801 257.795 419.961 257.121 421.137L255.225 424.726C253.892 427.093 252.826 429.586 251.651 432.031C247.152 441.875 243.656 452.158 240.866 462.613C237.935 474.416 235.975 486.454 234.909 498.586H233.107C233.859 486.282 235.725 474.024 238.719 462.048C241.571 451.483 245.224 441.091 249.989 431.232C251.212 428.786 252.372 426.294 253.767 423.958L255.789 420.385C256.494 419.193 257.231 418.049 257.968 416.905C260.915 412.296 264.097 407.829 267.78 403.753C268.972 402.499 269.536 403.017 268.423 404.302Z" fill="#5148FF"/>
<path d="M51.9165 475.685C67.4663 472.723 78.6898 484.401 79.4265 485.137C80.1163 482.739 86.888 460.7 108.88 452.894C122.784 447.941 135.027 451.468 139.243 452.894C136.453 445.37 137.927 437 143.052 431.012C148.586 424.57 157.521 421.952 165.844 424.397C175.249 409.867 192.508 402.343 209.484 405.368C226.241 408.393 239.675 421.09 243.672 437.674C248.751 430.103 257.858 426.278 266.464 428.159C274.16 429.805 280.305 435.683 282.641 443.364C293.127 432.423 309.022 428.316 323.428 432.94C336.266 436.984 346.078 447.33 349.684 460.167C359.998 452.016 373.886 448.944 386.803 453.004C406.115 459.086 418.279 479.588 414.078 500.326C392.916 500.326 371.754 500.326 350.609 500.326H324.227H28.1528C30.4884 487.771 40.066 477.911 51.9165 475.685Z" fill="url(#paint25_linear)"/>
<path d="M270.304 480.999C285.854 478.036 297.078 489.714 297.814 490.451C298.504 488.053 305.276 466.014 327.268 458.208C341.172 453.254 353.414 456.781 357.631 458.208C354.841 450.684 356.314 442.313 361.44 436.326C366.974 429.883 375.908 427.266 384.232 429.711C393.637 415.18 410.896 407.656 427.872 410.682C444.629 413.707 458.062 426.403 462.06 442.987C467.138 435.416 476.246 431.592 484.851 433.473C492.548 435.119 498.693 440.997 501.028 448.677C511.515 437.736 527.41 433.63 541.815 438.254C554.653 442.298 564.466 452.643 568.071 465.481C578.386 457.33 592.274 454.258 605.19 458.317C624.502 464.399 636.666 484.902 632.465 505.64C611.304 505.64 590.142 505.64 568.996 505.64H542.615H246.556C248.892 493.069 258.454 483.225 270.304 480.999Z" fill="url(#paint26_linear)"/>
<path d="M325.873 565.518C444.113 565.518 539.966 548.977 539.966 528.572C539.966 508.168 444.113 491.627 325.873 491.627C207.633 491.627 111.78 508.168 111.78 528.572C111.78 548.977 207.633 565.518 325.873 565.518Z" fill="#E6F3F9"/>
<path d="M631.29 332.307C631.023 332.198 630.772 332.151 630.506 332.151C630.098 332.151 629.66 332.276 629.283 332.527L605.128 348.484L591.537 347.042C586.506 346.509 581.489 348.343 577.994 351.995L575.486 354.613L496.451 397.233C496.451 397.233 478.754 369.284 459.52 338.891L425.928 362.105C437.293 381.511 468.784 432.156 489.915 434.947C491.608 434.884 493.191 434.868 494.711 434.947C524.98 431.498 583.417 368.846 583.417 368.846L605.676 363.939L632.105 335.881C633.202 334.737 632.763 332.872 631.29 332.307Z" fill="#FFC8AF"/>
<path d="M473.048 498.132C464.301 501.345 449.347 505.844 431.634 510.813C413.341 515.954 392.117 521.597 371.707 526.895C357.145 518.509 343.508 510.781 330.748 503.665C360.845 486.908 386.097 473.648 407.353 463.412C446.855 444.383 472.468 435.871 489.523 434.978H490.04C491.498 435.15 493.081 435.15 494.727 434.946C506.468 435.479 513.506 440.291 518.318 448.082C528.037 463.819 509.901 484.526 473.048 498.132Z" fill="#F4B49A"/>
<path d="M489.946 434.962C491.639 434.9 493.222 434.884 494.743 434.962C493.081 435.15 491.514 435.15 490.04 434.978C489.993 434.978 489.977 434.978 489.946 434.962Z" fill="black"/>
<path d="M490.04 434.978C489.962 434.978 489.868 434.978 489.789 434.978C489.852 434.962 489.899 434.962 489.946 434.962C489.977 434.978 489.993 434.978 490.04 434.978Z" fill="black"/>
<path d="M492.705 390.195L459.113 413.409L398.841 341.838C401.553 321.837 403.575 302.666 402.337 285.11C400.158 254.544 378.448 241.691 361.628 236.299C361.628 236.299 395.283 242.506 412.071 263.981C413.106 265.282 414.078 266.645 414.956 268.072C422.401 280.063 441.635 310.551 492.705 390.195Z" fill="url(#paint27_linear)"/>
<path d="M416.633 523.682C399.359 524.544 377.774 531.3 377.774 531.3C377.774 531.3 380.94 533.024 383.072 536.002L376.771 537.162L366.691 546.426C370.015 552.508 380.972 555.518 399.672 555.518C413.952 555.518 429.471 553.01 433.719 543.056C438.907 530.861 433.907 522.804 416.633 523.682Z" fill="url(#paint28_linear)"/>
<path d="M244.848 523.682C262.122 524.544 283.707 531.3 283.707 531.3C283.707 531.3 280.54 533.024 278.408 536.002L284.71 537.162L294.789 546.426C291.466 552.508 280.509 555.518 261.808 555.518C247.528 555.518 232.01 553.01 227.762 543.056C222.573 530.861 227.589 522.804 244.848 523.682Z" fill="url(#paint29_linear)"/>
<path d="M414.626 225.608C414.72 226.376 414.689 227.223 414.532 228.179C413.905 231.957 412.589 234.778 413.937 238.556C414.861 241.142 416.194 243.603 416.664 246.315C417.197 249.387 416.006 251.989 415.112 254.811C414.783 255.83 411.742 263.604 412.071 264.012C395.283 242.522 361.628 236.33 361.628 236.33C359.01 235.499 356.502 234.825 354.214 234.324C346.862 232.662 341.674 232.474 341.674 232.474V221.376C353.336 214.213 361.628 196.484 361.628 179.963C361.628 170.543 358.932 163.097 354.433 157.721C347.583 153.457 338.288 156.67 334.714 161.42C330.56 166.984 328.961 175.919 310.872 175.559C303.661 175.402 300.667 181.687 300.73 189.384C303.128 202.817 310.354 215.592 319.822 221.376V232.474C319.822 232.474 314.634 232.662 307.282 234.324C304.994 234.825 302.486 235.499 299.868 236.33C299.868 236.33 261.981 243.305 246.541 268.119C245.255 270.188 243.594 272.821 241.666 275.909C242.935 273.871 237.856 265.83 236.979 263.573C236.116 261.378 234.643 259.215 234 256.927C231.273 247.208 240.976 238.195 243.938 229.449C245.741 224.151 242.684 217.097 246.666 212.504C249.299 209.463 253.547 207.849 256.447 205.012C259.629 201.892 261.793 197.691 262.576 193.303C263.36 188.976 262.623 184.258 264.63 180.339C266.73 176.217 271.276 174.054 274.646 170.887C281.449 164.476 280.509 156.921 280.869 148.504C281.731 128.847 296.498 114.756 314.352 108.956C325.246 105.413 337.802 104.207 347.646 111.26C348.728 112.044 349.637 113.549 350.734 114.176C351.894 114.818 352.913 114.129 354.449 113.972C365.312 112.812 373.353 124.553 376.175 133.597C379.576 144.507 375.422 156.811 385.345 164.461C391.74 169.398 386.803 175.684 389.671 181.891C392.43 187.863 402.839 185.794 405.942 193.083C409.187 200.717 402.431 209.714 408.294 216.705C411.037 219.918 414.203 221.768 414.626 225.608Z" fill="url(#paint30_linear)"/>
<path d="M402.337 285.126C403.591 302.682 401.553 321.836 398.841 341.853C394.107 377.2 387.304 415.227 393.104 451.75C374.137 455.637 353.759 458.631 330.732 458.631C307.705 458.631 287.343 455.621 268.376 451.75C274.192 415.227 267.389 377.216 262.639 341.853C259.927 321.852 257.905 302.682 259.143 285.126C261.322 254.56 283.032 241.706 299.852 236.314C302.47 235.483 304.978 234.809 307.266 234.308C307.596 240.735 310.543 255.782 330.717 255.798H330.748C350.922 255.782 353.869 240.75 354.198 234.308C356.487 234.809 358.995 235.483 361.613 236.314C378.448 241.691 400.142 254.544 402.337 285.126Z" fill="url(#paint31_linear)"/>
<path d="M393.104 451.734C427.229 444.775 456.887 435.04 489.523 434.978C463.282 436.357 416.837 455.747 330.748 503.665C244.597 455.716 198.182 436.341 171.911 434.978C204.578 435.009 234.251 444.759 268.376 451.734C287.343 455.622 307.705 458.615 330.732 458.615C353.759 458.615 374.137 455.606 393.104 451.734Z" fill="url(#paint32_linear)"/>
<path d="M385.455 542.194C384.389 546.128 381.269 549.248 373.902 548.041C373.071 547.899 372.632 547.774 372.632 547.774C372.632 547.774 355.154 543.51 330.732 537.35C318.38 534.215 304.288 530.626 289.789 526.879C269.379 521.581 248.124 515.938 229.846 510.797C212.118 505.859 197.163 501.345 188.401 498.116C151.548 484.51 133.428 463.804 143.147 448.066C147.959 440.276 155.013 435.464 166.738 434.931C168.384 435.134 169.936 435.134 171.409 434.962H171.911C188.997 435.824 214.594 444.351 254.127 463.396C275.367 473.632 300.636 486.877 330.748 503.649C343.492 510.75 357.145 518.493 371.708 526.879C374.263 528.353 376.849 529.842 379.467 531.362C379.467 531.378 387.273 535.595 385.455 542.194Z" fill="#FFC8AF"/>
<path d="M354.418 157.705C358.916 163.081 361.613 170.527 361.613 179.947C361.613 196.469 353.32 214.213 341.658 221.36C338.272 223.461 334.573 224.652 330.717 224.652C326.876 224.652 323.193 223.461 319.791 221.36C310.339 215.576 303.097 202.801 300.699 189.368V189.352C300.636 181.672 303.63 175.386 310.84 175.543C328.93 175.919 330.529 166.969 334.683 161.404C338.272 156.639 347.583 153.426 354.418 157.705Z" fill="#FFC8AF"/>
<path d="M354.198 234.292C353.885 240.735 350.922 255.767 330.748 255.783H330.732C310.558 255.767 307.596 240.735 307.282 234.292C314.634 232.647 319.807 232.443 319.807 232.443V221.361C323.193 223.477 326.876 224.652 330.732 224.652C334.604 224.652 338.288 223.461 341.674 221.361V232.443C341.674 232.443 346.847 232.647 354.198 234.292Z" fill="#FFC8AF"/>
<path d="M330.732 537.366C306.326 543.526 288.832 547.79 288.832 547.79C288.832 547.79 288.378 547.884 287.563 548.041C280.195 549.248 277.076 546.128 275.994 542.194C274.207 535.579 282.014 531.378 282.014 531.378C284.631 529.858 287.218 528.369 289.773 526.895C304.288 530.657 318.396 534.247 330.732 537.366Z" fill="#F4B49A"/>
<path d="M201.944 338.891L201.929 338.875C182.727 369.269 165.013 397.233 165.013 397.233L85.9945 354.628V354.613L83.4864 351.995C79.9752 348.343 74.9748 346.509 69.943 347.042L56.3526 348.484L32.197 332.527C31.8208 332.292 31.3976 332.151 30.9743 332.151C30.7078 332.151 30.457 332.198 30.1906 332.307C28.7171 332.872 28.2782 334.737 29.3598 335.897L55.7883 363.955L78.0471 368.861C78.0471 368.861 136.484 431.514 166.753 434.962C168.274 434.884 169.857 434.884 171.534 434.962C192.665 432.219 224.188 381.542 235.552 362.121L201.944 338.891Z" fill="#FFC8AF"/>
<path d="M171.691 434.978C171.613 434.978 171.534 434.978 171.456 434.978C171.472 434.978 171.519 434.978 171.534 434.962C171.566 434.962 171.628 434.962 171.691 434.978Z" fill="black"/>
<path d="M171.534 434.962C171.519 434.978 171.472 434.978 171.456 434.978H171.44C169.983 435.15 168.415 435.15 166.753 434.962C168.274 434.884 169.857 434.884 171.534 434.962Z" fill="black"/>
<path d="M473.048 498.132C464.301 501.345 449.347 505.844 431.634 510.813C430.803 480.67 414.234 467.566 407.353 463.412C446.855 444.383 472.468 435.871 489.523 434.978H490.04C491.498 435.15 493.081 435.15 494.727 434.946C506.468 435.479 513.506 440.291 518.318 448.082C528.037 463.819 509.901 484.526 473.048 498.132Z" fill="url(#paint33_linear)"/>
<path d="M254.127 463.412C247.246 467.55 230.677 480.654 229.846 510.813C212.118 505.875 197.163 501.361 188.401 498.132C151.548 484.526 133.428 463.819 143.147 448.082C147.959 440.291 155.013 435.479 166.738 434.946C168.384 435.15 169.936 435.15 171.409 434.978H171.911C188.997 435.855 214.594 444.367 254.127 463.412Z" fill="url(#paint34_linear)"/>
<path d="M168.791 390.195L202.383 413.409L262.655 341.838C259.943 321.837 257.921 302.666 259.159 285.11C261.338 254.544 283.048 241.691 299.868 236.299C299.868 236.299 266.213 242.506 249.425 263.981C248.39 265.282 247.418 266.645 246.54 268.072C239.095 280.063 219.846 310.551 168.791 390.195Z" fill="url(#paint35_linear)"/>
<path d="M341.674 221.361V225.53C338.288 227.646 334.604 228.822 330.732 228.822C326.876 228.822 323.193 227.631 319.807 225.53V221.361C323.193 223.477 326.876 224.652 330.732 224.652C334.604 224.652 338.288 223.477 341.674 221.361Z" fill="#F4B095"/>
<path d="M227.715 87.6538L229.141 91.3531L232.856 92.7952L229.141 94.2216L227.715 97.9209L226.288 94.2216L222.589 92.7952L226.288 91.3531L227.715 87.6538Z" fill="#A5B7C6"/>
<path d="M376.112 11.9128L377.539 15.6121L381.238 17.0385L377.539 18.4649L376.112 22.1642L374.686 18.4649L370.971 17.0385L374.686 15.6121L376.112 11.9128Z" fill="#A5B7C6"/>
<path d="M255.507 25.7537L256.416 28.1206L258.783 29.0297L256.416 29.9389L255.507 32.3058L254.598 29.9389L252.231 29.0297L254.598 28.1206L255.507 25.7537Z" fill="#A5B7C6"/>
<path d="M471.825 96.9961L472.735 99.363L475.101 100.272L472.735 101.181L471.825 103.548L470.916 101.181L468.549 100.272L470.916 99.363L471.825 96.9961Z" fill="#A5B7C6"/>
<path d="M160.405 77.2458L161.314 79.6128L163.681 80.5219L161.314 81.4467L160.405 83.7979L159.496 81.4467L157.129 80.5219L159.496 79.6128L160.405 77.2458Z" fill="#A5B7C6"/>
<path d="M513.396 45.4885L514.321 47.8554L516.688 48.7803L514.321 49.6894L513.396 52.0563L512.487 49.6894L510.12 48.7803L512.487 47.8554L513.396 45.4885Z" fill="#A5B7C6"/>
<path d="M527.049 538.51C527.049 538.51 588.982 535.328 587.634 518.337C586.709 506.565 555.108 512.255 555.061 512.161C555.061 512.161 598.685 484.792 580.847 470.089C566.629 459.619 537.834 491 537.708 490.921C537.708 490.921 546.581 465.371 533.711 462.816C515.073 459.133 505.59 505.64 505.59 505.64C505.59 505.64 508.004 477.08 493.191 478.93C473.738 481.36 466.621 523.133 466.621 523.133C466.621 523.133 452.216 488.884 438.515 508.571C428.42 523.086 423.483 542.288 425.442 560.095C432.167 579.187 481.058 602.542 494.774 584.924C503.207 574.092 482.328 561.082 482.328 561.082C499.226 568.136 538.351 579.892 549.731 560.298C557.945 546.222 527.049 538.526 527.049 538.51Z" fill="url(#paint36_linear)"/>
<path d="M461.589 569.421C458.078 567.415 454.818 565.126 451.808 562.681C449.472 560.8 447.372 558.715 445.444 556.536C459.567 551.818 473.361 546.144 486.701 539.561C489.852 542.069 493.222 544.435 496.812 546.395C500.762 548.558 505.135 550.455 509.65 551.944C514.164 553.433 518.961 554.53 523.93 555.204C528.899 555.878 534.04 556.176 539.339 555.847C534.087 556.003 529.024 555.533 524.149 554.702C519.29 553.872 514.619 552.618 510.245 551.003C505.872 549.389 501.671 547.367 497.878 545.125C494.633 543.181 491.592 540.924 488.755 538.526C499.053 533.432 509.274 527.601 518.914 521.346C523.13 522.726 527.457 523.901 532.05 524.466C534.401 524.873 536.862 524.967 539.292 525.155C541.768 525.202 544.261 525.265 546.753 525.14C551.706 524.889 556.879 524.309 562.005 523.227C567.131 522.161 572.304 520.704 577.383 518.682C572.272 520.547 567.131 521.817 562.036 522.726C556.942 523.619 551.848 524.027 546.973 524.121C544.527 524.168 542.082 524.027 539.668 523.901C537.301 523.635 534.903 523.462 532.614 522.992C528.585 522.365 524.776 521.237 521.108 519.936C539.746 507.255 556.77 493.476 573.072 477.864C556.378 492.99 539.025 506.283 520.058 518.431C520.278 514.685 520.607 510.923 521.218 507.161C521.908 502.834 522.707 498.492 523.695 494.213C524.682 489.934 525.717 485.639 526.877 481.407C528.021 477.175 529.244 472.974 530.592 468.82C529.087 472.927 527.708 477.096 526.391 481.313C525.074 485.514 523.852 489.808 522.692 494.088C521.532 498.383 520.544 502.74 519.666 507.114C518.82 511.299 518.287 515.515 517.879 519.747C508.067 525.751 497.689 531.284 487.234 536.081C486.576 532.585 486.231 528.949 486.294 525.328C486.372 521.143 486.827 516.816 487.501 512.6C488.175 508.383 489.068 504.135 490.103 499.966C491.122 495.796 492.25 491.658 493.583 487.598C492.093 491.611 490.808 495.734 489.617 499.887C488.425 504.041 487.359 508.274 486.497 512.521C485.635 516.769 484.993 521.143 484.726 525.437C484.475 529.278 484.663 533.197 485.228 537.006C471.888 543.134 458.125 548.354 444.08 552.618C444.3 549.31 444.629 545.987 445.162 542.68C445.82 538.542 446.588 534.372 447.529 530.281C448.469 526.174 449.472 522.067 450.57 518.008C451.667 513.948 452.827 509.904 454.112 505.922C452.67 509.857 451.353 513.869 450.084 517.914C448.814 521.942 447.638 526.049 446.51 530.156C445.381 534.262 444.425 538.432 443.563 542.617C442.826 546.144 442.324 549.718 441.917 553.292C425.427 558.276 408.435 561.709 391.364 564.013C391.693 566.224 391.866 567.336 392.195 569.547C409.453 566.741 426.618 562.775 443.218 557.258C445.444 559.609 447.842 561.819 450.491 563.794C453.689 566.176 457.122 568.355 460.79 570.268C464.442 572.164 468.298 573.889 472.296 575.346C476.308 576.804 480.462 578.074 484.804 579.014C480.556 577.917 476.497 576.506 472.625 574.907C468.8 573.277 465.085 571.428 461.589 569.421Z" fill="white"/>
<path d="M252.403 571.725C251.698 567.979 248.061 565.738 247.669 565.503C250.883 564.703 252.717 561.913 252.262 558.825C251.807 555.643 249.127 552.869 245.71 552.022C248.139 549.593 248.829 546.034 247.606 542.837C246.07 538.808 241.775 535.908 236.994 535.877C240.145 529.027 238.687 520.97 233.844 515.609C227.668 508.775 218.529 509.434 217.98 509.481C218.403 503.9 215.315 498.743 210.456 496.596C206.239 494.73 201.208 495.373 197.696 498.477C198.637 492.16 195.8 485.984 190.752 482.912C184.764 479.275 178.463 481.94 178.055 482.128C177.256 474.259 172.961 467.252 166.55 463.475C159.261 459.18 152.254 461.218 151.157 461.578C150.89 460.794 148.758 454.446 143.021 451.28C138.083 448.552 129.101 449.399 126.985 455.355C123.458 454.556 116.53 456.296 114.022 461.374C111.843 465.763 112.36 472.206 115.433 477.833C108.065 479.353 104.146 487.912 106.952 497.724C109.539 506.8 117.345 514.559 125.12 515.892C124.634 516.503 120.652 521.55 123.49 530.156C125.747 537.006 131.578 543.244 138.115 545.878C137.848 546.661 135.544 553.574 141.109 562.132C145.529 568.92 153.194 573.763 160.217 574.359C161.298 581.24 166.628 588.545 173.87 592.808C181.817 597.464 190.517 597.605 195.471 593.561C197.9 599.564 205.079 604.172 210.848 604C215.598 603.859 218.639 600.614 218.372 596.163C222.291 600.05 228.2 601.68 232.135 600.207C235.38 598.984 236.853 595.896 236.085 592.401C238.86 593.984 242.042 594.376 244.236 593.388C247.152 592.071 249.989 585.927 247.418 581.068C250.992 579.97 253.014 574.907 252.403 571.725Z" fill="url(#paint37_linear)"/>
<path d="M224.987 545.172C224.83 548.918 224.626 552.727 224.219 556.458C224.078 558.339 223.796 560.204 223.576 562.054C223.435 563.23 223.231 564.405 223.043 565.581C212.415 558.982 207.305 555.329 197.602 547.461C197.947 545.956 198.323 544.451 198.621 542.962C198.982 541.112 199.405 539.2 199.734 537.335C200.377 533.635 201.035 529.764 201.537 526.002C202.038 522.24 202.415 518.384 202.681 514.59C202.948 510.797 203.136 506.972 203.01 503.179C203.01 506.972 202.681 510.75 202.274 514.512C201.866 518.274 201.333 522.067 200.69 525.767C200.048 529.45 199.248 533.259 198.449 536.864C198.041 538.683 197.555 540.548 197.116 542.351C196.803 543.62 196.411 544.921 196.05 546.191C187.241 538.934 183.04 535.031 175.093 526.786C175.704 523.87 176.3 520.923 176.801 517.992C177.334 514.857 177.804 511.628 178.212 508.446C178.62 505.264 178.933 502.035 179.2 498.837C179.466 495.64 179.67 492.426 179.686 489.213C179.529 492.411 179.184 495.577 178.792 498.728C178.4 501.878 177.946 505.044 177.381 508.164C176.833 511.283 176.221 514.434 175.532 517.475C174.952 520.061 174.293 522.663 173.604 525.234C163.869 514.951 159.339 509.433 151.094 497.803C152.646 492.881 153.947 487.818 154.997 482.692C156.063 477.457 157.552 466.829 157.552 466.829C157.552 466.829 155.812 477.363 154.605 482.504C153.461 487.41 152.066 492.207 150.451 496.878C141.767 484.495 137.864 477.927 131.061 464.18C135.152 472.958 137.409 477.237 142.3 485.514C138.287 486.344 134.102 486.705 129.823 486.626C125.402 486.564 116.31 485.2 116.31 485.2C116.31 485.2 125.433 486.893 129.917 487.128C134.321 487.348 138.648 487.144 142.833 486.391C150.373 499.057 154.589 505.092 163.838 516.456C161.518 517.224 159.151 517.914 156.706 518.431C153.931 519.026 151.078 519.512 148.178 519.81C142.394 520.422 136.375 520.547 130.214 519.983C136.453 520.876 142.567 521.08 148.492 520.766C151.454 520.61 154.386 520.265 157.254 519.81C159.935 519.371 162.552 518.744 165.123 518.023C172.835 527.35 176.974 531.786 185.736 540.109C180.501 543.667 174.56 546.426 168.258 548.48C161.534 550.674 154.354 552.179 146.815 552.821C154.48 552.508 161.831 551.301 168.76 549.373C175.343 547.539 181.582 544.968 187.163 541.457C196.16 549.875 200.941 553.825 210.926 561.098C208.685 562.869 206.349 564.562 203.872 566.082C200.925 567.901 197.79 569.609 194.546 571.098C188.04 574.061 181.018 576.444 173.462 577.839C181.19 576.741 188.417 574.657 195.157 571.929C198.527 570.565 201.772 568.951 204.844 567.242C207.525 565.753 210.064 564.045 212.51 562.258C232.59 576.397 253.767 586.711 276.606 595.457C277.186 593.702 277.483 592.824 278.063 591.068C259.441 584.406 241.697 576.976 224.768 566.631C224.909 565.252 225.097 563.857 225.191 562.493C225.332 560.612 225.536 558.7 225.583 556.787C225.833 552.978 225.881 549.107 225.881 545.329C225.881 541.536 225.724 537.664 225.473 533.871C225.222 530.077 224.877 526.268 224.219 522.522C224.736 526.268 224.94 530.062 225.05 533.839C225.128 537.601 225.128 541.426 224.987 545.172Z" fill="white"/>
</g>
<defs>
<linearGradient id="paint0_linear" x1="330.733" y1="-0.000120681" x2="330.733" y2="485.805" gradientUnits="userSpaceOnUse">
<stop stop-color="#FBD15B"/>
<stop offset="0.3708" stop-color="#FF8578"/>
<stop offset="1" stop-color="#4333F1"/>
</linearGradient>
<linearGradient id="paint1_linear" x1="210.627" y1="422.37" x2="210.627" y2="198.005" gradientUnits="userSpaceOnUse">
<stop stop-color="#FBD15B"/>
<stop offset="0.3708" stop-color="#FF8578"/>
<stop offset="1" stop-color="#4333F1"/>
</linearGradient>
<linearGradient id="paint2_linear" x1="429.02" y1="360.216" x2="429.02" y2="200.099" gradientUnits="userSpaceOnUse">
<stop stop-color="#FBD15B"/>
<stop offset="0.3708" stop-color="#FF8578"/>
<stop offset="1" stop-color="#4333F1"/>
</linearGradient>
<linearGradient id="paint3_linear" x1="571.368" y1="296.997" x2="550.072" y2="188.375" gradientUnits="userSpaceOnUse">
<stop stop-color="#FBD15B"/>
<stop offset="0.3708" stop-color="#FF8578"/>
<stop offset="1" stop-color="#4333F1"/>
</linearGradient>
<linearGradient id="paint4_linear" x1="69.9614" y1="321.919" x2="96.9946" y2="255.869" gradientUnits="userSpaceOnUse">
<stop stop-color="#FBD15B"/>
<stop offset="0.3708" stop-color="#FF8578"/>
<stop offset="1" stop-color="#4333F1"/>
</linearGradient>
<linearGradient id="paint5_linear" x1="97.4531" y1="296.025" x2="139.381" y2="193.582" gradientUnits="userSpaceOnUse">
<stop stop-color="#FBD15B"/>
<stop offset="0.3708" stop-color="#FF8578"/>
<stop offset="1" stop-color="#4333F1"/>
</linearGradient>
<linearGradient id="paint6_linear" x1="294.82" y1="460.942" x2="294.82" y2="223.946" gradientUnits="userSpaceOnUse">
<stop stop-color="#FBD15B"/>
<stop offset="0.3708" stop-color="#FF8578"/>
<stop offset="1" stop-color="#4333F1"/>
</linearGradient>
<linearGradient id="paint7_linear" x1="614.525" y1="352.146" x2="586.173" y2="202.383" gradientUnits="userSpaceOnUse">
<stop stop-color="white"/>
<stop offset="1" stop-color="#BEE1F4"/>
</linearGradient>
<linearGradient id="paint8_linear" x1="18.467" y1="339.888" x2="65.4128" y2="231.872" gradientUnits="userSpaceOnUse">
<stop stop-color="white"/>
<stop offset="1" stop-color="#BEE1F4"/>
</linearGradient>
<linearGradient id="paint9_linear" x1="403.779" y1="257.081" x2="448.112" y2="452.074" gradientUnits="userSpaceOnUse">
<stop stop-color="#26E6FF"/>
<stop offset="0.4856" stop-color="#4189FF"/>
<stop offset="0.8345" stop-color="#534CFF"/>
<stop offset="1" stop-color="#5A35FF"/>
</linearGradient>
<linearGradient id="paint10_linear" x1="68.8167" y1="285.208" x2="37.5144" y2="422.888" gradientUnits="userSpaceOnUse">
<stop stop-color="#26E6FF"/>
<stop offset="0.4856" stop-color="#4189FF"/>
<stop offset="0.8345" stop-color="#534CFF"/>
<stop offset="1" stop-color="#5A35FF"/>
</linearGradient>
<linearGradient id="paint11_linear" x1="506.805" y1="310.384" x2="491.63" y2="453.149" gradientUnits="userSpaceOnUse">
<stop stop-color="#26E6FF"/>
<stop offset="0.4856" stop-color="#4189FF"/>
<stop offset="0.8345" stop-color="#534CFF"/>
<stop offset="1" stop-color="#5A35FF"/>
</linearGradient>
<linearGradient id="paint12_linear" x1="139.828" y1="313.497" x2="155.003" y2="456.263" gradientUnits="userSpaceOnUse">
<stop stop-color="#26E6FF"/>
<stop offset="0.4856" stop-color="#4189FF"/>
<stop offset="0.8345" stop-color="#534CFF"/>
<stop offset="1" stop-color="#5A35FF"/>
</linearGradient>
<linearGradient id="paint13_linear" x1="254.819" y1="362.176" x2="269.994" y2="504.942" gradientUnits="userSpaceOnUse">
<stop stop-color="#26E6FF"/>
<stop offset="0.4856" stop-color="#4189FF"/>
<stop offset="0.8345" stop-color="#534CFF"/>
<stop offset="1" stop-color="#5A35FF"/>
</linearGradient>
<linearGradient id="paint14_linear" x1="599.939" y1="300.065" x2="582.085" y2="468.027" gradientUnits="userSpaceOnUse">
<stop stop-color="#26E6FF"/>
<stop offset="0.4856" stop-color="#4189FF"/>
<stop offset="0.8345" stop-color="#534CFF"/>
<stop offset="1" stop-color="#5A35FF"/>
</linearGradient>
<linearGradient id="paint15_linear" x1="441.152" y1="331.192" x2="441.152" y2="498.598" gradientUnits="userSpaceOnUse">
<stop stop-color="#435DF1"/>
<stop offset="0.327" stop-color="#4333F1"/>
<stop offset="1" stop-color="#4C008C"/>
</linearGradient>
<linearGradient id="paint16_linear" x1="551.065" y1="302.896" x2="551.065" y2="498.598" gradientUnits="userSpaceOnUse">
<stop stop-color="#435DF1"/>
<stop offset="0.327" stop-color="#4333F1"/>
<stop offset="1" stop-color="#4C008C"/>
</linearGradient>
<linearGradient id="paint17_linear" x1="559.505" y1="445.534" x2="559.505" y2="498.598" gradientUnits="userSpaceOnUse">
<stop stop-color="#435DF1"/>
<stop offset="0.327" stop-color="#4333F1"/>
<stop offset="1" stop-color="#4C008C"/>
</linearGradient>
<linearGradient id="paint18_linear" x1="401.179" y1="411.795" x2="401.179" y2="498.598" gradientUnits="userSpaceOnUse">
<stop stop-color="#435DF1"/>
<stop offset="0.327" stop-color="#4333F1"/>
<stop offset="1" stop-color="#4C008C"/>
</linearGradient>
<linearGradient id="paint19_linear" x1="603.979" y1="386.155" x2="603.979" y2="498.598" gradientUnits="userSpaceOnUse">
<stop stop-color="#435DF1"/>
<stop offset="0.327" stop-color="#4333F1"/>
<stop offset="1" stop-color="#4C008C"/>
</linearGradient>
<linearGradient id="paint20_linear" x1="93.22" y1="331.192" x2="93.22" y2="498.598" gradientUnits="userSpaceOnUse">
<stop stop-color="#435DF1"/>
<stop offset="0.327" stop-color="#4333F1"/>
<stop offset="1" stop-color="#4C008C"/>
</linearGradient>
<linearGradient id="paint21_linear" x1="203.133" y1="302.896" x2="203.133" y2="498.598" gradientUnits="userSpaceOnUse">
<stop stop-color="#435DF1"/>
<stop offset="0.327" stop-color="#4333F1"/>
<stop offset="1" stop-color="#4C008C"/>
</linearGradient>
<linearGradient id="paint22_linear" x1="211.573" y1="445.534" x2="211.573" y2="498.598" gradientUnits="userSpaceOnUse">
<stop stop-color="#435DF1"/>
<stop offset="0.327" stop-color="#4333F1"/>
<stop offset="1" stop-color="#4C008C"/>
</linearGradient>
<linearGradient id="paint23_linear" x1="66.3465" y1="411.795" x2="66.3465" y2="498.598" gradientUnits="userSpaceOnUse">
<stop stop-color="#435DF1"/>
<stop offset="0.327" stop-color="#4333F1"/>
<stop offset="1" stop-color="#4C008C"/>
</linearGradient>
<linearGradient id="paint24_linear" x1="256.047" y1="386.155" x2="256.047" y2="498.598" gradientUnits="userSpaceOnUse">
<stop stop-color="#435DF1"/>
<stop offset="0.327" stop-color="#4333F1"/>
<stop offset="1" stop-color="#4C008C"/>
</linearGradient>
<linearGradient id="paint25_linear" x1="221.546" y1="500.359" x2="221.546" y2="404.727" gradientUnits="userSpaceOnUse">
<stop stop-color="#F9FBFC"/>
<stop offset="1" stop-color="#BEE1F4"/>
</linearGradient>
<linearGradient id="paint26_linear" x1="439.94" y1="505.665" x2="439.94" y2="410.034" gradientUnits="userSpaceOnUse">
<stop stop-color="#F9FBFC"/>
<stop offset="1" stop-color="#BEE1F4"/>
</linearGradient>
<linearGradient id="paint27_linear" x1="427.16" y1="221.956" x2="427.16" y2="362.687" gradientUnits="userSpaceOnUse">
<stop stop-color="#FF697D"/>
<stop offset="1" stop-color="#DE2276"/>
</linearGradient>
<linearGradient id="paint28_linear" x1="401.17" y1="522.012" x2="401.17" y2="564.488" gradientUnits="userSpaceOnUse">
<stop stop-color="#682692"/>
<stop offset="1" stop-color="#291D7A"/>
</linearGradient>
<linearGradient id="paint29_linear" x1="260.317" y1="522.012" x2="260.317" y2="564.488" gradientUnits="userSpaceOnUse">
<stop stop-color="#682692"/>
<stop offset="1" stop-color="#291D7A"/>
</linearGradient>
<linearGradient id="paint30_linear" x1="325.16" y1="106.096" x2="325.16" y2="275.894" gradientUnits="userSpaceOnUse">
<stop stop-color="#682692"/>
<stop offset="0.036" stop-color="#632590"/>
<stop offset="0.2583" stop-color="#4A2286"/>
<stop offset="0.4886" stop-color="#371F7F"/>
<stop offset="0.73" stop-color="#2D1E7B"/>
<stop offset="1" stop-color="#291D7A"/>
</linearGradient>
<linearGradient id="paint31_linear" x1="330.743" y1="214.313" x2="330.743" y2="463.772" gradientUnits="userSpaceOnUse">
<stop stop-color="#FF697D"/>
<stop offset="1" stop-color="#DE2276"/>
</linearGradient>
<linearGradient id="paint32_linear" x1="330.724" y1="399.685" x2="330.724" y2="468.377" gradientUnits="userSpaceOnUse">
<stop stop-color="#682692"/>
<stop offset="1" stop-color="#291D7A"/>
</linearGradient>
<linearGradient id="paint33_linear" x1="464.136" y1="434.952" x2="464.136" y2="510.812" gradientUnits="userSpaceOnUse">
<stop stop-color="#682692"/>
<stop offset="1" stop-color="#291D7A"/>
</linearGradient>
<linearGradient id="paint34_linear" x1="197.349" y1="434.952" x2="197.349" y2="510.812" gradientUnits="userSpaceOnUse">
<stop stop-color="#682692"/>
<stop offset="1" stop-color="#291D7A"/>
</linearGradient>
<linearGradient id="paint35_linear" x1="234.326" y1="221.956" x2="234.326" y2="362.687" gradientUnits="userSpaceOnUse">
<stop stop-color="#FF697D"/>
<stop offset="1" stop-color="#DE2276"/>
</linearGradient>
<linearGradient id="paint36_linear" x1="463.45" y1="591.858" x2="553.215" y2="452.296" gradientUnits="userSpaceOnUse">
<stop stop-color="white"/>
<stop offset="1" stop-color="#BEE1F4"/>
</linearGradient>
<linearGradient id="paint37_linear" x1="179.288" y1="604.004" x2="179.288" y2="449.785" gradientUnits="userSpaceOnUse">
<stop stop-color="white"/>
<stop offset="1" stop-color="#BEE1F4"/>
</linearGradient>
<clipPath id="clip0">
<rect width="653" height="604" fill="white"/>
</clipPath>
</defs>
</svg>
