<svg width="76" height="23" viewBox="0 0 76 23" fill="none" xmlns="http://www.w3.org/2000/svg">
<path d="M24.09 22.14H19.44V8.04L13.89 22.14H10.05L4.5 8.22V22.14H0V0.87H6.18L12.03 15.24L17.58 0.87H24.09V22.14Z" fill="black"/>
<path d="M31.1145 12.9H37.0845C37.0445 12.22 36.7745 11.63 36.2745 11.13C35.7945 10.63 35.0645 10.38 34.0845 10.38C33.2045 10.38 32.5045 10.64 31.9845 11.16C31.4645 11.68 31.1745 12.26 31.1145 12.9ZM37.4145 16.77L41.2245 17.85C40.8445 19.23 40.0545 20.37 38.8545 21.27C37.6545 22.15 36.1545 22.59 34.3545 22.59C32.1945 22.59 30.3545 21.87 28.8345 20.43C27.3345 18.99 26.5845 17.06 26.5845 14.64C26.5845 12.32 27.3145 10.43 28.7745 8.97C30.2545 7.51 32.0045 6.78 34.0245 6.78C36.3445 6.78 38.1645 7.46 39.4845 8.82C40.8245 10.16 41.4944 12.03 41.4944 14.43C41.4944 15.19 41.4645 15.66 41.4045 15.84H31.0245C31.0645 16.66 31.4145 17.35 32.0745 17.91C32.7345 18.45 33.5145 18.72 34.4145 18.72C35.9545 18.72 36.9545 18.07 37.4145 16.77Z" fill="black"/>
<path d="M58.4923 0.42V19.47C58.4923 20.37 58.5323 21.26 58.6123 22.14H54.2323C54.1523 21.66 54.1123 21.18 54.1123 20.7C53.7523 21.22 53.2123 21.65 52.4923 21.99C51.7923 22.31 51.0023 22.47 50.1223 22.47C48.0023 22.47 46.2423 21.74 44.8423 20.28C43.4423 18.8 42.7423 16.92 42.7423 14.64C42.7423 12.4 43.4223 10.55 44.7823 9.09C46.1423 7.61 47.8723 6.87 49.9723 6.87C52.0123 6.87 53.3523 7.38 53.9923 8.4V0.42H58.4923ZM48.2923 11.94C47.6523 12.58 47.3323 13.49 47.3323 14.67C47.3323 15.85 47.6523 16.77 48.2923 17.43C48.9523 18.07 49.7523 18.39 50.6923 18.39C51.6323 18.39 52.4223 18.07 53.0623 17.43C53.7223 16.77 54.0523 15.85 54.0523 14.67C54.0523 13.49 53.7223 12.58 53.0623 11.94C52.4223 11.3 51.6323 10.98 50.6923 10.98C49.7523 10.98 48.9523 11.3 48.2923 11.94Z" fill="black"/>
<path d="M66.5616 22.14H62.0016V7.23H66.5616V22.14ZM62.3916 4.56C61.8716 4.04 61.6116 3.41 61.6116 2.67C61.6116 1.93 61.8716 1.3 62.3916 0.780001C62.9116 0.26 63.5316 0 64.2516 0C64.9916 0 65.6216 0.26 66.1416 0.780001C66.6816 1.3 66.9516 1.93 66.9516 2.67C66.9516 3.41 66.6816 4.04 66.1416 4.56C65.6216 5.08 64.9916 5.34 64.2516 5.34C63.5316 5.34 62.9116 5.08 62.3916 4.56Z" fill="black"/>
<path d="M70.6763 21.51C70.0763 20.89 69.7763 20.16 69.7763 19.32C69.7763 18.48 70.0763 17.76 70.6763 17.16C71.2763 16.56 71.9963 16.26 72.8363 16.26C73.6763 16.26 74.3963 16.56 74.9963 17.16C75.6163 17.76 75.9263 18.48 75.9263 19.32C75.9263 20.14 75.6163 20.86 74.9963 21.48C74.3963 22.1 73.6763 22.41 72.8363 22.41C71.9963 22.41 71.2763 22.11 70.6763 21.51Z" fill="black"/>
<mask id="mask0" style="mask-type:alpha" maskUnits="userSpaceOnUse" x="0" y="0" width="76" height="23">
<path d="M24.09 22.14H19.44V8.04L13.89 22.14H10.05L4.5 8.22V22.14H0V0.87H6.18L12.03 15.24L17.58 0.87H24.09V22.14Z" fill="black"/>
<path d="M31.1145 12.9H37.0845C37.0445 12.22 36.7745 11.63 36.2745 11.13C35.7945 10.63 35.0645 10.38 34.0845 10.38C33.2045 10.38 32.5045 10.64 31.9845 11.16C31.4645 11.68 31.1745 12.26 31.1145 12.9ZM37.4145 16.77L41.2245 17.85C40.8445 19.23 40.0545 20.37 38.8545 21.27C37.6545 22.15 36.1545 22.59 34.3545 22.59C32.1945 22.59 30.3545 21.87 28.8345 20.43C27.3345 18.99 26.5845 17.06 26.5845 14.64C26.5845 12.32 27.3145 10.43 28.7745 8.97C30.2545 7.51 32.0045 6.78 34.0245 6.78C36.3445 6.78 38.1645 7.46 39.4845 8.82C40.8245 10.16 41.4944 12.03 41.4944 14.43C41.4944 15.19 41.4645 15.66 41.4045 15.84H31.0245C31.0645 16.66 31.4145 17.35 32.0745 17.91C32.7345 18.45 33.5145 18.72 34.4145 18.72C35.9545 18.72 36.9545 18.07 37.4145 16.77Z" fill="black"/>
<path d="M58.4923 0.42V19.47C58.4923 20.37 58.5323 21.26 58.6123 22.14H54.2323C54.1523 21.66 54.1123 21.18 54.1123 20.7C53.7523 21.22 53.2123 21.65 52.4923 21.99C51.7923 22.31 51.0023 22.47 50.1223 22.47C48.0023 22.47 46.2423 21.74 44.8423 20.28C43.4423 18.8 42.7423 16.92 42.7423 14.64C42.7423 12.4 43.4223 10.55 44.7823 9.09C46.1423 7.61 47.8723 6.87 49.9723 6.87C52.0123 6.87 53.3523 7.38 53.9923 8.4V0.42H58.4923ZM48.2923 11.94C47.6523 12.58 47.3323 13.49 47.3323 14.67C47.3323 15.85 47.6523 16.77 48.2923 17.43C48.9523 18.07 49.7523 18.39 50.6923 18.39C51.6323 18.39 52.4223 18.07 53.0623 17.43C53.7223 16.77 54.0523 15.85 54.0523 14.67C54.0523 13.49 53.7223 12.58 53.0623 11.94C52.4223 11.3 51.6323 10.98 50.6923 10.98C49.7523 10.98 48.9523 11.3 48.2923 11.94Z" fill="black"/>
<path d="M66.5616 22.14H62.0016V7.23H66.5616V22.14ZM62.3916 4.56C61.8716 4.04 61.6116 3.41 61.6116 2.67C61.6116 1.93 61.8716 1.3 62.3916 0.780001C62.9116 0.26 63.5316 0 64.2516 0C64.9916 0 65.6216 0.26 66.1416 0.780001C66.6816 1.3 66.9516 1.93 66.9516 2.67C66.9516 3.41 66.6816 4.04 66.1416 4.56C65.6216 5.08 64.9916 5.34 64.2516 5.34C63.5316 5.34 62.9116 5.08 62.3916 4.56Z" fill="black"/>
<path d="M70.6763 21.51C70.0763 20.89 69.7763 20.16 69.7763 19.32C69.7763 18.48 70.0763 17.76 70.6763 17.16C71.2763 16.56 71.9963 16.26 72.8363 16.26C73.6763 16.26 74.3963 16.56 74.9963 17.16C75.6163 17.76 75.9263 18.48 75.9263 19.32C75.9263 20.14 75.6163 20.86 74.9963 21.48C74.3963 22.1 73.6763 22.41 72.8363 22.41C71.9963 22.41 71.2763 22.11 70.6763 21.51Z" fill="black"/>
</mask>
<g mask="url(#mask0)">
<rect x="67" y="13" width="13" height="12" fill="#4F56F1"/>
</g>
</svg>
