<svg width="35" height="34" viewBox="0 0 35 34" fill="none" xmlns="http://www.w3.org/2000/svg">
<g clip-path="url(#clip0)">
<path d="M7.10307 33.4259L0 26.5968V0.896606L7.10307 7.85679V33.4259Z" fill="white"/>
<path d="M35 27.1036L27.8969 34V20.8132L35 13.8636V27.1036Z" fill="white"/>
<path d="M35 10.3871L17.6406 27.4438L9.86359 19.821V10.5643L17.5288 18.0774L35 0.878906V10.3871Z" fill="white"/>
<path d="M17.3775 4.18887C17.3775 5.29983 16.9287 6.36528 16.1299 7.15085C15.331 7.93641 14.2476 8.37773 13.1178 8.37773C11.9887 8.37679 10.9062 7.93506 10.1081 7.14959C9.31005 6.36413 8.86175 5.29921 8.86176 4.18887C8.86175 3.07853 9.31005 2.0136 10.1081 1.22814C10.9062 0.442674 11.9887 0.000939377 13.1178 0C14.2476 0 15.331 0.441329 16.1299 1.22689C16.9287 2.01246 17.3775 3.07791 17.3775 4.18887V4.18887Z" fill="white"/>
</g>
<defs>
<clipPath id="clip0">
<rect width="35" height="34" fill="white"/>
</clipPath>
</defs>
</svg>
