<svg width="143" height="32" viewBox="0 0 143 32" fill="none" xmlns="http://www.w3.org/2000/svg">
<path d="M17.3125 31.5312V18.5C17.3125 18.3045 17.3125 18.0835 17.3125 17.8448C17.3125 14.9971 15.004 12.6875 12.1562 12.6875C10.5 12.6875 5.20312 12.6875 5.20312 12.6875C5.20312 12.6875 5.20312 16.7656 5.20312 18.5469V31.5312H0V0H5.20312V7.76562C5.20312 7.76562 11.3233 7.76562 13.75 7.76562C16.625 7.76562 18.7969 8.64062 20.2656 10.3906C21.7344 12.0781 22.4688 14.3437 22.4688 17.1875V31.5312H17.3125Z" fill="#6935FD"/>
<path d="M24.7594 19.8594C24.7594 17.6094 25.3219 15.5469 26.4469 13.6719C27.6344 11.7344 29.1344 10.2812 30.9469 9.3125C32.8219 8.28125 34.8844 7.76562 37.1344 7.76562C39.3219 7.76562 41.3531 8.28125 43.2281 9.3125C45.1031 10.3437 46.6031 11.7812 47.7281 13.625C48.8219 15.5312 49.3688 17.5781 49.3688 19.7656C49.4313 23.1094 48.2281 26 45.7594 28.4375C43.3219 30.8438 40.4313 32.0156 37.0875 31.9531C34.9313 31.9531 32.8844 31.4219 30.9469 30.3594C29.1344 29.3906 27.6344 27.9375 26.4469 26C25.3219 24.125 24.7594 22.0781 24.7594 19.8594ZM30.1031 19.7656C30.1031 21.7969 30.7594 23.5469 32.0719 25.0156C33.3844 26.4844 35.0719 27.2187 37.1344 27.2187C39.1656 27.2187 40.8375 26.5 42.15 25.0625C43.4313 23.625 44.0719 21.8906 44.0719 19.8594C44.0719 17.7656 43.4156 16.0156 42.1031 14.6094C40.8531 13.1719 39.1813 12.4531 37.0875 12.4531C35.025 12.4531 33.3375 13.1562 32.025 14.5625C30.7438 15.9375 30.1031 17.6719 30.1031 19.7656Z" fill="#6935FD"/>
<path d="M56.8907 8.23438V21.2656C56.8907 21.4739 56.8907 21.7111 56.8907 21.9678C56.8907 24.7896 59.1783 27.0781 62.0001 27.0781C63.6564 27.0781 68.9532 27.0781 68.9532 27.0781C68.9532 27.0781 68.9532 23 68.9532 21.2187V8.23438H74.1564V32C74.1564 32 65.644 32 60.4064 32C58.5626 32 56.9689 31.5938 55.6251 30.7812C54.2814 29.9375 53.2814 28.7969 52.6251 27.3594C52.0001 26.0156 51.6876 24.4219 51.6876 22.5781V8.23438H56.8907Z" fill="#6935FD"/>
<path d="M85.8689 31.9531C82.4001 31.9219 79.8533 30.8281 78.2283 28.6719C77.2908 27.4531 76.7751 26.2812 76.6814 25.1562L81.1345 23.9844C81.3845 25.1094 81.9158 26.0156 82.7283 26.7031C83.5408 27.3594 84.572 27.6875 85.822 27.6875C86.8533 27.6875 87.6501 27.4531 88.2126 26.9844C88.8064 26.4844 89.1033 25.8125 89.1033 24.9688C89.1033 23.6875 88.1814 22.8281 86.3376 22.3906L83.3845 21.6875C81.3845 21.2187 79.8533 20.4062 78.7908 19.25C77.7283 18.0625 77.197 16.6562 77.197 15.0312C77.197 13.0312 77.9939 11.3125 79.5876 9.875C81.1814 8.4375 83.1345 7.71875 85.447 7.71875C88.7283 7.75 91.1189 8.78125 92.6189 10.8125C93.4001 11.8437 93.8689 12.8906 94.0251 13.9531L89.6658 15.1719C89.447 14.2031 88.9783 13.4219 88.2595 12.8281C87.572 12.2344 86.6345 11.9375 85.447 11.9375C84.572 11.9375 83.822 12.1875 83.197 12.6875C82.572 13.125 82.2595 13.75 82.2595 14.5625C82.2595 15.875 83.0408 16.6875 84.6033 17L87.7908 17.6562C89.8845 18.125 91.5095 18.9844 92.6658 20.2344C93.822 21.5469 94.4001 23.0312 94.4001 24.6875C94.4001 26.6562 93.6501 28.3594 92.1501 29.7969C90.6814 31.2344 88.5876 31.9531 85.8689 31.9531Z" fill="#6935FD"/>
<path d="M118.538 21.4062H100.819C100.85 23.0937 101.569 24.5469 102.975 25.7656C104.382 26.9531 105.944 27.5312 107.663 27.5C110.913 27.5 112.975 26.1875 113.85 23.5625L118.21 24.9219C117.803 26.3281 117.053 27.5781 115.96 28.6719C114.897 29.7656 113.647 30.5937 112.21 31.1562C110.71 31.6875 109.21 31.9531 107.71 31.9531C104.335 32.0156 101.444 30.8594 99.0378 28.4844C96.6316 26.1094 95.4597 23.2344 95.5222 19.8594C95.5222 17.6719 96.0222 15.6562 97.0222 13.8125C98.0535 11.9062 99.4597 10.4375 101.241 9.40625C103.053 8.3125 105.053 7.76562 107.241 7.76562C110.803 7.76562 113.585 8.875 115.585 11.0937C117.616 13.3125 118.632 16.2188 118.632 19.8125C118.632 20.25 118.6 20.7812 118.538 21.4062ZM107.288 12.2187C105.632 12.2187 104.257 12.7031 103.163 13.6719C102.007 14.6094 101.319 15.875 101.1 17.4687H113.335C113.241 15.9062 112.632 14.625 111.507 13.625C110.319 12.6875 108.913 12.2187 107.288 12.2187Z" fill="#6935FD"/>
<path d="M137.844 31.53V18.4687C137.844 18.2732 137.844 18.0523 137.844 17.8136C137.844 14.9659 135.535 12.6562 132.688 12.6562C131.031 12.6562 126.33 12.6875 126.33 12.6875C126.33 12.6875 126.33 16.7656 126.33 18.5469V31.5312H121.127V8.23438C126.366 8.23438 129.013 8.20312 134.281 8.20312C137.156 8.20312 139.328 8.60937 140.797 10.3594C142.266 12.0469 143 14.3125 143 17.1562V31.53H137.844Z" fill="#6935FD"/>
</svg>
