<svg width="22" height="22" viewBox="0 0 22 22" fill="none" xmlns="http://www.w3.org/2000/svg">
<path d="M11 0C12.5 0 13.9219 0.289062 15.2656 0.867188C16.625 1.44531 17.7969 2.22656 18.7812 3.21094C19.7656 4.19531 20.5469 5.36719 21.125 6.72656C21.7031 8.07031 21.9922 9.49219 21.9922 10.9922C21.9922 12.4922 21.7031 13.9219 21.125 15.2812C20.5469 16.625 19.7656 17.7891 18.7812 18.7734C17.7969 19.7578 16.6328 20.5391 15.2891 21.1172C13.9297 21.6953 12.5 21.9844 11 21.9844C9.5 21.9844 8.07812 21.6953 6.73438 21.1172C5.375 20.5391 4.20312 19.7578 3.21875 18.7734C2.23438 17.7891 1.45312 16.625 0.875 15.2812C0.296875 13.9219 0.0078125 12.4922 0.0078125 10.9922C0.0078125 9.49219 0.296875 8.07031 0.875 6.72656C1.45312 5.36719 2.23438 4.19531 3.21875 3.21094C4.20312 2.22656 5.36719 1.44531 6.71094 0.867188C8.07031 0.289062 9.5 0 11 0ZM11 1.99219C9.78125 1.99219 8.61719 2.22656 7.50781 2.69531C6.39844 3.17969 5.4375 3.82031 4.625 4.61719C3.82812 5.42969 3.1875 6.39062 2.70312 7.5C2.23438 8.60938 2 9.77344 2 10.9922C2 12.2109 2.23438 13.375 2.70312 14.4844C3.1875 15.5938 3.82812 16.5547 4.625 17.3672C5.4375 18.1641 6.39844 18.7969 7.50781 19.2656C8.61719 19.75 9.78125 19.9922 11 19.9922C12.2188 19.9922 13.3828 19.7578 14.4922 19.2891C15.6016 18.8047 16.5625 18.1641 17.375 17.3672C18.1719 16.5547 18.8047 15.5938 19.2734 14.4844C19.7578 13.375 20 12.2109 20 10.9922C20 9.77344 19.7656 8.60938 19.2969 7.5C18.8125 6.39062 18.1719 5.42969 17.375 4.61719C16.5625 3.82031 15.6016 3.1875 14.4922 2.71875C13.3828 2.23438 12.2188 1.99219 11 1.99219ZM14.375 7.99219C14.6406 7.99219 14.875 8.08594 15.0781 8.27344C15.2656 8.47656 15.3594 8.71094 15.3594 8.97656C15.3594 9.25781 15.2656 9.5 15.0781 9.70312L10.8359 13.9453C10.6328 14.1328 10.3984 14.2266 10.1328 14.2266C9.85156 14.2266 9.60938 14.1328 9.40625 13.9453L7.29688 11.8125C7.09375 11.625 6.99219 11.3906 6.99219 11.1094C6.99219 10.8281 7.09375 10.5938 7.29688 10.4062C7.48438 10.2031 7.71875 10.1016 8 10.1016C8.28125 10.1016 8.51562 10.2031 8.70312 10.4062L10.1328 11.8125L13.6484 8.27344C13.8516 8.08594 14.0938 7.99219 14.375 7.99219Z" fill="black"/>
</svg>
