<svg width="26" height="18" viewBox="0 0 26 18" fill="none" xmlns="http://www.w3.org/2000/svg">
<path fill-rule="evenodd" clip-rule="evenodd" d="M2.21314 9C2.34698 9.20978 2.53787 9.4981 2.78217 9.84012C3.31181 10.5816 4.08759 11.5686 5.07199 12.553C7.05982 14.5408 9.79492 16.4167 13 16.4167C16.2051 16.4167 18.9402 14.5408 20.928 12.553C21.9124 11.5686 22.6882 10.5816 23.2178 9.84012C23.4621 9.4981 23.653 9.20978 23.7868 9C23.653 8.79023 23.4621 8.5019 23.2178 8.15989C22.6882 7.41839 21.9124 6.4314 20.928 5.447C18.9402 3.45917 16.2051 1.58334 13 1.58334C9.79492 1.58334 7.05982 3.45917 5.07199 5.447C4.08759 6.4314 3.31181 7.41839 2.78217 8.15989C2.53787 8.5019 2.34698 8.79023 2.21314 9ZM24.6667 9C25.3178 8.6279 25.3177 8.62766 25.3176 8.62739L25.316 8.62476L25.3125 8.61866L25.3004 8.59775C25.29 8.58 25.275 8.55473 25.2557 8.52242C25.2169 8.45781 25.1602 8.36503 25.0863 8.24811C24.9384 8.01436 24.7209 7.68356 24.4384 7.28803C23.8743 6.49828 23.0459 5.44361 21.9887 4.38634C19.8932 2.29084 16.7949 0.0833359 13 0.0833359C9.20507 0.0833359 6.10683 2.29084 4.01133 4.38634C2.95406 5.44361 2.12568 6.49828 1.56157 7.28803C1.27905 7.68356 1.0616 8.01436 0.91371 8.24811C0.839739 8.36503 0.783089 8.45781 0.744324 8.52242C0.72494 8.55473 0.710019 8.58 0.699634 8.59775L0.687464 8.61866L0.683945 8.62476L0.682829 8.6267C0.682676 8.62697 0.682144 8.6279 1.33333 9L0.682144 8.6279L0.469513 9L0.682144 9.37211L1.33333 9C0.682144 9.37211 0.681991 9.37184 0.682144 9.37211L0.682829 9.37331L0.683945 9.37525L0.687464 9.38135L0.699634 9.40226C0.710019 9.42001 0.72494 9.44528 0.744324 9.47759C0.783089 9.5422 0.839739 9.63498 0.91371 9.7519C1.0616 9.98565 1.27905 10.3164 1.56157 10.712C2.12568 11.5017 2.95406 12.5564 4.01133 13.6137C6.10683 15.7092 9.20507 17.9167 13 17.9167C16.7949 17.9167 19.8932 15.7092 21.9887 13.6137C23.0459 12.5564 23.8743 11.5017 24.4384 10.712C24.7209 10.3164 24.9384 9.98565 25.0863 9.7519C25.1602 9.63498 25.2169 9.5422 25.2557 9.47759C25.275 9.44528 25.29 9.42001 25.3004 9.40226L25.3125 9.38135L25.316 9.37525L25.3172 9.37331C25.3173 9.37304 25.3178 9.37211 24.6667 9ZM24.6667 9L25.3178 9.37211L25.5305 9L25.3176 8.62739L24.6667 9ZM13 6.25C11.4812 6.25 10.25 7.48122 10.25 9C10.25 10.5188 11.4812 11.75 13 11.75C14.5188 11.75 15.75 10.5188 15.75 9C15.75 7.48122 14.5188 6.25 13 6.25ZM8.74999 9C8.74999 6.65279 10.6528 4.75 13 4.75C15.3472 4.75 17.25 6.65279 17.25 9C17.25 11.3472 15.3472 13.25 13 13.25C10.6528 13.25 8.74999 11.3472 8.74999 9Z" fill="black"/>
</svg>
