<svg width="22" height="24" viewBox="0 0 22 24" fill="none" xmlns="http://www.w3.org/2000/svg">
<path d="M3.99219 0H18.0078C18.8359 0 19.5391 0.289062 20.1172 0.867188C20.7109 1.46094 21.0078 2.17188 21.0078 3V21C21.0078 21.8281 20.7109 22.5312 20.1172 23.1094C19.5391 23.7031 18.8359 24 18.0078 24H3.99219C3.16406 24 2.46094 23.7109 1.88281 23.1328C1.28906 22.5391 0.992188 21.8281 0.992188 21V3C0.992188 2.17188 1.28906 1.46875 1.88281 0.890625C2.46094 0.296875 3.16406 0 3.99219 0ZM6.99219 16.9922H15.0078C15.2734 16.9922 15.5078 17.0938 15.7109 17.2969C15.8984 17.4844 15.9922 17.7188 15.9922 18C15.9922 18.2812 15.8984 18.5156 15.7109 18.7031C15.5078 18.9062 15.2734 19.0078 15.0078 19.0078H6.99219C6.72656 19.0078 6.49219 18.9062 6.28906 18.7031C6.10156 18.5156 6.00781 18.2812 6.00781 18C6.00781 17.7188 6.10156 17.4844 6.28906 17.2969C6.49219 17.0938 6.72656 16.9922 6.99219 16.9922ZM6.99219 13.0078H15.0078C15.2734 13.0078 15.5078 13.1016 15.7109 13.2891C15.8984 13.4922 15.9922 13.7266 15.9922 13.9922C15.9922 14.2734 15.8984 14.5156 15.7109 14.7188C15.5078 14.9062 15.2734 15 15.0078 15H6.99219C6.72656 15 6.49219 14.9062 6.28906 14.7188C6.10156 14.5156 6.00781 14.2734 6.00781 13.9922C6.00781 13.7266 6.10156 13.4922 6.28906 13.2891C6.49219 13.1016 6.72656 13.0078 6.99219 13.0078ZM18.0078 1.99219H3.99219C3.72656 1.99219 3.49219 2.09375 3.28906 2.29688C3.10156 2.48438 3.00781 2.71875 3.00781 3V21C3.00781 21.2812 3.10156 21.5156 3.28906 21.7031C3.49219 21.9062 3.72656 22.0078 3.99219 22.0078H18.0078C18.2734 22.0078 18.5078 21.9062 18.7109 21.7031C18.8984 21.5156 18.9922 21.2812 18.9922 21V3C18.9922 2.71875 18.8984 2.48438 18.7109 2.29688C18.5078 2.09375 18.2734 1.99219 18.0078 1.99219ZM6.99219 9H15.0078C15.2734 9 15.5078 9.09375 15.7109 9.28125C15.8984 9.48438 15.9922 9.72656 15.9922 10.0078C15.9922 10.2734 15.8984 10.5078 15.7109 10.7109C15.5078 10.8984 15.2734 10.9922 15.0078 10.9922H6.99219C6.72656 10.9922 6.49219 10.8984 6.28906 10.7109C6.10156 10.5078 6.00781 10.2734 6.00781 10.0078C6.00781 9.72656 6.10156 9.49219 6.28906 9.30469C6.49219 9.10156 6.72656 9 6.99219 9ZM6.99219 4.99219H11C11.2812 4.99219 11.5156 5.09375 11.7031 5.29688C11.9062 5.48438 12.0078 5.71875 12.0078 6C12.0078 6.28125 11.9062 6.51562 11.7031 6.70312C11.5156 6.90625 11.2812 7.00781 11 7.00781H6.99219C6.72656 7.00781 6.49219 6.90625 6.28906 6.70312C6.10156 6.51562 6.00781 6.28125 6.00781 6C6.00781 5.71875 6.10156 5.48438 6.28906 5.29688C6.49219 5.09375 6.72656 4.99219 6.99219 4.99219Z" fill="black"/>
</svg>
