<svg width="24" height="21" viewBox="0 0 24 21" fill="none" xmlns="http://www.w3.org/2000/svg">
<path opacity="0.684524" d="M12 3.75C12.1094 3.75 12.1953 3.78906 12.2578 3.86719C12.3359 3.92969 12.375 4.01562 12.375 4.125C12.375 4.23438 12.3359 4.32812 12.2578 4.40625C12.1953 4.46875 12.1094 4.5 12 4.5C11 4.5 10.0469 4.625 9.14062 4.875C8.23438 5.10938 7.4375 5.4375 6.75 5.85938C6.0625 6.26562 5.51562 6.74219 5.10938 7.28906C4.70312 7.83594 4.5 8.40625 4.5 9C4.5 9.10938 4.46094 9.20312 4.38281 9.28125C4.32031 9.34375 4.23438 9.375 4.125 9.375C4.01562 9.375 3.92188 9.34375 3.84375 9.28125C3.78125 9.20312 3.75 9.10938 3.75 9C3.75 8.28125 3.96875 7.60938 4.40625 6.98438C4.84375 6.34375 5.4375 5.78906 6.1875 5.32031C6.95312 4.83594 7.82812 4.45312 8.8125 4.17188C9.8125 3.89062 10.875 3.75 12 3.75ZM12 0C10.3438 0 8.78125 0.234375 7.3125 0.703125C5.85938 1.17188 4.58594 1.82031 3.49219 2.64844C2.41406 3.46094 1.5625 4.41406 0.9375 5.50781C0.3125 6.58594 0 7.75 0 9C0 9.78125 0.125 10.5312 0.375 11.25C0.625 11.9688 0.976562 12.6484 1.42969 13.2891C1.89844 13.9141 2.45312 14.5 3.09375 15.0469C3.75 15.5781 4.46875 16.0469 5.25 16.4531C5.25 16.4531 5.25 16.4609 5.25 16.4766C5.25 16.4766 5.25 16.4844 5.25 16.5C5.25 17.1719 5.0625 17.8359 4.6875 18.4922C4.3125 19.1484 4.01562 19.6719 3.79688 20.0625C3.78125 20.0938 3.76562 20.1328 3.75 20.1797C3.75 20.2266 3.75 20.2734 3.75 20.3203C3.75 20.5078 3.8125 20.6641 3.9375 20.7891C4.07812 20.9297 4.24219 21 4.42969 21C4.46094 21 4.5 20.9922 4.54688 20.9766C4.59375 20.9766 4.61719 20.9844 4.61719 21C5.21094 20.8906 5.78125 20.6953 6.32812 20.4141C6.875 20.1328 7.375 19.8281 7.82812 19.5C8.29688 19.1719 8.6875 18.8516 9 18.5391C9.32812 18.2266 9.55469 17.9922 9.67969 17.8359C10.0547 17.8828 10.4375 17.9219 10.8281 17.9531C11.2188 17.9844 11.6094 18 12 18C13.6562 18 15.2109 17.7656 16.6641 17.2969C18.1328 16.8281 19.4062 16.1875 20.4844 15.375C21.5781 14.5469 22.4375 13.5938 23.0625 12.5156C23.6875 11.4219 24 10.25 24 9C24 7.75 23.6875 6.58594 23.0625 5.50781C22.4375 4.41406 21.5781 3.46094 20.4844 2.64844C19.4062 1.82031 18.1328 1.17188 16.6641 0.703125C15.2109 0.234375 13.6562 0 12 0ZM12 16.5C11.6562 16.5 11.3047 16.4922 10.9453 16.4766C10.6016 16.4453 10.2578 16.3984 9.91406 16.3359C9.86719 16.3359 9.82812 16.3359 9.79688 16.3359C9.76562 16.3359 9.72656 16.3359 9.67969 16.3359C9.46094 16.3359 9.25 16.3828 9.04688 16.4766C8.84375 16.5703 8.67188 16.7031 8.53125 16.875C8.375 17.0781 8.08594 17.3672 7.66406 17.7422C7.24219 18.1172 6.75781 18.4609 6.21094 18.7734C6.35156 18.4453 6.46875 18.0938 6.5625 17.7188C6.67188 17.3438 6.73438 16.9609 6.75 16.5703C6.75 16.5547 6.75 16.5391 6.75 16.5234C6.75 16.4922 6.75 16.4688 6.75 16.4531C6.75 16.1719 6.67188 15.9141 6.51562 15.6797C6.375 15.4297 6.17969 15.2422 5.92969 15.1172C5.24219 14.7578 4.625 14.3516 4.07812 13.8984C3.53125 13.4453 3.0625 12.9609 2.67188 12.4453C2.29688 11.9141 2.00781 11.3594 1.80469 10.7812C1.60156 10.1875 1.5 9.59375 1.5 9C1.5 7.96875 1.77344 7 2.32031 6.09375C2.88281 5.17188 3.63281 4.375 4.57031 3.70312C5.52344 3.01562 6.63281 2.47656 7.89844 2.08594C9.17969 1.69531 10.5469 1.5 12 1.5C13.4531 1.5 14.8125 1.69531 16.0781 2.08594C17.3594 2.47656 18.4688 3.01562 19.4062 3.70312C20.3594 4.375 21.1094 5.17188 21.6562 6.09375C22.2188 7 22.5 7.96875 22.5 9C22.5 10.0312 22.2188 11.0078 21.6562 11.9297C21.1094 12.8359 20.3594 13.6328 19.4062 14.3203C18.4688 14.9922 17.3594 15.5234 16.0781 15.9141C14.8125 16.3047 13.4531 16.5 12 16.5Z" fill="black"/>
</svg>
