<svg width="26" height="25" viewBox="0 0 26 25" fill="none" xmlns="http://www.w3.org/2000/svg">
<path fill-rule="evenodd" clip-rule="evenodd" d="M3.82646 7.75531C4.30085 3.39664 7.98264 0 12.4697 0C16.8577 0 20.4772 3.2479 21.0777 7.46882C23.5475 7.78771 25.4167 9.90374 25.4167 12.4167C25.4167 15.1738 23.1813 17.4091 20.4242 17.4091H17.553V15.9091H20.4242C22.3529 15.9091 23.9167 14.3453 23.9167 12.4167C23.9167 10.497 22.3599 8.91345 20.4031 8.92741L19.6957 8.93245L19.6493 8.22662C19.4024 4.46995 16.2855 1.5 12.4697 1.5C8.61089 1.5 5.46786 4.538 5.28336 8.3547L5.25657 8.90904L4.71861 9.04547C3.20308 9.42982 2.08333 10.7912 2.08333 12.4167C2.08333 14.3453 3.64709 15.9091 5.57575 15.9091H8.44697V17.4091H5.57575C2.81866 17.4091 0.583328 15.1738 0.583328 12.4167C0.583328 10.2731 1.93814 8.46232 3.82646 7.75531ZM12.25 21.2121V9.23485H13.75V21.2121L16.1818 18.7802L17.2425 19.8409L13 24.0834L8.75752 19.8409L9.81818 18.7802L12.25 21.2121Z" fill="black"/>
</svg>
