<svg width="22" height="24" viewBox="0 0 22 24" fill="none" xmlns="http://www.w3.org/2000/svg">
<path d="M15.5215 10.3125C15.5215 9.79472 15.1018 9.375 14.584 9.375H4.92778C4.41 9.375 3.99028 9.79472 3.99028 10.3125C3.99028 10.8303 4.41 11.25 4.92778 11.25H14.584C15.1018 11.25 15.5215 10.8303 15.5215 10.3125Z" fill="#6E798C"/>
<path d="M4.92778 13.125C4.41 13.125 3.99028 13.5447 3.99028 14.0625C3.99028 14.5803 4.41 15 4.92778 15H10.7923C11.3101 15 11.7298 14.5803 11.7298 14.0625C11.7298 13.5447 11.3101 13.125 10.7923 13.125H4.92778Z" fill="#6E798C"/>
<path d="M7.13106 22.125H3.99564C2.96176 22.125 2.12064 21.2839 2.12064 20.25V3.75C2.12064 2.71613 2.96176 1.875 3.99564 1.875H15.5217C16.5556 1.875 17.3967 2.71613 17.3967 3.75V9.51562C17.3967 10.0334 17.8164 10.4531 18.3342 10.4531C18.852 10.4531 19.2717 10.0334 19.2717 9.51562V3.75C19.2717 1.68225 17.5894 0 15.5217 0H3.99564C1.92789 0 0.245636 1.68225 0.245636 3.75V20.25C0.245636 22.3177 1.92789 24 3.99564 24H7.13106C7.64884 24 8.06856 23.5803 8.06856 23.0625C8.06856 22.5447 7.64884 22.125 7.13106 22.125Z" fill="#6E798C"/>
<path d="M20.9321 13.5737C19.8355 12.4771 18.0512 12.477 16.9553 13.5729L11.8083 18.7086C11.699 18.8176 11.6184 18.952 11.5735 19.0997L10.4525 22.79C10.3532 23.1171 10.4397 23.4724 10.6785 23.7171C10.8574 23.9005 11.1004 24 11.3496 24C11.433 24 11.5172 23.9888 11.5999 23.9659L15.3838 22.9177C15.5396 22.8746 15.6815 22.792 15.7959 22.6778L20.9321 17.5512C22.0287 16.4546 22.0287 14.6704 20.9321 13.5737ZM14.6457 21.1766L12.7421 21.704L13.2992 19.8698L16.7721 16.4046L18.0982 17.7306L14.6457 21.1766ZM19.6069 16.2248L19.4253 16.4061L18.0994 15.0802L18.2805 14.8996C18.646 14.5341 19.2408 14.5341 19.6063 14.8996C19.9718 15.2651 19.9718 15.8599 19.6069 16.2248Z" fill="#6E798C"/>
<path d="M14.584 5.625H4.92778C4.41 5.625 3.99028 6.04472 3.99028 6.5625C3.99028 7.08028 4.41 7.5 4.92778 7.5H14.584C15.1018 7.5 15.5215 7.08028 15.5215 6.5625C15.5215 6.04472 15.1018 5.625 14.584 5.625Z" fill="#6E798C"/>
</svg>
