<svg width="24" height="24" viewBox="0 0 24 24" fill="none" xmlns="http://www.w3.org/2000/svg">
<path d="M11.9603 13.3991C15.5071 13.3991 18.3839 10.5222 18.3839 6.97542C18.3839 3.42864 15.5071 0.571457 11.9603 0.571457C8.41353 0.571457 5.53667 3.44832 5.53667 6.97542C5.53667 10.5025 8.41349 13.3991 11.9603 13.3991ZM11.9603 2.24634C14.5613 2.24634 16.6894 4.37441 16.6894 6.97542C16.6894 9.57643 14.5613 11.7045 11.9603 11.7045C9.35934 11.7045 7.23123 9.57639 7.23123 6.97538C7.23123 4.37436 9.3593 2.24634 11.9603 2.24634Z" fill="#6E798C"/>
<path d="M0.847282 23.4286H23.1527C23.6256 23.4286 24 23.0542 24 22.5813C24 18.1478 20.3941 14.5221 15.9409 14.5221H8.05912C3.62562 14.5221 0 18.1281 0 22.5813C0 23.0542 0.374378 23.4286 0.847282 23.4286ZM8.05912 16.2167H15.9409C19.1724 16.2167 21.8325 18.6207 22.2463 21.734H1.75369C2.16747 18.6404 4.8276 16.2167 8.05912 16.2167Z" fill="#6E798C"/>
</svg>
