<svg width="22" height="20" viewBox="0 0 22 20" fill="none" xmlns="http://www.w3.org/2000/svg">
<path d="M21.4062 10.9219H19.3906V18.1172C19.3906 18.3828 19.3125 18.6484 19.1562 18.9141C19 19.1797 18.6797 19.3125 18.1953 19.3125H13.3906V12.1172H8.60937V19.3125H3.80468C3.32031 19.3125 3 19.1797 2.84375 18.9141C2.6875 18.6484 2.60937 18.3828 2.60937 18.1172V10.9219H0.593746C0.234371 10.9219 0.0703088 10.8359 0.101559 10.6641C0.132809 10.4922 0.273434 10.2812 0.523434 10.0312L10.1562 0.375C10.2656 0.265625 10.3906 0.179688 10.5312 0.117188C10.6875 0.0546875 10.8437 0.015625 11 0C11.1562 0.015625 11.3047 0.0546875 11.4453 0.117188C11.6016 0.164062 11.7344 0.25 11.8437 0.375L21.4766 10.0078C21.7266 10.2734 21.8672 10.4922 21.8984 10.6641C21.9297 10.8359 21.7656 10.9219 21.4062 10.9219Z" fill="black"/>
</svg>
