<svg width="200" height="53" viewBox="0 0 200 53" fill="none" xmlns="http://www.w3.org/2000/svg">
<g clip-path="url(#clip0)">
<path d="M90.2492 29.5291H87.1185L83.6167 13.1764H86.2094L88.6838 25.573L90.8355 13.1764H93.3852L90.2492 29.5291Z" fill="#0C5CA8"/>
<path d="M101.815 29.5291L97.4416 18.674V29.5291H95.0371V13.1764H97.5814L101.67 23.3523V13.1764H104.09V29.5291H101.815Z" fill="#0C5CA8"/>
<path d="M115.456 18.135C115.458 18.8143 115.368 19.4907 115.187 20.1454C115.01 20.7985 114.656 21.3899 114.165 21.854C113.724 22.2961 113.162 22.598 112.551 22.7217C111.949 22.8469 111.337 22.9101 110.722 22.9104H109.06V29.5291H106.537V13.1764H110.722C112.415 13.1764 113.625 13.586 114.353 14.4052C115.095 15.2245 115.456 16.4642 115.456 18.135ZM112.841 17.9517C112.841 16.9708 112.632 16.3348 112.217 15.9952C111.605 15.6186 110.889 15.4486 110.173 15.5102H109.098V20.5766H110.173C111.185 20.5766 111.884 20.3933 112.266 20.0376C112.648 19.6819 112.841 18.965 112.841 17.9517Z" fill="#0C5CA8"/>
<path d="M121.787 15.5102V29.5237H119.27V15.5102H116.112V13.1764H124.966V15.5102H121.787Z" fill="#0C5CA8"/>
<path d="M140.447 25.5999C140.458 26.2029 140.343 26.8015 140.108 27.357C139.89 27.8581 139.565 28.3052 139.156 28.6667C138.745 29.0329 138.264 29.3116 137.741 29.486C137.173 29.6788 136.577 29.7736 135.977 29.7662C134.476 29.7662 133.331 29.3566 132.551 28.5374C131.711 27.5869 131.182 26.4021 131.034 25.1418L133.46 24.4357C133.508 24.8016 133.589 25.1624 133.702 25.5137C133.812 25.849 133.969 26.1667 134.17 26.4569C134.36 26.7335 134.607 26.9653 134.896 27.136C135.225 27.3176 135.596 27.407 135.972 27.3947C136.221 27.4116 136.47 27.3747 136.704 27.2865C136.937 27.1984 137.149 27.061 137.325 26.8837C137.501 26.7063 137.637 26.4932 137.724 26.2587C137.81 26.0242 137.846 25.7738 137.828 25.5245C137.828 25.0262 137.666 24.5414 137.365 24.1447C137.027 23.6906 136.633 23.2813 136.192 22.9266C135.719 22.5385 135.213 22.1504 134.675 21.7677C134.136 21.3838 133.629 20.9566 133.158 20.4904C132.691 20.0339 132.295 19.5086 131.986 18.9327C131.665 18.3276 131.504 17.6504 131.518 16.9654C131.509 16.3916 131.621 15.8223 131.846 15.2946C132.056 14.8111 132.366 14.3776 132.755 14.0226C133.148 13.6676 133.607 13.393 134.105 13.2141C134.64 13.0226 135.205 12.9277 135.773 12.9338C136.362 12.9237 136.948 13.0261 137.499 13.2357C137.986 13.435 138.43 13.7259 138.807 14.0926C139.189 14.4713 139.507 14.91 139.748 15.3916C140.011 15.9046 140.212 16.4475 140.345 17.0085L137.935 17.7146C137.86 17.4505 137.768 17.1756 137.661 16.8792C137.554 16.5994 137.411 16.3348 137.236 16.0923C137.066 15.8655 136.857 15.6719 136.617 15.5209C136.365 15.36 136.071 15.2775 135.773 15.2838C135.555 15.2778 135.338 15.3174 135.136 15.3999C134.934 15.4825 134.752 15.6063 134.6 15.7635C134.446 15.919 134.325 16.1043 134.245 16.3082C134.164 16.512 134.126 16.7301 134.132 16.9492C134.13 17.4404 134.295 17.9177 134.6 18.3021C134.944 18.7396 135.34 19.1341 135.778 19.4771C136.251 19.849 136.757 20.237 137.295 20.6305C137.834 21.0253 138.341 21.4614 138.812 21.9348C139.283 22.4102 139.679 22.9556 139.985 23.5518C140.303 24.1866 140.462 24.8897 140.447 25.5999Z" fill="#0C5CA8"/>
<path d="M152.061 29.5291V20.6089C152.061 20.4418 152.061 20.2801 152.061 20.1131C152.052 19.9575 152.018 19.8044 151.959 19.6603C151.9 19.5075 151.793 19.3782 151.654 19.2925C151.515 19.2067 151.352 19.1693 151.189 19.186C150.795 19.1859 150.413 19.3274 150.114 19.5849C149.812 19.8278 149.54 20.1045 149.301 20.4095V29.5291H147.031V20.6089C147.031 20.4418 147.031 20.2801 147.031 20.1131C147.023 19.9575 146.988 19.8044 146.929 19.6603C146.871 19.5075 146.764 19.3782 146.625 19.2925C146.486 19.2067 146.322 19.1693 146.16 19.186C145.778 19.1915 145.41 19.3329 145.122 19.5849C144.826 19.8264 144.56 20.1034 144.331 20.4095V29.5291H142.023V17.3427H144.331V18.9111C144.719 18.4574 145.159 18.052 145.644 17.7038C146.136 17.3587 146.726 17.1811 147.327 17.1972C147.567 17.1809 147.808 17.2141 148.035 17.2947C148.261 17.3754 148.469 17.5018 148.645 17.6661C148.963 18.0125 149.171 18.4459 149.242 18.9111C149.653 18.464 150.111 18.0628 150.609 17.7146C151.109 17.3576 151.71 17.1689 152.324 17.1756C152.683 17.1618 153.039 17.2476 153.352 17.4235C153.609 17.5775 153.82 17.797 153.965 18.0595C154.12 18.334 154.221 18.6361 154.261 18.9489C154.309 19.2935 154.332 19.6411 154.331 19.9891V29.5291H152.061Z" fill="#0C5CA8"/>
<path d="M161.69 29.5291C161.606 29.3032 161.55 29.0679 161.523 28.8284C161.523 28.5913 161.485 28.3541 161.485 28.1062C161.116 28.5101 160.713 28.8815 160.28 29.2165C159.832 29.5493 159.283 29.7185 158.726 29.6962C158.323 29.7125 157.924 29.6154 157.575 29.4159C157.264 29.2292 157 28.9728 156.805 28.6667C156.604 28.3484 156.461 27.9959 156.386 27.6265C156.306 27.2436 156.266 26.8534 156.267 26.4623C156.262 25.9676 156.34 25.4754 156.499 25.007C156.681 24.5416 156.97 24.126 157.343 23.7943C157.922 23.2502 158.592 22.8124 159.323 22.5008C160.087 22.1666 160.813 21.8486 161.474 21.5575V20.9215C161.474 20.7167 161.474 20.5011 161.442 20.2855C161.42 20.0986 161.367 19.9166 161.286 19.7466C161.207 19.5823 161.079 19.4467 160.92 19.3585C160.724 19.2531 160.503 19.2028 160.28 19.213C160.068 19.1852 159.852 19.2217 159.66 19.3177C159.468 19.4138 159.31 19.565 159.204 19.7519C159.016 20.127 158.915 20.5397 158.909 20.9593H156.488C156.498 20.4299 156.612 19.9078 156.824 19.423C157.037 18.9382 157.343 18.5004 157.725 18.135C158.531 17.467 159.559 17.1282 160.603 17.1864C161.063 17.1849 161.521 17.2484 161.964 17.375C162.409 17.5091 162.805 17.7738 163.099 18.135C163.43 18.4782 163.638 18.9218 163.691 19.3962C163.754 19.8716 163.79 20.3503 163.798 20.8299V26.2197C163.798 26.7587 163.798 27.2977 163.798 27.8798C163.817 28.4263 163.898 28.9688 164.04 29.4967L161.69 29.5291ZM161.485 23.2553C161.195 23.4009 160.883 23.5679 160.555 23.7943C160.232 23.9863 159.931 24.2122 159.656 24.468C159.384 24.7072 159.149 24.985 158.957 25.2927C158.767 25.6022 158.669 25.959 158.672 26.3221C158.671 26.6579 158.774 26.9857 158.968 27.26C159.061 27.3993 159.189 27.5119 159.339 27.5866C159.489 27.6613 159.656 27.6955 159.823 27.6858C160.177 27.6924 160.523 27.5763 160.802 27.357C161.075 27.1437 161.305 26.8803 161.48 26.5808L161.485 23.2553Z" fill="#0C5CA8"/>
<path d="M170.791 19.6549C170.614 19.6223 170.434 19.6061 170.253 19.6064C169.91 19.5874 169.568 19.6619 169.263 19.822C169.028 19.9576 168.84 20.1628 168.726 20.4095C168.602 20.6725 168.525 20.9553 168.5 21.2449C168.467 21.5637 168.451 21.8839 168.451 22.2043V29.5291H166.144V17.3427H168.451V19.4501C168.669 18.8226 169.022 18.2505 169.484 17.7739C170.002 17.351 170.663 17.1445 171.329 17.1972V19.822C171.159 19.7406 170.978 19.6843 170.791 19.6549Z" fill="#0C5CA8"/>
<path d="M177.461 29.6477C177.208 29.6804 176.953 29.6966 176.698 29.6962C176.241 29.6984 175.785 29.6423 175.342 29.5291C174.899 29.4111 174.504 29.1566 174.212 28.8015C173.898 28.4466 173.709 27.9976 173.675 27.5241C173.642 27.0336 173.621 26.5647 173.621 26.1173V19.4016H171.889V17.3427H173.621V14.0118H175.928V17.3427H178.01V19.4016H175.928V25.8694C175.908 26.3055 176.005 26.7391 176.208 27.1252C176.338 27.2997 176.513 27.4361 176.713 27.5204C176.914 27.6048 177.133 27.6339 177.348 27.6049C177.495 27.606 177.64 27.5934 177.784 27.5672C177.924 27.5387 178.062 27.5027 178.198 27.4594V29.5183C177.962 29.5776 177.709 29.6153 177.461 29.6477Z" fill="#0C5CA8"/>
<path d="M188.085 26.4785C187.958 27.0982 187.705 27.6851 187.342 28.2032C186.988 28.7023 186.51 29.0999 185.955 29.3566C185.286 29.6504 184.56 29.7904 183.83 29.7663C183.113 29.7785 182.402 29.6389 181.743 29.3566C181.097 29.055 180.555 28.5694 180.183 27.9607C179.969 27.6534 179.807 27.3129 179.704 26.9528C179.592 26.5906 179.513 26.219 179.467 25.8425C179.42 25.4634 179.397 25.0818 179.397 24.6998V18.9812C179.397 18.577 179.397 18.1781 179.397 17.7847C179.408 17.3969 179.44 17.01 179.494 16.6259C179.549 16.2435 179.642 15.8678 179.774 15.5048C179.915 15.1214 180.107 14.7587 180.344 14.4268C180.741 13.9057 181.279 13.5093 181.893 13.2842C182.505 13.0507 183.154 12.932 183.808 12.9338C184.49 12.9174 185.168 13.0498 185.793 13.3219C186.332 13.5673 186.806 13.9366 187.176 14.3999C187.546 14.8801 187.817 15.4299 187.972 16.0168C188.144 16.6711 188.229 17.3452 188.225 18.0218V18.5123H185.707C185.707 18.1745 185.691 17.8152 185.659 17.4343C185.631 17.0821 185.547 16.7364 185.411 16.4103C185.291 16.1036 185.095 15.8327 184.841 15.6234C184.542 15.4054 184.178 15.297 183.808 15.3161C183.425 15.2896 183.044 15.3982 182.733 15.6234C182.49 15.8293 182.304 16.0949 182.195 16.3941C182.07 16.7204 181.995 17.0639 181.974 17.4128C181.974 17.7793 181.936 18.135 181.936 18.4907V23.9345C181.936 24.2794 181.936 24.6567 181.963 25.0609C181.975 25.445 182.046 25.825 182.173 26.1874C182.289 26.5209 182.485 26.8207 182.743 27.0606C183.055 27.315 183.45 27.4438 183.851 27.4217C184.255 27.4446 184.651 27.3114 184.959 27.0498C185.232 26.8037 185.435 26.4893 185.546 26.1389C185.669 25.7583 185.743 25.3634 185.766 24.9639C185.799 24.5435 185.809 24.1608 185.809 23.8159H188.321V24.3549C188.316 25.069 188.236 25.7807 188.085 26.4785Z" fill="#0C5CA8"/>
<path d="M196.81 29.5075L196.127 25.9556H192.625L191.995 29.5075H189.521L192.652 13.1548H196.105L199.402 29.5075H196.81ZM194.335 16.2917L193.044 23.6164H195.685L194.335 16.2917Z" fill="#0C5CA8"/>
<path d="M95.6663 34.3044C95.6576 34.3699 95.6273 34.4306 95.5802 34.4769L93.4285 37.1718L96.0428 40.0177C96.1074 40.0823 96.1235 40.1201 96.1235 40.1524C96.1235 40.1847 96.0105 40.2764 95.7416 40.2764H95.6394C95.5569 40.2899 95.4726 40.2869 95.3913 40.2675C95.3101 40.248 95.2335 40.2126 95.166 40.1632L92.697 37.3766H92.6647V40.0716C92.6647 40.1955 92.5571 40.2656 92.3204 40.2656H92.2559C92.0138 40.2656 91.9116 40.1955 91.9116 40.0716V34.3691C91.9116 34.2506 92.0138 34.1805 92.2559 34.1805H92.3258C92.5625 34.1805 92.6701 34.2506 92.6701 34.3691V36.9994H92.7024L94.8271 34.3044C94.9612 34.2086 95.1262 34.1663 95.2897 34.1859H95.3758C95.5748 34.1805 95.6663 34.229 95.6663 34.3044Z" fill="#DE9B39"/>
<path d="M100.163 35.8567C100.169 35.896 100.169 35.936 100.163 35.9753L97.9203 41.8502C97.8666 41.9796 97.7213 42.0335 97.5115 42.0335H97.3824C97.1942 42.0335 97.0973 41.9796 97.0973 41.8933C97.1025 41.8426 97.1171 41.7932 97.1404 41.7478L97.8665 39.9961L96.355 35.9591C96.3429 35.9222 96.3339 35.8844 96.3281 35.846C96.3281 35.7597 96.4411 35.7004 96.6993 35.7004H96.7692C96.9413 35.7004 97.0704 35.7328 97.1135 35.8352L97.9957 38.1797C98.0979 38.4654 98.1947 38.778 98.27 39.0529C98.356 38.7834 98.4475 38.4438 98.5497 38.1797L99.4157 35.8352C99.448 35.7328 99.5879 35.7004 99.7708 35.7004C100.056 35.7112 100.163 35.7597 100.163 35.8567ZM99.3566 34.0296C99.3566 34.1266 99.2705 34.2074 98.5497 35.0375C98.4899 35.0907 98.42 35.1315 98.3443 35.1574C98.2686 35.1833 98.1885 35.1939 98.1086 35.1884C97.9688 35.1884 97.9096 35.1884 97.9096 35.1022C98.0334 34.7617 98.2016 34.4391 98.4098 34.1428C98.5067 33.9811 98.668 33.9218 98.9478 33.9218C99.2275 33.9218 99.3566 33.9487 99.3566 34.0296Z" fill="#DE9B39"/>
<path d="M105.66 36.0346C105.66 36.1747 105.499 36.5035 105.386 36.5035C105.147 36.3635 104.877 36.2857 104.601 36.2771C104.17 36.2771 103.831 36.4873 103.831 36.8161C103.831 37.1449 104.025 37.4198 104.504 37.5653C105.58 37.8941 105.886 38.1797 105.886 38.9667C105.877 39.1568 105.831 39.3432 105.748 39.5147C105.666 39.6863 105.55 39.8395 105.408 39.9652C105.265 40.091 105.099 40.1867 104.919 40.2466C104.738 40.3066 104.548 40.3295 104.358 40.3141C103.573 40.3141 102.987 39.9692 102.987 39.7751C102.987 39.6781 103.17 39.3439 103.288 39.3439C103.588 39.5526 103.94 39.6722 104.305 39.6889C104.843 39.6889 105.155 39.4625 105.155 38.9882C105.155 38.6002 104.939 38.4007 104.289 38.2121C103.358 37.9318 103.089 37.5599 103.089 36.9131C103.095 36.7343 103.138 36.5586 103.215 36.3971C103.292 36.2355 103.401 36.0914 103.536 35.9737C103.67 35.856 103.828 35.7673 103.998 35.7128C104.168 35.6584 104.348 35.6395 104.525 35.6573C105.112 35.6627 105.66 35.8459 105.66 36.0346Z" fill="#DE9B39"/>
<path d="M110.83 38.0073C110.83 39.5057 110.152 40.298 108.867 40.298C107.581 40.298 106.866 39.4949 106.866 38.0073C106.866 36.5197 107.587 35.6735 108.867 35.6735C110.147 35.6735 110.83 36.5035 110.83 38.0073ZM107.63 38.0073C107.63 39.1553 108.001 39.6943 108.845 39.6943C109.69 39.6943 110.077 39.1553 110.077 38.0073C110.077 36.8593 109.69 36.3149 108.845 36.3149C108.001 36.3149 107.63 36.8323 107.63 37.9911V38.0073ZM109.302 34.2344L109.749 34.9944C109.779 35.0394 109.798 35.0913 109.803 35.1453C109.803 35.2207 109.733 35.2746 109.593 35.2746C109.54 35.2783 109.487 35.2701 109.438 35.2505C109.388 35.2309 109.344 35.2005 109.308 35.1615L108.894 34.5201L108.356 35.1615C108.278 35.2361 108.173 35.2768 108.065 35.2746C107.931 35.2746 107.866 35.2315 107.866 35.1507C107.87 35.0955 107.887 35.0421 107.915 34.9944L108.399 34.2344C108.444 34.1716 108.504 34.1212 108.573 34.0882C108.643 34.0552 108.72 34.0406 108.797 34.0458H109.012C109.072 34.0497 109.13 34.0685 109.18 34.1005C109.231 34.1325 109.273 34.1767 109.302 34.229V34.2344ZM111.174 32.9247C111.174 33.0163 111.088 33.0972 110.362 33.9272C110.302 33.9804 110.233 34.0212 110.157 34.0471C110.081 34.073 110.001 34.0836 109.921 34.0781C109.781 34.0781 109.722 34.0781 109.722 33.9919C109.846 33.6514 110.014 33.3288 110.222 33.0325C110.319 32.8708 110.481 32.8115 110.76 32.8115C111.04 32.8115 111.174 32.8331 111.174 32.9193V32.9247Z" fill="#DE9B39"/>
<path d="M115.311 34.8435V35.7543H116.037C116.156 35.7543 116.209 35.8298 116.209 36.013V36.1155C116.209 36.2987 116.156 36.3742 116.037 36.3742H115.311V39.0691C115.311 39.6081 115.526 39.7105 115.779 39.7105C115.902 39.7075 116.025 39.6931 116.145 39.6674C116.269 39.6674 116.328 40.0015 116.328 40.0716C116.328 40.3034 115.93 40.3303 115.698 40.3303C115.544 40.3366 115.39 40.3095 115.247 40.2508C115.104 40.1921 114.975 40.1032 114.869 39.9901C114.764 39.8771 114.684 39.7426 114.635 39.5957C114.585 39.4489 114.569 39.2932 114.585 39.1392V36.3472H114.155C114.036 36.3472 113.982 36.2718 113.982 36.0885V35.9861C113.982 35.8028 114.036 35.7274 114.155 35.7274H114.585L114.687 34.8435C114.687 34.7249 114.784 34.6548 114.967 34.6548H115.053C115.23 34.6279 115.311 34.6979 115.311 34.8435Z" fill="#DE9B39"/>
<path d="M120.819 35.9969V38.9667C120.814 39.3289 120.851 39.6905 120.927 40.0446C120.927 40.2117 120.572 40.244 120.459 40.244C120.254 40.244 120.211 39.8829 120.158 39.6404C119.99 39.8355 119.784 39.9938 119.553 40.1051C119.321 40.2164 119.069 40.2784 118.813 40.2872C118.624 40.3053 118.434 40.2816 118.255 40.2178C118.077 40.1539 117.915 40.0515 117.78 39.9177C117.646 39.7839 117.542 39.6222 117.477 39.4438C117.412 39.2655 117.387 39.075 117.403 38.8858V35.9214C117.403 35.7974 117.511 35.7328 117.753 35.7328H117.785C118.027 35.7328 118.13 35.7974 118.13 35.9214V38.8481C118.121 38.9645 118.138 39.0815 118.18 39.1906C118.221 39.2996 118.287 39.3979 118.371 39.4784C118.456 39.5589 118.557 39.6196 118.668 39.656C118.779 39.6924 118.896 39.7036 119.012 39.6889C119.225 39.6743 119.431 39.6125 119.617 39.5081C119.803 39.4037 119.964 39.2593 120.088 39.0852V35.9214C120.088 35.7974 120.19 35.7328 120.432 35.7328H120.765C121.137 35.7328 121.239 35.5818 121.239 35.4471C121.239 35.1884 121.034 35.0105 121.007 34.9081C121.008 34.8812 121.016 34.855 121.029 34.8315C121.042 34.808 121.06 34.7881 121.083 34.7734L121.293 34.6332C121.321 34.6092 121.357 34.5958 121.395 34.5955C121.594 34.5955 121.766 34.989 121.766 35.2369C121.744 35.6627 121.459 35.9753 120.819 35.9969ZM118.958 35.0375C118.232 34.2074 118.146 34.1266 118.146 34.0296C118.146 33.9326 118.286 33.9218 118.56 33.9218C118.834 33.9218 119.001 33.9811 119.098 34.1428C119.306 34.4391 119.474 34.7617 119.598 35.1022C119.598 35.1668 119.539 35.1884 119.399 35.1884C119.319 35.1939 119.239 35.1833 119.163 35.1574C119.088 35.1315 119.018 35.0907 118.958 35.0375Z" fill="#DE9B39"/>
<path d="M127.839 35.8567C127.831 35.9135 127.809 35.9673 127.774 36.013L126.467 37.9157L127.866 39.9638C127.903 40.006 127.928 40.0586 127.935 40.1147C127.935 40.2117 127.833 40.2656 127.537 40.2656H127.462C127.279 40.2656 127.161 40.2656 127.091 40.1363L126.176 38.7619C126.074 38.6055 126.031 38.5193 125.994 38.4546C125.941 38.5617 125.88 38.6645 125.811 38.7619L124.88 40.1417C124.829 40.1905 124.768 40.2271 124.701 40.2486C124.634 40.27 124.562 40.2759 124.493 40.2656H124.466C124.202 40.2656 124.095 40.2225 124.095 40.1147C124.103 40.0586 124.127 40.006 124.165 39.9638L125.563 37.9318L124.267 36.013C124.23 35.9687 124.208 35.9142 124.202 35.8567C124.202 35.7597 124.305 35.7112 124.595 35.7112H124.676C124.853 35.7112 124.977 35.7112 125.047 35.8406L125.864 37.0748C125.967 37.2311 126.01 37.3174 126.047 37.3767C126.101 37.2731 126.161 37.1724 126.225 37.0748L127.053 35.8298C127.118 35.7328 127.268 35.7112 127.446 35.7112H127.478C127.758 35.7112 127.839 35.7543 127.839 35.8567Z" fill="#DE9B39"/>
<path d="M132.266 37.0317V38.9667C132.261 39.3286 132.295 39.69 132.368 40.0446C132.368 40.2117 132.013 40.244 131.9 40.244C131.695 40.244 131.652 39.8829 131.599 39.6404C131.418 39.846 131.195 40.0101 130.945 40.1217C130.696 40.2333 130.425 40.2898 130.152 40.2872C129.312 40.2872 128.678 39.8829 128.678 38.9936C128.678 37.533 130.222 37.436 131.539 37.4198V36.9994C131.539 36.6113 131.308 36.2771 130.593 36.2771C130.122 36.2957 129.66 36.419 129.243 36.6383C129.124 36.6383 128.941 36.2987 128.941 36.2071C128.941 35.9807 129.7 35.6681 130.555 35.6681C131.636 35.6735 132.266 36.1747 132.266 37.0317ZM129.452 38.9559C129.442 39.0538 129.453 39.153 129.487 39.2457C129.52 39.3385 129.574 39.4224 129.644 39.491C129.715 39.5596 129.8 39.6112 129.894 39.6418C129.987 39.6723 130.087 39.6811 130.184 39.6673C130.438 39.664 130.69 39.6093 130.923 39.5065C131.155 39.4037 131.365 39.255 131.539 39.0691V38.0773C130.641 38.0773 129.452 38.0773 129.452 38.9559Z" fill="#DE9B39"/>
<path d="M134.342 39.5542C134.342 40.5944 133.74 41.252 133.454 41.252C133.358 41.252 133.202 41.252 133.202 41.1172C133.216 41.0445 133.243 40.975 133.282 40.9124C133.484 40.502 133.583 40.049 133.573 39.5919C133.573 39.4248 133.686 39.3116 133.917 39.3116H133.998C134.213 39.3116 134.342 39.4086 134.342 39.5542Z" fill="#DE9B39"/>
<path d="M141.206 37.0317V38.9667C141.201 39.3289 141.237 39.6905 141.314 40.0446C141.314 40.2117 140.959 40.2441 140.846 40.2441C140.636 40.2441 140.593 39.8829 140.544 39.6404C140.363 39.8464 140.139 40.0108 139.889 40.1224C139.638 40.234 139.366 40.2902 139.092 40.2872C138.258 40.2872 137.618 39.8829 137.618 38.9936C137.618 37.533 139.162 37.436 140.485 37.4198V36.9994C140.485 36.6113 140.249 36.2771 139.533 36.2771C139.064 36.2952 138.604 36.4186 138.188 36.6383C138.07 36.6383 137.887 36.2987 137.887 36.2071C137.887 35.9807 138.646 35.6681 139.501 35.6681C140.55 35.6735 141.206 36.1747 141.206 37.0317ZM138.393 38.9559C138.383 39.0541 138.395 39.1533 138.429 39.246C138.463 39.3387 138.518 39.4225 138.589 39.491C138.66 39.5595 138.745 39.611 138.839 39.6415C138.933 39.6721 139.032 39.6809 139.13 39.6673C139.384 39.6634 139.635 39.6084 139.868 39.5057C140.101 39.4029 140.311 39.2545 140.485 39.0691V38.0773C139.56 38.0773 138.366 38.0773 138.366 38.9559H138.393Z" fill="#DE9B39"/>
<path d="M146.171 37.0748V40.0716C146.171 40.1955 146.069 40.2656 145.827 40.2656H145.794C145.552 40.2656 145.45 40.1955 145.45 40.0716V37.1449C145.459 37.0284 145.442 36.9115 145.4 36.8024C145.358 36.6934 145.293 36.5951 145.208 36.5146C145.124 36.434 145.022 36.3734 144.912 36.337C144.801 36.3006 144.683 36.2894 144.568 36.3041C144.355 36.3187 144.148 36.3805 143.962 36.4849C143.776 36.5892 143.616 36.7337 143.492 36.9078V40.0716C143.492 40.1955 143.39 40.2656 143.148 40.2656H143.115C142.873 40.2656 142.771 40.1955 142.771 40.0716V37.0425C142.776 36.6803 142.74 36.3187 142.664 35.9645C142.664 35.7975 143.019 35.7651 143.132 35.7651C143.336 35.7651 143.379 36.1101 143.433 36.3041C143.6 36.1089 143.806 35.9507 144.037 35.8394C144.269 35.728 144.521 35.666 144.778 35.6573C144.967 35.6404 145.157 35.6656 145.335 35.7311C145.514 35.7967 145.675 35.901 145.808 36.0365C145.941 36.172 146.043 36.3354 146.106 36.5149C146.168 36.6945 146.191 36.8857 146.171 37.0748Z" fill="#DE9B39"/>
<path d="M150.829 34.8435V35.7543H151.555C151.674 35.7543 151.727 35.8298 151.727 36.0131V36.1155C151.727 36.2987 151.674 36.3742 151.555 36.3742H150.829V39.0691C150.829 39.6081 151.044 39.7105 151.297 39.7105C151.42 39.7075 151.543 39.6931 151.663 39.6674C151.787 39.6674 151.846 40.0015 151.846 40.0716C151.846 40.3034 151.448 40.3303 151.216 40.3303C151.062 40.3366 150.908 40.3095 150.765 40.2508C150.622 40.1921 150.493 40.1032 150.388 39.9901C150.282 39.8771 150.202 39.7426 150.153 39.5957C150.104 39.4489 150.087 39.2932 150.103 39.1392V36.3472H149.673C149.554 36.3472 149.5 36.2718 149.5 36.0885V35.9861C149.5 35.8029 149.554 35.7274 149.673 35.7274H150.103L150.205 34.8165C150.205 34.6979 150.302 34.6279 150.485 34.6279H150.571C150.748 34.6279 150.829 34.6979 150.829 34.8435Z" fill="#DE9B39"/>
<path d="M156.714 38.0073C156.714 39.5057 156.036 40.298 154.751 40.298C153.465 40.298 152.75 39.4949 152.75 38.0073C152.75 36.5197 153.47 35.6735 154.751 35.6735C156.031 35.6735 156.714 36.5035 156.714 38.0073ZM153.513 38.0073C153.513 39.1553 153.885 39.6943 154.729 39.6943C155.574 39.6943 155.961 39.1553 155.961 38.0073C155.961 36.8593 155.574 36.3149 154.729 36.3149C153.885 36.3149 153.513 36.8323 153.513 37.9911V38.0073Z" fill="#DE9B39"/>
<path d="M161.34 37.0317V38.9667C161.335 39.3286 161.37 39.69 161.442 40.0446C161.442 40.2117 161.092 40.244 160.979 40.244C160.77 40.244 160.727 39.8829 160.678 39.6404C160.497 39.8464 160.273 40.0108 160.022 40.1224C159.772 40.234 159.5 40.2902 159.226 40.2872C158.392 40.2872 157.752 39.8829 157.752 38.9936C157.752 37.533 159.296 37.4359 160.619 37.4198V36.9994C160.619 36.6113 160.382 36.2771 159.667 36.2771C159.197 36.2952 158.738 36.4186 158.322 36.6383C158.204 36.6383 158.021 36.2987 158.021 36.2071C158.021 35.9807 158.779 35.6681 159.635 35.6681C160.71 35.6735 161.34 36.1747 161.34 37.0317ZM158.527 38.9559C158.517 39.0541 158.529 39.1533 158.563 39.246C158.597 39.3387 158.652 39.4225 158.723 39.491C158.793 39.5595 158.879 39.611 158.973 39.6415C159.066 39.6721 159.166 39.6809 159.263 39.6673C159.518 39.6634 159.769 39.6084 160.002 39.5057C160.235 39.4029 160.444 39.2545 160.619 39.0691V38.0773C159.721 38.0773 158.527 38.0773 158.527 38.9559ZM159.602 34.1428C159.808 34.4398 159.974 34.7623 160.097 35.1022C160.097 35.1668 160.038 35.1884 159.904 35.1884C159.824 35.1945 159.743 35.1842 159.668 35.1583C159.592 35.1323 159.522 35.0912 159.463 35.0375C158.736 34.2074 158.65 34.1266 158.65 34.0296C158.65 33.9326 158.79 33.9218 159.064 33.9218C159.339 33.9218 159.522 33.9811 159.619 34.1428H159.602Z" fill="#DE9B39"/>
<path d="M166.332 37.0748V40.0716C166.332 40.1955 166.23 40.2656 165.988 40.2656H165.95C165.708 40.2656 165.606 40.1955 165.606 40.0716V37.1449C165.615 37.0284 165.598 36.9114 165.556 36.8024C165.514 36.6934 165.448 36.595 165.364 36.5145C165.279 36.434 165.178 36.3734 165.067 36.337C164.957 36.3006 164.839 36.2893 164.724 36.3041C164.511 36.3187 164.304 36.3805 164.118 36.4848C163.932 36.5892 163.771 36.7337 163.648 36.9077V40.0716C163.648 40.1955 163.546 40.2656 163.303 40.2656H163.26C163.018 40.2656 162.911 40.1955 162.911 40.0716V37.0425C162.915 36.6805 162.881 36.3191 162.809 35.9645C162.809 35.7974 163.164 35.7651 163.277 35.7651C163.481 35.7651 163.524 36.11 163.578 36.3041C163.745 36.1089 163.951 35.9507 164.182 35.8393C164.414 35.728 164.666 35.666 164.923 35.6573C165.113 35.6378 165.305 35.6611 165.485 35.7255C165.666 35.7899 165.829 35.8938 165.964 36.0296C166.099 36.1655 166.202 36.3298 166.266 36.5106C166.33 36.6914 166.352 36.8842 166.332 37.0748Z" fill="#DE9B39"/>
<path d="M170.99 34.8435V35.7543H171.716C171.835 35.7543 171.889 35.8298 171.889 36.0131V36.1155C171.889 36.2987 171.835 36.3742 171.716 36.3742H170.99V39.0691C170.99 39.6081 171.205 39.7105 171.458 39.7105C171.583 39.7069 171.707 39.6925 171.829 39.6674C171.948 39.6674 172.007 40.0015 172.007 40.0716C172.007 40.3034 171.609 40.3303 171.378 40.3303C171.223 40.3366 171.069 40.3095 170.926 40.2508C170.783 40.1921 170.654 40.1032 170.549 39.9901C170.443 39.8771 170.363 39.7426 170.314 39.5957C170.265 39.4489 170.248 39.2932 170.264 39.1392V36.3472H169.834C169.715 36.3472 169.662 36.2718 169.662 36.0885V35.9861C169.662 35.8029 169.715 35.7274 169.834 35.7274H170.264L170.366 34.8165C170.366 34.6979 170.463 34.6279 170.646 34.6279H170.732C170.915 34.6279 170.99 34.6979 170.99 34.8435Z" fill="#DE9B39"/>
<path d="M176.869 38.0073C176.869 39.5056 176.197 40.2979 174.911 40.2979C173.626 40.2979 172.91 39.4949 172.91 38.0073C172.91 36.5197 173.626 35.6735 174.911 35.6735C176.197 35.6735 176.869 36.5035 176.869 38.0073ZM173.669 38.0073C173.669 39.1553 174.04 39.6943 174.89 39.6943C175.74 39.6943 176.122 39.1553 176.122 38.0073C176.122 36.8592 175.734 36.3149 174.89 36.3149C174.045 36.3149 173.669 36.8323 173.669 37.9911V38.0073ZM175.347 34.2344L175.793 34.9944C175.824 35.0393 175.842 35.0912 175.847 35.1453C175.847 35.2207 175.777 35.2746 175.637 35.2746C175.584 35.2783 175.531 35.2701 175.482 35.2505C175.433 35.2309 175.388 35.2005 175.352 35.1614L174.938 34.5201L174.4 35.1614C174.322 35.2361 174.218 35.2768 174.11 35.2746C173.981 35.2746 173.916 35.2315 173.916 35.1507C173.92 35.0955 173.937 35.0421 173.964 34.9944L174.449 34.2344C174.493 34.1715 174.553 34.1212 174.623 34.0882C174.693 34.0552 174.77 34.0406 174.847 34.0457H175.062C175.121 34.051 175.177 34.0704 175.227 34.1023C175.276 34.1342 175.318 34.1777 175.347 34.229V34.2344ZM177.246 32.9193C177.246 33.0109 177.154 33.0918 176.433 33.9218C176.374 33.975 176.304 34.0158 176.228 34.0417C176.152 34.0676 176.072 34.0782 175.992 34.0727C175.853 34.0727 175.793 34.0727 175.793 33.9865C175.917 33.646 176.085 33.3234 176.294 33.0271C176.39 32.8654 176.552 32.8061 176.832 32.8061C177.111 32.8061 177.246 32.833 177.246 32.9193Z" fill="#DE9B39"/>
<path d="M179.037 33.938V34.4446C179.037 34.5686 178.93 34.6387 178.688 34.6387H178.585C178.343 34.6387 178.241 34.5686 178.241 34.4446V33.938C178.241 33.814 178.343 33.7493 178.585 33.7493H178.688C178.93 33.7655 179.037 33.814 179.037 33.938ZM179 35.9214V40.0932C179 40.2171 178.897 40.2872 178.655 40.2872H178.623C178.381 40.2872 178.273 40.2171 178.273 40.0932V35.9214C178.273 35.7975 178.381 35.7328 178.623 35.7328H178.655C178.897 35.7112 179 35.7759 179 35.9214Z" fill="#DE9B39"/>
<path d="M186.858 34.7303V34.8435C186.858 35.0267 186.805 35.1076 186.686 35.1076H186.299V38.9936C186.294 39.3556 186.329 39.717 186.401 40.0716C186.401 40.2387 186.046 40.271 185.933 40.271C185.729 40.271 185.686 39.9099 185.632 39.6673C185.462 39.8661 185.252 40.0265 185.015 40.1379C184.779 40.2494 184.522 40.3095 184.26 40.3141C183.228 40.3141 182.587 39.344 182.587 38.0073C182.587 36.5035 183.314 35.6897 184.341 35.6897C184.791 35.6866 185.227 35.8431 185.573 36.1316V35.0806H184.777C184.658 35.0806 184.605 34.9998 184.605 34.8165V34.7303C184.605 34.5524 184.658 34.4716 184.777 34.4716H185.589V33.9326C185.589 33.8086 185.691 33.7439 185.933 33.7439H185.965C186.208 33.7439 186.315 33.8086 186.315 33.9326V34.4716H186.702C186.805 34.4716 186.858 34.5524 186.858 34.7303ZM185.573 36.7029C185.274 36.4464 184.891 36.3083 184.497 36.3149C183.717 36.3149 183.33 36.8916 183.33 37.9318C183.33 39.0475 183.712 39.6781 184.406 39.6781C184.631 39.6658 184.851 39.6062 185.053 39.5031C185.254 39.4001 185.431 39.2559 185.573 39.0799V36.7029Z" fill="#DE9B39"/>
<path d="M191.167 37.0317V38.9667C191.163 39.3286 191.197 39.69 191.269 40.0446C191.269 40.2117 190.92 40.2441 190.807 40.2441C190.597 40.2441 190.554 39.8829 190.505 39.6404C190.324 39.8464 190.1 40.0108 189.85 40.1224C189.599 40.234 189.327 40.2902 189.053 40.2872C188.219 40.2872 187.579 39.8829 187.579 38.9936C187.579 37.533 189.123 37.436 190.446 37.4198V36.9994C190.446 36.6113 190.21 36.2771 189.494 36.2771C189.025 36.2952 188.565 36.4186 188.149 36.6383C188.031 36.6383 187.848 36.2987 187.848 36.2071C187.848 35.9807 188.607 35.6681 189.462 35.6681C190.538 35.6735 191.167 36.1747 191.167 37.0317ZM188.354 38.9559C188.34 39.0552 188.349 39.1564 188.38 39.2516C188.411 39.3469 188.464 39.4336 188.535 39.505C188.605 39.5765 188.691 39.6307 188.785 39.6635C188.88 39.6964 188.981 39.7069 189.08 39.6943C189.334 39.6904 189.585 39.6354 189.818 39.5326C190.051 39.4299 190.261 39.2814 190.435 39.096V38.0773C189.548 38.0773 188.354 38.0773 188.354 38.9559Z" fill="#DE9B39"/>
<path d="M28.7819 25.9287C35.9533 18.5203 44.8637 13.0315 54.6985 9.96402C54.5318 10.0179 54.365 10.0664 54.2037 10.1257C52.0548 6.50851 48.8306 3.65543 44.9825 1.96613C41.1345 0.276822 36.8555 -0.164075 32.7449 0.705194C28.6343 1.57446 24.898 3.71035 22.0595 6.81366C19.2209 9.91698 17.4223 13.8322 16.9155 18.011C19.3383 18.4194 21.6476 19.3358 23.6925 20.7002C25.7374 22.0646 27.4717 23.8463 28.7819 25.9287Z" fill="url(#paint0_linear)"/>
<path d="M28.7822 25.9287C28.8145 25.9772 28.8468 26.0203 28.8737 26.0688H31.9505C32.5535 26.0706 33.1412 26.2591 33.6332 26.6083C34.1252 26.9576 34.4975 27.4506 34.6993 28.0199H38.938C39.3316 28.0184 39.7214 28.0969 40.0839 28.2507C40.4463 28.4045 40.7738 28.6304 41.0467 28.9146L41.1704 29.0386C50.9496 22.0857 61.3583 18.5554 67.2161 20.2316H67.1731C67.3158 18.8778 67.1725 17.5091 66.7526 16.2145C66.3327 14.9198 65.6455 13.7282 64.7359 12.7171C63.8262 11.7059 62.7143 10.898 61.4726 10.3456C60.2308 9.79333 58.8869 9.50904 57.5283 9.51127C56.5743 9.51345 55.626 9.65879 54.715 9.94246C44.8722 13.0136 35.9558 18.5102 28.7822 25.9287Z" fill="url(#paint1_linear)"/>
<path d="M14.5542 52.7323H20.9231C21.1974 52.1178 21.461 51.5088 21.7838 50.9051C19.5338 52.0299 17.0674 52.6533 14.5542 52.7323Z" fill="url(#paint2_linear)"/>
<path d="M67.2161 20.2317C61.3583 18.5554 50.9496 22.0858 41.1542 29.0386L41.6007 29.5022H43.166C43.704 28.9147 44.4839 28.02 45.3177 28.02H48.8787C49.7232 28.02 50.4386 29.0171 50.9496 29.5022H51.7727C52.0846 29.0386 52.5526 28.0739 53.6338 28.02H57.5983C58.0049 28.0235 58.4064 28.1121 58.7769 28.2801C59.1474 28.4481 59.4788 28.6918 59.7499 28.9955L63.8381 33.5769C64.3175 34.1109 64.582 34.8043 64.5804 35.5226C64.5804 35.7867 64.5804 36.6006 64.5804 36.7084C64.5492 37.3742 64.2953 38.0102 63.8596 38.5139L61.3045 41.7047C61.0291 42.0427 60.682 42.3149 60.2884 42.5013C59.8947 42.6878 59.4645 42.7839 59.0291 42.7827H34.5917C34.3536 43.2774 33.9809 43.6947 33.5165 43.9865C33.0521 44.2783 32.5148 44.4327 31.9667 44.432H28.8898C27.1691 47.2087 24.7104 49.4502 21.7894 50.9051C21.4881 51.5088 21.203 52.1179 20.9287 52.7323H61.1646C61.3905 52.7323 61.6165 52.7323 61.8424 52.7323C65.7888 52.7275 69.6056 51.3205 72.6141 48.7614C75.6226 46.2023 77.6278 42.6571 78.2731 38.7561C78.9184 34.8551 78.1621 30.8512 76.1385 27.4563C74.1149 24.0615 70.9553 21.4958 67.2215 20.2155L67.2161 20.2317Z" fill="url(#paint3_linear)"/>
<path d="M61.6752 35.5226L57.6086 30.9466H53.6657L52.7781 32.6013H50.336L48.932 30.9466H45.3872L43.8541 32.5635H40.6267L39.0452 30.9466H32.0954V28.9901H27.3348C25.9162 26.0104 23.5286 23.6026 20.5641 22.1619C17.5995 20.7213 14.2342 20.3335 11.0206 21.0621C7.80705 21.7908 4.93626 23.5927 2.8796 26.1719C0.822938 28.7511 -0.297363 31.9544 -0.297363 35.2558C-0.297363 38.5571 0.822938 41.7604 2.8796 44.3396C4.93626 46.9188 7.80705 48.7207 11.0206 49.4494C14.2342 50.1781 17.5995 49.7902 20.5641 48.3496C23.5286 46.909 25.9162 44.5011 27.3348 41.5214H32.1169V39.9045H59.0448L61.5945 36.6814H32.1169V35.5226H61.6752ZM8.87902 40.713C7.79971 40.7258 6.74095 40.4168 5.83729 39.8253C4.93363 39.2338 4.22586 38.3865 3.80393 37.391C3.38199 36.3955 3.26494 35.2968 3.46764 34.2345C3.67034 33.1722 4.18364 32.1943 4.94232 31.425C5.701 30.6557 6.6708 30.1297 7.7285 29.914C8.78619 29.6982 9.88403 29.8024 10.8825 30.2133C11.881 30.6241 12.735 31.3231 13.3361 32.2215C13.9371 33.1198 14.2581 34.1769 14.2582 35.2585C14.2625 36.6952 13.6992 38.0753 12.6913 39.0973C11.6834 40.1193 10.3129 40.7001 8.87902 40.713Z" fill="#DE9B39"/>
</g>
<defs>
<linearGradient id="paint0_linear" x1="5.97975" y1="13.0901" x2="44.8225" y2="13.0901" gradientUnits="userSpaceOnUse">
<stop stop-color="#2BA8DF"/>
<stop offset="0.51" stop-color="#0079C1"/>
<stop offset="1" stop-color="#04679D"/>
</linearGradient>
<linearGradient id="paint1_linear" x1="13.1289" y1="19.283" x2="64.8063" y2="19.283" gradientUnits="userSpaceOnUse">
<stop stop-color="#2BA8DF"/>
<stop offset="0.54" stop-color="#0079C1"/>
<stop offset="1" stop-color="#04679D"/>
</linearGradient>
<linearGradient id="paint2_linear" x1="339.161" y1="280.214" x2="1033.7" y2="280.214" gradientUnits="userSpaceOnUse">
<stop stop-color="#2BA8DF"/>
<stop offset="0.54" stop-color="#0079C1"/>
<stop offset="1" stop-color="#04679D"/>
</linearGradient>
<linearGradient id="paint3_linear" x1="5264.88" y1="3201.53" x2="11428.2" y2="3201.53" gradientUnits="userSpaceOnUse">
<stop stop-color="#2BA8DF"/>
<stop offset="0.54" stop-color="#0079C1"/>
<stop offset="1" stop-color="#04679D"/>
</linearGradient>
<clipPath id="clip0">
<rect width="200" height="53" fill="white"/>
</clipPath>
</defs>
</svg>
