<svg width="171" height="224" viewBox="0 0 171 224" fill="none" xmlns="http://www.w3.org/2000/svg">
<g opacity="0.1" clip-path="url(#clip0)">
<path d="M4.29283 144.806C0.181443 134.322 5.36535 122.449 15.8491 118.338L74.6143 95.2919C79.3795 93.4231 81.7359 88.0261 79.8672 83.2609L60.7527 34.5203C55.1464 20.2247 38.9552 13.1555 24.6596 18.7618L0.462141 28.2512C-13.8335 33.8575 -20.9027 50.0487 -15.2964 64.3443L-9.7383 78.5171L28.2862 63.6051C31.1502 62.482 34.3817 63.8928 35.5049 66.7568C36.628 69.6208 35.2171 72.8523 32.3532 73.9755L-30.2145 98.5125C-44.5102 104.119 -51.5793 120.31 -45.973 134.606L-36.4836 158.803C-30.8773 173.099 -14.6862 180.168 -0.390492 174.562L13.7823 169.003L4.29283 144.806ZM10.765 54.5227C7.90099 55.6459 4.66953 54.235 3.54636 51.371C2.42319 48.507 3.83408 45.2756 6.69807 44.1524C9.56206 43.0293 12.7935 44.4401 13.9167 47.3041C15.0399 50.1681 13.629 53.3996 10.765 54.5227Z" fill="white"/>
<path d="M94.9207 49.4384L80.7479 54.9965L90.2374 79.194C94.3488 89.6777 89.1649 101.551 78.6811 105.662L19.9159 128.708C15.1507 130.577 12.7943 135.974 14.663 140.739L33.7775 189.48C39.3838 203.775 55.575 210.844 69.8706 205.238L94.0681 195.749C108.364 190.142 115.433 173.951 109.827 159.656L104.268 145.483L66.244 160.395C63.38 161.518 60.1485 160.107 59.0253 157.243C57.9022 154.379 59.313 151.148 62.177 150.025L124.745 125.488C139.04 119.881 146.11 103.69 140.503 89.3944L131.014 65.197C125.407 50.9013 109.216 43.8321 94.9207 49.4384ZM83.7652 169.477C86.6292 168.354 89.8607 169.765 90.9838 172.629C92.107 175.493 90.6961 178.724 87.8321 179.848C84.9681 180.971 81.7367 179.56 80.6135 176.696C79.4903 173.832 80.9012 170.6 83.7652 169.477Z" fill="white"/>
</g>
<defs>
<clipPath id="clip0">
<rect width="190.11" height="190.11" fill="white" transform="translate(-75.9326 58.2108) rotate(-21.4135)"/>
</clipPath>
</defs>
</svg>
