<svg width="193" height="224" viewBox="0 0 193 224" fill="none" xmlns="http://www.w3.org/2000/svg">
<g opacity="0.1" clip-path="url(#clip0)">
<path d="M61.9917 119.906C69.2503 114.14 70.46 103.581 64.6936 96.3228C58.9273 89.0642 48.3685 87.8545 41.11 93.6208C33.8514 99.3871 32.6417 109.946 38.408 117.204C44.1744 124.463 54.7331 125.673 61.9917 119.906Z" fill="white"/>
<path d="M75.47 136.872C57.0125 151.535 39.1588 162.174 23.8033 167.625C13.8537 171.174 4.37519 172.896 -3.58732 172.602C-12.025 172.302 -18.4184 169.737 -22.0165 165.208C-28.9216 156.516 -26.1513 140.436 -14.5641 122.178C-5.09255 107.223 9.95993 91.1233 27.8153 76.9387C45.3565 63.0037 64.1458 52.0913 80.7351 46.2576C90.4336 42.8233 99.5517 41.1312 107.102 41.2823C115.337 41.4879 121.553 43.9374 125.068 48.362C132.243 57.3944 128.846 74.9965 116.185 94.3215C107.24 108.004 92.7756 123.124 75.47 136.872ZM32.8331 83.2013C15.8941 96.658 1.09337 112.43 -7.76912 126.431C-18.4063 143.251 -19.4299 155.509 -15.7069 160.195C-11.8384 165.065 1.35057 167.1 21.1241 160.06C35.6379 154.893 52.7277 144.69 70.4784 130.589C87.1294 117.361 100.991 102.933 109.479 89.9122C121.369 71.7124 122.658 58.1762 118.81 53.3328C116.835 50.8456 112.62 49.4108 106.923 49.2817C100.349 49.1235 92.1979 50.6884 83.4196 53.7759C67.6667 59.3723 49.6936 69.8071 32.8331 83.2013Z" fill="white"/>
<path d="M73.7689 195.958C71.0985 198.079 68.2846 199.375 65.3798 199.804C54.4133 201.427 41.8535 190.993 31.8144 171.851C23.5702 156.152 17.1773 135.096 13.8131 112.531C10.5205 90.3782 10.438 68.665 13.6564 51.3756C15.529 41.2618 18.6034 32.4993 22.5314 26.048C26.8113 19.0181 32.0475 14.8584 37.617 14.021C49.0224 12.3054 62.5959 24.0699 72.9904 44.6799C80.3818 59.3058 86.2454 79.373 89.5233 101.238C92.9947 124.53 93.2788 145.314 90.3468 161.351C88.4418 171.747 85.1889 180.822 80.9674 187.549C78.7778 191.082 76.3347 193.92 73.7689 195.958ZM17.7576 111.959L21.7284 111.367C24.9191 132.746 31.1618 153.452 38.9028 168.142C48.1638 185.766 58.2863 192.756 64.1692 191.883C65.6216 191.669 67.1803 190.943 68.7773 189.675C73.9873 185.536 79.5613 175.727 82.4665 159.925C85.2493 144.775 84.936 124.868 81.6026 102.449C78.4682 81.4091 72.8627 62.2045 65.8604 48.3371C56.0414 28.9353 44.9715 21.0749 38.8222 21.9887C35.6978 22.4637 32.3405 25.3869 29.3787 30.2594C25.9495 35.8874 23.2439 43.7163 21.5521 52.8751C18.5038 69.3035 18.5738 90.0872 21.7492 111.393L17.7576 111.959Z" fill="white"/>
<path d="M133.472 148.657C126.351 154.315 113.907 157.196 98.0347 156.568C80.3137 155.87 58.8945 150.894 37.6487 142.534C16.7888 134.337 -2.03609 123.542 -15.4332 112.107C-23.259 105.427 -29.3082 98.4041 -32.9514 91.7754C-36.9058 84.5399 -37.912 77.9515 -35.8313 72.6688C-31.6276 61.9415 -14.6517 56.0569 8.40412 57.3419C24.7458 58.2384 45.0738 63.1852 65.6364 71.2763C87.5653 79.9048 105.729 90.0296 118.132 100.589C126.177 107.436 132.428 114.768 136.169 121.789C140.144 129.265 141.102 136.062 138.985 141.459C137.936 144.171 136.064 146.598 133.472 148.657ZM40.5985 135.066C60.7283 142.989 81.7979 147.901 98.3598 148.538C118.237 149.316 129.357 144.069 131.543 138.489C133.824 132.706 128.989 120.276 112.983 106.686C101.226 96.7245 83.8438 87.0462 62.7335 78.7495C42.9219 70.9586 23.4758 66.2081 7.98509 65.3614C-13.7238 64.1593 -26.0565 69.8144 -28.3374 75.5978C-29.5067 78.5338 -28.6287 82.918 -25.8938 87.9195C-22.7228 93.685 -17.303 99.9699 -10.2112 105.994C2.5142 116.852 20.5365 127.175 40.5985 135.066Z" fill="white"/>
</g>
<defs>
<clipPath id="clip0">
<rect width="200.62" height="200.62" fill="white" transform="translate(-89.1729 90.6176) rotate(-38.4642)"/>
</clipPath>
</defs>
</svg>
