<svg width="24" height="24" viewBox="0 0 24 24" fill="none" xmlns="http://www.w3.org/2000/svg">
<path d="M19.1899 11.8857C19.1899 11.3828 18.7874 10.9754 18.2913 10.9754H12.792V5.48421V5.48404C12.792 4.97943 12.3825 4.57015 11.8782 4.57015C11.3736 4.57015 10.9642 4.97943 10.9642 5.48404V11.8821C10.9642 12.3869 11.3736 12.7962 11.8782 12.7962H18.2918C18.7874 12.7962 19.1899 12.3886 19.1899 11.8857ZM21.9343 11.8799C21.9343 17.4337 17.4327 21.936 11.8801 21.936C6.32715 21.936 1.82592 17.4337 1.82592 11.8799C1.82592 6.32614 6.32715 1.82389 11.8801 1.82389C17.4327 1.82389 21.9343 6.32614 21.9343 11.8799ZM23.7599 11.8799C23.7599 5.31877 18.4411 0 11.8801 0C5.31877 0 0 5.31877 0 11.8799C0 18.4411 5.31877 23.7599 11.8801 23.7599C18.4411 23.7599 23.7599 18.4411 23.7599 11.8799Z" fill="#6E798C"/>
</svg>
