<svg width="24" height="24" viewBox="0 0 24 24" fill="none" xmlns="http://www.w3.org/2000/svg">
<path d="M11.9603 13.3991C15.5071 13.3991 18.3839 10.5222 18.3839 6.97543C18.3839 3.42866 15.507 0.571472 11.9603 0.571472C8.41349 0.571472 5.53662 3.44834 5.53662 6.97543C5.53662 10.5025 8.41344 13.3991 11.9603 13.3991ZM11.9603 2.24636C14.5612 2.24636 16.6893 4.37442 16.6893 6.97543C16.6893 9.57645 14.5612 11.7045 11.9603 11.7045C9.35929 11.7045 7.23118 9.5764 7.23118 6.97539C7.23118 4.37438 9.35925 2.24636 11.9603 2.24636Z" fill="#6E798C"/>
<path d="M0.847282 23.4286H23.1527C23.6256 23.4286 24 23.0542 24 22.5813C24 18.1478 20.3941 14.5222 15.9409 14.5222H8.05912C3.62562 14.5222 0 18.1281 0 22.5813C0 23.0542 0.374378 23.4286 0.847282 23.4286ZM8.05912 16.2167H15.9409C19.1724 16.2167 21.8325 18.6207 22.2463 21.734H1.75369C2.16747 18.6404 4.8276 16.2167 8.05912 16.2167Z" fill="#6E798C"/>
</svg>
