<svg width="128" height="144" viewBox="0 0 128 144" fill="none" xmlns="http://www.w3.org/2000/svg">
<rect width="128" height="144" rx="4" fill="url(#paint0_linear)"/>
<path d="M42.125 78.25C42.125 73.5112 45.98 69.6562 50.7188 69.6562H77.2812C79.4352 69.6562 81.1875 67.9039 81.1875 65.75V43.7188C81.1875 37.257 75.9305 32 69.4688 32H58.5312C52.0695 32 46.8125 37.257 46.8125 43.7188V50.125H64C65.2946 50.125 66.3438 51.1742 66.3438 52.4688C66.3438 53.7633 65.2946 54.8125 64 54.8125H35.7188C29.257 54.8125 24 60.0695 24 66.5312V77.4688C24 83.9305 29.257 89.1875 35.7188 89.1875H42.125V78.25ZM58.5312 43.875C57.2367 43.875 56.1875 42.8258 56.1875 41.5312C56.1875 40.2367 57.2367 39.1875 58.5312 39.1875C59.8258 39.1875 60.875 40.2367 60.875 41.5312C60.875 42.8258 59.8258 43.875 58.5312 43.875Z" fill="white"/>
<path d="M92.2812 54.8125H85.875V65.75C85.875 70.4888 82.02 74.3438 77.2812 74.3438H50.7188C48.5648 74.3438 46.8125 76.0961 46.8125 78.25V100.281C46.8125 106.743 52.0695 112 58.5312 112H69.4688C75.9305 112 81.1875 106.743 81.1875 100.281V93.875H64C62.7054 93.875 61.6562 92.8258 61.6562 91.5312C61.6562 90.2367 62.7054 89.1875 64 89.1875H92.2812C98.743 89.1875 104 83.9305 104 77.4688V66.5312C104 60.0695 98.743 54.8125 92.2812 54.8125ZM69.4688 100.125C70.7633 100.125 71.8125 101.174 71.8125 102.469C71.8125 103.763 70.7633 104.812 69.4688 104.812C68.1742 104.812 67.125 103.763 67.125 102.469C67.125 101.174 68.1742 100.125 69.4688 100.125Z" fill="white"/>
<defs>
<linearGradient id="paint0_linear" x1="128" y1="144" x2="4.76837e-07" y2="-4.23855e-07" gradientUnits="userSpaceOnUse">
<stop stop-color="#FF6188"/>
<stop offset="1" stop-color="#FFB199"/>
</linearGradient>
</defs>
</svg>
