<svg width="128" height="144" viewBox="0 0 128 144" fill="none" xmlns="http://www.w3.org/2000/svg">
<rect width="128" height="144" rx="4" fill="url(#paint0_linear)"/>
<path d="M63.9335 78.64C67.6301 78.64 70.6268 75.6433 70.6268 71.9466C70.6268 68.25 67.6301 65.2533 63.9335 65.2533C60.2369 65.2533 57.2402 68.25 57.2402 71.9466C57.2402 75.6433 60.2369 78.64 63.9335 78.64Z" fill="white"/>
<path d="M63.9333 87.28C54.5333 87.28 46.32 86.1734 40.1733 84.0667C36.1867 82.7067 32.8 80.8934 30.3867 78.8267C27.8267 76.64 26.4667 74.2534 26.4667 71.9467C26.4667 67.52 31.32 63.1867 39.4667 60.36C46.1333 58.04 54.8267 56.7467 63.92 56.7467C72.8533 56.7467 81.4267 58 88.0533 60.2934C91.9333 61.6267 95.2 63.36 97.52 65.28C100.04 67.3867 101.373 69.6934 101.373 71.9467C101.373 76.5467 95.9467 81.2 87.2 84.0934C81.0133 86.1467 72.7467 87.28 63.9333 87.28ZM63.9333 59.9467C55.3067 59.9467 46.7733 61.2 40.5333 63.3734C33.04 65.9867 29.68 69.56 29.68 71.9467C29.68 74.4267 33.2933 78.3334 41.2133 81.04C47.0267 83.0267 54.8933 84.08 63.9333 84.08C72.4133 84.08 80.32 83.0134 86.2 81.0534C94.4267 78.32 98.1867 74.4134 98.1867 71.9467C98.1867 70.68 97.2267 69.1867 95.48 67.7334C93.4667 66.0534 90.5333 64.52 87.0267 63.3067C80.72 61.1467 72.52 59.9467 63.9333 59.9467Z" fill="white"/>
<path d="M48.7467 105.307C47.3867 105.307 46.1867 105.013 45.1734 104.427C41.3467 102.213 40.0134 95.8401 41.6267 87.3734C42.9467 80.4268 46.1734 72.2668 50.7201 64.3868C55.1867 56.6534 60.5467 49.8534 65.8401 45.2534C68.9334 42.5601 72.0667 40.5867 74.8934 39.5467C77.9734 38.4134 80.6401 38.4134 82.5867 39.5334C86.5734 41.8267 87.8934 48.8667 86.0267 57.8801C84.7067 64.2801 81.5601 72.0001 77.1601 79.6401C72.4667 87.7734 67.4001 94.3334 62.5067 98.6134C59.3334 101.387 56.0667 103.413 53.0801 104.467C51.5201 105.027 50.0534 105.307 48.7467 105.307ZM52.0934 65.1868L53.4801 65.9868C49.1734 73.4534 45.9867 81.4668 44.7601 87.9734C43.2801 95.7734 44.7067 100.467 46.7601 101.653C47.2667 101.947 47.9334 102.107 48.7467 102.107C51.4001 102.107 55.5734 100.427 60.4001 96.2134C65.0267 92.1734 69.8667 85.8801 74.3867 78.0534C78.6267 70.7068 81.6401 63.3201 82.8934 57.2534C84.6401 48.7601 83.1334 43.5601 80.9867 42.3201C79.8934 41.6934 78.1201 41.7734 75.9867 42.5601C73.5201 43.4667 70.7334 45.2401 67.9334 47.6801C62.9067 52.0534 57.7734 58.5601 53.4801 66.0001L52.0934 65.1868Z" fill="white"/>
<path d="M79.1202 105.347C75.4935 105.347 70.8935 103.16 66.0935 99.0267C60.7335 94.4134 55.2802 87.5467 50.7202 79.6667C46.2402 71.9334 43.0402 63.8934 41.6935 57C40.9069 52.9734 40.7602 49.28 41.2669 46.3067C41.8269 43.0667 43.1469 40.76 45.1069 39.6267C49.0802 37.32 55.8402 39.6934 62.7202 45.8134C67.6002 50.1467 72.7202 56.7334 77.1335 64.3601C81.8402 72.4934 85.0002 80.1601 86.2535 86.5334C87.0668 90.6667 87.2002 94.5067 86.6268 97.6267C86.0135 100.947 84.6268 103.307 82.6268 104.467C81.6268 105.053 80.4402 105.347 79.1202 105.347ZM53.4935 78.0667C57.8135 85.5334 63.1735 92.2934 68.1868 96.6001C74.2002 101.773 78.9735 102.893 81.0402 101.693C83.1868 100.453 84.7602 95.3734 83.1335 87.1601C81.9335 81.1334 78.9068 73.8001 74.3735 65.9734C70.1202 58.6267 65.2268 52.32 60.6002 48.2134C54.1202 42.4534 48.8668 41.16 46.7202 42.4C45.6268 43.0267 44.8135 44.6134 44.4268 46.8534C43.9868 49.44 44.1202 52.7467 44.8402 56.3867C46.1202 62.9334 49.1868 70.6267 53.4935 78.0667Z" fill="white"/>
<defs>
<linearGradient id="paint0_linear" x1="128" y1="144" x2="4.76837e-07" y2="-4.23855e-07" gradientUnits="userSpaceOnUse">
<stop stop-color="#4481EB"/>
<stop offset="1" stop-color="#04BEFE"/>
</linearGradient>
</defs>
</svg>
