<svg width="128" height="144" viewBox="0 0 128 144" fill="none" xmlns="http://www.w3.org/2000/svg">
<rect width="128" height="144" rx="4" fill="url(#paint0_linear)"/>
<rect width="128" height="144" rx="4" fill="url(#paint1_linear)"/>
<g clip-path="url(#clip0)">
<path d="M103.959 58.7367C103.967 58.7009 103.98 58.6666 103.986 58.6309C104.009 58.4709 104.004 58.3095 103.973 58.148C103.966 58.1094 103.949 58.0751 103.937 58.038C103.914 57.9594 103.899 57.8808 103.863 57.8065C103.839 57.7565 103.801 57.7179 103.773 57.6722C103.757 57.6479 103.756 57.6208 103.738 57.5965L93.0227 42.5943C92.8712 42.3829 92.6669 42.2472 92.4454 42.1471C92.304 41.8199 92.0511 41.5456 91.7125 41.3999L78.4963 35.6848C78.3163 35.6076 78.1248 35.5676 77.9291 35.5676H50.068C49.8722 35.5676 49.6808 35.6076 49.5007 35.6848L36.2846 41.3999C35.9474 41.5456 35.6945 41.8199 35.553 42.1457C35.333 42.2457 35.1273 42.3829 34.9758 42.5943L24.26 57.5965C24.2429 57.6194 24.2414 57.6479 24.2257 57.6722C24.1971 57.7179 24.16 57.7565 24.1371 57.8065C24.1014 57.8808 24.0857 57.9608 24.0628 58.038C24.0528 58.0751 24.0357 58.1109 24.0285 58.148C23.9957 58.308 23.9928 58.4709 24.0157 58.6309C24.0214 58.6681 24.0343 58.7009 24.0428 58.7367C24.0714 58.8624 24.1157 58.9824 24.1771 59.0981C24.2 59.141 24.2228 59.181 24.25 59.2224C24.27 59.2524 24.2814 59.2867 24.3043 59.3167L62.8812 107.895C62.8927 107.909 62.9112 107.915 62.9227 107.928C63.0455 108.071 63.1884 108.188 63.3542 108.272C63.3799 108.285 63.407 108.294 63.4342 108.305C63.6113 108.382 63.8014 108.435 64.0014 108.435C64.2014 108.435 64.3914 108.382 64.5686 108.305C64.5958 108.294 64.6229 108.285 64.6486 108.272C64.8129 108.188 64.9572 108.071 65.0801 107.928C65.0915 107.915 65.1101 107.909 65.1215 107.895L103.698 59.3167C103.721 59.2882 103.733 59.2524 103.754 59.2224C103.781 59.1824 103.804 59.141 103.827 59.0981C103.886 58.9824 103.93 58.8624 103.959 58.7367ZM50.3652 38.4237H77.6348L87.8777 42.853L77.569 48.4252H50.4309L40.1223 42.853L50.3652 38.4237ZM46.4846 74.1431H81.5153L64 104.17L46.4846 74.1431ZM46.5418 71.2856L51.5425 51.2827H76.5003L82.3069 71.2856H46.5418ZM28.002 57.275L37.1361 44.4875L48.7292 50.7541L43.8714 70.1869L28.0791 57.3193C28.0563 57.2993 28.0262 57.2922 28.002 57.275ZM42.5826 72.823C42.5983 73.0344 42.6526 73.2444 42.7641 73.4345L52.7183 90.5012L31.5253 63.8131L42.5826 72.823ZM75.2816 90.5012L85.2373 73.4345C85.3487 73.2444 85.4016 73.0344 85.4187 72.823L96.4775 63.8131L75.2816 90.5012ZM84.8044 69.6354L79.315 50.7298L90.8638 44.4875L99.998 57.275C99.9737 57.2922 99.9437 57.2993 99.9194 57.3193L84.8044 69.6354Z" fill="white"/>
</g>
<defs>
<linearGradient id="paint0_linear" x1="5" y1="5" x2="128" y2="152" gradientUnits="userSpaceOnUse">
<stop stop-color="#D6FF94"/>
<stop offset="1" stop-color="#3DC24B"/>
</linearGradient>
<linearGradient id="paint1_linear" x1="3.2" y1="-6.11024e-07" x2="145.239" y2="117.316" gradientUnits="userSpaceOnUse">
<stop stop-color="#63F7A1"/>
<stop offset="1" stop-color="#27AE60"/>
</linearGradient>
<clipPath id="clip0">
<rect width="80" height="80" fill="white" transform="translate(24 32)"/>
</clipPath>
</defs>
</svg>
